<?xml version="1.0" standalone="no"?>
<!DOCTYPE svg PUBLIC "-//W3C//DTD SVG 1.1//EN" "http://www.w3.org/Graphics/SVG/1.1/DTD/svg11.dtd" >
<svg xmlns="http://www.w3.org/2000/svg" xmlns:xlink="http://www.w3.org/1999/xlink" version="1.1">
<metadata>
Created by FontForge 20170731 at Thu Feb 13 14:22:00 2014
 By Aleksey,,,
Copyright 2000-2007 Dalton Maag Ltd. All rights reserved. No modification without the prior permission of Dalton Maag Ltd.
</metadata>
<defs>
<font id="InterFace-Bold" horiz-adv-x="315" >
  <font-face 
    font-family="InterFace"
    font-weight="700"
    font-stretch="normal"
    units-per-em="1000"
    panose-1="2 11 8 3 3 2 3 2 2 4"
    ascent="800"
    descent="-200"
    x-height="482"
    cap-height="667"
    bbox="-252 -240 1415 912"
    underline-thickness="20"
    underline-position="-153"
    unicode-range="U+0008-FB04"
  />
<missing-glyph horiz-adv-x="500" 
d="M50 0v750h400v-750h-400zM400 50v650h-300v-650h300z" />
    <glyph glyph-name="f_b" unicode="fb" horiz-adv-x="858" 
d="M83 0v382h-67v100h68v15q0 55 23.5 91t60 56t81.5 28t88 8q38 0 82.5 -4t81.5 -11v-182q21 5 40 8t45 3q60 0 104.5 -21t74 -55.5t44 -78t14.5 -89.5q0 -70 -21 -119.5t-57 -81t-83.5 -46t-100.5 -14.5q-49 0 -97 11t-94 30v535q-12 2 -27 2.5t-26 0.5q-44 0 -74 -16.5
t-30 -57.5v-12h102v-100h-101v-382h-131zM501 103l28 -6t27 -3q62 0 101 39t39 114q0 36 -10 62.5t-28 44t-42 26.5t-51 9q-29 0 -64 -11v-275z" />
    <glyph glyph-name="f_j" unicode="fj" horiz-adv-x="559" 
d="M83 0v382h-67v100h67v17q0 50 17.5 85t46.5 56.5t66.5 31t78.5 9.5q65 0 106.5 -13.5t68.5 -32.5l-61 -95q-18 14 -44 22.5t-61 8.5t-61.5 -17t-26.5 -60v-12h109v-100h-108v-382h-131zM294 -116q25 17 41.5 31.5t25.5 30t12.5 33t3.5 40.5v463h130v-463
q0 -39 -8.5 -70.5t-26 -57.5t-44 -47t-62.5 -40z" />
    <glyph glyph-name="f_k" unicode="fk" horiz-adv-x="826" 
d="M83 0v382h-67v100h68v15q0 55 23.5 91t60 56t81.5 28t88 8q38 0 82 -4t81 -11v-319l151 136h157l-166 -149l190 -333h-147l-138 249l-47 -44v-205h-130v565q-12 2 -27 2.5t-26 0.5q-44 0 -74 -16.5t-30 -57.5v-12h102v-100h-101v-382h-131z" />
    <glyph glyph-name="f_t" unicode="ft" horiz-adv-x="706" 
d="M83 0v382h-67v100h67v17q0 48 13 82t35.5 56.5t53 33t66.5 10.5q48 0 83.5 -7.5t64.5 -21.5l-38 -100q-40 20 -89 20q-25 0 -42 -16.5t-17 -57.5v-16h211v125h130v-125h117v-100h-117v-246q0 -23 10.5 -31.5t20.5 -8.5q20 0 39 10t33 21l47 -89q-33 -22 -69.5 -35.5
t-77.5 -13.5q-25 0 -49 7t-42.5 22t-30 39.5t-11.5 59.5v265h-210v-382h-131z" />
    <glyph glyph-name="f_h" unicode="fh" horiz-adv-x="881" 
d="M83 0v382h-67v100h68v15q0 55 23.5 91t60 56t81.5 28t88 8q38 0 82 -4t81 -11v-215q24 18 57.5 31t80.5 13q49 0 83 -15t56 -42t32 -65.5t10 -85.5v-286h-131v277q0 60 -24.5 86.5t-56.5 26.5t-61 -16.5t-46 -30.5v-343h-130v565q-12 2 -27 2.5t-26 0.5q-44 0 -74 -16.5
t-30 -57.5v-12h102v-100h-101v-382h-131z" />
    <glyph glyph-name="f_f" unicode="ff" horiz-adv-x="675" 
d="M83 0v382h-67v100h67v17q0 48 13 82t35.5 56.5t53 33t66.5 10.5q48 0 83.5 -7.5t64.5 -21.5l-38 -100q-40 20 -89 20q-25 0 -42 -16.5t-17 -57.5v-16h210v17q0 48 13 82t35.5 56.5t53 33t66.5 10.5q48 0 83.5 -7.5t64.5 -21.5l-38 -100q-40 20 -89 20q-25 0 -42 -16.5
t-17 -57.5v-16h109v-100h-108v-382h-131v382h-209v-382h-131z" />
    <glyph glyph-name="f_i" unicode="fi" horiz-adv-x="566" 
d="M371 0v482h130v-482h-130zM83 0v382h-67v100h67v17q0 50 17.5 85t46.5 56.5t66.5 31t78.5 9.5q65 0 106.5 -13.5t68.5 -32.5l-61 -95q-18 14 -44 22.5t-61 8.5t-61.5 -17t-26.5 -60v-12h109v-100h-108v-382h-131z" />
    <glyph glyph-name="f_l" unicode="fl" horiz-adv-x="565" 
d="M83 0v382h-67v100h68v15q0 55 23.5 91t60 56t81.5 28t88 8q38 0 82 -4t81 -11v-665h-130v565q-12 2 -27 2.5t-26 0.5q-44 0 -74 -16.5t-30 -57.5v-12h102v-100h-101v-382h-131z" />
    <glyph glyph-name="f_f_i" unicode="ffi" horiz-adv-x="904" 
d="M83 0v382h-67v100h67v17q0 48 13 82t35.5 56.5t53 33t66.5 10.5q48 0 83.5 -7.5t64.5 -21.5l-38 -100q-40 20 -89 20q-25 0 -42 -16.5t-17 -57.5v-16h208v17q0 50 17.5 85t46.5 56.5t66.5 31t78.5 9.5q65 0 106.5 -13.5t68.5 -32.5l-61 -95q-18 14 -44 22.5t-61 8.5
t-61.5 -17t-26.5 -60v-12h109v-100h-108v-382h-131v382h-207v-382h-131zM709 0v482h130v-482h-130z" />
    <glyph glyph-name="f_f_l" unicode="ffl" horiz-adv-x="903" 
d="M83 0v382h-67v100h67v17q0 48 13 82t35.5 56.5t53 33t66.5 10.5q48 0 83.5 -7.5t64.5 -21.5l-38 -100q-40 20 -89 20q-25 0 -42 -16.5t-17 -57.5v-16h209v15q0 55 23.5 91t60 56t81.5 28t88 8q38 0 82 -4t81 -11v-665h-130v565q-12 2 -27 2.5t-26 0.5q-44 0 -74 -16.5
t-30 -57.5v-12h102v-100h-101v-382h-131v382h-207v-382h-131z" />
    <glyph glyph-name=".notdef" horiz-adv-x="500" 
d="M50 0v750h400v-750h-400zM400 50v650h-300v-650h300z" />
    <glyph glyph-name=".null" horiz-adv-x="0" 
 />
    <glyph glyph-name=".null" horiz-adv-x="0" 
 />
    <glyph glyph-name=".null" horiz-adv-x="0" 
 />
    <glyph glyph-name="nonmarkingreturn" unicode="&#x9;" horiz-adv-x="200" 
 />
    <glyph glyph-name="nonmarkingreturn" unicode="&#xd;" horiz-adv-x="200" 
 />
    <glyph glyph-name="space" unicode=" " horiz-adv-x="200" 
 />
    <glyph glyph-name="exclam" unicode="!" horiz-adv-x="241" 
d="M56 211v456h132v-456h-132zM121 -11q-36 0 -59 24.5t-23 56.5t23 56.5t59 24.5q18 0 32.5 -7t25.5 -18t17 -25.5t6 -30.5t-6 -30.5t-17 -26t-25.5 -18t-32.5 -6.5z" />
    <glyph glyph-name="quotedbl" unicode="&#x22;" horiz-adv-x="416" 
d="M246 371v296h125v-296h-125zM45 371v296h125v-296h-125z" />
    <glyph glyph-name="numbersign" unicode="#" horiz-adv-x="671" 
d="M35 206v114h139v101h-139v113h139v133h114v-133h100v133h113v-133h140v-113h-140v-101h140v-114h-140v-132h-113v132h-100v-132h-114v132h-139zM288 320h100v101h-100v-101z" />
    <glyph glyph-name="dollar" unicode="$" horiz-adv-x="540" 
d="M233 -139v128q-66 8 -121.5 38.5t-90.5 93.5l106 64q28 -45 63.5 -63t80.5 -18q48 0 76.5 18.5t28.5 50.5q0 22 -8 38t-22 28t-32 20.5t-37 16.5q-39 16 -80 32t-74.5 39.5t-55 58t-21.5 88.5q0 41 15.5 72.5t41.5 54t60 36t70 19.5v147h91v-144q59 -7 109 -36.5
t79 -83.5l-110 -57q-23 35 -54 49.5t-68 14.5q-45 0 -73 -18t-28 -50q0 -17 9.5 -30t23.5 -23t30 -17t29 -12q42 -17 84.5 -34.5t77.5 -43t57 -63t22 -94.5q0 -42 -15.5 -75t-41.5 -57t-60 -38.5t-71 -20.5v-129h-91z" />
    <glyph glyph-name="percent" unicode="%" horiz-adv-x="740" 
d="M495 5q-31 14 -52 36t-31.5 50t-10.5 57t10.5 57.5t31.5 50.5t53 35.5t74 13.5t73 -13.5t52 -35.5t31.5 -50t10.5 -57q0 -30 -10.5 -58t-31.5 -50t-52.5 -35.5t-73.5 -13.5t-74 13zM98 375q-31 14 -52 36t-31.5 50t-10.5 57q0 30 10.5 58t31.5 50t52.5 35.5t73.5 13.5
t73.5 -13.5t52.5 -35.5t31.5 -50t10.5 -57q0 -30 -10.5 -58t-31.5 -50t-52.5 -35.5t-73.5 -13.5t-74 13zM523 100q15 -22 45 -22t45 22.5t15 48.5t-15 48.5t-45 22.5t-45 -22.5t-15 -48.5t15 -49zM125 471q15 -23 46 -23q30 0 45 23t15 49t-15 48.5t-45 22.5
q-31 0 -45.5 -22.5t-14.5 -48.5t14 -49zM77 -4l-65 70l655 610l68 -69z" />
    <glyph glyph-name="ampersand" unicode="&#x26;" horiz-adv-x="668" 
d="M494 0l-66 86q-17 -21 -33.5 -39t-37.5 -31t-48 -20t-65 -7q-48 0 -86.5 16.5t-65 43.5t-40.5 63t-14 75q0 60 34.5 119t109.5 101q-20 25 -35.5 53.5t-15.5 64.5q0 33 13.5 59.5t36.5 44.5t55 28t69 10t64.5 -7t48.5 -20t36.5 -30.5t27.5 -39.5l-102 -57
q-13 25 -31.5 41t-43.5 16q-21 0 -35 -11t-14 -30q0 -14 7.5 -28.5t21.5 -31.5l137 -177q28 51 60.5 97t77.5 76l68 -92q-41 -33 -71 -81t-59 -99l148 -193h-152zM251 317q-43 -26 -63.5 -61.5t-20.5 -69.5q0 -18 5.5 -34t16.5 -28.5t27 -20t36 -7.5q34 0 57.5 24t46.5 59z
" />
    <glyph glyph-name="quotesingle" unicode="'" horiz-adv-x="225" 
d="M50 371v296h125v-296h-125z" />
    <glyph glyph-name="parenleft" unicode="(" horiz-adv-x="312" 
d="M282 -57q-115 57 -178.5 157.5t-63.5 240.5q0 139 63.5 240t178.5 158l39 -82q-72 -51 -110.5 -128t-38.5 -188q0 -113 39 -189.5t111 -127.5z" />
    <glyph glyph-name="parenright" unicode=")" horiz-adv-x="312" 
d="M-10 24q72 51 111 127.5t39 189.5q0 111 -38.5 188t-110.5 128l39 82q115 -57 178.5 -158t63.5 -240q0 -140 -63.5 -240.5t-178.5 -157.5z" />
    <glyph glyph-name="asterisk" unicode="*" horiz-adv-x="455" 
d="M80 383l-51 86l109 66l-111 68l57 81l92 -59v100h99v-100l95 59l58 -81l-110 -67l107 -67l-51 -86l-99 61v-105h-99v105z" />
    <glyph glyph-name="plus" unicode="+" horiz-adv-x="540" 
d="M215 77v198h-192v110h192v201h109v-201h192v-110h-192v-198h-109z" />
    <glyph glyph-name="comma" unicode="," horiz-adv-x="233" 
d="M3 -54q23 5 44.5 17t31.5 24q-14 10 -22 28t-8 38q0 30 18 55.5t54 25.5q32 0 53 -23t21 -56q0 -21 -10 -44.5t-31 -45t-54.5 -40.5t-79.5 -31z" />
    <glyph glyph-name="hyphen" unicode="-" horiz-adv-x="330" 
d="M38 201v119h254v-119h-254z" />
    <glyph glyph-name="period" unicode="." horiz-adv-x="222" 
d="M112 -11q-38 0 -56 22.5t-18 49.5q0 28 18 50.5t56 22.5q36 0 54 -22.5t18 -50.5q0 -27 -17.5 -49.5t-54.5 -22.5z" />
    <glyph glyph-name="slash" unicode="/" horiz-adv-x="543" 
d="M0 25l444 741l99 -53l-442 -745z" />
    <glyph glyph-name="zero" unicode="0" horiz-adv-x="540" 
d="M151 17q-48 32 -77 81.5t-42 110.5t-13 121t13 121t42 110.5t77 81t119 31.5q70 0 118.5 -31.5t77.5 -81t42 -110.5t13 -121t-13 -121t-42 -110.5t-77.5 -81t-118.5 -31.5q-71 0 -119 31zM183 168q14 -31 35.5 -49t51.5 -18t51.5 18t35.5 49.5t20.5 73t6.5 89.5
t-6.5 89.5t-20 72t-35.5 48.5t-52 18t-52 -18t-35.5 -48.5t-20 -72t-6.5 -89.5t6.5 -89.5t20.5 -73.5z" />
    <glyph glyph-name="one" unicode="1" horiz-adv-x="540" 
d="M254 0v508l-126 -76l-62 97l220 133h105v-662h-137z" />
    <glyph glyph-name="two" unicode="2" horiz-adv-x="540" 
d="M57 0v78q60 63 121.5 128t111.5 129q26 34 44.5 67.5t18.5 74.5q0 38 -22.5 60t-64.5 22q-37 0 -71.5 -27.5t-60.5 -71.5l-109 59q16 31 39.5 59.5t55 49.5t71.5 33.5t89 12.5q43 0 81.5 -12t67 -36t45.5 -59t17 -81q0 -56 -24.5 -110t-66.5 -105q-35 -43 -75 -83.5
t-72 -74.5h257v-113h-453z" />
    <glyph glyph-name="three" unicode="3" horiz-adv-x="540" 
d="M121 191q32 -53 67.5 -71.5t74.5 -18.5q45 0 75.5 23.5t30.5 64.5q0 46 -38 70.5t-107 25.5v101q66 5 100 31t34 69q0 33 -24.5 52.5t-69.5 19.5q-35 0 -65.5 -19.5t-56.5 -67.5l-107 62q41 75 105.5 108t141.5 33q43 0 81 -12.5t67 -35.5t46 -56.5t17 -75.5
q0 -64 -24 -100.5t-62 -50.5q39 -15 68 -50t29 -98q0 -51 -20 -90t-53 -64.5t-76.5 -38.5t-90.5 -13q-75 0 -140 31t-110 109z" />
    <glyph glyph-name="four" unicode="4" horiz-adv-x="540" 
d="M27 167v99l315 396h108v-380h69v-115h-69v-167h-131v167h-292zM180 282h139v177z" />
    <glyph glyph-name="five" unicode="5" horiz-adv-x="540" 
d="M145 179q27 -43 55 -60t65 -17q41 0 70.5 26t29.5 74q0 30 -9.5 54t-32.5 40.5t-61.5 25.5t-95.5 9h-86v331h387v-112h-268v-113h4q64 0 118 -13t93.5 -41t61.5 -71t22 -104q0 -54 -19.5 -95t-51.5 -68.5t-73.5 -41.5t-86.5 -14q-32 0 -64 6.5t-61.5 21t-56 38.5
t-47.5 59z" />
    <glyph glyph-name="six" unicode="6" horiz-adv-x="540" 
d="M439 572q-78 -17 -139 -60.5t-88 -105.5q19 12 41.5 19t51.5 7q44 0 80 -16.5t61 -45.5t38.5 -69t13.5 -86q0 -45 -14 -85.5t-41.5 -72t-69.5 -50t-97 -18.5q-44 0 -85 14t-72.5 44.5t-50.5 77.5t-19 113q0 70 22.5 141t67.5 132t113 104.5t160 58.5zM228 312
q-22 -7 -35 -15q-3 -11 -5 -32t-2 -35q0 -33 8 -57t21 -39.5t29.5 -23t33.5 -7.5q38 0 61.5 27t23.5 75q0 54 -25 84.5t-64 30.5q-24 0 -46 -8z" />
    <glyph glyph-name="seven" unicode="7" horiz-adv-x="540" 
d="M106 0l243 550h-319v112h477v-80l-260 -582h-141z" />
    <glyph glyph-name="eight" unicode="8" horiz-adv-x="540" 
d="M90 312q16 18 37 30q-40 29 -57.5 67.5t-17.5 74.5q0 37 15.5 71t44 60.5t69 42.5t90.5 16q49 0 89.5 -15.5t69 -41.5t44 -60t15.5 -71q0 -36 -18.5 -76.5t-56.5 -66.5q42 -25 63.5 -69t21.5 -86q0 -38 -15 -74t-44.5 -63.5t-72 -44.5t-97.5 -17t-97.5 16.5t-72 44.5
t-44.5 63.5t-15 73.5q0 21 5.5 43t16.5 43t27 39zM207 420q11 -13 26.5 -21t36.5 -8q20 0 36 8.5t27 21.5t17 29t6 32q0 15 -6 30t-17 27t-27 19.5t-36 7.5t-35.5 -7.5t-26.5 -19.5t-17 -27.5t-6 -30.5q0 -16 5.5 -32t16.5 -29zM198 129q25 -27 73 -27t72 26.5t24 64.5
t-26 66t-72 28q-45 0 -70 -27.5t-25 -64.5q0 -38 24 -66z" />
    <glyph glyph-name="nine" unicode="9" horiz-adv-x="540" 
d="M103 92q78 17 139 63.5t89 109.5q-18 -12 -43.5 -19t-50.5 -7q-47 0 -83 18.5t-60.5 48.5t-37 68.5t-12.5 79.5t14 80.5t41.5 70.5t69 50t97.5 19q43 0 84 -14.5t72.5 -45.5t51 -78.5t19.5 -113.5q0 -74 -22.5 -144.5t-68 -129t-113.5 -101t-159 -58.5zM310 355
q20 5 39 16q3 10 5 27.5t2 31.5q0 34 -8.5 58.5t-21.5 40t-29 23t-32 7.5q-20 0 -36 -9t-27 -23.5t-16.5 -33.5t-5.5 -38q0 -20 6 -38.5t17 -33t27.5 -23.5t37.5 -9q23 0 42 4z" />
    <glyph glyph-name="colon" unicode=":" horiz-adv-x="222" 
d="M112 337q-38 0 -56 22.5t-18 49.5q0 28 18 50.5t56 22.5q36 0 54 -22.5t18 -50.5q0 -27 -17.5 -49.5t-54.5 -22.5zM112 -11q-38 0 -56 22.5t-18 49.5q0 28 18 50.5t56 22.5q36 0 54 -22.5t18 -50.5q0 -27 -17.5 -49.5t-54.5 -22.5z" />
    <glyph glyph-name="semicolon" unicode=";" horiz-adv-x="233" 
d="M3 -54q23 5 44.5 17t31.5 24q-14 10 -22 28t-8 38q0 30 18 55.5t54 25.5q32 0 53 -23t21 -56q0 -21 -10 -44.5t-31 -45t-54.5 -40.5t-79.5 -31zM127 337q-38 0 -56 22.5t-18 49.5q0 28 18 50.5t56 22.5q36 0 54 -22.5t18 -50.5q0 -27 -17.5 -49.5t-54.5 -22.5z" />
    <glyph glyph-name="less" unicode="&#x3c;" horiz-adv-x="540" 
d="M23 291v83l459 155l34 -110l-263 -85l273 -94l-35 -112z" />
    <glyph glyph-name="equal" unicode="=" horiz-adv-x="540" 
d="M23 370v110h493v-110h-493zM23 155v110h493v-110h-493z" />
    <glyph glyph-name="greater" unicode="&#x3e;" horiz-adv-x="540" 
d="M49 128l-35 112l273 94l-263 85l34 110l459 -155v-83z" />
    <glyph glyph-name="question" unicode="?" horiz-adv-x="422" 
d="M137 211v42q0 20 6.5 39t16.5 35.5t21.5 30.5t21.5 24q14 15 28.5 28t26 27t19 29t7.5 34q0 35 -21 54t-60 19q-29 0 -58 -16.5t-61 -64.5l-96 64q35 55 89.5 90t133.5 35q100 0 152.5 -50t52.5 -135q0 -25 -7.5 -46t-19.5 -40t-27 -35.5t-30 -31.5q-26 -28 -47 -53.5
t-21 -54.5v-24h-127zM167 -4q-14 6 -25 17.5t-17 26t-6 30.5t6 30.5t17 25.5t25.5 18t32.5 7q36 0 59 -24.5t23 -56.5t-23 -56.5t-59 -24.5q-18 0 -33 7z" />
    <glyph glyph-name="at" unicode="@" horiz-adv-x="813" 
d="M178 -65q-27 29 -50 65.5t-40 77.5t-26.5 85.5t-9.5 89.5q0 113 34.5 194t90 133t125 76.5t138.5 24.5q55 0 106.5 -12t91.5 -39t64 -71t24 -107v-439q0 -23 12 -36.5t35 -13.5q17 0 34 6.5t27 14.5l36 -96q-26 -14 -55.5 -23.5t-62.5 -9.5q-32 0 -60 8.5t-49 26.5
t-33 45t-12 64v21q-50 -20 -97 -20q-50 0 -88 20t-63.5 52.5t-38.5 74t-13 83.5q0 52 16 93t44 69t65.5 42.5t79.5 14.5q23 0 46 -4t49 -14v25q0 35 -14.5 57t-37 35t-51 17.5t-56.5 4.5q-44 0 -89.5 -18t-82.5 -56t-60.5 -99t-23.5 -146q0 -66 27.5 -131t69.5 -116z
M597 323q-17 8 -35 12.5t-41 4.5q-39 0 -65.5 -27t-26.5 -85q0 -59 27 -90.5t65 -31.5q22 0 41 5.5t35 14.5v197z" />
    <glyph glyph-name="A" unicode="A" horiz-adv-x="648" 
d="M0 0l274 667h95l278 -667h-145l-54 134h-257l-55 -134h-136zM232 247h172l-86 219z" />
    <glyph glyph-name="B" unicode="B" horiz-adv-x="598" 
d="M77 0v667h238q48 0 88.5 -12t69.5 -35.5t45.5 -57t16.5 -75.5q0 -45 -21.5 -78t-59.5 -56q54 -19 86.5 -60.5t32.5 -104.5q0 -53 -30 -101t-91 -71q-23 -8 -49.5 -12t-51.5 -4h-274zM210 394h66q23 0 44 2t30 7q26 12 37.5 30.5t11.5 38.5q0 24 -15.5 44.5t-46.5 30.5
q-5 1 -13.5 2.5t-19 2l-21 1t-18.5 0.5h-55v-159zM210 114h96q35 0 55 3t33 10q22 12 32 29.5t10 36.5q0 22 -12.5 43t-37.5 34q-16 8 -36.5 11.5t-45.5 3.5h-94v-171z" />
    <glyph glyph-name="C" unicode="C" horiz-adv-x="608" 
d="M584 133q-45 -80 -102 -113.5t-139 -33.5q-66 0 -121 23t-94.5 67.5t-61 108.5t-21.5 146q0 90 24.5 155.5t65 109t94 64.5t110.5 21q46 0 83 -10.5t66.5 -30.5t52 -49t39.5 -66l-109 -61q-20 43 -49.5 71t-79.5 28q-31 0 -60 -14t-51 -43t-35.5 -72.5t-13.5 -102.5
q0 -52 13 -94t35.5 -71t52.5 -45t65 -16q19 0 36.5 4t33.5 14.5t31 28t30 45.5z" />
    <glyph glyph-name="D" unicode="D" horiz-adv-x="661" 
d="M77 0v667h198q38 0 84 -6t88 -24q43 -20 75.5 -51.5t53.5 -71t31.5 -85t10.5 -92.5t-10.5 -92.5t-32 -86t-54 -72.5t-75.5 -52q-73 -34 -166 -34h-203zM212 120h54q73 0 121 25t71 76.5t23 109.5q0 57 -21 107.5t-65 78.5q-23 15 -57 22.5t-69 7.5h-57v-427z" />
    <glyph glyph-name="E" unicode="E" horiz-adv-x="586" 
d="M77 0v667h458v-121h-323v-152h267v-121h-267v-152h346v-121h-481z" />
    <glyph glyph-name="F" unicode="F" horiz-adv-x="536" 
d="M77 0v667h454v-121h-319v-158h254v-119h-254v-269h-135z" />
    <glyph glyph-name="G" unicode="G" horiz-adv-x="627" 
d="M352 236v115h235v-321q-41 -18 -98 -31t-145 -13q-64 0 -119 23t-95 67.5t-62.5 108.5t-22.5 146q0 90 24 155.5t64.5 109t93.5 64.5t112 21q90 0 146.5 -36t91.5 -110l-109 -61q-20 42 -50.5 65.5t-75.5 23.5q-30 0 -59 -14t-51.5 -43t-36 -72.5t-13.5 -102.5
q0 -52 14 -93.5t38 -71t56 -45.5t69 -16q32 0 58.5 3t43.5 8v120h-109z" />
    <glyph glyph-name="H" unicode="H" horiz-adv-x="689" 
d="M77 0v667h135v-264h265v264h135v-667h-135v282h-265v-282h-135z" />
    <glyph glyph-name="I" unicode="I" horiz-adv-x="289" 
d="M77 0v667h135v-667h-135z" />
    <glyph glyph-name="J" unicode="J" horiz-adv-x="297" 
d="M-43 -29q70 14 99 43t29 75v578h135v-600q0 -47 -17 -82.5t-48.5 -61t-75 -41.5t-97.5 -25z" />
    <glyph glyph-name="K" unicode="K" horiz-adv-x="639" 
d="M77 0v667h135v-255l256 255h160l-262 -260l275 -407h-152l-215 316l-62 -62v-254h-135z" />
    <glyph glyph-name="L" unicode="L" horiz-adv-x="553" 
d="M77 0v667h135v-546h336v-121h-471z" />
    <glyph glyph-name="M" unicode="M" horiz-adv-x="806" 
d="M77 0v667h138l197 -444l178 444h139v-667h-133v373l-161 -377h-48l-177 381v-377h-133z" />
    <glyph glyph-name="N" unicode="N" horiz-adv-x="695" 
d="M77 0v667h138l270 -416v416h133v-667h-118l-290 441v-441h-133z" />
    <glyph glyph-name="O" unicode="O" horiz-adv-x="707" 
d="M217 16q-58 31 -96 80t-57 111.5t-19 126.5t19 126.5t57 111.5t96 79t135 30q78 0 136 -30t97 -79t58 -111.5t19 -126.5t-19 -126.5t-58 -111.5t-97 -79.5t-136 -30.5q-77 0 -135 30zM225 175q22 -32 53.5 -51t73.5 -19t74.5 19t54.5 51t33 73.5t11 85.5t-11 85.5
t-33 73.5t-54.5 51t-74.5 19t-73.5 -19t-53.5 -51t-33 -73.5t-11 -85.5t11 -85.5t33 -73.5z" />
    <glyph glyph-name="P" unicode="P" horiz-adv-x="592" 
d="M77 0v667h210q51 0 94.5 -6.5t82.5 -25.5q51 -24 75 -71.5t24 -101.5q0 -30 -8 -60.5t-23 -56.5t-37 -47t-50 -33q-35 -14 -71 -19.5t-73 -5.5h-92v-240h-132zM209 355h75q29 0 52.5 3t40.5 11q29 13 41 36t12 49q0 28 -13.5 52t-42.5 34q-17 6 -36 9t-49 3h-80v-197z
" />
    <glyph glyph-name="Q" unicode="Q" horiz-adv-x="707" 
d="M554 -144q-124 4 -189 39.5t-89 100.5q-58 14 -101.5 47.5t-72 79.5t-43 100.5t-14.5 110.5q0 64 19 126.5t57 111.5t96 79t135 30q78 0 136 -30t97 -79t58 -111.5t19 -126.5q0 -54 -14 -106.5t-41.5 -98t-68.5 -80t-95 -50.5q11 -21 43 -28.5t84 -7.5zM225 175
q22 -32 53.5 -51t73.5 -19t74.5 19t54.5 51t33 73.5t11 85.5t-11 85.5t-33 73.5t-54.5 51t-74.5 19t-73.5 -19t-53.5 -51t-33 -73.5t-11 -85.5t11 -85.5t33 -73.5z" />
    <glyph glyph-name="R" unicode="R" horiz-adv-x="623" 
d="M77 0v667h271q42 0 84 -9t75.5 -31.5t55 -60.5t21.5 -97q0 -36 -9 -69t-27.5 -60.5t-48 -48.5t-70.5 -33l171 -258h-153l-165 250h-73v-250h-132zM209 365h103q73 0 106 23t33 68q0 48 -31 71.5t-108 23.5h-103v-186z" />
    <glyph glyph-name="S" unicode="S" horiz-adv-x="556" 
d="M129 177q23 -38 62 -57.5t88 -19.5q51 0 81.5 20t30.5 53q0 21 -7 37t-24 30t-47 27.5t-76 29.5q-43 15 -77.5 32t-59 40t-37.5 53.5t-13 72.5q0 41 14.5 75t44 59t73.5 38.5t103 13.5q49 0 86.5 -9.5t65 -25.5t47.5 -37t35 -44l-97 -69q-21 32 -53 53t-85 21
q-51 0 -77.5 -18t-26.5 -47q0 -35 34 -57.5t102 -47.5q51 -18 89.5 -38t64.5 -45.5t39.5 -58.5t13.5 -78q0 -49 -20.5 -85.5t-54 -60.5t-77.5 -36t-90 -12q-182 0 -255 123z" />
    <glyph glyph-name="T" unicode="T" horiz-adv-x="543" 
d="M204 0v546h-199v121h533v-121h-198v-546h-136z" />
    <glyph glyph-name="U" unicode="U" horiz-adv-x="687" 
d="M208 242q0 -60 35 -98.5t101 -38.5t100.5 38.5t34.5 98.5v425h135v-438q0 -57 -21 -102t-58 -76.5t-86 -48t-106 -16.5q-56 0 -105.5 16.5t-86 48t-57.5 76.5t-21 102v438h135v-425z" />
    <glyph glyph-name="V" unicode="V" horiz-adv-x="634" 
d="M295 0l-295 667h144l191 -458l166 458h133l-256 -667h-83z" />
    <glyph glyph-name="W" unicode="W" horiz-adv-x="778" 
d="M152 0l-152 667h135l82 -396l130 396h83l130 -396l84 396h134l-153 -667h-85l-152 447l-151 -447h-85z" />
    <glyph glyph-name="X" unicode="X" horiz-adv-x="579" 
d="M0 0l217 347l-202 320h152l122 -203l122 203h152l-201 -320l217 -347h-151l-139 230l-138 -230h-151z" />
    <glyph glyph-name="Y" unicode="Y" horiz-adv-x="581" 
d="M225 0v268l-225 399h150l145 -265l138 265h148l-221 -399v-268h-135z" />
    <glyph glyph-name="Z" unicode="Z" horiz-adv-x="574" 
d="M34 0v110l340 436h-312v121h477v-114l-337 -432h343v-121h-511z" />
    <glyph glyph-name="bracketleft" unicode="[" horiz-adv-x="300" 
d="M66 -143v879h234v-110h-109v-659h109v-110h-234z" />
    <glyph glyph-name="backslash" unicode="\" horiz-adv-x="543" 
d="M442 -32l-442 745l99 53l444 -741z" />
    <glyph glyph-name="bracketright" unicode="]" horiz-adv-x="300" 
d="M0 -143v110h110v659h-110v110h234v-879h-234z" />
    <glyph glyph-name="asciicircum" unicode="^" horiz-adv-x="552" 
d="M61 322l165 345h97l169 -330l-117 -45l-100 213l-93 -222z" />
    <glyph glyph-name="underscore" unicode="_" horiz-adv-x="560" 
d="M0 -240v90h560v-90h-560z" />
    <glyph glyph-name="grave" unicode="`" horiz-adv-x="442" 
d="M89 650l63 83l201 -141l-35 -54z" />
    <glyph glyph-name="a" unicode="a" horiz-adv-x="514" 
d="M332 0l-6 36q-21 -22 -53.5 -34.5t-71.5 -12.5q-32 0 -62.5 10.5t-53.5 30t-37 48t-14 64.5t15 63.5t40 46.5t57.5 31t68.5 18q25 5 55 7.5t50 4.5v16q0 29 -20 47t-47 18q-17 0 -43 -9t-50 -34l-89 62q19 24 43.5 40t50 25t50.5 12.5t46 3.5q42 0 77 -10.5t60.5 -33
t39.5 -57t14 -83.5v-310h-120zM321 225q-20 -1 -42.5 -3.5t-42.5 -6.5q-42 -8 -58.5 -27.5t-16.5 -42.5q0 -24 18 -38.5t53 -14.5q25 0 48.5 10t40.5 25v98z" />
    <glyph glyph-name="b" unicode="b" horiz-adv-x="553" 
d="M196 483q21 5 40 8t45 3q60 0 104.5 -21t74 -55.5t44 -78t14.5 -89.5q0 -70 -21 -119.5t-57 -81t-83.5 -46t-100.5 -14.5q-49 0 -97 11t-94 30v637h131v-184zM196 103l28 -6t27 -3q62 0 101 39t39 114q0 36 -10 62.5t-28 44t-42 26.5t-51 9q-29 0 -64 -11v-275z" />
    <glyph glyph-name="c" unicode="c" horiz-adv-x="487" 
d="M476 116q-31 -65 -83.5 -96t-122.5 -31q-46 0 -88.5 16t-75 47.5t-52 78t-19.5 108.5q0 64 19 112t50.5 80t72.5 47.5t85 15.5t78.5 -12.5t60 -32.5t42 -45t25.5 -50l-103 -51q-17 48 -42.5 67.5t-57.5 19.5q-20 0 -38 -9t-32.5 -27t-23 -46t-8.5 -67q0 -69 30.5 -107
t79.5 -38q38 0 62 19t43 54z" />
    <glyph glyph-name="d" unicode="d" horiz-adv-x="557" 
d="M373 0l-6 37q-18 -19 -47 -33.5t-69 -14.5q-52 0 -92.5 21t-68 56t-41.5 81t-14 96q0 47 15 92t45 80.5t75 57t106 21.5q41 0 86 -14v187h130v-667h-119zM362 375q-37 14 -70 14t-57.5 -12t-40.5 -32.5t-24 -46t-8 -52.5q0 -30 7 -57.5t21 -48t35.5 -33t51.5 -12.5
q24 0 49 12.5t36 29.5v238z" />
    <glyph glyph-name="e" unicode="e" horiz-adv-x="525" 
d="M166 210q5 -61 37.5 -88t72.5 -27q35 0 63 12.5t58 54.5l97 -59q-41 -63 -95 -88.5t-127 -25.5q-48 0 -91 15t-75.5 46.5t-51.5 78.5t-19 112q0 61 18.5 108t50.5 79t74.5 49t90.5 17q101 0 162.5 -70.5t63.5 -213.5h-329zM362 299q-4 48 -32.5 72t-60.5 24
q-17 0 -33.5 -6.5t-30.5 -19t-23.5 -30.5t-12.5 -40h193z" />
    <glyph glyph-name="f" unicode="f" horiz-adv-x="335" 
d="M83 0v382h-67v100h67v17q0 48 13 82t35.5 56.5t53 33t66.5 10.5q48 0 83.5 -7.5t64.5 -21.5l-38 -100q-40 20 -89 20q-25 0 -42 -16.5t-17 -57.5v-16h109v-100h-108v-382h-131z" />
    <glyph glyph-name="g" unicode="g" horiz-adv-x="533" 
d="M445 421q19 -21 29.5 -49t10.5 -57q0 -45 -18.5 -78.5t-49.5 -55.5t-71 -33t-82 -11q-19 0 -37.5 2.5t-31.5 5.5q-5 -3 -10 -10t-5 -13q0 -7 5 -12t19.5 -9t40.5 -7t69 -4q52 -2 92 -9.5t66.5 -24t40 -43t13.5 -65.5q0 -43 -21 -71.5t-55 -46t-78.5 -24.5t-90.5 -7
t-90.5 7t-79.5 23.5t-56.5 44t-21.5 69.5q0 35 15 56.5t41 35.5q-14 11 -24.5 29t-10.5 40q0 26 15 46.5t40 34.5q-29 23 -46.5 56.5t-17.5 73.5q0 45 18.5 78.5t49 56t70 33.5t81.5 11q29 0 52 -5t49 -15l77 81l73 -60zM169 314q0 -39 26.5 -59.5t68.5 -20.5t69.5 20.5
t27.5 58.5t-27.5 61t-69.5 23t-68.5 -22.5t-26.5 -60.5zM217 -6q-21 2 -41 5q-9 -6 -18 -17.5t-9 -27.5q0 -62 135 -62q60 0 94 12t34 35q0 13 -5 22t-21.5 15t-46.5 9.5t-81 4.5q-20 1 -41 4z" />
    <glyph glyph-name="h" unicode="h" horiz-adv-x="577" 
d="M65 0v667h131v-217q24 18 57.5 31t80.5 13q49 0 83 -15t56 -42t32 -65.5t10 -85.5v-286h-131v277q0 60 -24.5 86.5t-56.5 26.5t-61 -16.5t-46 -30.5v-343h-131z" />
    <glyph glyph-name="i" unicode="i" horiz-adv-x="260" 
d="M130 537q-39 0 -58.5 22t-19.5 49q0 26 19.5 48t58.5 22t58.5 -22t19.5 -48q0 -27 -19.5 -49t-58.5 -22zM65 0v482h130v-482h-130z" />
    <glyph glyph-name="j" unicode="j" horiz-adv-x="270" 
d="M141 537q-39 0 -58.5 22t-19.5 49q0 26 19.5 48t58.5 22q38 0 57.5 -22t19.5 -48q0 -27 -19.5 -49t-57.5 -22zM-8 -116q25 17 41.5 31.5t25.5 30t12.5 33t3.5 40.5v463h130v-463q0 -39 -8.5 -70.5t-26 -57.5t-44 -47t-62.5 -40z" />
    <glyph glyph-name="k" unicode="k" horiz-adv-x="522" 
d="M65 0v667h131v-321l151 136h157l-166 -149l190 -333h-147l-138 249l-47 -44v-205h-131z" />
    <glyph glyph-name="l" unicode="l" horiz-adv-x="261" 
d="M65 0v667h131v-667h-131z" />
    <glyph glyph-name="m" unicode="m" horiz-adv-x="881" 
d="M65 0v482h120l5 -36q23 20 57.5 34t69.5 14t71 -10.5t66 -36.5q35 20 76 33.5t89 13.5q57 0 95 -14t61.5 -40t33.5 -64t10 -87v-289h-130v283q0 48 -19 77.5t-70 29.5q-15 0 -30 -4.5t-28.5 -10.5t-24.5 -12.5t-17 -11.5q2 -12 4 -27t2 -33v-291h-130v283q0 22 -4 41.5
t-13 34t-24.5 23t-38.5 8.5q-29 0 -56 -15t-44 -32v-343h-131z" />
    <glyph glyph-name="n" unicode="n" horiz-adv-x="581" 
d="M65 0v482h119l6 -38q30 24 69 37t78 13q40 0 73.5 -11.5t57.5 -36.5t37.5 -65t13.5 -96v-285h-131v275q0 55 -24 85t-67 30q-30 0 -56 -15t-45 -33v-342h-131z" />
    <glyph glyph-name="o" unicode="o" horiz-adv-x="556" 
d="M171 11q-45 22 -75.5 58t-45.5 81.5t-15 92.5t15 92t45.5 80.5t76 57t106.5 21.5t106.5 -21.5t76 -57t45.5 -80.5t15 -92t-15 -92.5t-45.5 -81.5t-76 -58t-106.5 -22t-107 22zM192 139q14 -20 35.5 -31.5t50.5 -11.5q28 0 49.5 11.5t36 31.5t22 46.5t7.5 57.5
q0 30 -7.5 57t-22 46.5t-36 31t-49.5 11.5t-49.5 -11.5t-36 -31t-22 -46.5t-7.5 -57q0 -31 7.5 -57.5t21.5 -46.5z" />
    <glyph glyph-name="p" unicode="p" horiz-adv-x="554" 
d="M65 -189v671h119l6 -36q18 17 48 32.5t71 15.5q52 0 91.5 -21t65.5 -55.5t39.5 -80.5t13.5 -95q0 -47 -15 -92.5t-46.5 -81t-80 -57.5t-114.5 -22q-34 0 -67 14v-192h-131zM195 111q31 -14 61 -14q35 0 60.5 12t42.5 32.5t25 46t8 52.5q0 28 -7 55t-20.5 48t-34 34
t-48.5 13q-27 0 -51 -14.5t-36 -31.5v-233z" />
    <glyph glyph-name="q" unicode="q" horiz-adv-x="554" 
d="M358 -189v187q-20 -5 -37 -7t-35 -2q-62 0 -108.5 20.5t-78.5 55t-48 80.5t-16 97q0 49 16 94.5t49.5 80.5t84.5 56t122 21q39 0 85 -4.5t97 -11.5v-667h-131zM358 386q-14 2 -24.5 3t-25.5 1q-38 0 -65.5 -12.5t-45.5 -33t-26.5 -47.5t-8.5 -55q0 -31 9 -57.5t27 -46
t45 -31t62 -11.5q20 0 31 4t22 9v277z" />
    <glyph glyph-name="r" unicode="r" horiz-adv-x="371" 
d="M65 0v482h119l6 -42q27 29 54.5 40.5t57.5 11.5q17 0 36 -4t39 -11l-23 -113q-20 8 -37.5 12.5t-34.5 4.5q-28 0 -50.5 -13t-35.5 -30v-338h-131z" />
    <glyph glyph-name="s" unicode="s" horiz-adv-x="485" 
d="M126 162q17 -32 47.5 -53.5t76.5 -21.5q40 0 62.5 12.5t22.5 34.5q0 21 -24 37t-89 28q-38 7 -69.5 18.5t-53.5 29.5t-34 43t-12 60q0 64 53.5 104t144.5 40q82 0 130 -26.5t74 -64.5l-92 -63q-18 24 -46 40t-66 16q-42 0 -58 -12.5t-16 -32.5q0 -23 20 -33t74 -21
q44 -9 78.5 -21t58.5 -30.5t36.5 -44.5t12.5 -61q0 -39 -16 -67.5t-44 -47t-66 -27.5t-81 -9q-86 0 -139.5 32.5t-81.5 81.5z" />
    <glyph glyph-name="t" unicode="t" horiz-adv-x="368" 
d="M216 136q0 -23 10.5 -31.5t20.5 -8.5q20 0 39 10t33 21l47 -89q-33 -22 -69.5 -35.5t-77.5 -13.5q-25 0 -49 7t-42.5 22t-30 39.5t-11.5 59.5v265h-71v100h71v125h130v-125h117v-100h-117v-246z" />
    <glyph glyph-name="u" unicode="u" horiz-adv-x="579" 
d="M394 0l-5 38q-35 -28 -72 -38t-73 -10q-88 0 -135 51t-47 154v287h131v-274q0 -50 19 -81t65 -31q38 0 64 14.5t42 27.5v344h131v-482h-120z" />
    <glyph glyph-name="v" unicode="v" horiz-adv-x="533" 
d="M213 0l-213 482h139l133 -320l128 320h133l-207 -482h-113z" />
    <glyph glyph-name="w" unicode="w" horiz-adv-x="717" 
d="M172 0l-172 482h136l87 -290l95 290h80l96 -290l87 290h136l-172 -482h-95l-92 279l-91 -279h-95z" />
    <glyph glyph-name="x" unicode="x" horiz-adv-x="511" 
d="M3 0l181 238l-184 244h147l111 -149l111 149h134l-176 -235l184 -247h-147l-112 152l-113 -152h-136z" />
    <glyph glyph-name="y" unicode="y" horiz-adv-x="517" 
d="M48 -81q19 -9 37.5 -13t31.5 -4q12 0 24 7t22 28l37 83l-200 462h139l126 -329l120 329h132l-250 -596q-11 -25 -26 -42t-33 -27t-38.5 -14t-40.5 -4q-26 0 -57.5 6.5t-64.5 20.5z" />
    <glyph glyph-name="z" unicode="z" horiz-adv-x="508" 
d="M36 0v89l276 293h-265v100h415v-94l-272 -289h280v-99h-434z" />
    <glyph glyph-name="braceleft" unicode="{" horiz-adv-x="293" 
d="M282 -62q-92 1 -136 37.5t-44 112.5v128q0 37 -20 56t-65 25v74q45 6 65 25t20 56v129q0 76 44 112t136 38l11 -87q-25 -1 -39 -7.5t-21.5 -18t-9.5 -26.5t-2 -32v-108q0 -90 -71 -118q37 -17 54 -44.5t17 -73.5v-110q0 -17 2 -31.5t9.5 -25.5t22 -17.5t38.5 -7.5z" />
    <glyph glyph-name="bar" unicode="|" horiz-adv-x="275" 
d="M74 -74v812h125v-812h-125z" />
    <glyph glyph-name="braceright" unicode="}" horiz-adv-x="293" 
d="M0 24q24 1 38.5 7.5t22 17t9.5 25.5t2 32v110q0 46 17 73.5t54 44.5q-71 28 -71 118v108q0 17 -2 32t-9.5 26.5t-21.5 18t-39 7.5l11 87q92 -2 136.5 -38t44.5 -112v-129q0 -37 20 -56t65 -25v-74q-45 -6 -65 -25t-20 -56v-128q0 -149 -181 -150z" />
    <glyph glyph-name="asciitilde" unicode="~" horiz-adv-x="474" 
d="M-2 506q11 71 49 107.5t99 36.5q33 0 57 -8.5t42 -18.5t33 -18.5t31 -8.5q17 0 32 10t20 46h115q-3 -40 -15.5 -68.5t-32 -46.5t-43.5 -26t-51 -8q-33 0 -56.5 8.5t-42 19t-35 19t-36.5 8.5t-33 -11.5t-18 -40.5h-115z" />
    <glyph glyph-name="uni00A0" unicode="&#xa0;" horiz-adv-x="200" 
 />
    <glyph glyph-name="exclamdown" unicode="&#xa1;" horiz-adv-x="241" 
d="M121 332q-36 0 -59 24.5t-23 56.5t23 56.5t59 24.5q18 0 32.5 -7t25.5 -18t17 -25.5t6 -30.5t-6 -30.5t-17 -26t-25.5 -18t-32.5 -6.5zM56 -185v457h132v-457h-132z" />
    <glyph glyph-name="cent" unicode="&#xa2;" horiz-adv-x="540" 
d="M251 -11v147q-42 7 -73.5 26t-52.5 46t-31.5 58.5t-10.5 64.5q0 34 10 67t31 60t52.5 45.5t74.5 24.5v139h84v-138q35 -2 68.5 -17t54.5 -32l-53 -89q-25 17 -50 29t-55 12q-26 0 -44 -9t-29 -23.5t-16 -32.5t-5 -37q0 -17 5.5 -34t17.5 -31t30.5 -23t44.5 -10q11 0 21 1
t22 4.5t26 9.5t33 15l42 -89q-33 -19 -60.5 -27.5t-52.5 -11.5v-145h-84z" />
    <glyph glyph-name="sterling" unicode="&#xa3;" horiz-adv-x="540" 
d="M104 0v246h-70v109h70v104q0 52 16.5 92t44.5 67.5t65.5 41.5t79.5 14q67 0 120 -32t80 -100l-117 -55q-20 43 -41 56t-42 13q-13 0 -26.5 -5t-25 -17t-19 -32t-7.5 -49v-98h199v-109h-199v-125h273v-121h-401z" />
    <glyph glyph-name="currency" unicode="&#xa4;" horiz-adv-x="738" 
d="M0 97l160 152q-31 56 -31 119q0 62 28 114l-157 148l90 81l148 -141q29 17 62 25t67 8q35 0 68.5 -8t63.5 -26l149 142l90 -81l-158 -148q14 -26 20 -54t6 -57q0 -32 -7.5 -62.5t-23.5 -57.5l163 -154l-86 -83l-161 152q-29 -16 -61 -23t-65 -7q-31 0 -61.5 7t-58.5 22
l-159 -151zM281 281q16 -17 37.5 -26.5t48.5 -9.5t49 9.5t38 26.5t24.5 39.5t8.5 48.5t-8.5 49t-24.5 40t-38 26.5t-49 9.5q-54 0 -86.5 -36t-32.5 -89q0 -26 8.5 -48.5t24.5 -39.5z" />
    <glyph glyph-name="yen" unicode="&#xa5;" horiz-adv-x="540" 
d="M205 0v237h-156v108h113l-181 317h150l145 -262l137 262h146l-178 -317h113v-108h-154v-237h-135z" />
    <glyph glyph-name="brokenbar" unicode="&#xa6;" horiz-adv-x="275" 
d="M74 429v309h125v-309h-125zM74 -74v308h125v-308h-125z" />
    <glyph glyph-name="section" unicode="&#xa7;" horiz-adv-x="485" 
d="M121 15q48 -55 104 -55q31 0 45.5 14t14.5 31q0 16 -10 29.5t-26 26.5t-36 25.5t-40 26.5q-21 15 -41.5 31.5t-36.5 37t-26 45.5t-10 57q0 46 30.5 80t73.5 51q-32 28 -50 58.5t-18 70.5q0 64 46.5 100t121.5 36q51 0 91.5 -17t77.5 -58l-80 -72q-18 18 -40.5 30.5
t-47.5 12.5q-19 0 -32 -10t-13 -25q0 -18 9.5 -32t25.5 -27t35.5 -26.5t39.5 -29.5q19 -16 37.5 -34t33 -39t23 -46.5t8.5 -55.5q0 -44 -25.5 -74.5t-60.5 -47.5q29 -23 48.5 -52.5t19.5 -74.5q0 -36 -16 -63t-41.5 -45.5t-58.5 -28t-66 -9.5q-58 0 -103.5 21t-81.5 60z
M204 238q22 -22 69 -52q21 10 29.5 28.5t8.5 35.5q0 21 -18.5 46t-61.5 57q-26 -11 -37 -31.5t-11 -37.5q0 -24 21 -46z" />
    <glyph glyph-name="dieresis" unicode="&#xa8;" horiz-adv-x="442" 
d="M315 560q-28 0 -46.5 21.5t-18.5 49.5q0 29 18.5 50t46.5 21q29 0 47 -21t18 -50q0 -28 -18 -49.5t-47 -21.5zM127 560q-29 0 -47 21.5t-18 49.5q0 29 18 50t47 21q28 0 46.5 -21t18.5 -50q0 -28 -18.5 -49.5t-46.5 -21.5z" />
    <glyph glyph-name="copyright" unicode="&#xa9;" horiz-adv-x="775" 
d="M238 -45q-64 32 -107.5 84.5t-65 120t-21.5 137.5t21.5 136.5t65 119t107.5 84.5t150 32q85 0 149.5 -32t107.5 -84.5t64.5 -119t21.5 -136.5t-21.5 -137.5t-64.5 -120t-107.5 -84.5t-149.5 -32q-86 0 -150 32zM195 93q33 -41 81.5 -65.5t111.5 -24.5t111.5 24.5t81 65.5
t49 94t16.5 110q0 56 -16.5 109t-49 94t-81 65.5t-111.5 24.5q-64 0 -112.5 -24.5t-81 -65.5t-49 -94t-16.5 -109q0 -57 16.5 -110t49.5 -94zM565 167q-33 -54 -75 -77t-94 -23q-45 0 -82.5 15.5t-64.5 45t-41.5 71.5t-14.5 96q0 58 16.5 101.5t44 72t63.5 42.5t75 14
q63 0 103.5 -26.5t65.5 -79.5l-80 -43q-17 31 -36.5 47t-50.5 16q-19 0 -37 -8.5t-31.5 -26.5t-22 -45t-8.5 -64q0 -66 30.5 -103.5t73.5 -37.5q23 0 45 12t43 47z" />
    <glyph glyph-name="ordfeminine" unicode="&#xaa;" horiz-adv-x="371" 
d="M251 302l-4 26q-41 -33 -92 -33q-24 0 -46.5 7.5t-40 22t-28 35t-10.5 47.5q0 39 22.5 63t54.5 37t68.5 18t65.5 7v10q0 20 -14 33t-34 13q-13 0 -32 -6.5t-36 -25.5l-68 47q15 19 33 30.5t37 18.5t37.5 9.5t34.5 2.5q62 0 102 -32t40 -105v-225h-90zM242 462
q-14 -2 -29.5 -4t-29.5 -5q-30 -6 -43 -19t-13 -26q0 -14 13 -25t38 -11q20 0 36 9.5t28 20.5v60z" />
    <glyph glyph-name="guillemotleft" unicode="&#xab;" horiz-adv-x="574" 
d="M246 250l207 212l86 -68l-143 -138l157 -135l-80 -76zM12 250l207 212l86 -68l-143 -138l157 -135l-80 -76z" />
    <glyph glyph-name="logicalnot" unicode="&#xac;" horiz-adv-x="540" 
d="M21 406v109h493v-369h-114v260h-379z" />
    <glyph glyph-name="uni00AD" unicode="&#xad;" horiz-adv-x="330" 
d="M38 201v119h254v-119h-254z" />
    <glyph glyph-name="registered" unicode="&#xae;" horiz-adv-x="776" 
d="M238 -45q-64 32 -107 84.5t-64.5 120t-21.5 137.5t21.5 136.5t65 119t107.5 84.5t150 32q85 0 149 -32t107 -84.5t64.5 -119t21.5 -136.5t-21.5 -137.5t-64.5 -120t-107.5 -84.5t-149.5 -32t-150 32zM195 93q33 -41 81.5 -65.5t112.5 -24.5q63 0 111 24.5t81 65.5
t49.5 94t16.5 110q0 56 -16.5 109t-49 94t-81 65.5t-111.5 24.5q-64 0 -112.5 -24.5t-81.5 -65.5t-49.5 -94t-16.5 -109q0 -57 16.5 -110t49.5 -94zM245 102v406h152q81 0 120 -32.5t39 -95.5q0 -50 -23 -79t-58 -41l85 -158h-99l-77 147h-46v-147h-93zM338 334h52
q38 0 54 10t16 39q0 24 -14.5 32t-51.5 8h-56v-89z" />
    <glyph glyph-name="macron" unicode="&#xaf;" horiz-adv-x="442" 
d="M40 578v89h363v-89h-363z" />
    <glyph glyph-name="degree" unicode="&#xb0;" horiz-adv-x="396" 
d="M91 407q-23 19 -37 47t-14 64t14 64t36.5 46.5t51 28.5t56.5 10t56.5 -10t51 -29t36.5 -47t14 -64t-14 -64t-36.5 -46.5t-50.5 -28.5t-56 -10q-29 0 -57 10t-51 29zM144 517q0 -31 17 -46.5t37 -15.5t37 15.5t17 46.5q0 32 -17 47.5t-37 15.5t-37 -15.5t-17 -47.5z" />
    <glyph glyph-name="plusminus" unicode="&#xb1;" horiz-adv-x="540" 
d="M216 158v198h-192v110h192v201h109v-201h192v-110h-192v-198h-109zM24 0v110h493v-110h-493z" />
    <glyph glyph-name="twosuperior" unicode="&#xb2;" 
d="M39 337v57q35 32 63 57t55 55q14 15 21.5 28t7.5 27t-7.5 22.5t-21.5 8.5q-12 0 -27 -10.5t-32 -45.5l-78 40q53 97 154 97q48 0 81.5 -25t33.5 -76q0 -29 -12 -53.5t-32 -45.5q-15 -17 -28.5 -29t-29.5 -24h110v-83h-258z" />
    <glyph glyph-name="threesuperior" unicode="&#xb3;" 
d="M94 453q17 -26 34 -34.5t32 -8.5q20 0 29.5 9t9.5 23q0 4 -1.5 9.5t-7.5 10.5t-17.5 8.5t-32.5 3.5v65q20 1 31 5t16 8.5t6 9.5t1 8q0 11 -8 18t-25 7q-14 0 -29 -8t-32 -35l-77 41q29 45 67.5 62.5t82.5 17.5q22 0 43.5 -5.5t38.5 -17t27 -28.5t10 -40q0 -28 -11 -44.5
t-27 -26.5q15 -8 29.5 -26t14.5 -46q0 -29 -12 -49t-31 -33t-43 -19t-49 -6q-40 0 -78 16.5t-69 63.5z" />
    <glyph glyph-name="acute" unicode="&#xb4;" horiz-adv-x="442" 
d="M125 538l-36 54l201 141l63 -83z" />
    <glyph glyph-name="mu" unicode="&#xb5;" horiz-adv-x="609" 
d="M70 -189v671h131v-293q0 -41 21.5 -69.5t68.5 -28.5q33 0 59 14.5t37 41.5q3 7 4.5 17.5t2.5 21t1 19.5v15v258h130v-345q0 -26 7 -36t21 -10q7 0 14.5 1.5l17.5 3.5l14 -88q-13 -5 -36.5 -10t-42.5 -5q-75 0 -93 65q-24 -33 -58.5 -49t-75.5 -16q-31 0 -58.5 10.5
t-42.5 26.5v-215h-122z" />
    <glyph glyph-name="paragraph" unicode="&#xb6;" horiz-adv-x="530" 
d="M355 -145v812h109v-812h-109zM200 -145v397q-41 4 -75 22.5t-58 46t-37.5 63t-13.5 74.5q0 42 15.5 79.5t43.5 66.5t67 46t85 17h80v-812h-107z" />
    <glyph glyph-name="periodcentered" unicode="&#xb7;" horiz-adv-x="326" 
d="M164 296q-38 0 -56 22.5t-18 49.5q0 28 18 50.5t56 22.5q36 0 54 -22.5t18 -50.5q0 -27 -17.5 -49.5t-54.5 -22.5z" />
    <glyph glyph-name="cedilla" unicode="&#xb8;" horiz-adv-x="442" 
d="M135 -181l62 137h116l-86 -137h-92z" />
    <glyph glyph-name="onesuperior" unicode="&#xb9;" 
d="M162 337v218l-68 -36l-40 72l132 74h74v-328h-98z" />
    <glyph glyph-name="ordmasculine" unicode="&#xba;" horiz-adv-x="413" 
d="M128 311q-33 16 -55 42.5t-32.5 59.5t-10.5 67t11 67t33 59t55 42t77 16t77.5 -16t55.5 -42t33 -59t11 -67t-11 -67t-33 -59.5t-55 -42.5t-78 -16t-78 16zM152 411q18 -28 54 -28q37 0 54.5 28.5t17.5 68.5q0 41 -17.5 70t-53.5 29q-37 0 -54.5 -29t-17.5 -70
q0 -40 17 -69z" />
    <glyph glyph-name="guillemotright" unicode="&#xbb;" horiz-adv-x="574" 
d="M255 121l157 135l-143 138l86 68l207 -212l-228 -205zM21 121l157 135l-143 138l86 68l207 -212l-227 -205z" />
    <glyph glyph-name="onequarter" unicode="&#xbc;" horiz-adv-x="774" 
d="M96 337v218l-68 -36l-40 72l132 74h74v-328h-98zM461 72v73l161 184h89v-187h41v-70h-41v-71h-97v71h-153zM540 142h74v86zM90 -12l-65 70l655 610l68 -69z" />
    <glyph glyph-name="onehalf" unicode="&#xbd;" horiz-adv-x="774" 
d="M96 337v218l-68 -36l-40 72l132 74h74v-328h-98zM511 1v57q35 32 63 57t55 55q14 15 21.5 28t7.5 27t-7.5 22.5t-21.5 8.5q-12 0 -27 -10.5t-32 -45.5l-78 40q53 97 154 97q48 0 81.5 -25t33.5 -76q0 -29 -12 -53.5t-32 -45.5q-15 -17 -28.5 -29t-29.5 -24h110v-83h-258z
M83 -12l-65 70l655 610l68 -69z" />
    <glyph glyph-name="threequarters" unicode="&#xbe;" horiz-adv-x="774" 
d="M92 -12l-65 70l655 610l68 -69zM71 453q17 -26 34 -34.5t32 -8.5q20 0 29.5 9t9.5 23q0 4 -1.5 9.5t-7.5 10.5t-17.5 8.5t-32.5 3.5v65q20 1 31 5t16 8.5t6 9.5t1 8q0 11 -8 18t-25 7q-14 0 -29 -8t-32 -35l-77 41q29 45 67.5 62.5t82.5 17.5q22 0 43.5 -5.5t38.5 -17
t27 -28.5t10 -40q0 -28 -11 -44.5t-27 -26.5q15 -8 29.5 -26t14.5 -46q0 -29 -12 -49t-31 -33t-43 -19t-49 -6q-40 0 -78 16.5t-69 63.5zM456 72v73l161 184h89v-187h41v-70h-41v-71h-97v71h-153zM535 142h74v86z" />
    <glyph glyph-name="questiondown" unicode="&#xbf;" horiz-adv-x="422" 
d="M221 332q-36 0 -58.5 24.5t-22.5 56.5t22.5 56.5t58.5 24.5t59 -24.5t23 -56.5t-23 -56.5t-59 -24.5zM434 -73q-36 -55 -90 -90t-133 -35q-100 0 -152.5 50t-52.5 135q0 24 7.5 45t19.5 40t27 35.5t30 32.5q27 27 47.5 53t20.5 55v24h126v-42q0 -20 -6.5 -39t-16 -35.5
t-21 -30.5t-21.5 -24q-15 -15 -29.5 -28t-26 -27t-18.5 -29t-7 -34q0 -35 21 -54t59 -19q29 0 58.5 16.5t61.5 64.5z" />
    <glyph glyph-name="Agrave" unicode="&#xc0;" horiz-adv-x="648" 
d="M0 0l274 667h95l278 -667h-145l-54 134h-257l-55 -134h-136zM232 247h172l-86 219zM142 816l63 83l201 -141l-35 -54z" />
    <glyph glyph-name="Aacute" unicode="&#xc1;" horiz-adv-x="648" 
d="M0 0l274 667h95l278 -667h-145l-54 134h-257l-55 -134h-136zM232 247h172l-86 219zM248 704l-36 54l201 141l63 -83z" />
    <glyph glyph-name="Acircumflex" unicode="&#xc2;" horiz-adv-x="648" 
d="M0 0l274 667h95l278 -667h-145l-54 134h-257l-55 -134h-136zM232 247h172l-86 219zM149 755l121 130h96l121 -132l-69 -42l-101 96l-101 -97z" />
    <glyph glyph-name="Atilde" unicode="&#xc3;" horiz-adv-x="648" 
d="M0 0l274 667h95l278 -667h-145l-54 134h-257l-55 -134h-136zM232 247h172l-86 219zM113 742q17 51 49.5 83t77.5 32q20 0 39.5 -9t36.5 -20t32 -19.5t27 -8.5q10 0 27.5 11.5t34.5 51.5l68 -35q-18 -54 -50 -85t-77 -31q-21 0 -40.5 9.5t-36.5 20.5t-31.5 19t-26.5 8
q-11 0 -27.5 -11.5t-33.5 -51.5z" />
    <glyph glyph-name="Adieresis" unicode="&#xc4;" horiz-adv-x="648" 
d="M0 0l274 667h95l278 -667h-145l-54 134h-257l-55 -134h-136zM232 247h172l-86 219zM412 726q-28 0 -46.5 21.5t-18.5 49.5q0 29 18.5 50t46.5 21q29 0 47 -21t18 -50q0 -28 -18 -49.5t-47 -21.5zM224 726q-29 0 -47 21.5t-18 49.5q0 29 18 50t47 21q28 0 46.5 -21
t18.5 -50q0 -28 -18.5 -49.5t-46.5 -21.5z" />
    <glyph glyph-name="Aring" unicode="&#xc5;" horiz-adv-x="648" 
d="M0 0l274 666q-19 10 -31 25q-13 15 -19.5 34.5t-6.5 39.5t6.5 39.5t19.5 35t32.5 25t45.5 9.5t46 -9.5t33 -24.5t19.5 -34.5t6.5 -39.5t-6.5 -39.5t-19.5 -35t-32 -24.5h1l278 -667h-145l-54 134h-257l-55 -134h-136zM232 247h172l-86 219zM292 733q11 -13 29 -13
q19 0 29.5 13t10.5 33t-10.5 33t-29.5 13q-18 0 -28.5 -13t-10.5 -33t10 -33z" />
    <glyph glyph-name="AE" unicode="&#xc6;" horiz-adv-x="923" 
d="M0 0l406 667h466v-121h-274v-151h217v-120h-217v-154h297v-121h-432v176h-204l-107 -176h-152zM321 290h142v239z" />
    <glyph glyph-name="Ccedilla" unicode="&#xc7;" horiz-adv-x="608" 
d="M584 133q-45 -80 -102 -113.5t-139 -33.5q-66 0 -121 23t-94.5 67.5t-61 108.5t-21.5 146q0 90 24.5 155.5t65 109t94 64.5t110.5 21q46 0 83 -10.5t66.5 -30.5t52 -49t39.5 -66l-109 -61q-20 43 -49.5 71t-79.5 28q-31 0 -60 -14t-51 -43t-35.5 -72.5t-13.5 -102.5
q0 -52 13 -94t35.5 -71t52.5 -45t65 -16q19 0 36.5 4t33.5 14.5t31 28t30 45.5zM235 -181l62 137h116l-86 -137h-92z" />
    <glyph glyph-name="Egrave" unicode="&#xc8;" horiz-adv-x="586" 
d="M77 0v667h458v-121h-323v-152h267v-121h-267v-152h346v-121h-481zM138 816l63 83l201 -141l-35 -54z" />
    <glyph glyph-name="Eacute" unicode="&#xc9;" horiz-adv-x="586" 
d="M77 0v667h458v-121h-323v-152h267v-121h-267v-152h346v-121h-481zM238 704l-36 54l201 141l63 -83z" />
    <glyph glyph-name="Ecircumflex" unicode="&#xca;" horiz-adv-x="586" 
d="M77 0v667h458v-121h-323v-152h267v-121h-267v-152h346v-121h-481zM135 755l121 130h96l121 -132l-69 -42l-101 96l-101 -97z" />
    <glyph glyph-name="Edieresis" unicode="&#xcb;" horiz-adv-x="586" 
d="M77 0v667h458v-121h-323v-152h267v-121h-267v-152h346v-121h-481zM401 726q-28 0 -46.5 21.5t-18.5 49.5q0 29 18.5 50t46.5 21q29 0 47 -21t18 -50q0 -28 -18 -49.5t-47 -21.5zM213 726q-29 0 -47 21.5t-18 49.5q0 29 18 50t47 21q28 0 46.5 -21t18.5 -50
q0 -28 -18.5 -49.5t-46.5 -21.5z" />
    <glyph glyph-name="Igrave" unicode="&#xcc;" horiz-adv-x="289" 
d="M77 0v667h135v-667h-135zM-25 816l63 83l201 -141l-35 -54z" />
    <glyph glyph-name="Iacute" unicode="&#xcd;" horiz-adv-x="289" 
d="M77 0v667h135v-667h-135zM85 704l-36 54l201 141l63 -83z" />
    <glyph glyph-name="Icircumflex" unicode="&#xce;" horiz-adv-x="289" 
d="M77 0v667h135v-667h-135zM-24 755l121 130h96l121 -132l-69 -42l-101 96l-101 -97z" />
    <glyph glyph-name="Idieresis" unicode="&#xcf;" horiz-adv-x="289" 
d="M77 0v667h135v-667h-135zM240 726q-28 0 -46.5 21.5t-18.5 49.5q0 29 18.5 50t46.5 21q29 0 47 -21t18 -50q0 -28 -18 -49.5t-47 -21.5zM52 726q-29 0 -47 21.5t-18 49.5q0 29 18 50t47 21q28 0 46.5 -21t18.5 -50q0 -28 -18.5 -49.5t-46.5 -21.5z" />
    <glyph glyph-name="Eth" unicode="&#xd0;" horiz-adv-x="667" 
d="M83 0v291h-83v105h83v271h198q40 0 86.5 -6.5t85.5 -23.5q43 -20 75 -51.5t53.5 -71t32 -85t10.5 -92.5t-10.5 -92.5t-32 -86t-53.5 -72.5t-75 -52q-73 -34 -167 -34h-203zM218 120h55q71 0 121 25q48 25 70.5 76.5t22.5 109.5q0 57 -21 107.5t-64 78.5
q-23 15 -57.5 22.5t-69.5 7.5h-57v-151h152v-105h-152v-171z" />
    <glyph glyph-name="Ntilde" unicode="&#xd1;" horiz-adv-x="695" 
d="M77 0v667h138l270 -416v416h133v-667h-118l-290 441v-441h-133zM149 742q17 51 49.5 83t77.5 32q20 0 39.5 -9t36.5 -20t32 -19.5t27 -8.5q10 0 27.5 11.5t34.5 51.5l68 -35q-18 -54 -50 -85t-77 -31q-21 0 -40.5 9.5t-36.5 20.5t-31.5 19t-26.5 8q-11 0 -27.5 -11.5
t-33.5 -51.5z" />
    <glyph glyph-name="Ograve" unicode="&#xd2;" horiz-adv-x="707" 
d="M217 16q-58 31 -96 80t-57 111.5t-19 126.5t19 126.5t57 111.5t96 79t135 30q78 0 136 -30t97 -79t58 -111.5t19 -126.5t-19 -126.5t-58 -111.5t-97 -79.5t-136 -30.5q-77 0 -135 30zM225 175q22 -32 53.5 -51t73.5 -19t74.5 19t54.5 51t33 73.5t11 85.5t-11 85.5
t-33 73.5t-54.5 51t-74.5 19t-73.5 -19t-53.5 -51t-33 -73.5t-11 -85.5t11 -85.5t33 -73.5zM170 816l63 83l201 -141l-35 -54z" />
    <glyph glyph-name="Oacute" unicode="&#xd3;" horiz-adv-x="707" 
d="M217 16q-58 31 -96 80t-57 111.5t-19 126.5t19 126.5t57 111.5t96 79t135 30q78 0 136 -30t97 -79t58 -111.5t19 -126.5t-19 -126.5t-58 -111.5t-97 -79.5t-136 -30.5q-77 0 -135 30zM225 175q22 -32 53.5 -51t73.5 -19t74.5 19t54.5 51t33 73.5t11 85.5t-11 85.5
t-33 73.5t-54.5 51t-74.5 19t-73.5 -19t-53.5 -51t-33 -73.5t-11 -85.5t11 -85.5t33 -73.5zM279 704l-36 54l201 141l63 -83z" />
    <glyph glyph-name="Ocircumflex" unicode="&#xd4;" horiz-adv-x="707" 
d="M217 16q-58 31 -96 80t-57 111.5t-19 126.5t19 126.5t57 111.5t96 79t135 30q78 0 136 -30t97 -79t58 -111.5t19 -126.5t-19 -126.5t-58 -111.5t-97 -79.5t-136 -30.5q-77 0 -135 30zM225 175q22 -32 53.5 -51t73.5 -19t74.5 19t54.5 51t33 73.5t11 85.5t-11 85.5
t-33 73.5t-54.5 51t-74.5 19t-73.5 -19t-53.5 -51t-33 -73.5t-11 -85.5t11 -85.5t33 -73.5zM186 755l121 130h96l121 -132l-69 -42l-101 96l-101 -97z" />
    <glyph glyph-name="Otilde" unicode="&#xd5;" horiz-adv-x="707" 
d="M217 16q-58 31 -96 80t-57 111.5t-19 126.5t19 126.5t57 111.5t96 79t135 30q78 0 136 -30t97 -79t58 -111.5t19 -126.5t-19 -126.5t-58 -111.5t-97 -79.5t-136 -30.5q-77 0 -135 30zM225 175q22 -32 53.5 -51t73.5 -19t74.5 19t54.5 51t33 73.5t11 85.5t-11 85.5
t-33 73.5t-54.5 51t-74.5 19t-73.5 -19t-53.5 -51t-33 -73.5t-11 -85.5t11 -85.5t33 -73.5zM150 742q17 51 49.5 83t77.5 32q20 0 39.5 -9t36.5 -20t32 -19.5t27 -8.5q10 0 27.5 11.5t34.5 51.5l68 -35q-18 -54 -50 -85t-77 -31q-21 0 -40.5 9.5t-36.5 20.5t-31.5 19
t-26.5 8q-11 0 -27.5 -11.5t-33.5 -51.5z" />
    <glyph glyph-name="Odieresis" unicode="&#xd6;" horiz-adv-x="707" 
d="M217 16q-58 31 -96 80t-57 111.5t-19 126.5t19 126.5t57 111.5t96 79t135 30q78 0 136 -30t97 -79t58 -111.5t19 -126.5t-19 -126.5t-58 -111.5t-97 -79.5t-136 -30.5q-77 0 -135 30zM225 175q22 -32 53.5 -51t73.5 -19t74.5 19t54.5 51t33 73.5t11 85.5t-11 85.5
t-33 73.5t-54.5 51t-74.5 19t-73.5 -19t-53.5 -51t-33 -73.5t-11 -85.5t11 -85.5t33 -73.5zM440 726q-28 0 -46.5 21.5t-18.5 49.5q0 29 18.5 50t46.5 21q29 0 47 -21t18 -50q0 -28 -18 -49.5t-47 -21.5zM252 726q-29 0 -47 21.5t-18 49.5q0 29 18 50t47 21q28 0 46.5 -21
t18.5 -50q0 -28 -18.5 -49.5t-46.5 -21.5z" />
    <glyph glyph-name="multiply" unicode="&#xd7;" horiz-adv-x="542" 
d="M143 125l-77 77l127 128l-127 128l77 77l128 -127l128 127l77 -77l-127 -128l127 -128l-77 -77l-128 127z" />
    <glyph glyph-name="Oslash" unicode="&#xd8;" horiz-adv-x="707" 
d="M32 44l70 80q-29 46 -43 100t-14 110q0 64 19 126t57 111t96 79t135 30q56 0 101 -15.5t81 -42.5l63 73l86 -72l-76 -87q28 -45 41.5 -98t13.5 -104q0 -64 -19 -126.5t-58 -111.5t-97 -79t-136 -30q-101 0 -174 55l-61 -71zM451 527q-20 17 -44.5 26.5t-54.5 9.5
q-42 0 -73.5 -19t-53.5 -51t-33 -73.5t-11 -85.5q0 -55 16 -100zM257 136q17 -12 43.5 -21.5t51.5 -9.5q42 0 74.5 19t54.5 51t33 73.5t11 85.5q0 21 -4 48.5t-9 47.5z" />
    <glyph glyph-name="Ugrave" unicode="&#xd9;" horiz-adv-x="687" 
d="M208 242q0 -60 35 -98.5t101 -38.5t100.5 38.5t34.5 98.5v425h135v-438q0 -57 -21 -102t-58 -76.5t-86 -48t-106 -16.5q-56 0 -105.5 16.5t-86 48t-57.5 76.5t-21 102v438h135v-425zM140 816l63 83l201 -141l-35 -54z" />
    <glyph glyph-name="Uacute" unicode="&#xda;" horiz-adv-x="687" 
d="M208 242q0 -60 35 -98.5t101 -38.5t100.5 38.5t34.5 98.5v425h135v-438q0 -57 -21 -102t-58 -76.5t-86 -48t-106 -16.5q-56 0 -105.5 16.5t-86 48t-57.5 76.5t-21 102v438h135v-425zM289 704l-36 54l201 141l63 -83z" />
    <glyph glyph-name="Ucircumflex" unicode="&#xdb;" horiz-adv-x="687" 
d="M208 242q0 -60 35 -98.5t101 -38.5t100.5 38.5t34.5 98.5v425h135v-438q0 -57 -21 -102t-58 -76.5t-86 -48t-106 -16.5q-56 0 -105.5 16.5t-86 48t-57.5 76.5t-21 102v438h135v-425zM177 755l121 130h96l121 -132l-69 -42l-101 96l-101 -97z" />
    <glyph glyph-name="Udieresis" unicode="&#xdc;" horiz-adv-x="687" 
d="M208 242q0 -60 35 -98.5t101 -38.5t100.5 38.5t34.5 98.5v425h135v-438q0 -57 -21 -102t-58 -76.5t-86 -48t-106 -16.5q-56 0 -105.5 16.5t-86 48t-57.5 76.5t-21 102v438h135v-425zM433 726q-28 0 -46.5 21.5t-18.5 49.5q0 29 18.5 50t46.5 21q29 0 47 -21t18 -50
q0 -28 -18 -49.5t-47 -21.5zM245 726q-29 0 -47 21.5t-18 49.5q0 29 18 50t47 21q28 0 46.5 -21t18.5 -50q0 -28 -18.5 -49.5t-46.5 -21.5z" />
    <glyph glyph-name="Yacute" unicode="&#xdd;" horiz-adv-x="581" 
d="M225 0v268l-225 399h150l145 -265l138 265h148l-221 -399v-268h-135zM235 704l-36 54l201 141l63 -83z" />
    <glyph glyph-name="Thorn" unicode="&#xde;" horiz-adv-x="580" 
d="M77 0v667h135v-103h76q50 0 93.5 -6.5t82.5 -25.5q51 -24 75 -71t24 -101q0 -31 -7.5 -61t-22.5 -56.5t-37 -47.5t-51 -33q-35 -14 -70.5 -19.5t-73.5 -5.5h-89v-137h-135zM212 252h77q29 0 52 3t40 11q29 13 42.5 36t13.5 49q0 28 -15 52.5t-44 34.5q-17 6 -36 9t-49 3
h-81v-198z" />
    <glyph glyph-name="germandbls" unicode="&#xdf;" horiz-adv-x="606" 
d="M85 0v382h-69v100h70q1 50 20.5 87.5t52 62t73.5 36.5t84 12q42 0 82 -12t71 -36.5t49.5 -61t18.5 -85.5v-86h-86q-18 0 -32 -8.5t-14 -25.5q0 -11 8.5 -21t22.5 -19.5t32.5 -19.5t38.5 -22q16 -9 30 -21.5t25 -29t17.5 -38t6.5 -49.5q0 -36 -13.5 -65t-36 -49t-52.5 -31
t-62 -11q-52 0 -97.5 23t-71.5 81l108 52q11 -27 28 -38.5t32 -11.5q17 0 28 11t11 31q0 18 -10.5 31.5t-27 25t-36.5 22t-40 22.5q-27 17 -48 44.5t-21 77.5q0 26 8.5 50.5t25.5 44t42 31.5t59 13q-3 21 -13 35.5t-23.5 23t-29 12.5t-29.5 4q-16 0 -33.5 -5.5t-32.5 -19
t-25 -35.5t-10 -55v-459h-131z" />
    <glyph glyph-name="agrave" unicode="&#xe0;" horiz-adv-x="514" 
d="M332 0l-6 36q-21 -22 -53.5 -34.5t-71.5 -12.5q-32 0 -62.5 10.5t-53.5 30t-37 48t-14 64.5t15 63.5t40 46.5t57.5 31t68.5 18q25 5 55 7.5t50 4.5v16q0 29 -20 47t-47 18q-17 0 -43 -9t-50 -34l-89 62q19 24 43.5 40t50 25t50.5 12.5t46 3.5q42 0 77 -10.5t60.5 -33
t39.5 -57t14 -83.5v-310h-120zM321 225q-20 -1 -42.5 -3.5t-42.5 -6.5q-42 -8 -58.5 -27.5t-16.5 -42.5q0 -24 18 -38.5t53 -14.5q25 0 48.5 10t40.5 25v98zM112 650l63 83l201 -141l-35 -54z" />
    <glyph glyph-name="aacute" unicode="&#xe1;" horiz-adv-x="514" 
d="M332 0l-6 36q-21 -22 -53.5 -34.5t-71.5 -12.5q-32 0 -62.5 10.5t-53.5 30t-37 48t-14 64.5t15 63.5t40 46.5t57.5 31t68.5 18q25 5 55 7.5t50 4.5v16q0 29 -20 47t-47 18q-17 0 -43 -9t-50 -34l-89 62q19 24 43.5 40t50 25t50.5 12.5t46 3.5q42 0 77 -10.5t60.5 -33
t39.5 -57t14 -83.5v-310h-120zM321 225q-20 -1 -42.5 -3.5t-42.5 -6.5q-42 -8 -58.5 -27.5t-16.5 -42.5q0 -24 18 -38.5t53 -14.5q25 0 48.5 10t40.5 25v98zM175 538l-36 54l201 141l63 -83z" />
    <glyph glyph-name="acircumflex" unicode="&#xe2;" horiz-adv-x="514" 
d="M332 0l-6 36q-21 -22 -53.5 -34.5t-71.5 -12.5q-32 0 -62.5 10.5t-53.5 30t-37 48t-14 64.5t15 63.5t40 46.5t57.5 31t68.5 18q25 5 55 7.5t50 4.5v16q0 29 -20 47t-47 18q-17 0 -43 -9t-50 -34l-89 62q19 24 43.5 40t50 25t50.5 12.5t46 3.5q42 0 77 -10.5t60.5 -33
t39.5 -57t14 -83.5v-310h-120zM321 225q-20 -1 -42.5 -3.5t-42.5 -6.5q-42 -8 -58.5 -27.5t-16.5 -42.5q0 -24 18 -38.5t53 -14.5q25 0 48.5 10t40.5 25v98zM79 589l121 130h96l121 -132l-69 -42l-101 96l-101 -97z" />
    <glyph glyph-name="atilde" unicode="&#xe3;" horiz-adv-x="514" 
d="M332 0l-6 36q-21 -22 -53.5 -34.5t-71.5 -12.5q-32 0 -62.5 10.5t-53.5 30t-37 48t-14 64.5t15 63.5t40 46.5t57.5 31t68.5 18q25 5 55 7.5t50 4.5v16q0 29 -20 47t-47 18q-17 0 -43 -9t-50 -34l-89 62q19 24 43.5 40t50 25t50.5 12.5t46 3.5q42 0 77 -10.5t60.5 -33
t39.5 -57t14 -83.5v-310h-120zM321 225q-20 -1 -42.5 -3.5t-42.5 -6.5q-42 -8 -58.5 -27.5t-16.5 -42.5q0 -24 18 -38.5t53 -14.5q25 0 48.5 10t40.5 25v98zM55 576q17 51 49.5 83t77.5 32q20 0 39.5 -9t36.5 -20t32 -19.5t27 -8.5q10 0 27.5 11.5t34.5 51.5l68 -35
q-18 -54 -50 -85t-77 -31q-21 0 -40.5 9.5t-36.5 20.5t-31.5 19t-26.5 8q-11 0 -27.5 -11.5t-33.5 -51.5z" />
    <glyph glyph-name="adieresis" unicode="&#xe4;" horiz-adv-x="514" 
d="M332 0l-6 36q-21 -22 -53.5 -34.5t-71.5 -12.5q-32 0 -62.5 10.5t-53.5 30t-37 48t-14 64.5t15 63.5t40 46.5t57.5 31t68.5 18q25 5 55 7.5t50 4.5v16q0 29 -20 47t-47 18q-17 0 -43 -9t-50 -34l-89 62q19 24 43.5 40t50 25t50.5 12.5t46 3.5q42 0 77 -10.5t60.5 -33
t39.5 -57t14 -83.5v-310h-120zM321 225q-20 -1 -42.5 -3.5t-42.5 -6.5q-42 -8 -58.5 -27.5t-16.5 -42.5q0 -24 18 -38.5t53 -14.5q25 0 48.5 10t40.5 25v98zM349 560q-28 0 -46.5 21.5t-18.5 49.5q0 29 18.5 50t46.5 21q29 0 47 -21t18 -50q0 -28 -18 -49.5t-47 -21.5z
M161 560q-29 0 -47 21.5t-18 49.5q0 29 18 50t47 21q28 0 46.5 -21t18.5 -50q0 -28 -18.5 -49.5t-46.5 -21.5z" />
    <glyph glyph-name="aring" unicode="&#xe5;" horiz-adv-x="514" 
d="M332 0l-6 36q-21 -22 -53.5 -34.5t-71.5 -12.5q-32 0 -62.5 10.5t-53.5 30t-37 48t-14 64.5t15 63.5t40 46.5t57.5 31t68.5 18q25 5 55 7.5t50 4.5v16q0 29 -20 47t-47 18q-17 0 -43 -9t-50 -34l-89 62q19 24 43.5 40t50 25t50.5 12.5t46 3.5q42 0 77 -10.5t60.5 -33
t39.5 -57t14 -83.5v-310h-120zM321 225q-20 -1 -42.5 -3.5t-42.5 -6.5q-42 -8 -58.5 -27.5t-16.5 -42.5q0 -24 18 -38.5t53 -14.5q25 0 48.5 10t40.5 25v98zM211 538q-19 10 -32 25t-19.5 34.5t-6.5 39.5t6.5 39.5t19.5 35t32.5 25t45.5 9.5t46 -9.5t33 -24.5t19.5 -34.5
t6.5 -39.5t-6.5 -39.5t-19.5 -35t-33 -25t-46 -9.5t-46 9zM228 605q11 -13 29 -13q19 0 29.5 13t10.5 33t-10.5 33t-29.5 13q-18 0 -28.5 -13t-10.5 -33t10 -33z" />
    <glyph glyph-name="ae" unicode="&#xe6;" horiz-adv-x="795" 
d="M74 417q28 34 72.5 55.5t104.5 21.5q101 0 149 -61q23 27 58 44t95 17q94 0 152 -70.5t60 -213.5h-314q1 -29 10 -50.5t24 -35.5t34.5 -21t40.5 -7q34 0 61.5 13.5t49.5 48.5l92 -55q-74 -114 -201 -114q-60 0 -102.5 19t-68.5 52q-31 -34 -71.5 -52.5t-108.5 -18.5
q-36 0 -68 10t-56 30t-38.5 49.5t-14.5 69.5q0 49 28 80t70.5 49t92.5 25.5t94 9.5v24q0 28 -19.5 43t-52.5 15q-26 0 -50.5 -14.5t-40.5 -31.5zM633 300q-2 41 -25 67.5t-60 26.5q-40 0 -64 -26.5t-31 -67.5h180zM320 218q-32 -1 -60 -5t-49.5 -13t-34 -22.5t-12.5 -33.5
q0 -26 17 -40t47 -14q15 0 31 4.5t29.5 14t22.5 23.5t9 32v54z" />
    <glyph glyph-name="ccedilla" unicode="&#xe7;" horiz-adv-x="487" 
d="M476 116q-31 -65 -83.5 -96t-122.5 -31q-46 0 -88.5 16t-75 47.5t-52 78t-19.5 108.5q0 64 19 112t50.5 80t72.5 47.5t85 15.5t78.5 -12.5t60 -32.5t42 -45t25.5 -50l-103 -51q-17 48 -42.5 67.5t-57.5 19.5q-20 0 -38 -9t-32.5 -27t-23 -46t-8.5 -67q0 -69 30.5 -107
t79.5 -38q38 0 62 19t43 54zM157 -181l62 137h116l-86 -137h-92z" />
    <glyph glyph-name="egrave" unicode="&#xe8;" horiz-adv-x="525" 
d="M166 210q5 -61 37.5 -88t72.5 -27q35 0 63 12.5t58 54.5l97 -59q-41 -63 -95 -88.5t-127 -25.5q-48 0 -91 15t-75.5 46.5t-51.5 78.5t-19 112q0 61 18.5 108t50.5 79t74.5 49t90.5 17q101 0 162.5 -70.5t63.5 -213.5h-329zM362 299q-4 48 -32.5 72t-60.5 24
q-17 0 -33.5 -6.5t-30.5 -19t-23.5 -30.5t-12.5 -40h193zM111 650l63 83l201 -141l-35 -54z" />
    <glyph glyph-name="eacute" unicode="&#xe9;" horiz-adv-x="525" 
d="M166 210q5 -61 37.5 -88t72.5 -27q35 0 63 12.5t58 54.5l97 -59q-41 -63 -95 -88.5t-127 -25.5q-48 0 -91 15t-75.5 46.5t-51.5 78.5t-19 112q0 61 18.5 108t50.5 79t74.5 49t90.5 17q101 0 162.5 -70.5t63.5 -213.5h-329zM362 299q-4 48 -32.5 72t-60.5 24
q-17 0 -33.5 -6.5t-30.5 -19t-23.5 -30.5t-12.5 -40h193zM193 538l-36 54l201 141l63 -83z" />
    <glyph glyph-name="ecircumflex" unicode="&#xea;" horiz-adv-x="525" 
d="M166 210q5 -61 37.5 -88t72.5 -27q35 0 63 12.5t58 54.5l97 -59q-41 -63 -95 -88.5t-127 -25.5q-48 0 -91 15t-75.5 46.5t-51.5 78.5t-19 112q0 61 18.5 108t50.5 79t74.5 49t90.5 17q101 0 162.5 -70.5t63.5 -213.5h-329zM362 299q-4 48 -32.5 72t-60.5 24
q-17 0 -33.5 -6.5t-30.5 -19t-23.5 -30.5t-12.5 -40h193zM95 589l121 130h96l121 -132l-69 -42l-101 96l-101 -97z" />
    <glyph glyph-name="edieresis" unicode="&#xeb;" horiz-adv-x="525" 
d="M166 210q5 -61 37.5 -88t72.5 -27q35 0 63 12.5t58 54.5l97 -59q-41 -63 -95 -88.5t-127 -25.5q-48 0 -91 15t-75.5 46.5t-51.5 78.5t-19 112q0 61 18.5 108t50.5 79t74.5 49t90.5 17q101 0 162.5 -70.5t63.5 -213.5h-329zM362 299q-4 48 -32.5 72t-60.5 24
q-17 0 -33.5 -6.5t-30.5 -19t-23.5 -30.5t-12.5 -40h193zM364 560q-28 0 -46.5 21.5t-18.5 49.5q0 29 18.5 50t46.5 21q29 0 47 -21t18 -50q0 -28 -18 -49.5t-47 -21.5zM176 560q-29 0 -47 21.5t-18 49.5q0 29 18 50t47 21q28 0 46.5 -21t18.5 -50q0 -28 -18.5 -49.5
t-46.5 -21.5z" />
    <glyph glyph-name="igrave" unicode="&#xec;" horiz-adv-x="261" 
d="M65 0v477h131v-477h-131zM-38 650l63 83l201 -141l-35 -54z" />
    <glyph glyph-name="iacute" unicode="&#xed;" horiz-adv-x="261" 
d="M65 0v477h131v-477h-131zM72 538l-36 54l201 141l63 -83z" />
    <glyph glyph-name="icircumflex" unicode="&#xee;" horiz-adv-x="261" 
d="M65 0v477h131v-477h-131zM-37 589l121 130h96l121 -132l-69 -42l-101 96l-101 -97z" />
    <glyph glyph-name="idieresis" unicode="&#xef;" horiz-adv-x="261" 
d="M65 0v477h131v-477h-131zM225 560q-28 0 -46.5 21.5t-18.5 49.5q0 29 18.5 50t46.5 21q29 0 47 -21t18 -50q0 -28 -18 -49.5t-47 -21.5zM37 560q-29 0 -47 21.5t-18 49.5q0 29 18 50t47 21q28 0 46.5 -21t18.5 -50q0 -28 -18.5 -49.5t-46.5 -21.5z" />
    <glyph glyph-name="eth" unicode="&#xf0;" horiz-adv-x="569" 
d="M174 680q44 -7 76.5 -17t64.5 -27l58 74l76 -58l-55 -71q37 -32 63 -70.5t42.5 -81.5t24 -88.5t7.5 -91.5q0 -57 -16 -104.5t-47 -82t-77 -53.5t-106 -19q-49 0 -93.5 15.5t-78.5 47t-54 78.5t-20 109q0 51 14 96t41.5 79t68.5 54t94 20q26 0 49 -6t43 -19
q-12 25 -33.5 47t-48.5 39t-57.5 28.5t-60.5 16.5zM389 307q-6 33 -14 52q-47 25 -92 25q-51 0 -84 -35.5t-33 -107.5q0 -36 10 -63t26.5 -45.5t37 -27.5t42.5 -9q21 0 41.5 9t36.5 27.5t26 46.5t10 66q0 29 -7 62z" />
    <glyph glyph-name="ntilde" unicode="&#xf1;" horiz-adv-x="581" 
d="M65 0v482h119l6 -38q30 24 69 37t78 13q40 0 73.5 -11.5t57.5 -36.5t37.5 -65t13.5 -96v-285h-131v275q0 55 -24 85t-67 30q-30 0 -56 -15t-45 -33v-342h-131zM89 576q17 51 49.5 83t77.5 32q20 0 39.5 -9t36.5 -20t32 -19.5t27 -8.5q10 0 27.5 11.5t34.5 51.5l68 -35
q-18 -54 -50 -85t-77 -31q-21 0 -40.5 9.5t-36.5 20.5t-31.5 19t-26.5 8q-11 0 -27.5 -11.5t-33.5 -51.5z" />
    <glyph glyph-name="ograve" unicode="&#xf2;" horiz-adv-x="556" 
d="M171 11q-45 22 -75.5 58t-45.5 81.5t-15 92.5t15 92t45.5 80.5t76 57t106.5 21.5t106.5 -21.5t76 -57t45.5 -80.5t15 -92t-15 -92.5t-45.5 -81.5t-76 -58t-106.5 -22t-107 22zM192 139q14 -20 35.5 -31.5t50.5 -11.5q28 0 49.5 11.5t36 31.5t22 46.5t7.5 57.5
q0 30 -7.5 57t-22 46.5t-36 31t-49.5 11.5t-49.5 -11.5t-36 -31t-22 -46.5t-7.5 -57q0 -31 7.5 -57.5t21.5 -46.5zM99 650l63 83l201 -141l-35 -54z" />
    <glyph glyph-name="oacute" unicode="&#xf3;" horiz-adv-x="556" 
d="M171 11q-45 22 -75.5 58t-45.5 81.5t-15 92.5t15 92t45.5 80.5t76 57t106.5 21.5t106.5 -21.5t76 -57t45.5 -80.5t15 -92t-15 -92.5t-45.5 -81.5t-76 -58t-106.5 -22t-107 22zM192 139q14 -20 35.5 -31.5t50.5 -11.5q28 0 49.5 11.5t36 31.5t22 46.5t7.5 57.5
q0 30 -7.5 57t-22 46.5t-36 31t-49.5 11.5t-49.5 -11.5t-36 -31t-22 -46.5t-7.5 -57q0 -31 7.5 -57.5t21.5 -46.5zM194 538l-36 54l201 141l63 -83z" />
    <glyph glyph-name="ocircumflex" unicode="&#xf4;" horiz-adv-x="556" 
d="M171 11q-45 22 -75.5 58t-45.5 81.5t-15 92.5t15 92t45.5 80.5t76 57t106.5 21.5t106.5 -21.5t76 -57t45.5 -80.5t15 -92t-15 -92.5t-45.5 -81.5t-76 -58t-106.5 -22t-107 22zM192 139q14 -20 35.5 -31.5t50.5 -11.5q28 0 49.5 11.5t36 31.5t22 46.5t7.5 57.5
q0 30 -7.5 57t-22 46.5t-36 31t-49.5 11.5t-49.5 -11.5t-36 -31t-22 -46.5t-7.5 -57q0 -31 7.5 -57.5t21.5 -46.5zM105 589l121 130h96l121 -132l-69 -42l-101 96l-101 -97z" />
    <glyph glyph-name="otilde" unicode="&#xf5;" horiz-adv-x="556" 
d="M171 11q-45 22 -75.5 58t-45.5 81.5t-15 92.5t15 92t45.5 80.5t76 57t106.5 21.5t106.5 -21.5t76 -57t45.5 -80.5t15 -92t-15 -92.5t-45.5 -81.5t-76 -58t-106.5 -22t-107 22zM192 139q14 -20 35.5 -31.5t50.5 -11.5q28 0 49.5 11.5t36 31.5t22 46.5t7.5 57.5
q0 30 -7.5 57t-22 46.5t-36 31t-49.5 11.5t-49.5 -11.5t-36 -31t-22 -46.5t-7.5 -57q0 -31 7.5 -57.5t21.5 -46.5zM65 576q17 51 49.5 83t77.5 32q20 0 39.5 -9t36.5 -20t32 -19.5t27 -8.5q10 0 27.5 11.5t34.5 51.5l68 -35q-18 -54 -50 -85t-77 -31q-21 0 -40.5 9.5
t-36.5 20.5t-31.5 19t-26.5 8q-11 0 -27.5 -11.5t-33.5 -51.5z" />
    <glyph glyph-name="odieresis" unicode="&#xf6;" horiz-adv-x="556" 
d="M171 11q-45 22 -75.5 58t-45.5 81.5t-15 92.5t15 92t45.5 80.5t76 57t106.5 21.5t106.5 -21.5t76 -57t45.5 -80.5t15 -92t-15 -92.5t-45.5 -81.5t-76 -58t-106.5 -22t-107 22zM192 139q14 -20 35.5 -31.5t50.5 -11.5q28 0 49.5 11.5t36 31.5t22 46.5t7.5 57.5
q0 30 -7.5 57t-22 46.5t-36 31t-49.5 11.5t-49.5 -11.5t-36 -31t-22 -46.5t-7.5 -57q0 -31 7.5 -57.5t21.5 -46.5zM368 560q-28 0 -46.5 21.5t-18.5 49.5q0 29 18.5 50t46.5 21q29 0 47 -21t18 -50q0 -28 -18 -49.5t-47 -21.5zM180 560q-29 0 -47 21.5t-18 49.5q0 29 18 50
t47 21q28 0 46.5 -21t18.5 -50q0 -28 -18.5 -49.5t-46.5 -21.5z" />
    <glyph glyph-name="divide" unicode="&#xf7;" horiz-adv-x="540" 
d="M238 449q-14 7 -25 18t-17 25.5t-6 29.5t6 29.5t17 25.5t25.5 17.5t32.5 6.5q35 0 57.5 -24t22.5 -55t-22.5 -55t-57.5 -24q-18 0 -33 6zM23 275v110h493v-110h-493zM271 72q-35 0 -58 23.5t-23 55.5q0 31 23 54.5t58 23.5t57.5 -23.5t22.5 -54.5q0 -32 -22.5 -55.5
t-57.5 -23.5z" />
    <glyph glyph-name="oslash" unicode="&#xf8;" horiz-adv-x="556" 
d="M67 -6l41 61q-37 37 -55 86.5t-18 101.5q0 47 15 92t45.5 80.5t76 57t106.5 21.5q32 0 59 -6t50 -17l38 56l69 -47l-39 -58q33 -36 49.5 -82.5t16.5 -96.5q0 -47 -15 -92.5t-45.5 -81.5t-76 -58t-106.5 -22q-55 0 -101 19l-41 -61zM241 99q15 -5 37 -5q28 0 49.5 11.5
t36.5 32t22.5 47.5t7.5 58q0 19 -3 37.5t-7 33.5zM327 381h1q-11 5 -23.5 7.5t-26.5 2.5q-28 0 -49.5 -11.5t-36.5 -32t-22.5 -47.5t-7.5 -57q0 -49 15 -85z" />
    <glyph glyph-name="ugrave" unicode="&#xf9;" horiz-adv-x="579" 
d="M394 0l-5 38q-35 -28 -72 -38t-73 -10q-88 0 -135 51t-47 154v287h131v-274q0 -50 19 -81t65 -31q38 0 64 14.5t42 27.5v344h131v-482h-120zM103 650l63 83l201 -141l-35 -54z" />
    <glyph glyph-name="uacute" unicode="&#xfa;" horiz-adv-x="579" 
d="M394 0l-5 38q-35 -28 -72 -38t-73 -10q-88 0 -135 51t-47 154v287h131v-274q0 -50 19 -81t65 -31q38 0 64 14.5t42 27.5v344h131v-482h-120zM233 538l-36 54l201 141l63 -83z" />
    <glyph glyph-name="ucircumflex" unicode="&#xfb;" horiz-adv-x="579" 
d="M394 0l-5 38q-35 -28 -72 -38t-73 -10q-88 0 -135 51t-47 154v287h131v-274q0 -50 19 -81t65 -31q38 0 64 14.5t42 27.5v344h131v-482h-120zM118 589l121 130h96l121 -132l-69 -42l-101 96l-101 -97z" />
    <glyph glyph-name="udieresis" unicode="&#xfc;" horiz-adv-x="579" 
d="M394 0l-5 38q-35 -28 -72 -38t-73 -10q-88 0 -135 51t-47 154v287h131v-274q0 -50 19 -81t65 -31q38 0 64 14.5t42 27.5v344h131v-482h-120zM383 560q-28 0 -46.5 21.5t-18.5 49.5q0 29 18.5 50t46.5 21q29 0 47 -21t18 -50q0 -28 -18 -49.5t-47 -21.5zM195 560
q-29 0 -47 21.5t-18 49.5q0 29 18 50t47 21q28 0 46.5 -21t18.5 -50q0 -28 -18.5 -49.5t-46.5 -21.5z" />
    <glyph glyph-name="yacute" unicode="&#xfd;" horiz-adv-x="517" 
d="M48 -81q19 -9 37.5 -13t31.5 -4q12 0 24 7t22 28l37 83l-200 462h139l126 -329l120 329h132l-250 -596q-11 -25 -26 -42t-33 -27t-38.5 -14t-40.5 -4q-26 0 -57.5 6.5t-64.5 20.5zM197 538l-36 54l201 141l63 -83z" />
    <glyph glyph-name="thorn" unicode="&#xfe;" horiz-adv-x="581" 
d="M73 -189v856h130v-210q26 19 54.5 27.5t60.5 8.5q55 0 97 -21t70 -56t42.5 -81.5t14.5 -97.5q0 -59 -21.5 -105t-58 -78t-86 -48.5t-106.5 -16.5q-35 0 -66 9v-187h-131zM203 105q11 -4 24 -6.5t28 -2.5q32 0 61 8t50.5 24.5t34.5 43t13 63.5q0 73 -34.5 113.5
t-91.5 40.5q-24 0 -46 -7t-39 -17v-260z" />
    <glyph glyph-name="ydieresis" unicode="&#xff;" horiz-adv-x="517" 
d="M48 -81q19 -9 37.5 -13t31.5 -4q12 0 24 7t22 28l37 83l-200 462h139l126 -329l120 329h132l-250 -596q-11 -25 -26 -42t-33 -27t-38.5 -14t-40.5 -4q-26 0 -57.5 6.5t-64.5 20.5zM356 560q-28 0 -46.5 21.5t-18.5 49.5q0 29 18.5 50t46.5 21q29 0 47 -21t18 -50
q0 -28 -18 -49.5t-47 -21.5zM168 560q-29 0 -47 21.5t-18 49.5q0 29 18 50t47 21q28 0 46.5 -21t18.5 -50q0 -28 -18.5 -49.5t-46.5 -21.5z" />
    <glyph glyph-name="Amacron" unicode="&#x100;" horiz-adv-x="648" 
d="M0 0l274 667h95l278 -667h-145l-54 134h-257l-55 -134h-136zM232 247h172l-86 219zM137 744v89h363v-89h-363z" />
    <glyph glyph-name="amacron" unicode="&#x101;" horiz-adv-x="514" 
d="M332 0l-6 36q-21 -22 -53.5 -34.5t-71.5 -12.5q-32 0 -62.5 10.5t-53.5 30t-37 48t-14 64.5t15 63.5t40 46.5t57.5 31t68.5 18q25 5 55 7.5t50 4.5v16q0 29 -20 47t-47 18q-17 0 -43 -9t-50 -34l-89 62q19 24 43.5 40t50 25t50.5 12.5t46 3.5q42 0 77 -10.5t60.5 -33
t39.5 -57t14 -83.5v-310h-120zM321 225q-20 -1 -42.5 -3.5t-42.5 -6.5q-42 -8 -58.5 -27.5t-16.5 -42.5q0 -24 18 -38.5t53 -14.5q25 0 48.5 10t40.5 25v98zM75 578v89h363v-89h-363z" />
    <glyph glyph-name="Abreve" unicode="&#x102;" horiz-adv-x="648" 
d="M0 0l274 667h95l278 -667h-145l-54 134h-257l-55 -134h-136zM232 247h172l-86 219zM251 846q6 -28 22 -44.5t43 -16.5t44 16.5t23 44.5h100q-1 -34 -16 -60t-38.5 -44t-53 -27.5t-59.5 -9.5q-33 0 -62.5 9t-52.5 26.5t-37.5 44t-15.5 61.5h103z" />
    <glyph glyph-name="abreve" unicode="&#x103;" horiz-adv-x="514" 
d="M332 0l-6 36q-21 -22 -53.5 -34.5t-71.5 -12.5q-32 0 -62.5 10.5t-53.5 30t-37 48t-14 64.5t15 63.5t40 46.5t57.5 31t68.5 18q25 5 55 7.5t50 4.5v16q0 29 -20 47t-47 18q-17 0 -43 -9t-50 -34l-89 62q19 24 43.5 40t50 25t50.5 12.5t46 3.5q42 0 77 -10.5t60.5 -33
t39.5 -57t14 -83.5v-310h-120zM321 225q-20 -1 -42.5 -3.5t-42.5 -6.5q-42 -8 -58.5 -27.5t-16.5 -42.5q0 -24 18 -38.5t53 -14.5q25 0 48.5 10t40.5 25v98zM198 680q6 -28 22 -44.5t43 -16.5t44 16.5t23 44.5h100q-1 -34 -16 -60t-38.5 -44t-53 -27.5t-59.5 -9.5
q-33 0 -62.5 9t-52.5 26.5t-37.5 44t-15.5 61.5h103z" />
    <glyph glyph-name="Aogonek" unicode="&#x104;" horiz-adv-x="648" 
d="M655 -164q-20 -11 -38.5 -14.5t-38.5 -3.5q-50 0 -76.5 22t-26.5 62q0 19 7.5 37.5t19.5 34.5q11 14 26 26h-26l-54 134h-257l-55 -134h-136l274 667h95l278 -667h-26q-18 -13 -31 -31q-19 -26 -19 -48q0 -13 5 -20t19 -7q11 0 21 3t15 6zM232 247h172l-86 219z" />
    <glyph glyph-name="aogonek" unicode="&#x105;" horiz-adv-x="514" 
d="M459 -164q-20 -11 -38.5 -14.5t-38.5 -3.5q-50 0 -76.5 22t-26.5 62q0 19 7.5 37.5t19.5 34.5q11 14 26 26l-6 36q-21 -22 -53.5 -34.5t-71.5 -12.5q-32 0 -62.5 10.5t-53.5 30t-37 48t-14 64.5t15 63.5t40 46.5t57.5 31t68.5 18q25 5 55 7.5t50 4.5v16q0 29 -20 47
t-47 18q-17 0 -43 -9t-50 -34l-89 62q19 24 43.5 40t50 25t50.5 12.5t46 3.5q42 0 77 -10.5t60.5 -33t39.5 -57t14 -83.5v-310h-27q-18 -13 -31 -31q-19 -26 -19 -48q0 -13 5 -20t19 -7q11 0 21 3t15 6zM321 225q-20 -1 -42.5 -3.5t-42.5 -6.5q-42 -8 -58.5 -27.5
t-16.5 -42.5q0 -24 18 -38.5t53 -14.5q25 0 48.5 10t40.5 25v98z" />
    <glyph glyph-name="Cacute" unicode="&#x106;" horiz-adv-x="608" 
d="M584 133q-45 -80 -102 -113.5t-139 -33.5q-66 0 -121 23t-94.5 67.5t-61 108.5t-21.5 146q0 90 24.5 155.5t65 109t94 64.5t110.5 21q46 0 83 -10.5t66.5 -30.5t52 -49t39.5 -66l-109 -61q-20 43 -49.5 71t-79.5 28q-31 0 -60 -14t-51 -43t-35.5 -72.5t-13.5 -102.5
q0 -52 13 -94t35.5 -71t52.5 -45t65 -16q19 0 36.5 4t33.5 14.5t31 28t30 45.5zM227 704l-36 54l201 141l63 -83z" />
    <glyph glyph-name="cacute" unicode="&#x107;" horiz-adv-x="487" 
d="M476 116q-31 -65 -83.5 -96t-122.5 -31q-46 0 -88.5 16t-75 47.5t-52 78t-19.5 108.5q0 64 19 112t50.5 80t72.5 47.5t85 15.5t78.5 -12.5t60 -32.5t42 -45t25.5 -50l-103 -51q-17 48 -42.5 67.5t-57.5 19.5q-20 0 -38 -9t-32.5 -27t-23 -46t-8.5 -67q0 -69 30.5 -107
t79.5 -38q38 0 62 19t43 54zM158 538l-36 54l201 141l63 -83z" />
    <glyph glyph-name="Ccircumflex" unicode="&#x108;" horiz-adv-x="608" 
d="M584 133q-45 -80 -102 -113.5t-139 -33.5q-66 0 -121 23t-94.5 67.5t-61 108.5t-21.5 146q0 90 24.5 155.5t65 109t94 64.5t110.5 21q46 0 83 -10.5t66.5 -30.5t52 -49t39.5 -66l-109 -61q-20 43 -49.5 71t-79.5 28q-31 0 -60 -14t-51 -43t-35.5 -72.5t-13.5 -102.5
q0 -52 13 -94t35.5 -71t52.5 -45t65 -16q19 0 36.5 4t33.5 14.5t31 28t30 45.5zM161 755l121 130h96l121 -132l-69 -42l-101 96l-101 -97z" />
    <glyph glyph-name="ccircumflex" unicode="&#x109;" horiz-adv-x="487" 
d="M476 116q-31 -65 -83.5 -96t-122.5 -31q-46 0 -88.5 16t-75 47.5t-52 78t-19.5 108.5q0 64 19 112t50.5 80t72.5 47.5t85 15.5t78.5 -12.5t60 -32.5t42 -45t25.5 -50l-103 -51q-17 48 -42.5 67.5t-57.5 19.5q-20 0 -38 -9t-32.5 -27t-23 -46t-8.5 -67q0 -69 30.5 -107
t79.5 -38q38 0 62 19t43 54zM96 589l121 130h96l121 -132l-69 -42l-101 96l-101 -97z" />
    <glyph glyph-name="Cdotaccent" unicode="&#x10a;" horiz-adv-x="608" 
d="M584 133q-45 -80 -102 -113.5t-139 -33.5q-66 0 -121 23t-94.5 67.5t-61 108.5t-21.5 146q0 90 24.5 155.5t65 109t94 64.5t110.5 21q46 0 83 -10.5t66.5 -30.5t52 -49t39.5 -66l-109 -61q-20 43 -49.5 71t-79.5 28q-31 0 -60 -14t-51 -43t-35.5 -72.5t-13.5 -102.5
q0 -52 13 -94t35.5 -71t52.5 -45t65 -16q19 0 36.5 4t33.5 14.5t31 28t30 45.5zM348 720q-30 0 -50 23t-20 54t20 54t50 23q31 0 51 -23t20 -54t-20 -54t-51 -23z" />
    <glyph glyph-name="cdotaccent" unicode="&#x10b;" horiz-adv-x="487" 
d="M476 116q-31 -65 -83.5 -96t-122.5 -31q-46 0 -88.5 16t-75 47.5t-52 78t-19.5 108.5q0 64 19 112t50.5 80t72.5 47.5t85 15.5t78.5 -12.5t60 -32.5t42 -45t25.5 -50l-103 -51q-17 48 -42.5 67.5t-57.5 19.5q-20 0 -38 -9t-32.5 -27t-23 -46t-8.5 -67q0 -69 30.5 -107
t79.5 -38q38 0 62 19t43 54zM263 554q-30 0 -50 23t-20 54t20 54t50 23q31 0 51 -23t20 -54t-20 -54t-51 -23z" />
    <glyph glyph-name="Ccaron" unicode="&#x10c;" horiz-adv-x="608" 
d="M584 133q-45 -80 -102 -113.5t-139 -33.5q-66 0 -121 23t-94.5 67.5t-61 108.5t-21.5 146q0 90 24.5 155.5t65 109t94 64.5t110.5 21q46 0 83 -10.5t66.5 -30.5t52 -49t39.5 -66l-109 -61q-20 43 -49.5 71t-79.5 28q-31 0 -60 -14t-51 -43t-35.5 -72.5t-13.5 -102.5
q0 -52 13 -94t35.5 -71t52.5 -45t65 -16q19 0 36.5 4t33.5 14.5t31 28t30 45.5zM291 710l-121 130l67 45l101 -96l101 95l69 -41l-121 -133h-96z" />
    <glyph glyph-name="ccaron" unicode="&#x10d;" horiz-adv-x="487" 
d="M476 116q-31 -65 -83.5 -96t-122.5 -31q-46 0 -88.5 16t-75 47.5t-52 78t-19.5 108.5q0 64 19 112t50.5 80t72.5 47.5t85 15.5t78.5 -12.5t60 -32.5t42 -45t25.5 -50l-103 -51q-17 48 -42.5 67.5t-57.5 19.5q-20 0 -38 -9t-32.5 -27t-23 -46t-8.5 -67q0 -69 30.5 -107
t79.5 -38q38 0 62 19t43 54zM217 544l-121 130l67 45l101 -96l101 95l69 -41l-121 -133h-96z" />
    <glyph glyph-name="Dcaron" unicode="&#x10e;" horiz-adv-x="661" 
d="M77 0v667h198q38 0 84 -6t88 -24q43 -20 75.5 -51.5t53.5 -71t31.5 -85t10.5 -92.5t-10.5 -92.5t-32 -86t-54 -72.5t-75.5 -52q-73 -34 -166 -34h-203zM212 120h54q73 0 121 25t71 76.5t23 109.5q0 57 -21 107.5t-65 78.5q-23 15 -57 22.5t-69 7.5h-57v-427zM251 710
l-121 130l67 45l101 -96l101 95l69 -41l-121 -133h-96z" />
    <glyph glyph-name="dcaron" unicode="&#x10f;" horiz-adv-x="567" 
d="M540 497v170h107l-34 -170h-73zM373 0l-6 37q-18 -19 -47 -33.5t-69 -14.5q-52 0 -92.5 21t-68 56t-41.5 81t-14 96q0 47 15 92t45 80.5t75 57t106 21.5q41 0 86 -14v187h130v-667h-119zM362 375q-37 14 -70 14t-57.5 -12t-40.5 -32.5t-24 -46t-8 -52.5q0 -30 7 -57.5
t21 -48t35.5 -33t51.5 -12.5q24 0 49 12.5t36 29.5v238z" />
    <glyph glyph-name="Dcroat" unicode="&#x110;" horiz-adv-x="667" 
d="M83 0v291h-83v105h83v271h198q40 0 86.5 -6.5t85.5 -23.5q43 -20 75 -51.5t53.5 -71t32 -85t10.5 -92.5t-10.5 -92.5t-32 -86t-53.5 -72.5t-75 -52q-73 -34 -167 -34h-203zM218 120h55q71 0 121 25q48 25 70.5 76.5t22.5 109.5q0 57 -21 107.5t-64 78.5
q-23 15 -57.5 22.5t-69.5 7.5h-57v-151h152v-105h-152v-171z" />
    <glyph glyph-name="dcroat" unicode="&#x111;" horiz-adv-x="557" 
d="M373 0l-6 37q-18 -19 -47 -33.5t-69 -14.5q-52 0 -92.5 20.5t-68 55t-41.5 80t-14 95.5q0 47 15 91.5t45 79t75 55t106 20.5q41 0 86 -14v60h-120v83h120v52h130v-52h64v-83h-64v-532h-119zM362 367q-37 14 -70 14t-57.5 -11.5t-40.5 -30.5t-24 -44t-8 -52q0 -30 7 -57
t21 -47t35.5 -32t51.5 -12q24 0 49 12.5t36 29.5v230z" />
    <glyph glyph-name="Emacron" unicode="&#x112;" horiz-adv-x="586" 
d="M77 0v667h458v-121h-323v-152h267v-121h-267v-152h346v-121h-481zM121 744v89h363v-89h-363z" />
    <glyph glyph-name="emacron" unicode="&#x113;" horiz-adv-x="525" 
d="M166 210q5 -61 37.5 -88t72.5 -27q35 0 63 12.5t58 54.5l97 -59q-41 -63 -95 -88.5t-127 -25.5q-48 0 -91 15t-75.5 46.5t-51.5 78.5t-19 112q0 61 18.5 108t50.5 79t74.5 49t90.5 17q101 0 162.5 -70.5t63.5 -213.5h-329zM362 299q-4 48 -32.5 72t-60.5 24
q-17 0 -33.5 -6.5t-30.5 -19t-23.5 -30.5t-12.5 -40h193zM80 578v89h363v-89h-363z" />
    <glyph glyph-name="Ebreve" unicode="&#x114;" horiz-adv-x="586" 
d="M77 0v667h458v-121h-323v-152h267v-121h-267v-152h346v-121h-481zM244 846q6 -28 22 -44.5t43 -16.5t44 16.5t23 44.5h100q-1 -34 -16 -60t-38.5 -44t-53 -27.5t-59.5 -9.5q-33 0 -62.5 9t-52.5 26.5t-37.5 44t-15.5 61.5h103z" />
    <glyph glyph-name="ebreve" unicode="&#x115;" horiz-adv-x="525" 
d="M166 210q5 -61 37.5 -88t72.5 -27q35 0 63 12.5t58 54.5l97 -59q-41 -63 -95 -88.5t-127 -25.5q-48 0 -91 15t-75.5 46.5t-51.5 78.5t-19 112q0 61 18.5 108t50.5 79t74.5 49t90.5 17q101 0 162.5 -70.5t63.5 -213.5h-329zM362 299q-4 48 -32.5 72t-60.5 24
q-17 0 -33.5 -6.5t-30.5 -19t-23.5 -30.5t-12.5 -40h193zM214 680q6 -28 22 -44.5t43 -16.5t44 16.5t23 44.5h100q-1 -34 -16 -60t-38.5 -44t-53 -27.5t-59.5 -9.5q-33 0 -62.5 9t-52.5 26.5t-37.5 44t-15.5 61.5h103z" />
    <glyph glyph-name="Edotaccent" unicode="&#x116;" horiz-adv-x="586" 
d="M77 0v667h458v-121h-323v-152h267v-121h-267v-152h346v-121h-481zM307 720q-30 0 -50 23t-20 54t20 54t50 23q31 0 51 -23t20 -54t-20 -54t-51 -23z" />
    <glyph glyph-name="edotaccent" unicode="&#x117;" horiz-adv-x="525" 
d="M166 210q5 -61 37.5 -88t72.5 -27q35 0 63 12.5t58 54.5l97 -59q-41 -63 -95 -88.5t-127 -25.5q-48 0 -91 15t-75.5 46.5t-51.5 78.5t-19 112q0 61 18.5 108t50.5 79t74.5 49t90.5 17q101 0 162.5 -70.5t63.5 -213.5h-329zM362 299q-4 48 -32.5 72t-60.5 24
q-17 0 -33.5 -6.5t-30.5 -19t-23.5 -30.5t-12.5 -40h193zM267 554q-30 0 -50 23t-20 54t20 54t50 23q31 0 51 -23t20 -54t-20 -54t-51 -23z" />
    <glyph glyph-name="Eogonek" unicode="&#x118;" horiz-adv-x="586" 
d="M556 -164q-20 -11 -38.5 -14.5t-38.5 -3.5q-50 0 -76.5 22t-26.5 62q0 19 7.5 37.5t19.5 34.5q11 14 26 26h-352v667h458v-121h-323v-152h267v-121h-267v-152h346v-121h-36q-18 -13 -31 -31q-19 -26 -19 -48q0 -13 5 -20t19 -7q11 0 21 3t15 6z" />
    <glyph glyph-name="eogonek" unicode="&#x119;" horiz-adv-x="525" 
d="M405 -164q-20 -11 -38.5 -14.5t-38.5 -3.5q-50 0 -76.5 22t-26.5 62q0 19 7.5 37.5t19.5 34.5q6 8 13 15q-44 1 -84 15q-43 15 -75.5 46.5t-51.5 78.5t-19 112q0 61 18.5 108t50.5 79t74.5 49t90.5 17q101 0 162.5 -70.5t63.5 -213.5h-329q5 -61 37.5 -88t72.5 -27
q35 0 63 12.5t58 54.5l97 -59q-41 -63 -95 -89q-9 -4 -18 -7q-25 -16 -41 -38q-19 -26 -19 -48q0 -13 5 -20t19 -7q11 0 21 3t15 6zM362 299q-4 48 -32.5 72t-60.5 24q-17 0 -33.5 -6.5t-30.5 -19t-23.5 -30.5t-12.5 -40h193z" />
    <glyph glyph-name="Ecaron" unicode="&#x11a;" horiz-adv-x="586" 
d="M77 0v667h458v-121h-323v-152h267v-121h-267v-152h346v-121h-481zM264 710l-121 130l67 45l101 -96l101 95l69 -41l-121 -133h-96z" />
    <glyph glyph-name="ecaron" unicode="&#x11b;" horiz-adv-x="525" 
d="M166 210q5 -61 37.5 -88t72.5 -27q35 0 63 12.5t58 54.5l97 -59q-41 -63 -95 -88.5t-127 -25.5q-48 0 -91 15t-75.5 46.5t-51.5 78.5t-19 112q0 61 18.5 108t50.5 79t74.5 49t90.5 17q101 0 162.5 -70.5t63.5 -213.5h-329zM362 299q-4 48 -32.5 72t-60.5 24
q-17 0 -33.5 -6.5t-30.5 -19t-23.5 -30.5t-12.5 -40h193zM220 544l-121 130l67 45l101 -96l101 95l69 -41l-121 -133h-96z" />
    <glyph glyph-name="Gcircumflex" unicode="&#x11c;" horiz-adv-x="627" 
d="M352 236v115h235v-321q-41 -18 -98 -31t-145 -13q-64 0 -119 23t-95 67.5t-62.5 108.5t-22.5 146q0 90 24 155.5t64.5 109t93.5 64.5t112 21q90 0 146.5 -36t91.5 -110l-109 -61q-20 42 -50.5 65.5t-75.5 23.5q-30 0 -59 -14t-51.5 -43t-36 -72.5t-13.5 -102.5
q0 -52 14 -93.5t38 -71t56 -45.5t69 -16q32 0 58.5 3t43.5 8v120h-109zM173 755l121 130h96l121 -132l-69 -42l-101 96l-101 -97z" />
    <glyph glyph-name="gcircumflex" unicode="&#x11d;" horiz-adv-x="533" 
d="M445 421q19 -21 29.5 -49t10.5 -57q0 -45 -18.5 -78.5t-49.5 -55.5t-71 -33t-82 -11q-19 0 -37.5 2.5t-31.5 5.5q-5 -3 -10 -10t-5 -13q0 -7 5 -12t19.5 -9t40.5 -7t69 -4q52 -2 92 -9.5t66.5 -24t40 -43t13.5 -65.5q0 -43 -21 -71.5t-55 -46t-78.5 -24.5t-90.5 -7
t-90.5 7t-79.5 23.5t-56.5 44t-21.5 69.5q0 35 15 56.5t41 35.5q-14 11 -24.5 29t-10.5 40q0 26 15 46.5t40 34.5q-29 23 -46.5 56.5t-17.5 73.5q0 45 18.5 78.5t49 56t70 33.5t81.5 11q29 0 52 -5t49 -15l77 81l73 -60zM169 314q0 -39 26.5 -59.5t68.5 -20.5t69.5 20.5
t27.5 58.5t-27.5 61t-69.5 23t-68.5 -22.5t-26.5 -60.5zM217 -6q-21 2 -41 5q-9 -6 -18 -17.5t-9 -27.5q0 -62 135 -62q60 0 94 12t34 35q0 13 -5 22t-21.5 15t-46.5 9.5t-81 4.5q-20 1 -41 4zM91 589l121 130h96l121 -132l-69 -42l-101 96l-101 -97z" />
    <glyph glyph-name="Gbreve" unicode="&#x11e;" horiz-adv-x="627" 
d="M352 236v115h235v-321q-41 -18 -98 -31t-145 -13q-64 0 -119 23t-95 67.5t-62.5 108.5t-22.5 146q0 90 24 155.5t64.5 109t93.5 64.5t112 21q90 0 146.5 -36t91.5 -110l-109 -61q-20 42 -50.5 65.5t-75.5 23.5q-30 0 -59 -14t-51.5 -43t-36 -72.5t-13.5 -102.5
q0 -52 14 -93.5t38 -71t56 -45.5t69 -16q32 0 58.5 3t43.5 8v120h-109zM281 846q6 -28 22 -44.5t43 -16.5t44 16.5t23 44.5h100q-1 -34 -16 -60t-38.5 -44t-53 -27.5t-59.5 -9.5q-33 0 -62.5 9t-52.5 26.5t-37.5 44t-15.5 61.5h103z" />
    <glyph glyph-name="gbreve" unicode="&#x11f;" horiz-adv-x="533" 
d="M445 421q19 -21 29.5 -49t10.5 -57q0 -45 -18.5 -78.5t-49.5 -55.5t-71 -33t-82 -11q-19 0 -37.5 2.5t-31.5 5.5q-5 -3 -10 -10t-5 -13q0 -7 5 -12t19.5 -9t40.5 -7t69 -4q52 -2 92 -9.5t66.5 -24t40 -43t13.5 -65.5q0 -43 -21 -71.5t-55 -46t-78.5 -24.5t-90.5 -7
t-90.5 7t-79.5 23.5t-56.5 44t-21.5 69.5q0 35 15 56.5t41 35.5q-14 11 -24.5 29t-10.5 40q0 26 15 46.5t40 34.5q-29 23 -46.5 56.5t-17.5 73.5q0 45 18.5 78.5t49 56t70 33.5t81.5 11q29 0 52 -5t49 -15l77 81l73 -60zM169 314q0 -39 26.5 -59.5t68.5 -20.5t69.5 20.5
t27.5 58.5t-27.5 61t-69.5 23t-68.5 -22.5t-26.5 -60.5zM217 -6q-21 2 -41 5q-9 -6 -18 -17.5t-9 -27.5q0 -62 135 -62q60 0 94 12t34 35q0 13 -5 22t-21.5 15t-46.5 9.5t-81 4.5q-20 1 -41 4zM198 680q6 -28 22 -44.5t43 -16.5t44 16.5t23 44.5h100q-1 -34 -16 -60
t-38.5 -44t-53 -27.5t-59.5 -9.5q-33 0 -62.5 9t-52.5 26.5t-37.5 44t-15.5 61.5h103z" />
    <glyph glyph-name="Gdotaccent" unicode="&#x120;" horiz-adv-x="627" 
d="M352 236v115h235v-321q-41 -18 -98 -31t-145 -13q-64 0 -119 23t-95 67.5t-62.5 108.5t-22.5 146q0 90 24 155.5t64.5 109t93.5 64.5t112 21q90 0 146.5 -36t91.5 -110l-109 -61q-20 42 -50.5 65.5t-75.5 23.5q-30 0 -59 -14t-51.5 -43t-36 -72.5t-13.5 -102.5
q0 -52 14 -93.5t38 -71t56 -45.5t69 -16q32 0 58.5 3t43.5 8v120h-109zM337 720q-30 0 -50 23t-20 54t20 54t50 23q31 0 51 -23t20 -54t-20 -54t-51 -23z" />
    <glyph glyph-name="gdotaccent" unicode="&#x121;" horiz-adv-x="533" 
d="M445 421q19 -21 29.5 -49t10.5 -57q0 -45 -18.5 -78.5t-49.5 -55.5t-71 -33t-82 -11q-19 0 -37.5 2.5t-31.5 5.5q-5 -3 -10 -10t-5 -13q0 -7 5 -12t19.5 -9t40.5 -7t69 -4q52 -2 92 -9.5t66.5 -24t40 -43t13.5 -65.5q0 -43 -21 -71.5t-55 -46t-78.5 -24.5t-90.5 -7
t-90.5 7t-79.5 23.5t-56.5 44t-21.5 69.5q0 35 15 56.5t41 35.5q-14 11 -24.5 29t-10.5 40q0 26 15 46.5t40 34.5q-29 23 -46.5 56.5t-17.5 73.5q0 45 18.5 78.5t49 56t70 33.5t81.5 11q29 0 52 -5t49 -15l77 81l73 -60zM169 314q0 -39 26.5 -59.5t68.5 -20.5t69.5 20.5
t27.5 58.5t-27.5 61t-69.5 23t-68.5 -22.5t-26.5 -60.5zM217 -6q-21 2 -41 5q-9 -6 -18 -17.5t-9 -27.5q0 -62 135 -62q60 0 94 12t34 35q0 13 -5 22t-21.5 15t-46.5 9.5t-81 4.5q-20 1 -41 4zM264 554q-30 0 -50 23t-20 54t20 54t50 23q31 0 51 -23t20 -54t-20 -54t-51 -23
z" />
    <glyph glyph-name="Gcommaaccent" unicode="&#x122;" horiz-adv-x="627" 
d="M352 236v115h235v-321q-41 -18 -98 -31t-145 -13q-64 0 -119 23t-95 67.5t-62.5 108.5t-22.5 146q0 90 24 155.5t64.5 109t93.5 64.5t112 21q90 0 146.5 -36t91.5 -110l-109 -61q-20 42 -50.5 65.5t-75.5 23.5q-30 0 -59 -14t-51.5 -43t-36 -72.5t-13.5 -102.5
q0 -52 14 -93.5t38 -71t56 -45.5t69 -16q32 0 58.5 3t43.5 8v120h-109zM236 -181l62 137h116l-86 -137h-92z" />
    <glyph glyph-name="gcommaaccent" unicode="&#x123;" horiz-adv-x="533" 
d="M445 421q19 -21 29.5 -49t10.5 -57q0 -45 -18.5 -78.5t-49.5 -55.5t-71 -33t-82 -11q-19 0 -37.5 2.5t-31.5 5.5q-5 -3 -10 -10t-5 -13q0 -7 5 -12t19.5 -9t40.5 -7t69 -4q52 -2 92 -9.5t66.5 -24t40 -43t13.5 -65.5q0 -43 -21 -71.5t-55 -46t-78.5 -24.5t-90.5 -7
t-90.5 7t-79.5 23.5t-56.5 44t-21.5 69.5q0 35 15 56.5t41 35.5q-14 11 -24.5 29t-10.5 40q0 26 15 46.5t40 34.5q-29 23 -46.5 56.5t-17.5 73.5q0 45 18.5 78.5t49 56t70 33.5t81.5 11q29 0 52 -5t49 -15l77 81l73 -60zM169 314q0 -39 26.5 -59.5t68.5 -20.5t69.5 20.5
t27.5 58.5t-27.5 61t-69.5 23t-68.5 -22.5t-26.5 -60.5zM217 -6q-21 2 -41 5q-9 -6 -18 -17.5t-9 -27.5q0 -62 135 -62q60 0 94 12t34 35q0 13 -5 22t-21.5 15t-46.5 9.5t-81 4.5q-20 1 -41 4zM208 559l85 130h83l-59 -130h-109z" />
    <glyph glyph-name="Hcircumflex" unicode="&#x124;" horiz-adv-x="689" 
d="M77 0v667h135v-264h265v264h135v-667h-135v282h-265v-282h-135zM188 755l121 130h96l121 -132l-69 -42l-101 96l-101 -97z" />
    <glyph glyph-name="hcircumflex" unicode="&#x125;" horiz-adv-x="577" 
d="M65 0v667h131v-217q24 18 57.5 31t80.5 13q49 0 83 -15t56 -42t32 -65.5t10 -85.5v-286h-131v277q0 60 -24.5 86.5t-56.5 26.5t-61 -16.5t-46 -30.5v-343h-131zM73 755l121 130h96l121 -132l-69 -42l-101 96l-101 -97z" />
    <glyph glyph-name="Hbar" unicode="&#x126;" horiz-adv-x="689" 
d="M77 0v483h-70v97h70v87h135v-87h265v87h135v-87h67v-97h-67v-483h-135v282h-265v-282h-135zM212 403h265v80h-265v-80z" />
    <glyph glyph-name="hbar" unicode="&#x127;" horiz-adv-x="577" 
d="M65 0v534h-62v87h62v46h131v-46h149v-87h-149v-84q24 18 57.5 31t80.5 13q49 0 83 -15t56 -42t32 -65.5t10 -85.5v-286h-131v277q0 60 -24.5 86.5t-56.5 26.5t-61 -16.5t-46 -30.5v-343h-131z" />
    <glyph glyph-name="Itilde" unicode="&#x128;" horiz-adv-x="289" 
d="M77 0v667h135v-667h-135zM-51 742q17 51 49.5 83t77.5 32q20 0 39.5 -9t36.5 -20t32 -19.5t27 -8.5q10 0 27.5 11.5t34.5 51.5l68 -35q-18 -54 -50 -85t-77 -31q-21 0 -40.5 9.5t-36.5 20.5t-31.5 19t-26.5 8q-11 0 -27.5 -11.5t-33.5 -51.5z" />
    <glyph glyph-name="itilde" unicode="&#x129;" horiz-adv-x="261" 
d="M65 0v477h131v-477h-131zM-65 576q17 51 49.5 83t77.5 32q20 0 39.5 -9t36.5 -20t32 -19.5t27 -8.5q10 0 27.5 11.5t34.5 51.5l68 -35q-18 -54 -50 -85t-77 -31q-21 0 -40.5 9.5t-36.5 20.5t-31.5 19t-26.5 8q-11 0 -27.5 -11.5t-33.5 -51.5z" />
    <glyph glyph-name="Imacron" unicode="&#x12a;" horiz-adv-x="289" 
d="M77 0v667h135v-667h-135zM-33 744v89h363v-89h-363z" />
    <glyph glyph-name="imacron" unicode="&#x12b;" horiz-adv-x="261" 
d="M65 0v477h131v-477h-131zM-46 578v89h363v-89h-363z" />
    <glyph glyph-name="Ibreve" unicode="&#x12c;" horiz-adv-x="289" 
d="M77 0v667h135v-667h-135zM80 846q6 -28 22 -44.5t43 -16.5t44 16.5t23 44.5h100q-1 -34 -16 -60t-38.5 -44t-53 -27.5t-59.5 -9.5q-33 0 -62.5 9t-52.5 26.5t-37.5 44t-15.5 61.5h103z" />
    <glyph glyph-name="ibreve" unicode="&#x12d;" horiz-adv-x="261" 
d="M65 0v477h131v-477h-131zM68 680q6 -28 22 -44.5t43 -16.5t44 16.5t23 44.5h100q-1 -34 -16 -60t-38.5 -44t-53 -27.5t-59.5 -9.5q-33 0 -62.5 9t-52.5 26.5t-37.5 44t-15.5 61.5h103z" />
    <glyph glyph-name="Iogonek" unicode="&#x12e;" horiz-adv-x="289" 
d="M226 -164q-20 -11 -38.5 -14.5t-38.5 -3.5q-50 0 -76.5 22t-26.5 62q0 19 7.5 37.5t19.5 34.5q11 14 26 26h-22v667h135v-667h-20q-18 -13 -31 -31q-19 -26 -19 -48q0 -13 5 -20t19 -7q11 0 21 3t15 6z" />
    <glyph glyph-name="iogonek" unicode="&#x12f;" horiz-adv-x="260" 
d="M209 -164q-20 -11 -38.5 -14.5t-38.5 -3.5q-50 0 -76.5 22t-26.5 62q0 19 7.5 37.5t19.5 34.5q11 14 26 26h-17v482h130v-482h-20q-18 -13 -31 -31q-19 -26 -19 -48q0 -13 5 -20t19 -7q11 0 21 3t15 6zM130 537q-39 0 -58.5 22t-19.5 49q0 26 19.5 48t58.5 22t58.5 -22
t19.5 -48q0 -27 -19.5 -49t-58.5 -22z" />
    <glyph glyph-name="Idotaccent" unicode="&#x130;" horiz-adv-x="289" 
d="M77 0v667h135v-667h-135zM147 720q-30 0 -50 23t-20 54t20 54t50 23q31 0 51 -23t20 -54t-20 -54t-51 -23z" />
    <glyph glyph-name="dotlessi" unicode="&#x131;" horiz-adv-x="261" 
d="M65 0v477h131v-477h-131z" />
    <glyph glyph-name="IJ" unicode="&#x132;" horiz-adv-x="579" 
d="M77 0v667h135v-667h-135zM239 -29q70 14 99 43t29 75v578h135v-600q0 -47 -17 -82.5t-48.5 -61t-75 -41.5t-97.5 -25z" />
    <glyph glyph-name="ij" unicode="&#x133;" horiz-adv-x="521" 
d="M130 537q-39 0 -58.5 22t-19.5 49q0 26 19.5 48t58.5 22t58.5 -22t19.5 -48q0 -27 -19.5 -49t-58.5 -22zM65 0v482h130v-482h-130zM392 537q-39 0 -58.5 22t-19.5 49q0 26 19.5 48t58.5 22q38 0 57.5 -22t19.5 -48q0 -27 -19.5 -49t-57.5 -22zM243 -116q25 17 41.5 31.5
t25.5 30t12.5 33t3.5 40.5v463h130v-463q0 -39 -8.5 -70.5t-26 -57.5t-44 -47t-62.5 -40z" />
    <glyph glyph-name="Jcircumflex" unicode="&#x134;" horiz-adv-x="297" 
d="M-43 -29q70 14 99 43t29 75v578h135v-600q0 -47 -17 -82.5t-48.5 -61t-75 -41.5t-97.5 -25zM-16 755l121 130h96l121 -132l-69 -42l-101 96l-101 -97z" />
    <glyph glyph-name="jcircumflex" unicode="&#x135;" horiz-adv-x="270" 
d="M-8 -116q25 17 41.5 31.5t25.5 30t12.5 33t3.5 40.5v463h130v-463q0 -39 -8.5 -70.5t-26 -57.5t-44 -47t-62.5 -40zM-27 589l121 130h96l121 -132l-69 -42l-101 96l-101 -97z" />
    <glyph glyph-name="Kcommaaccent" unicode="&#x136;" horiz-adv-x="639" 
d="M77 0v667h135v-255l256 255h160l-262 -260l275 -407h-152l-215 316l-62 -62v-254h-135zM242 -181l62 137h116l-86 -137h-92z" />
    <glyph glyph-name="kcommaaccent" unicode="&#x137;" horiz-adv-x="522" 
d="M65 0v667h131v-321l151 136h157l-166 -149l190 -333h-147l-138 249l-47 -44v-205h-131zM184 -181l62 137h116l-86 -137h-92z" />
    <glyph glyph-name="kgreenlandic" unicode="&#x138;" horiz-adv-x="522" 
d="M65 0v482h131v-172l158 172h155l-173 -189l192 -293h-147l-138 206l-47 -53v-153h-131z" />
    <glyph glyph-name="Lacute" unicode="&#x139;" horiz-adv-x="553" 
d="M77 0v667h135v-546h336v-121h-471zM70 704l-36 54l201 141l63 -83z" />
    <glyph glyph-name="lacute" unicode="&#x13a;" horiz-adv-x="261" 
d="M65 0v667h131v-667h-131zM56 704l-36 54l201 141l63 -83z" />
    <glyph glyph-name="Lcommaaccent" unicode="&#x13b;" horiz-adv-x="553" 
d="M77 0v667h135v-546h336v-121h-471zM199 -181l62 137h116l-86 -137h-92z" />
    <glyph glyph-name="lcommaaccent" unicode="&#x13c;" horiz-adv-x="261" 
d="M65 0v667h131v-667h-131zM7 -181l62 137h116l-86 -137h-92z" />
    <glyph glyph-name="Lcaron" unicode="&#x13d;" horiz-adv-x="553" 
d="M77 0v667h135v-546h336v-121h-471zM272 497v170h107l-34 -170h-73z" />
    <glyph glyph-name="lcaron" unicode="&#x13e;" horiz-adv-x="323" 
d="M65 0v667h131v-667h-131zM246 497v170h107l-34 -170h-73z" />
    <glyph glyph-name="Ldot" unicode="&#x13f;" horiz-adv-x="553" 
d="M77 0v667h135v-546h336v-121h-471zM360 272q-30 0 -50 23t-20 54t20 54t50 23q31 0 51 -23t20 -54t-20 -54t-51 -23z" />
    <glyph glyph-name="ldot" unicode="&#x140;" horiz-adv-x="368" 
d="M65 0v667h131v-667h-131zM317 272q-30 0 -50 23t-20 54t20 54t50 23q31 0 51 -23t20 -54t-20 -54t-51 -23z" />
    <glyph glyph-name="Lslash" unicode="&#x141;" horiz-adv-x="554" 
d="M77 0v250l-59 -35l-53 82l112 69v301h135v-218l92 58l57 -83l-149 -92v-211h337v-121h-472z" />
    <glyph glyph-name="lslash" unicode="&#x142;" horiz-adv-x="310" 
d="M86 0v255l-60 -36l-46 78l106 63v307h131v-231l75 48l48 -76l-123 -76v-332h-131z" />
    <glyph glyph-name="Nacute" unicode="&#x143;" horiz-adv-x="695" 
d="M77 0v667h138l270 -416v416h133v-667h-118l-290 441v-441h-133zM277 704l-36 54l201 141l63 -83z" />
    <glyph glyph-name="nacute" unicode="&#x144;" horiz-adv-x="581" 
d="M65 0v482h119l6 -38q30 24 69 37t78 13q40 0 73.5 -11.5t57.5 -36.5t37.5 -65t13.5 -96v-285h-131v275q0 55 -24 85t-67 30q-30 0 -56 -15t-45 -33v-342h-131zM197 538l-36 54l201 141l63 -83z" />
    <glyph glyph-name="Ncommaaccent" unicode="&#x145;" horiz-adv-x="695" 
d="M77 0v667h138l270 -416v416h133v-667h-118l-290 441v-441h-133zM249 -181l62 137h116l-86 -137h-92z" />
    <glyph glyph-name="ncommaaccent" unicode="&#x146;" horiz-adv-x="581" 
d="M65 0v482h119l6 -38q30 24 69 37t78 13q40 0 73.5 -11.5t57.5 -36.5t37.5 -65t13.5 -96v-285h-131v275q0 55 -24 85t-67 30q-30 0 -56 -15t-45 -33v-342h-131zM176 -181l62 137h116l-86 -137h-92z" />
    <glyph glyph-name="Ncaron" unicode="&#x147;" horiz-adv-x="695" 
d="M77 0v667h138l270 -416v416h133v-667h-118l-290 441v-441h-133zM300 710l-121 130l67 45l101 -96l101 95l69 -41l-121 -133h-96z" />
    <glyph glyph-name="ncaron" unicode="&#x148;" horiz-adv-x="581" 
d="M65 0v482h119l6 -38q30 24 69 37t78 13q40 0 73.5 -11.5t57.5 -36.5t37.5 -65t13.5 -96v-285h-131v275q0 55 -24 85t-67 30q-30 0 -56 -15t-45 -33v-342h-131zM247 544l-121 130l67 45l101 -96l101 95l69 -41l-121 -133h-96z" />
    <glyph glyph-name="napostrophe" unicode="&#x149;" horiz-adv-x="597" 
d="M81 0v482h119l6 -38q30 24 69 37t78 13q40 0 73.5 -11.5t57.5 -36.5t37.5 -65t13.5 -96v-285h-131v275q0 55 -24 85t-67 30q-30 0 -56 -15t-45 -33v-342h-131zM50 552q17 4 34 13t25 18q-11 8 -17.5 21.5t-6.5 29.5q0 23 14 43t42 20q24 0 40.5 -17.5t16.5 -43.5
q0 -17 -7.5 -35t-24 -34.5t-42 -31t-61.5 -23.5z" />
    <glyph glyph-name="Eng" unicode="&#x14a;" horiz-adv-x="695" 
d="M77 0v667h138l270 -416v416h133v-648q0 -42 -9.5 -74t-27.5 -57.5t-44.5 -45.5t-59.5 -38l-72 80q25 17 41 31.5t25.5 30t13 32.5t3.5 40l-278 423v-441h-133z" />
    <glyph glyph-name="eng" unicode="&#x14b;" horiz-adv-x="581" 
d="M65 0v482h119l6 -38q30 24 69 37t78 13q40 0 73.5 -11.5t57.5 -36.5t37.5 -65t13.5 -96v-285q0 -37 -10 -66t-29 -52.5t-45 -42t-57 -35.5l-72 80q45 30 62.5 55t19.5 61v275q0 55 -24 85t-67 30q-30 0 -56 -15t-45 -33v-342h-131z" />
    <glyph glyph-name="Omacron" unicode="&#x14c;" horiz-adv-x="707" 
d="M217 16q-58 31 -96 80t-57 111.5t-19 126.5t19 126.5t57 111.5t96 79t135 30q78 0 136 -30t97 -79t58 -111.5t19 -126.5t-19 -126.5t-58 -111.5t-97 -79.5t-136 -30.5q-77 0 -135 30zM225 175q22 -32 53.5 -51t73.5 -19t74.5 19t54.5 51t33 73.5t11 85.5t-11 85.5
t-33 73.5t-54.5 51t-74.5 19t-73.5 -19t-53.5 -51t-33 -73.5t-11 -85.5t11 -85.5t33 -73.5zM174 744v89h363v-89h-363z" />
    <glyph glyph-name="omacron" unicode="&#x14d;" horiz-adv-x="556" 
d="M171 11q-45 22 -75.5 58t-45.5 81.5t-15 92.5t15 92t45.5 80.5t76 57t106.5 21.5t106.5 -21.5t76 -57t45.5 -80.5t15 -92t-15 -92.5t-45.5 -81.5t-76 -58t-106.5 -22t-107 22zM192 139q14 -20 35.5 -31.5t50.5 -11.5q28 0 49.5 11.5t36 31.5t22 46.5t7.5 57.5
q0 30 -7.5 57t-22 46.5t-36 31t-49.5 11.5t-49.5 -11.5t-36 -31t-22 -46.5t-7.5 -57q0 -31 7.5 -57.5t21.5 -46.5zM99 578v89h363v-89h-363z" />
    <glyph glyph-name="Obreve" unicode="&#x14e;" horiz-adv-x="707" 
d="M217 16q-58 31 -96 80t-57 111.5t-19 126.5t19 126.5t57 111.5t96 79t135 30q78 0 136 -30t97 -79t58 -111.5t19 -126.5t-19 -126.5t-58 -111.5t-97 -79.5t-136 -30.5q-77 0 -135 30zM225 175q22 -32 53.5 -51t73.5 -19t74.5 19t54.5 51t33 73.5t11 85.5t-11 85.5
t-33 73.5t-54.5 51t-74.5 19t-73.5 -19t-53.5 -51t-33 -73.5t-11 -85.5t11 -85.5t33 -73.5zM292 846q6 -28 22 -44.5t43 -16.5t44 16.5t23 44.5h100q-1 -34 -16 -60t-38.5 -44t-53 -27.5t-59.5 -9.5q-33 0 -62.5 9t-52.5 26.5t-37.5 44t-15.5 61.5h103z" />
    <glyph glyph-name="obreve" unicode="&#x14f;" horiz-adv-x="556" 
d="M171 11q-45 22 -75.5 58t-45.5 81.5t-15 92.5t15 92t45.5 80.5t76 57t106.5 21.5t106.5 -21.5t76 -57t45.5 -80.5t15 -92t-15 -92.5t-45.5 -81.5t-76 -58t-106.5 -22t-107 22zM192 139q14 -20 35.5 -31.5t50.5 -11.5q28 0 49.5 11.5t36 31.5t22 46.5t7.5 57.5
q0 30 -7.5 57t-22 46.5t-36 31t-49.5 11.5t-49.5 -11.5t-36 -31t-22 -46.5t-7.5 -57q0 -31 7.5 -57.5t21.5 -46.5zM219 680q6 -28 22 -44.5t43 -16.5t44 16.5t23 44.5h100q-1 -34 -16 -60t-38.5 -44t-53 -27.5t-59.5 -9.5q-33 0 -62.5 9t-52.5 26.5t-37.5 44t-15.5 61.5h103
z" />
    <glyph glyph-name="Ohungarumlaut" unicode="&#x150;" horiz-adv-x="707" 
d="M217 16q-58 31 -96 80t-57 111.5t-19 126.5t19 126.5t57 111.5t96 79t135 30q78 0 136 -30t97 -79t58 -111.5t19 -126.5t-19 -126.5t-58 -111.5t-97 -79.5t-136 -30.5q-77 0 -135 30zM225 175q22 -32 53.5 -51t73.5 -19t74.5 19t54.5 51t33 73.5t11 85.5t-11 85.5
t-33 73.5t-54.5 51t-74.5 19t-73.5 -19t-53.5 -51t-33 -73.5t-11 -85.5t11 -85.5t33 -73.5zM407 707l-40 43l163 151l66 -72zM222 707l-39 43l164 151l64 -72z" />
    <glyph glyph-name="ohungarumlaut" unicode="&#x151;" horiz-adv-x="556" 
d="M171 11q-45 22 -75.5 58t-45.5 81.5t-15 92.5t15 92t45.5 80.5t76 57t106.5 21.5t106.5 -21.5t76 -57t45.5 -80.5t15 -92t-15 -92.5t-45.5 -81.5t-76 -58t-106.5 -22t-107 22zM192 139q14 -20 35.5 -31.5t50.5 -11.5q28 0 49.5 11.5t36 31.5t22 46.5t7.5 57.5
q0 30 -7.5 57t-22 46.5t-36 31t-49.5 11.5t-49.5 -11.5t-36 -31t-22 -46.5t-7.5 -57q0 -31 7.5 -57.5t21.5 -46.5zM331 541l-40 43l163 151l66 -72zM146 541l-39 43l164 151l64 -72z" />
    <glyph glyph-name="OE" unicode="&#x152;" horiz-adv-x="946" 
d="M389 0q-75 0 -138 24t-108.5 67.5t-71.5 105t-26 137.5q0 78 26 139.5t71.5 104.5t108.5 66t138 23h506v-121h-301v-152h245v-121h-245v-152h324v-121h-529zM459 121v425h-77q-42 0 -79 -14.5t-64 -42t-42.5 -67t-15.5 -88.5q0 -47 16 -86t43 -67.5t63.5 -44t78.5 -15.5
h77z" />
    <glyph glyph-name="oe" unicode="&#x153;" horiz-adv-x="844" 
d="M499 210q7 -61 36 -87.5t74 -26.5q26 0 52 12t55 55l97 -59q-39 -64 -93.5 -89.5t-108.5 -25.5q-110 0 -177 71q-33 -35 -73.5 -53t-94.5 -18q-51 0 -93.5 19t-73 52.5t-47.5 80t-17 101.5t17 101.5t48 80t74 52t94 18.5q66 0 103.5 -19t61.5 -51q13 16 28 29t33.5 22
t42 14t54.5 5q59 0 101 -21.5t69 -59.5t40 -90t13 -113h-315zM683 300q-1 15 -6.5 31.5t-16 31t-27.5 23.5t-40 9q-20 0 -36.5 -8.5t-28.5 -22.5t-19.5 -31t-8.5 -33h183zM196 130q14 -18 32.5 -26.5t37.5 -8.5q28 0 47.5 13t31.5 34t17.5 48t5.5 55q0 38 -9 65t-23.5 44.5
t-32.5 26t-37 8.5t-37 -8.5t-32.5 -26t-23.5 -45t-9 -66.5t9 -67t23 -46z" />
    <glyph glyph-name="Racute" unicode="&#x154;" horiz-adv-x="623" 
d="M77 0v667h271q42 0 84 -9t75.5 -31.5t55 -60.5t21.5 -97q0 -36 -9 -69t-27.5 -60.5t-48 -48.5t-70.5 -33l171 -258h-153l-165 250h-73v-250h-132zM209 365h103q73 0 106 23t33 68q0 48 -31 71.5t-108 23.5h-103v-186zM233 704l-36 54l201 141l63 -83z" />
    <glyph glyph-name="racute" unicode="&#x155;" horiz-adv-x="371" 
d="M65 0v482h119l6 -42q27 29 54.5 40.5t57.5 11.5q17 0 36 -4t39 -11l-23 -113q-20 8 -37.5 12.5t-34.5 4.5q-28 0 -50.5 -13t-35.5 -30v-338h-131zM137 538l-36 54l201 141l63 -83z" />
    <glyph glyph-name="Rcommaaccent" unicode="&#x156;" horiz-adv-x="623" 
d="M77 0v667h271q42 0 84 -9t75.5 -31.5t55 -60.5t21.5 -97q0 -36 -9 -69t-27.5 -60.5t-48 -48.5t-70.5 -33l171 -258h-153l-165 250h-73v-250h-132zM209 365h103q73 0 106 23t33 68q0 48 -31 71.5t-108 23.5h-103v-186zM214 -181l62 137h116l-86 -137h-92z" />
    <glyph glyph-name="rcommaaccent" unicode="&#x157;" horiz-adv-x="371" 
d="M65 0v482h119l6 -42q27 29 54.5 40.5t57.5 11.5q17 0 36 -4t39 -11l-23 -113q-20 8 -37.5 12.5t-34.5 4.5q-28 0 -50.5 -13t-35.5 -30v-338h-131zM7 -181l62 137h116l-86 -137h-92z" />
    <glyph glyph-name="Rcaron" unicode="&#x158;" horiz-adv-x="623" 
d="M77 0v667h271q42 0 84 -9t75.5 -31.5t55 -60.5t21.5 -97q0 -36 -9 -69t-27.5 -60.5t-48 -48.5t-70.5 -33l171 -258h-153l-165 250h-73v-250h-132zM209 365h103q73 0 106 23t33 68q0 48 -31 71.5t-108 23.5h-103v-186zM266 710l-121 130l67 45l101 -96l101 95l69 -41
l-121 -133h-96z" />
    <glyph glyph-name="rcaron" unicode="&#x159;" horiz-adv-x="371" 
d="M65 0v482h119l6 -42q27 29 54.5 40.5t57.5 11.5q17 0 36 -4t39 -11l-23 -113q-20 8 -37.5 12.5t-34.5 4.5q-28 0 -50.5 -13t-35.5 -30v-338h-131zM173 544l-121 130l67 45l101 -96l101 95l69 -41l-121 -133h-96z" />
    <glyph glyph-name="Sacute" unicode="&#x15a;" horiz-adv-x="556" 
d="M129 177q23 -38 62 -57.5t88 -19.5q51 0 81.5 20t30.5 53q0 21 -7 37t-24 30t-47 27.5t-76 29.5q-43 15 -77.5 32t-59 40t-37.5 53.5t-13 72.5q0 41 14.5 75t44 59t73.5 38.5t103 13.5q49 0 86.5 -9.5t65 -25.5t47.5 -37t35 -44l-97 -69q-21 32 -53 53t-85 21
q-51 0 -77.5 -18t-26.5 -47q0 -35 34 -57.5t102 -47.5q51 -18 89.5 -38t64.5 -45.5t39.5 -58.5t13.5 -78q0 -49 -20.5 -85.5t-54 -60.5t-77.5 -36t-90 -12q-182 0 -255 123zM190 704l-36 54l201 141l63 -83z" />
    <glyph glyph-name="sacute" unicode="&#x15b;" horiz-adv-x="485" 
d="M126 162q17 -32 47.5 -53.5t76.5 -21.5q40 0 62.5 12.5t22.5 34.5q0 21 -24 37t-89 28q-38 7 -69.5 18.5t-53.5 29.5t-34 43t-12 60q0 64 53.5 104t144.5 40q82 0 130 -26.5t74 -64.5l-92 -63q-18 24 -46 40t-66 16q-42 0 -58 -12.5t-16 -32.5q0 -23 20 -33t74 -21
q44 -9 78.5 -21t58.5 -30.5t36.5 -44.5t12.5 -61q0 -39 -16 -67.5t-44 -47t-66 -27.5t-81 -9q-86 0 -139.5 32.5t-81.5 81.5zM162 538l-36 54l201 141l63 -83z" />
    <glyph glyph-name="Scircumflex" unicode="&#x15c;" horiz-adv-x="556" 
d="M129 177q23 -38 62 -57.5t88 -19.5q51 0 81.5 20t30.5 53q0 21 -7 37t-24 30t-47 27.5t-76 29.5q-43 15 -77.5 32t-59 40t-37.5 53.5t-13 72.5q0 41 14.5 75t44 59t73.5 38.5t103 13.5q49 0 86.5 -9.5t65 -25.5t47.5 -37t35 -44l-97 -69q-21 32 -53 53t-85 21
q-51 0 -77.5 -18t-26.5 -47q0 -35 34 -57.5t102 -47.5q51 -18 89.5 -38t64.5 -45.5t39.5 -58.5t13.5 -78q0 -49 -20.5 -85.5t-54 -60.5t-77.5 -36t-90 -12q-182 0 -255 123zM115 755l121 130h96l121 -132l-69 -42l-101 96l-101 -97z" />
    <glyph glyph-name="scircumflex" unicode="&#x15d;" horiz-adv-x="485" 
d="M126 162q17 -32 47.5 -53.5t76.5 -21.5q40 0 62.5 12.5t22.5 34.5q0 21 -24 37t-89 28q-38 7 -69.5 18.5t-53.5 29.5t-34 43t-12 60q0 64 53.5 104t144.5 40q82 0 130 -26.5t74 -64.5l-92 -63q-18 24 -46 40t-66 16q-42 0 -58 -12.5t-16 -32.5q0 -23 20 -33t74 -21
q44 -9 78.5 -21t58.5 -30.5t36.5 -44.5t12.5 -61q0 -39 -16 -67.5t-44 -47t-66 -27.5t-81 -9q-86 0 -139.5 32.5t-81.5 81.5zM80 589l121 130h96l121 -132l-69 -42l-101 96l-101 -97z" />
    <glyph glyph-name="Scedilla" unicode="&#x15e;" horiz-adv-x="556" 
d="M129 177q23 -38 62 -57.5t88 -19.5q51 0 81.5 20t30.5 53q0 21 -7 37t-24 30t-47 27.5t-76 29.5q-43 15 -77.5 32t-59 40t-37.5 53.5t-13 72.5q0 41 14.5 75t44 59t73.5 38.5t103 13.5q49 0 86.5 -9.5t65 -25.5t47.5 -37t35 -44l-97 -69q-21 32 -53 53t-85 21
q-51 0 -77.5 -18t-26.5 -47q0 -35 34 -57.5t102 -47.5q51 -18 89.5 -38t64.5 -45.5t39.5 -58.5t13.5 -78q0 -49 -20.5 -85.5t-54 -60.5t-77.5 -36t-90 -12q-182 0 -255 123zM157 -181l62 137h116l-86 -137h-92z" />
    <glyph glyph-name="scedilla" unicode="&#x15f;" horiz-adv-x="485" 
d="M126 162q17 -32 47.5 -53.5t76.5 -21.5q40 0 62.5 12.5t22.5 34.5q0 21 -24 37t-89 28q-38 7 -69.5 18.5t-53.5 29.5t-34 43t-12 60q0 64 53.5 104t144.5 40q82 0 130 -26.5t74 -64.5l-92 -63q-18 24 -46 40t-66 16q-42 0 -58 -12.5t-16 -32.5q0 -23 20 -33t74 -21
q44 -9 78.5 -21t58.5 -30.5t36.5 -44.5t12.5 -61q0 -39 -16 -67.5t-44 -47t-66 -27.5t-81 -9q-86 0 -139.5 32.5t-81.5 81.5zM136 -181l62 137h116l-86 -137h-92z" />
    <glyph glyph-name="Scaron" unicode="&#x160;" horiz-adv-x="556" 
d="M129 177q23 -38 62 -57.5t88 -19.5q51 0 81.5 20t30.5 53q0 21 -7 37t-24 30t-47 27.5t-76 29.5q-43 15 -77.5 32t-59 40t-37.5 53.5t-13 72.5q0 41 14.5 75t44 59t73.5 38.5t103 13.5q49 0 86.5 -9.5t65 -25.5t47.5 -37t35 -44l-97 -69q-21 32 -53 53t-85 21
q-51 0 -77.5 -18t-26.5 -47q0 -35 34 -57.5t102 -47.5q51 -18 89.5 -38t64.5 -45.5t39.5 -58.5t13.5 -78q0 -49 -20.5 -85.5t-54 -60.5t-77.5 -36t-90 -12q-182 0 -255 123zM235 710l-121 130l67 45l101 -96l101 95l69 -41l-121 -133h-96z" />
    <glyph glyph-name="scaron" unicode="&#x161;" horiz-adv-x="485" 
d="M126 162q17 -32 47.5 -53.5t76.5 -21.5q40 0 62.5 12.5t22.5 34.5q0 21 -24 37t-89 28q-38 7 -69.5 18.5t-53.5 29.5t-34 43t-12 60q0 64 53.5 104t144.5 40q82 0 130 -26.5t74 -64.5l-92 -63q-18 24 -46 40t-66 16q-42 0 -58 -12.5t-16 -32.5q0 -23 20 -33t74 -21
q44 -9 78.5 -21t58.5 -30.5t36.5 -44.5t12.5 -61q0 -39 -16 -67.5t-44 -47t-66 -27.5t-81 -9q-86 0 -139.5 32.5t-81.5 81.5zM205 544l-121 130l67 45l101 -96l101 95l69 -41l-121 -133h-96z" />
    <glyph glyph-name="Tcommaaccent" unicode="&#x162;" horiz-adv-x="543" 
d="M204 0v546h-199v121h533v-121h-198v-546h-136zM148 -181l62 137h116l-86 -137h-92z" />
    <glyph glyph-name="tcommaaccent" unicode="&#x163;" horiz-adv-x="368" 
d="M216 136q0 -23 10.5 -31.5t20.5 -8.5q20 0 39 10t33 21l47 -89q-33 -22 -69.5 -35.5t-77.5 -13.5q-25 0 -49 7t-42.5 22t-30 39.5t-11.5 59.5v265h-71v100h71v125h130v-125h117v-100h-117v-246zM109 -181l62 137h116l-86 -137h-92z" />
    <glyph glyph-name="Tcaron" unicode="&#x164;" horiz-adv-x="543" 
d="M204 0v546h-199v121h533v-121h-198v-546h-136zM223 710l-121 130l67 45l101 -96l101 95l69 -41l-121 -133h-96z" />
    <glyph glyph-name="tcaron" unicode="&#x165;" horiz-adv-x="373" 
d="M266 531v170h107l-34 -170h-73zM216 136q0 -23 10.5 -31.5t20.5 -8.5q20 0 39 10t33 21l47 -89q-33 -22 -69.5 -35.5t-77.5 -13.5q-25 0 -49 7t-42.5 22t-30 39.5t-11.5 59.5v265h-71v100h71v125h130v-125h117v-100h-117v-246z" />
    <glyph glyph-name="Tbar" unicode="&#x166;" horiz-adv-x="543" 
d="M204 0v276h-154v97h154v173h-199v121h533v-121h-198v-173h150v-97h-150v-276h-136z" />
    <glyph glyph-name="tbar" unicode="&#x167;" horiz-adv-x="368" 
d="M15 207v101h71v74h-71v100h71v125h130v-125h117v-100h-117v-74h117v-101h-117v-71q0 -23 10.5 -31.5t20.5 -8.5q20 0 39 10t33 21l47 -89q-33 -22 -69.5 -35.5t-77.5 -13.5q-25 0 -49 7t-42.5 22t-30 39.5t-11.5 59.5v90h-71z" />
    <glyph glyph-name="Utilde" unicode="&#x168;" horiz-adv-x="687" 
d="M208 242q0 -60 35 -98.5t101 -38.5t100.5 38.5t34.5 98.5v425h135v-438q0 -57 -21 -102t-58 -76.5t-86 -48t-106 -16.5q-56 0 -105.5 16.5t-86 48t-57.5 76.5t-21 102v438h135v-425zM150 742q17 51 49.5 83t77.5 32q20 0 39.5 -9t36.5 -20t32 -19.5t27 -8.5
q10 0 27.5 11.5t34.5 51.5l68 -35q-18 -54 -50 -85t-77 -31q-21 0 -40.5 9.5t-36.5 20.5t-31.5 19t-26.5 8q-11 0 -27.5 -11.5t-33.5 -51.5z" />
    <glyph glyph-name="utilde" unicode="&#x169;" horiz-adv-x="579" 
d="M394 0l-5 38q-35 -28 -72 -38t-73 -10q-88 0 -135 51t-47 154v287h131v-274q0 -50 19 -81t65 -31q38 0 64 14.5t42 27.5v344h131v-482h-120zM92 576q17 51 49.5 83t77.5 32q20 0 39.5 -9t36.5 -20t32 -19.5t27 -8.5q10 0 27.5 11.5t34.5 51.5l68 -35q-18 -54 -50 -85
t-77 -31q-21 0 -40.5 9.5t-36.5 20.5t-31.5 19t-26.5 8q-11 0 -27.5 -11.5t-33.5 -51.5z" />
    <glyph glyph-name="Umacron" unicode="&#x16a;" horiz-adv-x="687" 
d="M208 242q0 -60 35 -98.5t101 -38.5t100.5 38.5t34.5 98.5v425h135v-438q0 -57 -21 -102t-58 -76.5t-86 -48t-106 -16.5q-56 0 -105.5 16.5t-86 48t-57.5 76.5t-21 102v438h135v-425zM164 744v89h363v-89h-363z" />
    <glyph glyph-name="umacron" unicode="&#x16b;" horiz-adv-x="579" 
d="M394 0l-5 38q-35 -28 -72 -38t-73 -10q-88 0 -135 51t-47 154v287h131v-274q0 -50 19 -81t65 -31q38 0 64 14.5t42 27.5v344h131v-482h-120zM105 578v89h363v-89h-363z" />
    <glyph glyph-name="Ubreve" unicode="&#x16c;" horiz-adv-x="687" 
d="M208 242q0 -60 35 -98.5t101 -38.5t100.5 38.5t34.5 98.5v425h135v-438q0 -57 -21 -102t-58 -76.5t-86 -48t-106 -16.5q-56 0 -105.5 16.5t-86 48t-57.5 76.5t-21 102v438h135v-425zM288 846q6 -28 22 -44.5t43 -16.5t44 16.5t23 44.5h100q-1 -34 -16 -60t-38.5 -44
t-53 -27.5t-59.5 -9.5q-33 0 -62.5 9t-52.5 26.5t-37.5 44t-15.5 61.5h103z" />
    <glyph glyph-name="ubreve" unicode="&#x16d;" horiz-adv-x="579" 
d="M394 0l-5 38q-35 -28 -72 -38t-73 -10q-88 0 -135 51t-47 154v287h131v-274q0 -50 19 -81t65 -31q38 0 64 14.5t42 27.5v344h131v-482h-120zM226 680q6 -28 22 -44.5t43 -16.5t44 16.5t23 44.5h100q-1 -34 -16 -60t-38.5 -44t-53 -27.5t-59.5 -9.5q-33 0 -62.5 9
t-52.5 26.5t-37.5 44t-15.5 61.5h103z" />
    <glyph glyph-name="Uring" unicode="&#x16e;" horiz-adv-x="687" 
d="M208 242q0 -60 35 -98.5t101 -38.5t100.5 38.5t34.5 98.5v425h135v-438q0 -57 -21 -102t-58 -76.5t-86 -48t-106 -16.5q-56 0 -105.5 16.5t-86 48t-57.5 76.5t-21 102v438h135v-425zM306 704q-19 10 -32 25t-19.5 34.5t-6.5 39.5t6.5 39.5t19.5 35t32.5 25t45.5 9.5
t46 -9.5t33 -24.5t19.5 -34.5t6.5 -39.5t-6.5 -39.5t-19.5 -35t-33 -25t-46 -9.5t-46 9zM323 771q11 -13 29 -13q19 0 29.5 13t10.5 33t-10.5 33t-29.5 13q-18 0 -28.5 -13t-10.5 -33t10 -33z" />
    <glyph glyph-name="uring" unicode="&#x16f;" horiz-adv-x="579" 
d="M394 0l-5 38q-35 -28 -72 -38t-73 -10q-88 0 -135 51t-47 154v287h131v-274q0 -50 19 -81t65 -31q38 0 64 14.5t42 27.5v344h131v-482h-120zM241 538q-19 10 -32 25t-19.5 34.5t-6.5 39.5t6.5 39.5t19.5 35t32.5 25t45.5 9.5t46 -9.5t33 -24.5t19.5 -34.5t6.5 -39.5
t-6.5 -39.5t-19.5 -35t-33 -25t-46 -9.5t-46 9zM258 605q11 -13 29 -13q19 0 29.5 13t10.5 33t-10.5 33t-29.5 13q-18 0 -28.5 -13t-10.5 -33t10 -33z" />
    <glyph glyph-name="Uhungarumlaut" unicode="&#x170;" horiz-adv-x="687" 
d="M208 242q0 -60 35 -98.5t101 -38.5t100.5 38.5t34.5 98.5v425h135v-438q0 -57 -21 -102t-58 -76.5t-86 -48t-106 -16.5q-56 0 -105.5 16.5t-86 48t-57.5 76.5t-21 102v438h135v-425zM398 707l-40 43l163 151l66 -72zM213 707l-39 43l164 151l64 -72z" />
    <glyph glyph-name="uhungarumlaut" unicode="&#x171;" horiz-adv-x="579" 
d="M394 0l-5 38q-35 -28 -72 -38t-73 -10q-88 0 -135 51t-47 154v287h131v-274q0 -50 19 -81t65 -31q38 0 64 14.5t42 27.5v344h131v-482h-120zM332 541l-40 43l163 151l66 -72zM147 541l-39 43l164 151l64 -72z" />
    <glyph glyph-name="Uogonek" unicode="&#x172;" horiz-adv-x="687" 
d="M484 -164q-20 -11 -38.5 -14.5t-38.5 -3.5q-50 0 -76.5 22t-26.5 62q0 19 7.5 37.5t19.5 34.5l10 12q-55 0 -104 16q-49 17 -85.5 48.5t-57.5 76.5t-21 102v438h135v-425q0 -60 35 -98.5t101 -38.5t100.5 38.5t34.5 98.5v425h135v-438q0 -57 -21 -102t-58 -77
q-34 -28 -78 -45q-22 -15 -38 -36q-19 -26 -19 -48q0 -13 5 -20t19 -7q11 0 21 3t15 6z" />
    <glyph glyph-name="uogonek" unicode="&#x173;" horiz-adv-x="579" 
d="M525 -164q-20 -11 -38.5 -14.5t-38.5 -3.5q-50 0 -76.5 22t-26.5 62q0 19 7.5 37.5t19.5 34.5q11 14 26 26h-4l-5 38q-35 -28 -72 -38t-73 -10q-88 0 -135 51t-47 154v287h131v-274q0 -50 19 -81t65 -31q38 0 64 14.5t42 27.5v344h131v-482h-23q-18 -13 -31 -31
q-19 -26 -19 -48q0 -13 5 -20t19 -7q11 0 21 3t15 6z" />
    <glyph glyph-name="Wcircumflex" unicode="&#x174;" horiz-adv-x="778" 
d="M152 0l-152 667h135l82 -396l130 396h83l130 -396l84 396h134l-153 -667h-85l-152 447l-151 -447h-85zM222 755l121 130h96l121 -132l-69 -42l-101 96l-101 -97z" />
    <glyph glyph-name="wcircumflex" unicode="&#x175;" horiz-adv-x="717" 
d="M172 0l-172 482h136l87 -290l95 290h80l96 -290l87 290h136l-172 -482h-95l-92 279l-91 -279h-95zM191 589l121 130h96l121 -132l-69 -42l-101 96l-101 -97z" />
    <glyph glyph-name="Ycircumflex" unicode="&#x176;" horiz-adv-x="581" 
d="M225 0v268l-225 399h150l145 -265l138 265h148l-221 -399v-268h-135zM127 755l121 130h96l121 -132l-69 -42l-101 96l-101 -97z" />
    <glyph glyph-name="ycircumflex" unicode="&#x177;" horiz-adv-x="517" 
d="M48 -81q19 -9 37.5 -13t31.5 -4q12 0 24 7t22 28l37 83l-200 462h139l126 -329l120 329h132l-250 -596q-11 -25 -26 -42t-33 -27t-38.5 -14t-40.5 -4q-26 0 -57.5 6.5t-64.5 20.5zM99 589l121 130h96l121 -132l-69 -42l-101 96l-101 -97z" />
    <glyph glyph-name="Ydieresis" unicode="&#x178;" horiz-adv-x="581" 
d="M225 0v268l-225 399h150l145 -265l138 265h148l-221 -399v-268h-135zM390 726q-28 0 -46.5 21.5t-18.5 49.5q0 29 18.5 50t46.5 21q29 0 47 -21t18 -50q0 -28 -18 -49.5t-47 -21.5zM202 726q-29 0 -47 21.5t-18 49.5q0 29 18 50t47 21q28 0 46.5 -21t18.5 -50
q0 -28 -18.5 -49.5t-46.5 -21.5z" />
    <glyph glyph-name="Zacute" unicode="&#x179;" horiz-adv-x="574" 
d="M34 0v110l340 436h-312v121h477v-114l-337 -432h343v-121h-511zM211 704l-36 54l201 141l63 -83z" />
    <glyph glyph-name="zacute" unicode="&#x17a;" horiz-adv-x="508" 
d="M36 0v89l276 293h-265v100h415v-94l-272 -289h280v-99h-434zM169 538l-36 54l201 141l63 -83z" />
    <glyph glyph-name="Zdotaccent" unicode="&#x17b;" horiz-adv-x="574" 
d="M34 0v110l340 436h-312v121h477v-114l-337 -432h343v-121h-511zM304 720q-30 0 -50 23t-20 54t20 54t50 23q31 0 51 -23t20 -54t-20 -54t-51 -23z" />
    <glyph glyph-name="zdotaccent" unicode="&#x17c;" horiz-adv-x="508" 
d="M36 0v89l276 293h-265v100h415v-94l-272 -289h280v-99h-434zM261 554q-30 0 -50 23t-20 54t20 54t50 23q31 0 51 -23t20 -54t-20 -54t-51 -23z" />
    <glyph glyph-name="Zcaron" unicode="&#x17d;" horiz-adv-x="574" 
d="M34 0v110l340 436h-312v121h477v-114l-337 -432h343v-121h-511zM255 710l-121 130l67 45l101 -96l101 95l69 -41l-121 -133h-96z" />
    <glyph glyph-name="zcaron" unicode="&#x17e;" horiz-adv-x="508" 
d="M36 0v89l276 293h-265v100h415v-94l-272 -289h280v-99h-434zM216 544l-121 130l67 45l101 -96l101 95l69 -41l-121 -133h-96z" />
    <glyph glyph-name="longs" unicode="&#x17f;" horiz-adv-x="335" 
d="M83 0v499q0 48 13 82t35.5 56t53 32.5t66.5 10.5q48 0 83.5 -7.5t64.5 -21.5l-38 -100q-40 20 -89 20q-25 0 -41.5 -16t-16.5 -57v-498h-131z" />
    <glyph glyph-name="florin" unicode="&#x192;" horiz-adv-x="540" 
d="M-27 -20q56 2 96.5 26.5t54.5 81.5l62 249h-85v114h113q15 70 43.5 114t66.5 68t83 32.5t92 8.5v-115q-35 0 -59 -5.5t-41 -18t-28.5 -33.5t-20.5 -51h149v-114h-178l-57 -236q-14 -58 -36 -102t-56 -73.5t-83 -45t-116 -16.5v116z" />
    <glyph glyph-name="Scommaaccent" unicode="&#x218;" horiz-adv-x="556" 
d="M129 177q23 -38 62 -57.5t88 -19.5q51 0 81.5 20t30.5 53q0 21 -7 37t-24 30t-47 27.5t-76 29.5q-43 15 -77.5 32t-59 40t-37.5 53.5t-13 72.5q0 41 14.5 75t44 59t73.5 38.5t103 13.5q49 0 86.5 -9.5t65 -25.5t47.5 -37t35 -44l-97 -69q-21 32 -53 53t-85 21
q-51 0 -77.5 -18t-26.5 -47q0 -35 34 -57.5t102 -47.5q51 -18 89.5 -38t64.5 -45.5t39.5 -58.5t13.5 -78q0 -49 -20.5 -85.5t-54 -60.5t-77.5 -36t-90 -12q-182 0 -255 123zM165 -181l62 137h116l-86 -137h-92z" />
    <glyph glyph-name="scommaaccent" unicode="&#x219;" horiz-adv-x="485" 
d="M126 162q17 -32 47.5 -53.5t76.5 -21.5q40 0 62.5 12.5t22.5 34.5q0 21 -24 37t-89 28q-38 7 -69.5 18.5t-53.5 29.5t-34 43t-12 60q0 64 53.5 104t144.5 40q82 0 130 -26.5t74 -64.5l-92 -63q-18 24 -46 40t-66 16q-42 0 -58 -12.5t-16 -32.5q0 -23 20 -33t74 -21
q44 -9 78.5 -21t58.5 -30.5t36.5 -44.5t12.5 -61q0 -39 -16 -67.5t-44 -47t-66 -27.5t-81 -9q-86 0 -139.5 32.5t-81.5 81.5zM137 -181l62 137h116l-86 -137h-92z" />
    <glyph glyph-name="uni021A" unicode="&#x21a;" horiz-adv-x="543" 
d="M204 0v546h-199v121h533v-121h-198v-546h-136zM148 -181l62 137h116l-86 -137h-92z" />
    <glyph glyph-name="uni021B" unicode="&#x21b;" horiz-adv-x="368" 
d="M216 136q0 -23 10.5 -31.5t20.5 -8.5q20 0 39 10t33 21l47 -89q-33 -22 -69.5 -35.5t-77.5 -13.5q-25 0 -49 7t-42.5 22t-30 39.5t-11.5 59.5v265h-71v100h71v125h130v-125h117v-100h-117v-246zM109 -181l62 137h116l-86 -137h-92z" />
    <glyph glyph-name="dotlessj" unicode="&#x237;" horiz-adv-x="270" 
d="M-8 -116q25 17 41.5 31.5t25.5 30t12.5 33t3.5 40.5v463h130v-463q0 -39 -8.5 -70.5t-26 -57.5t-44 -47t-62.5 -40z" />
    <glyph glyph-name="apostrophe" unicode="&#x2bc;" horiz-adv-x="230" 
d="M50 552q17 4 34 13t25 18q-11 8 -17.5 21.5t-6.5 29.5q0 23 14 43t42 20q24 0 40.5 -17.5t16.5 -43.5q0 -17 -7.5 -35t-24 -34.5t-42 -31t-61.5 -23.5z" />
    <glyph glyph-name="circumflex" unicode="&#x2c6;" horiz-adv-x="442" 
d="M52 589l121 130h96l121 -132l-69 -42l-101 96l-101 -97z" />
    <glyph glyph-name="caron" unicode="&#x2c7;" horiz-adv-x="442" 
d="M173 544l-121 130l67 45l101 -96l101 95l69 -41l-121 -133h-96z" />
    <glyph glyph-name="uni02C9" unicode="&#x2c9;" horiz-adv-x="442" 
d="M40 578v89h363v-89h-363z" />
    <glyph glyph-name="breve" unicode="&#x2d8;" horiz-adv-x="442" 
d="M156 680q6 -28 22 -44.5t43 -16.5t44 16.5t23 44.5h100q-1 -34 -16 -60t-38.5 -44t-53 -27.5t-59.5 -9.5q-33 0 -62.5 9t-52.5 26.5t-37.5 44t-15.5 61.5h103z" />
    <glyph glyph-name="dotaccent" unicode="&#x2d9;" horiz-adv-x="442" 
d="M221 554q-30 0 -50 23t-20 54t20 54t50 23q31 0 51 -23t20 -54t-20 -54t-51 -23z" />
    <glyph glyph-name="ring" unicode="&#x2da;" horiz-adv-x="442" 
d="M175 538q-19 10 -32 25t-19.5 34.5t-6.5 39.5t6.5 39.5t19.5 35t32.5 25t45.5 9.5t46 -9.5t33 -24.5t19.5 -34.5t6.5 -39.5t-6.5 -39.5t-19.5 -35t-33 -25t-46 -9.5t-46 9zM192 605q11 -13 29 -13q19 0 29.5 13t10.5 33t-10.5 33t-29.5 13q-18 0 -28.5 -13t-10.5 -33
t10 -33z" />
    <glyph glyph-name="ogonek" unicode="&#x2db;" horiz-adv-x="442" 
d="M281 -164q-20 -11 -38.5 -14.5t-38.5 -3.5q-50 0 -76.5 22t-26.5 62q0 19 7.5 37.5t20 34.5t29.5 28.5t37 18.5l69 -10q-29 -17 -48 -42.5t-19 -47.5q0 -13 5 -20t19 -7q11 0 21 3t15 6z" />
    <glyph glyph-name="tilde" unicode="&#x2dc;" horiz-adv-x="442" 
d="M25 576q17 51 49.5 83t77.5 32q20 0 39.5 -9t36.5 -20t32 -19.5t27 -8.5q10 0 27.5 11.5t34.5 51.5l68 -35q-18 -54 -50 -85t-77 -31q-21 0 -40.5 9.5t-36.5 20.5t-31.5 19t-26.5 8q-11 0 -27.5 -11.5t-33.5 -51.5z" />
    <glyph glyph-name="hungarumlaut" unicode="&#x2dd;" horiz-adv-x="442" 
d="M239 541l-40 43l163 151l66 -72zM54 541l-39 43l164 151l64 -72z" />
    <glyph glyph-name="tonos" unicode="&#x384;" horiz-adv-x="442" 
d="M139 557l101 228l103 -47l-136 -215z" />
    <glyph glyph-name="dieresistonos" unicode="&#x385;" horiz-adv-x="442" 
d="M393 560q-28 0 -46.5 21.5t-18.5 49.5q0 29 18.5 50t46.5 21q29 0 47 -21t18 -50q0 -28 -18 -49.5t-47 -21.5zM57 560q-29 0 -47 21.5t-18 49.5q0 29 18 50t47 21q28 0 46.5 -21t18.5 -50q0 -28 -18.5 -49.5t-46.5 -21.5zM147 568l100 225l96 -39l-137 -214z" />
    <glyph glyph-name="Alphatonos" unicode="&#x386;" horiz-adv-x="640" 
d="M-3 427l64 241l110 -32l-100 -233zM0 0l274 667h95l278 -667h-145l-54 134h-257l-55 -134h-136zM232 247h172l-86 219z" />
    <glyph glyph-name="Epsilontonos" unicode="&#x388;" horiz-adv-x="587" 
d="M-62 427l64 241l110 -32l-100 -233zM145 0v667h458v-121h-323v-152h267v-121h-267v-152h346v-121h-481z" />
    <glyph glyph-name="Etatonos" unicode="&#x389;" horiz-adv-x="739" 
d="M-64 427l64 241l110 -32l-100 -233zM161 0v667h135v-264h265v264h135v-667h-135v282h-265v-282h-135z" />
    <glyph glyph-name="Iotatonos" unicode="&#x38a;" horiz-adv-x="316" 
d="M-63 427l64 241l110 -32l-100 -233zM151 0v667h135v-667h-135z" />
    <glyph glyph-name="Omicrontonos" unicode="&#x38c;" horiz-adv-x="713" 
d="M-63 427l64 241l110 -32l-100 -233zM269 16q-58 31 -96 80t-57 111.5t-19 126.5t19 126.5t57 111.5t96 79t135 30q78 0 136 -30t97 -79t58 -111.5t19 -126.5t-19 -126.5t-58 -111.5t-97 -79.5t-136 -30.5q-77 0 -135 30zM277 175q22 -32 53.5 -51t73.5 -19t74.5 19
t54.5 51t33 73.5t11 85.5t-11 85.5t-33 73.5t-54.5 51t-74.5 19t-73.5 -19t-53.5 -51t-33 -73.5t-11 -85.5t11 -85.5t33 -73.5z" />
    <glyph glyph-name="Upsilontonos" unicode="&#x38e;" horiz-adv-x="731" 
d="M-61 427l64 241l110 -32l-100 -233zM361 0v156q0 11 -0.5 34t-4.5 47q-6 43 -28.5 91t-54.5 94.5t-72 87t-80 69.5l88 94q31 -20 65 -51.5t65.5 -70.5t56 -84t36.5 -91q11 40 35 84t54.5 84.5t64.5 74.5t67 55l78 -86q-22 -17 -47 -42t-50 -56t-48.5 -66t-42 -70
t-31.5 -68.5t-16 -61.5q-4 -33 -5 -55t-1 -39v-130h-129z" />
    <glyph glyph-name="Omegatonos" unicode="&#x38f;" horiz-adv-x="732" 
d="M-61 427l64 241l110 -32l-100 -233zM115 0v120h95q-43 38 -74 101t-31 150q0 69 23 126.5t65 98t101 63t131 22.5q73 0 131 -22t98.5 -62.5t62 -97t21.5 -125.5q0 -42 -10 -81t-26 -72t-36.5 -59t-42.5 -42h105v-120h-251l-1 114q22 16 44 37.5t40 50.5t29 66t11 84
q0 103 -49 157t-129 54q-81 0 -130 -54t-49 -157q0 -45 12 -82.5t30 -67t39.5 -51.5t41.5 -37v-114h-251z" />
    <glyph glyph-name="iotadieresistonos" unicode="&#x390;" horiz-adv-x="304" 
d="M304 9q-18 -8 -48 -14t-58 -6q-59 0 -93.5 31t-34.5 94v368h130v-336q0 -33 10.5 -44t29.5 -11q15 0 28.5 3.5t21.5 6.5zM311 560q-28 0 -46.5 21.5t-18.5 49.5q0 29 18.5 50t46.5 21q29 0 47 -21t18 -50q0 -28 -18 -49.5t-47 -21.5zM-25 560q-29 0 -47 21.5t-18 49.5
q0 29 18 50t47 21q28 0 46.5 -21t18.5 -50q0 -28 -18.5 -49.5t-46.5 -21.5zM65 568l100 225l96 -39l-137 -214z" />
    <glyph glyph-name="Alpha" unicode="&#x391;" horiz-adv-x="648" 
d="M0 0l274 667h95l278 -667h-145l-54 134h-257l-55 -134h-136zM232 247h172l-86 219z" />
    <glyph glyph-name="Beta" unicode="&#x392;" horiz-adv-x="598" 
d="M77 0v667h238q48 0 88.5 -12t69.5 -35.5t45.5 -57t16.5 -75.5q0 -45 -21.5 -78t-59.5 -56q54 -19 86.5 -60.5t32.5 -104.5q0 -53 -30 -101t-91 -71q-23 -8 -49.5 -12t-51.5 -4h-274zM210 394h66q23 0 44 2t30 7q26 12 37.5 30.5t11.5 38.5q0 24 -15.5 44.5t-46.5 30.5
q-5 1 -13.5 2.5t-19 2l-21 1t-18.5 0.5h-55v-159zM210 114h96q35 0 55 3t33 10q22 12 32 29.5t10 36.5q0 22 -12.5 43t-37.5 34q-16 8 -36.5 11.5t-45.5 3.5h-94v-171z" />
    <glyph glyph-name="Gamma" unicode="&#x393;" horiz-adv-x="505" 
d="M73 0v667h427v-121h-292v-546h-135z" />
    <glyph glyph-name="uni0394" unicode="&#x394;" horiz-adv-x="662" 
d="M3 0l274 667h102l279 -667h-655zM184 110h288l-148 384z" />
    <glyph glyph-name="Epsilon" unicode="&#x395;" horiz-adv-x="586" 
d="M77 0v667h458v-121h-323v-152h267v-121h-267v-152h346v-121h-481z" />
    <glyph glyph-name="Zeta" unicode="&#x396;" horiz-adv-x="574" 
d="M34 0v110l340 436h-312v121h477v-114l-337 -432h343v-121h-511z" />
    <glyph glyph-name="Eta" unicode="&#x397;" horiz-adv-x="689" 
d="M77 0v667h135v-264h265v264h135v-667h-135v282h-265v-282h-135z" />
    <glyph glyph-name="Theta" unicode="&#x398;" horiz-adv-x="707" 
d="M228 276v115h248v-115h-248zM217 16q-58 31 -96 80t-57 111.5t-19 126.5t19 126.5t57 111.5t96 79t135 30q78 0 136 -30t97 -79t58 -111.5t19 -126.5t-19 -126.5t-58 -111.5t-97 -79.5t-136 -30.5q-77 0 -135 30zM225 175q22 -32 53.5 -51t73.5 -19t74.5 19t54.5 51
t33 73.5t11 85.5t-11 85.5t-33 73.5t-54.5 51t-74.5 19t-73.5 -19t-53.5 -51t-33 -73.5t-11 -85.5t11 -85.5t33 -73.5z" />
    <glyph glyph-name="Iota" unicode="&#x399;" horiz-adv-x="289" 
d="M77 0v667h135v-667h-135z" />
    <glyph glyph-name="Kappa" unicode="&#x39a;" horiz-adv-x="639" 
d="M77 0v667h135v-255l256 255h160l-262 -260l275 -407h-152l-215 316l-62 -62v-254h-135z" />
    <glyph glyph-name="Lambda" unicode="&#x39b;" horiz-adv-x="640" 
d="M0 0l274 667h91l275 -667h-138l-183 467l-181 -467h-138z" />
    <glyph glyph-name="Mu" unicode="&#x39c;" horiz-adv-x="806" 
d="M77 0v667h138l197 -444l178 444h139v-667h-133v373l-161 -377h-48l-177 381v-377h-133z" />
    <glyph glyph-name="Nu" unicode="&#x39d;" horiz-adv-x="695" 
d="M77 0v667h138l270 -416v416h133v-667h-118l-290 441v-441h-133z" />
    <glyph glyph-name="Xi" unicode="&#x39e;" horiz-adv-x="583" 
d="M65 0v120h453v-120h-453zM71 547v120h442v-120h-442zM120 283v119h343v-119h-343z" />
    <glyph glyph-name="Omicron" unicode="&#x39f;" horiz-adv-x="707" 
d="M217 16q-58 31 -96 80t-57 111.5t-19 126.5t19 126.5t57 111.5t96 79t135 30q78 0 136 -30t97 -79t58 -111.5t19 -126.5t-19 -126.5t-58 -111.5t-97 -79.5t-136 -30.5q-77 0 -135 30zM225 175q22 -32 53.5 -51t73.5 -19t74.5 19t54.5 51t33 73.5t11 85.5t-11 85.5
t-33 73.5t-54.5 51t-74.5 19t-73.5 -19t-53.5 -51t-33 -73.5t-11 -85.5t11 -85.5t33 -73.5z" />
    <glyph glyph-name="Pi" unicode="&#x3a0;" horiz-adv-x="673" 
d="M75 0v667h523v-667h-135v546h-253v-546h-135z" />
    <glyph glyph-name="Rho" unicode="&#x3a1;" horiz-adv-x="592" 
d="M77 0v667h210q51 0 94.5 -6.5t82.5 -25.5q51 -24 75 -71.5t24 -101.5q0 -30 -8 -60.5t-23 -56.5t-37 -47t-50 -33q-35 -14 -71 -19.5t-73 -5.5h-92v-240h-132zM209 355h75q29 0 52.5 3t40.5 11q29 13 41 36t12 49q0 28 -13.5 52t-42.5 34q-17 6 -36 9t-49 3h-80v-197z
" />
    <glyph glyph-name="Sigma" unicode="&#x3a3;" horiz-adv-x="538" 
d="M41 0v111l222 224l-223 220v112h464v-121h-284l209 -210l-214 -215h293v-121h-467z" />
    <glyph glyph-name="Tau" unicode="&#x3a4;" horiz-adv-x="543" 
d="M204 0v546h-199v121h533v-121h-198v-546h-136z" />
    <glyph glyph-name="Upsilon" unicode="&#x3a5;" horiz-adv-x="610" 
d="M240 0v156q0 11 -0.5 34t-4.5 47q-6 43 -28.5 91t-54.5 94.5t-72 87t-80 69.5l88 94q31 -20 65 -51.5t65.5 -70.5t56 -84t36.5 -91q11 40 35 84t54.5 84.5t64.5 74.5t67 55l78 -86q-22 -17 -47 -42t-50 -56t-48.5 -66t-42 -70t-31.5 -68.5t-16 -61.5q-4 -33 -5 -55
t-1 -39v-130h-129z" />
    <glyph glyph-name="Phi" unicode="&#x3a6;" horiz-adv-x="747" 
d="M306 -12v91q-131 9 -201.5 76t-70.5 179t70.5 179t201.5 76v91h135v-91q131 -9 201.5 -76t70.5 -179t-70.5 -179t-201.5 -76v-91h-135zM441 185q66 5 103 43t37 106t-37 105.5t-103 42.5v-297zM306 482q-66 -5 -103 -42.5t-37 -105.5t37 -106t103 -43v297z" />
    <glyph glyph-name="Chi" unicode="&#x3a7;" horiz-adv-x="579" 
d="M0 0l217 347l-202 320h152l122 -203l122 203h152l-201 -320l217 -347h-151l-139 230l-138 -230h-151z" />
    <glyph glyph-name="Psi" unicode="&#x3a8;" horiz-adv-x="771" 
d="M322 0v196q-136 5 -201.5 69t-65.5 194v208h131v-190q0 -86 29.5 -125.5t106.5 -39.5v355h131v-355q39 0 65 8.5t41.5 27.5t21.5 49.5t6 75.5v194h129v-214q0 -115 -64.5 -182.5t-198.5 -74.5v-196h-131z" />
    <glyph glyph-name="Omega" unicode="&#x3a9;" horiz-adv-x="737" 
d="M62 0v120h95q-43 38 -74 101t-31 150q0 69 23 126.5t65 98t101 63t131 22.5q73 0 131 -22t98.5 -62.5t62 -97t21.5 -125.5q0 -42 -10 -81t-26 -72t-36.5 -59t-42.5 -42h105v-120h-251l-1 114q22 16 44 37.5t40 50.5t29 66t11 84q0 103 -49 157t-129 54q-81 0 -130 -54
t-49 -157q0 -45 12 -82.5t30 -67t39.5 -51.5t41.5 -37v-114h-251z" />
    <glyph glyph-name="Iotadieresis" unicode="&#x3aa;" horiz-adv-x="289" 
d="M77 0v667h135v-667h-135zM240 726q-28 0 -46.5 21.5t-18.5 49.5q0 29 18.5 50t46.5 21q29 0 47 -21t18 -50q0 -28 -18 -49.5t-47 -21.5zM52 726q-29 0 -47 21.5t-18 49.5q0 29 18 50t47 21q28 0 46.5 -21t18.5 -50q0 -28 -18.5 -49.5t-46.5 -21.5z" />
    <glyph glyph-name="Upsilondieresis" unicode="&#x3ab;" horiz-adv-x="610" 
d="M240 0v156q0 11 -0.5 34t-4.5 47q-6 43 -28.5 91t-54.5 94.5t-72 87t-80 69.5l88 94q31 -20 65 -51.5t65.5 -70.5t56 -84t36.5 -91q11 40 35 84t54.5 84.5t64.5 74.5t67 55l78 -86q-22 -17 -47 -42t-50 -56t-48.5 -66t-42 -70t-31.5 -68.5t-16 -61.5q-4 -33 -5 -55
t-1 -39v-130h-129zM408 726q-28 0 -46.5 21.5t-18.5 49.5q0 29 18.5 50t46.5 21q29 0 47 -21t18 -50q0 -28 -18 -49.5t-47 -21.5zM220 726q-29 0 -47 21.5t-18 49.5q0 29 18 50t47 21q28 0 46.5 -21t18.5 -50q0 -28 -18.5 -49.5t-46.5 -21.5z" />
    <glyph glyph-name="alphatonos" unicode="&#x3ac;" horiz-adv-x="616" 
d="M606 1q-15 -6 -38 -9t-35 -3q-47 0 -72.5 18t-39.5 56q-34 -44 -76.5 -59t-80.5 -15q-46 0 -86 15t-69.5 45t-46.5 76t-17 108q0 53 15 100.5t44 83t71.5 56.5t96.5 21q31 0 54.5 -6.5t40.5 -16.5t29 -21.5t20 -21.5q6 40 30 77l114 -30q-24 -56 -38.5 -113.5
t-14.5 -137.5q0 -68 12.5 -104.5t53.5 -36.5q5 0 12.5 0.5t14.5 1.5zM197 133q26 -39 78 -39q49 0 79 36.5t30 114.5q0 28 -5 53.5t-17 45.5t-32 32t-50 12q-21 0 -40.5 -8t-34.5 -26t-24 -46t-9 -67q0 -68 25 -108zM253 557l101 228l103 -47l-136 -215z" />
    <glyph glyph-name="epsilontonos" unicode="&#x3ad;" horiz-adv-x="483" 
d="M453 27q-17 -9 -40 -16t-49.5 -12t-54 -7.5t-53.5 -2.5q-103 0 -157 35.5t-54 104.5q0 46 26 77.5t72 44.5q-40 16 -62.5 44.5t-22.5 66.5q0 63 54 97.5t145 34.5q60 0 111 -12.5t78 -26.5l-37 -95q-32 15 -70 24.5t-70 9.5t-57.5 -10t-25.5 -37q0 -20 10.5 -31t28 -17
t40 -7.5t46.5 -1.5h75v-95h-33t-34.5 -0.5t-30 -0.5h-20.5q-95 0 -95 -51q0 -28 31 -40.5t75 -12.5q36 0 79.5 9t75.5 23zM203 557l101 228l103 -47l-136 -215z" />
    <glyph glyph-name="etatonos" unicode="&#x3ae;" horiz-adv-x="615" 
d="M84 0v345q0 23 -5 35t-22 12q-5 0 -12.5 -1t-12.5 -3l-22 85q6 3 16.5 5.5t22.5 5t24 4t22 1.5q70 0 87 -65q23 32 67 51t98 19q49 0 85.5 -11.5t61.5 -32t38 -48t16 -59.5q2 -17 2 -30v-33v-469h-130v452q0 14 -0.5 29t-2.5 26q-8 75 -90 75q-40 0 -67 -19t-39 -48
q-5 -13 -6 -31.5t-1 -29.5v-265h-130zM267 557l101 228l103 -47l-136 -215z" />
    <glyph glyph-name="iotatonos" unicode="&#x3af;" horiz-adv-x="304" 
d="M304 9q-18 -8 -48 -14t-58 -6q-59 0 -93.5 31t-34.5 94v368h130v-336q0 -33 10.5 -44t29.5 -11q15 0 28.5 3.5t21.5 6.5zM62 557l101 228l103 -47l-136 -215z" />
    <glyph glyph-name="upsilondieresistonos" unicode="&#x3b0;" horiz-adv-x="591" 
d="M90 321q0 33 -5 49.5t-26 16.5q-8 0 -17.5 -2t-14.5 -4l-22 88q11 5 38.5 12t59.5 7q41 0 69.5 -21t38.5 -63q4 -16 5 -34t1 -36v-113q0 -57 19.5 -91t71.5 -34q25 0 41.5 7.5t26.5 20t15 29.5t8 37q3 23 4 39.5t1 46.5q0 52 -6 98.5t-16 99.5l127 16q10 -48 16 -102
t6 -108q0 -31 -1 -56t-5 -49q-15 -91 -73.5 -138.5t-152.5 -47.5q-47 0 -85.5 12t-66 36.5t-42.5 62.5t-15 90v131zM458 560q-28 0 -46.5 21.5t-18.5 49.5q0 29 18.5 50t46.5 21q29 0 47 -21t18 -50q0 -28 -18 -49.5t-47 -21.5zM122 560q-29 0 -47 21.5t-18 49.5q0 29 18 50
t47 21q28 0 46.5 -21t18.5 -50q0 -28 -18.5 -49.5t-46.5 -21.5zM212 568l100 225l96 -39l-137 -214z" />
    <glyph glyph-name="alpha" unicode="&#x3b1;" horiz-adv-x="616" 
d="M606 1q-15 -6 -38 -9t-35 -3q-47 0 -72.5 18t-39.5 56q-34 -44 -76.5 -59t-80.5 -15q-46 0 -86 15t-69.5 45t-46.5 76t-17 108q0 53 15 100.5t44 83t71.5 56.5t96.5 21q31 0 54.5 -6.5t40.5 -16.5t29 -21.5t20 -21.5q6 40 30 77l114 -30q-24 -56 -38.5 -113.5
t-14.5 -137.5q0 -68 12.5 -104.5t53.5 -36.5q5 0 12.5 0.5t14.5 1.5zM197 133q26 -39 78 -39q49 0 79 36.5t30 114.5q0 28 -5 53.5t-17 45.5t-32 32t-50 12q-21 0 -40.5 -8t-34.5 -26t-24 -46t-9 -67q0 -68 25 -108z" />
    <glyph glyph-name="beta" unicode="&#x3b2;" horiz-adv-x="605" 
d="M65 -189v640q0 14 1.5 29t3.5 30q4 26 17.5 55t39 54t65.5 41t97 16q96 0 152.5 -43t56.5 -123q0 -30 -9.5 -53.5t-24.5 -41.5t-33.5 -30t-35.5 -18q33 -5 63 -18t52.5 -35.5t36 -55t13.5 -75.5q0 -48 -16 -84t-45 -60.5t-69.5 -37t-89.5 -12.5q-45 0 -83 11.5t-68 30.5
v-220h-124zM195 132q21 -15 53.5 -29t72.5 -14q46 0 78 23.5t32 73.5q0 25 -7.5 42.5t-20 30t-30 20.5t-37.5 13q-21 5 -41.5 7.5t-39.5 2.5v101q54 0 85 23.5t31 68.5q0 34 -20.5 57t-63.5 23q-41 0 -62.5 -22.5t-26.5 -53.5q-2 -12 -2.5 -26t-0.5 -25v-316z" />
    <glyph glyph-name="gamma" unicode="&#x3b3;" horiz-adv-x="569" 
d="M227 -189v39t-1 34t-2 37t-4 49q-5 55 -19 111t-31 107t-35 93.5t-31 68.5q-11 20 -21 26.5t-22 6.5q-9 0 -18 -3t-16 -6l-32 96q13 6 40.5 14t53.5 8q35 0 66 -13t55 -56q13 -23 26 -56.5t25 -72.5t21.5 -80t14.5 -78q7 38 22.5 86.5t35 98.5t42 96.5t43.5 79.5l109 -44
q-28 -52 -60.5 -120.5t-61 -141t-49.5 -142.5t-25 -125q-2 -22 -3 -36t-2 -26t-1 -23.5v-27.5h-120z" />
    <glyph glyph-name="delta" unicode="&#x3b4;" horiz-adv-x="566" 
d="M107 667h364v-100h-219q32 -18 65.5 -39t78.5 -56q60 -46 95 -103.5t35 -135.5q0 -48 -16 -92t-48 -78t-79.5 -54t-110.5 -20q-54 0 -97 16.5t-73 47.5t-46 73.5t-16 95.5q0 86 50 149.5t141 93.5q-38 32 -77 56.5t-74 47.5zM374 324q-23 39 -65 68q-67 -22 -104.5 -65.5
t-37.5 -100.5q0 -25 6.5 -49t20.5 -43q14 -18 36 -29.5t52 -11.5q52 0 84 39.5t32 102.5q0 51 -24 89z" />
    <glyph glyph-name="epsilon" unicode="&#x3b5;" horiz-adv-x="483" 
d="M453 27q-17 -9 -40 -16t-49.5 -12t-54 -7.5t-53.5 -2.5q-103 0 -157 35.5t-54 104.5q0 46 26 77.5t72 44.5q-40 16 -62.5 44.5t-22.5 66.5q0 63 54 97.5t145 34.5q60 0 111 -12.5t78 -26.5l-37 -95q-32 15 -70 24.5t-70 9.5t-57.5 -10t-25.5 -37q0 -20 10.5 -31t28 -17
t40 -7.5t46.5 -1.5h75v-95h-33t-34.5 -0.5t-30 -0.5h-20.5q-95 0 -95 -51q0 -28 31 -40.5t75 -12.5q36 0 79.5 9t75.5 23z" />
    <glyph glyph-name="zeta" unicode="&#x3b6;" horiz-adv-x="478" 
d="M291 -158q12 32 22.5 72t14.5 74q-66 -1 -119 7t-90.5 30.5t-58 61.5t-20.5 99q0 49 14 96.5t39.5 91.5t59.5 85t75 78q14 13 27.5 23.5t25.5 17.5q-36 -3 -68 -3q-40 0 -79.5 4.5t-61.5 9.5l17 95q40 -6 85.5 -10t93.5 -4q16 0 40 0.5t50 2t51.5 3.5t45.5 4v-95l-34 -22
t-33 -23q-49 -37 -89 -79t-68.5 -85.5t-44 -85t-15.5 -76.5q0 -40 12 -64t40.5 -37t75.5 -18t117 -6q20 0 33.5 -10t13.5 -33q0 -21 -6.5 -52.5t-16.5 -64.5t-22 -64t-23 -50z" />
    <glyph glyph-name="eta" unicode="&#x3b7;" horiz-adv-x="615" 
d="M84 0v345q0 23 -5 35t-22 12q-5 0 -12.5 -1t-12.5 -3l-22 85q6 3 16.5 5.5t22.5 5t24 4t22 1.5q70 0 87 -65q23 32 67 51t98 19q49 0 85.5 -11.5t61.5 -32t38 -48t16 -59.5q2 -17 2 -30v-33v-469h-130v452q0 14 -0.5 29t-2.5 26q-8 75 -90 75q-40 0 -67 -19t-39 -48
q-5 -13 -6 -31.5t-1 -29.5v-265h-130z" />
    <glyph glyph-name="theta" unicode="&#x3b8;" horiz-adv-x="558" 
d="M163 18q-44 29 -71.5 76.5t-39.5 109t-12 126.5q0 68 14 130.5t43.5 110.5t75 76.5t109.5 28.5t108 -26.5t71.5 -72t39.5 -107.5t12 -132q0 -71 -12.5 -134.5t-41 -111t-74 -75.5t-112.5 -28q-65 0 -110 29zM165 283q0 -32 5.5 -66t18.5 -62t34 -46t53 -18q31 0 52.5 16
t34.5 42.5t18.5 61t5.5 72.5h-222zM387 383q0 35 -7 69t-20.5 61t-34 43.5t-48.5 16.5q-30 0 -51 -18t-34.5 -45.5t-19.5 -61.5t-7 -65h222z" />
    <glyph glyph-name="iota" unicode="&#x3b9;" horiz-adv-x="304" 
d="M304 9q-18 -8 -48 -14t-58 -6q-59 0 -93.5 31t-34.5 94v368h130v-336q0 -33 10.5 -44t29.5 -11q15 0 28.5 3.5t21.5 6.5z" />
    <glyph glyph-name="kappa" unicode="&#x3ba;" horiz-adv-x="578" 
d="M70 0v482h126v-192q34 36 68.5 73t64.5 68q29 30 58.5 44.5t66.5 14.5q20 0 45 -6t39 -14l-36 -99q-9 5 -22.5 8t-24.5 3q-21 0 -39 -13.5t-38 -36.5l-29 -32l214 -300h-150l-145 214l-72 -80v-134h-126z" />
    <glyph glyph-name="lambda" unicode="&#x3bb;" horiz-adv-x="554" 
d="M15 0l178 479l-13 31q-11 26 -23 37.5t-39 11.5q-14 0 -30 -4.5t-30 -10.5l-34 95q8 4 22.5 9t31.5 9t35.5 7t34.5 3q49 0 86.5 -22.5t57.5 -78.5l146 -409q10 -27 23 -45.5t42 -18.5q9 0 19.5 1.5t15.5 3.5l16 -93q-11 -5 -38 -10.5t-52 -5.5q-32 0 -55.5 10t-41 29.5
t-31 47.5t-24.5 63l-58 183l-108 -322h-131z" />
    <glyph glyph-name="uni03BC" unicode="&#x3bc;" horiz-adv-x="609" 
d="M70 -189v671h131v-293q0 -41 21.5 -69.5t68.5 -28.5q33 0 59 14.5t37 41.5q3 7 4.5 17.5t2.5 21t1 19.5v15v258h130v-345q0 -26 7 -36t21 -10q7 0 14.5 1.5l17.5 3.5l14 -88q-13 -5 -36.5 -10t-42.5 -5q-75 0 -93 65q-24 -33 -58.5 -49t-75.5 -16q-31 0 -58.5 10.5
t-42.5 26.5v-215h-122z" />
    <glyph glyph-name="nu" unicode="&#x3bd;" horiz-adv-x="564" 
d="M228 0q-17 56 -33 108t-31.5 97.5t-29 82.5t-25.5 62q-9 20 -20.5 26.5t-24.5 6.5q-9 0 -18 -3l-15 -5l-32 95q6 3 16.5 6.5t24 6.5t28.5 5.5t29 2.5q32 0 62.5 -12.5t54.5 -55.5q13 -23 25.5 -56.5t24 -70.5t21 -74.5t16.5 -70.5q12 38 27 82.5t30 90t30 90t29 82.5
l112 -36q-38 -102 -81 -222.5t-85 -237.5h-135z" />
    <glyph glyph-name="xi" unicode="&#x3be;" horiz-adv-x="504" 
d="M327 -154q12 32 22 69.5t14 71.5q-57 1 -114 7t-102.5 25t-73.5 55t-28 97q0 58 36 103t95 62q-18 5 -35.5 15t-31 25.5t-22 35.5t-8.5 44q0 48 31 81.5t96 49.5q-23 -2 -41.5 -3t-32.5 -1q-24 0 -47.5 2.5t-38.5 5.5l17 94q23 -3 51 -6t57 -5t57.5 -3t52.5 -1
q16 0 38 0.5t46 2t48 2.5t44 3v-98q-20 -3 -35.5 -5.5t-29.5 -5t-28 -5.5t-31 -7q-59 -14 -91.5 -34.5t-32.5 -55.5q0 -33 25 -51t70 -23q12 -2 32.5 -2h40.5h46v-108q-16 0 -48 -0.5t-70 -3.5q-56 -4 -93 -27t-37 -67q0 -27 14.5 -45.5t46 -30t82 -16.5t122.5 -5
q26 0 40 -8.5t14 -31.5q0 -24 -7.5 -57t-18 -66.5t-22 -62.5t-19.5 -44z" />
    <glyph glyph-name="omicron" unicode="&#x3bf;" horiz-adv-x="556" 
d="M171 11q-45 22 -75.5 58t-45.5 81.5t-15 92.5t15 92t45.5 80.5t76 57t106.5 21.5t106.5 -21.5t76 -57t45.5 -80.5t15 -92t-15 -92.5t-45.5 -81.5t-76 -58t-106.5 -22t-107 22zM192 139q14 -20 35.5 -31.5t50.5 -11.5q28 0 49.5 11.5t36 31.5t22 46.5t7.5 57.5
q0 30 -7.5 57t-22 46.5t-36 31t-49.5 11.5t-49.5 -11.5t-36 -31t-22 -46.5t-7.5 -57q0 -31 7.5 -57.5t21.5 -46.5z" />
    <glyph glyph-name="pi" unicode="&#x3c0;" horiz-adv-x="737" 
d="M190 0v379h-8q-8 0 -18.5 -1t-20.5 -5q-14 -5 -26.5 -17.5t-23.5 -26.5l-83 62q19 28 48.5 52.5t71.5 33.5q11 2 27.5 3.5t27.5 1.5h502v-99h-106v-246q0 -30 7.5 -39.5t27.5 -9.5q8 0 20.5 2t20.5 4l16 -90q-20 -7 -45.5 -11t-48.5 -4q-56 0 -89.5 31t-33.5 94v266h-135
v-380h-131z" />
    <glyph glyph-name="rho" unicode="&#x3c1;" horiz-adv-x="591" 
d="M65 -189v404v27.5t2 27.5q4 42 18.5 82t43 71.5t72 51t105.5 19.5q58 0 102.5 -17.5t75 -49t46.5 -75.5t16 -96q0 -53 -14.5 -101t-44 -85t-73 -59t-101.5 -22q-32 0 -62 9.5t-56 29.5v-217h-130zM197 136q14 -12 41.5 -28.5t63.5 -16.5q31 0 53 12.5t36 34t20.5 49.5
t6.5 59q0 30 -7 56.5t-21 45.5t-35 30t-49 11q-53 0 -77.5 -36t-29.5 -87q-2 -14 -2 -28v-28v-74z" />
    <glyph glyph-name="sigma1" unicode="&#x3c2;" horiz-adv-x="523" 
d="M278 -150q11 31 20.5 69.5t13.5 69.5q-42 3 -90 15t-88.5 40.5t-67 76.5t-26.5 122q0 59 18 105.5t49.5 79t75 49.5t93.5 17q81 0 130 -33t72 -89l-100 -47q-16 31 -40 47t-61 16q-52 0 -80.5 -38t-28.5 -101q0 -45 15.5 -75.5t44 -49.5t69 -28t91.5 -10q32 -1 45 -11.5
t13 -36.5q0 -23 -7.5 -53t-18 -60.5t-22 -58t-20.5 -45.5z" />
    <glyph glyph-name="sigma" unicode="&#x3c3;" horiz-adv-x="627" 
d="M462 378q26 -26 42 -68t16 -87q0 -41 -14.5 -83t-45 -75.5t-77.5 -54.5t-112 -21q-61 0 -105.5 20.5t-73.5 53.5t-43 75.5t-14 87.5q0 49 16.5 92.5t47 77t74.5 55t99 26.5q40 3 84 4t89 1h132v-104h-115zM374 321q-21 40 -54 59q-14 0 -23.5 -0.5t-20.5 -2.5
q-54 -10 -84 -51.5t-30 -93.5q0 -28 7 -53t21 -44t36.5 -30t54.5 -11q28 0 49.5 11.5t36 30.5t21.5 44.5t7 53.5q0 48 -21 87z" />
    <glyph glyph-name="tau" unicode="&#x3c4;" horiz-adv-x="578" 
d="M15 382q11 20 26 38t38 34q26 18 55 23t57 5h332v-99h-169v-244q0 -30 12.5 -40t33.5 -10q12 0 26 3t27 8l19 -91q-22 -9 -48.5 -14.5t-52.5 -5.5q-75 0 -108.5 35.5t-33.5 98.5v260h-20q-11 0 -25.5 -0.5t-25.5 -4.5q-22 -8 -34 -22.5t-23 -28.5z" />
    <glyph glyph-name="upsilon" unicode="&#x3c5;" horiz-adv-x="591" 
d="M90 321q0 33 -5 49.5t-26 16.5q-8 0 -17.5 -2t-14.5 -4l-22 88q11 5 38.5 12t59.5 7q41 0 69.5 -21t38.5 -63q4 -16 5 -34t1 -36v-113q0 -57 19.5 -91t71.5 -34q25 0 41.5 7.5t26.5 20t15 29.5t8 37q3 23 4 39.5t1 46.5q0 52 -6 98.5t-16 99.5l127 16q10 -48 16 -102
t6 -108q0 -31 -1 -56t-5 -49q-15 -91 -73.5 -138.5t-152.5 -47.5q-47 0 -85.5 12t-66 36.5t-42.5 62.5t-15 90v131z" />
    <glyph glyph-name="phi" unicode="&#x3c6;" horiz-adv-x="702" 
d="M288 -189v189q-53 1 -98.5 17t-79.5 46.5t-53 74.5t-19 103q0 58 19 102t53 74t79.5 46t98.5 18v186h126v-186q53 -2 98.5 -17.5t79.5 -45.5t53 -74.5t19 -102.5t-19 -102.5t-53 -74.5t-79.5 -46.5t-98.5 -17.5v-189h-126zM414 105q52 5 87.5 39t35.5 97t-35.5 96.5
t-87.5 38.5v-271zM288 376q-52 -5 -87.5 -38.5t-35.5 -96.5t35.5 -97t87.5 -39v271z" />
    <glyph glyph-name="chi" unicode="&#x3c7;" horiz-adv-x="550" 
d="M24 -162l174 321l-72 157q-17 35 -26.5 48.5t-28.5 13.5q-8 0 -20 -3.5t-17 -5.5l-29 99q12 5 39 13t56 8q48 0 75 -23.5t50 -76.5l50 -111l119 220l106 -48l-160 -283l99 -203q16 -33 30.5 -46.5t34.5 -13.5q7 0 18.5 1t17.5 3l20 -94q-7 -3 -18 -5.5t-23.5 -4.5t-24 -3
t-19.5 -1q-29 0 -50 7.5t-37.5 22t-30 34.5t-26.5 45l-65 132l-132 -247z" />
    <glyph glyph-name="psi" unicode="&#x3c8;" horiz-adv-x="763" 
d="M319 -189v179q-129 10 -193.5 70t-64.5 185v106q0 26 -1 59.5t-8 62.5l130 11q4 -14 6 -30.5t3 -33.5t1 -33.5v-29.5v-102q0 -69 29 -109.5t98 -44.5v505h125v-505q35 0 68.5 15.5t47.5 60.5q7 23 9 50.5t2 57.5q0 52 -6 96t-15 93l125 10q11 -51 17 -98t6 -101
q0 -64 -11 -114q-17 -77 -79.5 -125t-163.5 -56v-179h-125z" />
    <glyph glyph-name="omega" unicode="&#x3c9;" horiz-adv-x="839" 
d="M252 446q-29 -45 -49.5 -101t-20.5 -125q0 -58 23 -90.5t65 -32.5q35 0 58.5 28t27.5 81q1 9 1.5 28t1 40t0.5 41.5v32.5h126v-32.5t0.5 -41.5t1 -40t1.5 -28q5 -55 30 -81.5t61 -26.5q38 0 62.5 29.5t24.5 100.5q0 30 -6.5 61t-17.5 59.5t-24.5 53.5t-28.5 44l115 45
q18 -19 34 -47t28.5 -61.5t20 -71t7.5 -74.5q0 -119 -55 -183.5t-155 -64.5q-54 0 -95.5 18.5t-67.5 63.5q-35 -47 -78 -64.5t-93 -17.5q-48 0 -85 16.5t-62.5 47t-39 73t-13.5 94.5q0 39 8 78.5t21.5 75.5t30 66.5t33.5 50.5z" />
    <glyph glyph-name="iotadieresis" unicode="&#x3ca;" horiz-adv-x="304" 
d="M304 9q-18 -8 -48 -14t-58 -6q-59 0 -93.5 31t-34.5 94v368h130v-336q0 -33 10.5 -44t29.5 -11q15 0 28.5 3.5t21.5 6.5zM230 560q-28 0 -46.5 21.5t-18.5 49.5q0 29 18.5 50t46.5 21q29 0 47 -21t18 -50q0 -28 -18 -49.5t-47 -21.5zM42 560q-29 0 -47 21.5t-18 49.5
q0 29 18 50t47 21q28 0 46.5 -21t18.5 -50q0 -28 -18.5 -49.5t-46.5 -21.5z" />
    <glyph glyph-name="upsilondieresis" unicode="&#x3cb;" horiz-adv-x="591" 
d="M90 321q0 33 -5 49.5t-26 16.5q-8 0 -17.5 -2t-14.5 -4l-22 88q11 5 38.5 12t59.5 7q41 0 69.5 -21t38.5 -63q4 -16 5 -34t1 -36v-113q0 -57 19.5 -91t71.5 -34q25 0 41.5 7.5t26.5 20t15 29.5t8 37q3 23 4 39.5t1 46.5q0 52 -6 98.5t-16 99.5l127 16q10 -48 16 -102
t6 -108q0 -31 -1 -56t-5 -49q-15 -91 -73.5 -138.5t-152.5 -47.5q-47 0 -85.5 12t-66 36.5t-42.5 62.5t-15 90v131zM383 560q-28 0 -46.5 21.5t-18.5 49.5q0 29 18.5 50t46.5 21q29 0 47 -21t18 -50q0 -28 -18 -49.5t-47 -21.5zM195 560q-29 0 -47 21.5t-18 49.5q0 29 18 50
t47 21q28 0 46.5 -21t18.5 -50q0 -28 -18.5 -49.5t-46.5 -21.5z" />
    <glyph glyph-name="omicrontonos" unicode="&#x3cc;" horiz-adv-x="556" 
d="M171 11q-45 22 -75.5 58t-45.5 81.5t-15 92.5t15 92t45.5 80.5t76 57t106.5 21.5t106.5 -21.5t76 -57t45.5 -80.5t15 -92t-15 -92.5t-45.5 -81.5t-76 -58t-106.5 -22t-107 22zM192 139q14 -20 35.5 -31.5t50.5 -11.5q28 0 49.5 11.5t36 31.5t22 46.5t7.5 57.5
q0 30 -7.5 57t-22 46.5t-36 31t-49.5 11.5t-49.5 -11.5t-36 -31t-22 -46.5t-7.5 -57q0 -31 7.5 -57.5t21.5 -46.5zM208 557l101 228l103 -47l-136 -215z" />
    <glyph glyph-name="upsilontonos" unicode="&#x3cd;" horiz-adv-x="591" 
d="M90 321q0 33 -5 49.5t-26 16.5q-8 0 -17.5 -2t-14.5 -4l-22 88q11 5 38.5 12t59.5 7q41 0 69.5 -21t38.5 -63q4 -16 5 -34t1 -36v-113q0 -57 19.5 -91t71.5 -34q25 0 41.5 7.5t26.5 20t15 29.5t8 37q3 23 4 39.5t1 46.5q0 52 -6 98.5t-16 99.5l127 16q10 -48 16 -102
t6 -108q0 -31 -1 -56t-5 -49q-15 -91 -73.5 -138.5t-152.5 -47.5q-47 0 -85.5 12t-66 36.5t-42.5 62.5t-15 90v131zM241 557l101 228l103 -47l-136 -215z" />
    <glyph glyph-name="omegatonos" unicode="&#x3ce;" horiz-adv-x="839" 
d="M252 446q-29 -45 -49.5 -101t-20.5 -125q0 -58 23 -90.5t65 -32.5q35 0 58.5 28t27.5 81q1 9 1.5 28t1 40t0.5 41.5v32.5h126v-32.5t0.5 -41.5t1 -40t1.5 -28q5 -55 30 -81.5t61 -26.5q38 0 62.5 29.5t24.5 100.5q0 30 -6.5 61t-17.5 59.5t-24.5 53.5t-28.5 44l115 45
q18 -19 34 -47t28.5 -61.5t20 -71t7.5 -74.5q0 -119 -55 -183.5t-155 -64.5q-54 0 -95.5 18.5t-67.5 63.5q-35 -47 -78 -64.5t-93 -17.5q-48 0 -85 16.5t-62.5 47t-39 73t-13.5 94.5q0 39 8 78.5t21.5 75.5t30 66.5t33.5 50.5zM359 557l101 228l103 -47l-136 -215z" />
    <glyph glyph-name="afii10023" unicode="&#x401;" horiz-adv-x="586" 
d="M77 0v667h458v-121h-323v-152h267v-121h-267v-152h346v-121h-481zM401 726q-28 0 -46.5 21.5t-18.5 49.5q0 29 18.5 50t46.5 21q29 0 47 -21t18 -50q0 -28 -18 -49.5t-47 -21.5zM213 726q-29 0 -47 21.5t-18 49.5q0 29 18 50t47 21q28 0 46.5 -21t18.5 -50
q0 -28 -18.5 -49.5t-46.5 -21.5z" />
    <glyph glyph-name="afii10051" unicode="&#x402;" horiz-adv-x="719" 
d="M168 0v546h-168v121h480v-121h-180v-111q25 10 67.5 20t91.5 10q51 0 93 -14t72.5 -42t47.5 -68.5t17 -93.5q0 -61 -17 -107t-48.5 -77t-76 -47t-99.5 -16h-70v117h53q60 0 90.5 28t30.5 91q0 58 -32.5 87t-88.5 29q-37 0 -72.5 -10.5t-57.5 -21.5v-320h-133z" />
    <glyph glyph-name="afii10052" unicode="&#x403;" horiz-adv-x="505" 
d="M73 0v667h427v-121h-292v-546h-135zM199 704l-36 54l201 141l63 -83z" />
    <glyph glyph-name="afii10053" unicode="&#x404;" horiz-adv-x="606" 
d="M180 283q6 -47 20 -81t35 -55.5t47.5 -31.5t56.5 -10q86 0 136 92l106 -65q-43 -76 -106 -111t-148 -35q-65 0 -117.5 22.5t-90 66t-58 107t-20.5 146.5q0 91 24.5 157.5t65 110t94 64.5t110.5 21q94 0 155 -39.5t96 -106.5l-109 -61q-22 38 -55 63.5t-84 25.5
q-54 0 -96.5 -40t-57.5 -119h244v-121h-248z" />
    <glyph glyph-name="afii10054" unicode="&#x405;" horiz-adv-x="556" 
d="M129 177q23 -38 62 -57.5t88 -19.5q51 0 81.5 20t30.5 53q0 21 -7 37t-24 30t-47 27.5t-76 29.5q-43 15 -77.5 32t-59 40t-37.5 53.5t-13 72.5q0 41 14.5 75t44 59t73.5 38.5t103 13.5q49 0 86.5 -9.5t65 -25.5t47.5 -37t35 -44l-97 -69q-21 32 -53 53t-85 21
q-51 0 -77.5 -18t-26.5 -47q0 -35 34 -57.5t102 -47.5q51 -18 89.5 -38t64.5 -45.5t39.5 -58.5t13.5 -78q0 -49 -20.5 -85.5t-54 -60.5t-77.5 -36t-90 -12q-182 0 -255 123z" />
    <glyph glyph-name="uni0406" unicode="&#x406;" horiz-adv-x="289" 
d="M77 0v667h135v-667h-135z" />
    <glyph glyph-name="afii10056" unicode="&#x407;" horiz-adv-x="289" 
d="M77 0v667h135v-667h-135zM240 726q-28 0 -46.5 21.5t-18.5 49.5q0 29 18.5 50t46.5 21q29 0 47 -21t18 -50q0 -28 -18 -49.5t-47 -21.5zM52 726q-29 0 -47 21.5t-18 49.5q0 29 18 50t47 21q28 0 46.5 -21t18.5 -50q0 -28 -18.5 -49.5t-46.5 -21.5z" />
    <glyph glyph-name="afii10057" unicode="&#x408;" horiz-adv-x="297" 
d="M-43 -29q70 14 99 43t29 75v578h135v-600q0 -47 -17 -82.5t-48.5 -61t-75 -41.5t-97.5 -25z" />
    <glyph glyph-name="afii10058" unicode="&#x409;" horiz-adv-x="972" 
d="M18 0v121h23q29 0 56 9.5t43 39.5q10 19 16.5 40t10 58.5t5 98t1.5 159.5v141h413v-224h105q60 0 106.5 -15.5t78.5 -44.5t49 -69.5t17 -89.5q0 -50 -17 -91t-49 -70.5t-78.5 -46t-106.5 -16.5h-238v548h-147v-14q0 -101 -2.5 -171.5t-9 -121t-18 -85.5t-29.5 -64
q-32 -50 -82.5 -71t-109.5 -21h-37zM586 114h96q56 0 87.5 28.5t31.5 81.5q0 50 -31 77.5t-87 27.5h-97v-215z" />
    <glyph glyph-name="afii10059" unicode="&#x40a;" horiz-adv-x="968" 
d="M73 0v667h135v-244h239v244h135v-244h105q120 0 185.5 -53.5t65.5 -153.5t-65.5 -158t-185.5 -58h-240v309h-239v-309h-135zM582 114h96q56 0 89 22.5t33 75.5q0 50 -32.5 73.5t-88.5 23.5h-97v-195z" />
    <glyph glyph-name="afii10060" unicode="&#x40b;" horiz-adv-x="716" 
d="M160 0v546h-160v121h461v-121h-167v-121q25 14 58.5 23.5t78.5 9.5q48 0 87 -11.5t67.5 -36t44 -63t15.5 -92.5v-255h-134v243q0 44 -24 70t-75 26q-36 0 -67 -12.5t-51 -25.5v-301h-134z" />
    <glyph glyph-name="afii10061" unicode="&#x40c;" horiz-adv-x="622" 
d="M73 0v667h135v-267h38q22 0 37 11.5t25.5 29.5t18 40t15.5 44q10 27 21 52.5t29 45.5t44.5 32t66.5 12h84v-121h-61q-25 0 -37.5 -19t-28.5 -61q-19 -48 -37 -77.5t-36 -46.5l230 -342h-160l-189 280h-60v-280h-135zM253 704l-36 54l201 141l63 -83z" />
    <glyph glyph-name="afii10062" unicode="&#x40e;" horiz-adv-x="623" 
d="M252 867q8 -33 29.5 -50t44.5 -17t44.5 17t29.5 50h117q-2 -41 -19 -71t-43.5 -50.5t-60.5 -30.5t-68 -10q-35 0 -68 10t-60 30.5t-44 50.5t-19 71h117zM118 -6v121h29q25 0 44 2t33 9.5t25 22t22 39.5l-263 479h151l184 -350q35 81 67.5 170t61.5 180h137
q-27 -81 -52.5 -152t-51.5 -134.5t-53 -122t-57 -113.5q-20 -38 -41.5 -66.5t-48 -47t-60 -28t-77.5 -9.5h-50z" />
    <glyph glyph-name="afii10145" unicode="&#x40f;" horiz-adv-x="673" 
d="M78 0v667h135v-548h247v548h135v-667h-193v-135h-132v135h-192z" />
    <glyph glyph-name="afii10017" unicode="&#x410;" horiz-adv-x="648" 
d="M0 0l274 667h95l278 -667h-145l-54 134h-257l-55 -134h-136zM232 247h172l-86 219z" />
    <glyph glyph-name="afii10018" unicode="&#x411;" horiz-adv-x="599" 
d="M73 0v667h423v-121h-288v-123h105q120 0 185.5 -55.5t65.5 -155.5t-65.5 -156t-185.5 -56h-240zM208 114h96q56 0 87.5 22.5t31.5 75.5q0 50 -31 73.5t-87 23.5h-97v-195z" />
    <glyph glyph-name="afii10019" unicode="&#x412;" horiz-adv-x="598" 
d="M77 0v667h238q48 0 88.5 -12t69.5 -35.5t45.5 -57t16.5 -75.5q0 -45 -21.5 -78t-59.5 -56q54 -19 86.5 -60.5t32.5 -104.5q0 -53 -30 -101t-91 -71q-23 -8 -49.5 -12t-51.5 -4h-274zM210 394h66q23 0 44 2t30 7q26 12 37.5 30.5t11.5 38.5q0 24 -15.5 44.5t-46.5 30.5
q-5 1 -13.5 2.5t-19 2l-21 1t-18.5 0.5h-55v-159zM210 114h96q35 0 55 3t33 10q22 12 32 29.5t10 36.5q0 22 -12.5 43t-37.5 34q-16 8 -36.5 11.5t-45.5 3.5h-94v-171z" />
    <glyph glyph-name="afii10020" unicode="&#x413;" horiz-adv-x="505" 
d="M73 0v667h427v-121h-292v-546h-135z" />
    <glyph glyph-name="afii10021" unicode="&#x414;" horiz-adv-x="665" 
d="M5 -135v256h56q38 58 62 123t38 134.5t19.5 142.5t5.5 146h397v-546h56v-256h-132v135h-370v-135h-132zM450 119v429h-138q0 -52 -6 -107t-19 -110t-32.5 -109t-47.5 -103h243z" />
    <glyph glyph-name="afii10022" unicode="&#x415;" horiz-adv-x="586" 
d="M77 0v667h458v-121h-323v-152h267v-121h-267v-152h346v-121h-481z" />
    <glyph glyph-name="afii10024" unicode="&#x416;" horiz-adv-x="898" 
d="M19 0l184 333q-17 19 -29.5 45.5t-29.5 68.5q-8 19 -15.5 36.5t-16 31.5t-18 22.5t-21.5 8.5h-49v121h72q41 0 68.5 -9t46 -25t30 -36.5t20.5 -44.5q9 -23 16 -50.5t17 -51.5t23.5 -40.5t36.5 -16.5h29v274h133v-274h26q22 0 36 14.5t24 36t17 47.5t16 49q9 24 21 46.5
t31 40.5t46 29t67 11h70v-121h-53q-12 0 -21.5 -8.5t-18.5 -22t-16.5 -31.5t-14.5 -37q-31 -83 -57 -109l181 -338h-164l-138 278h-52v-278h-133v278h-57l-145 -278h-162z" />
    <glyph glyph-name="afii10025" unicode="&#x417;" horiz-adv-x="572" 
d="M119 197q29 -48 66.5 -73t85.5 -25q54 0 85.5 24.5t31.5 71.5q0 18 -6.5 34.5t-21.5 29.5t-38.5 21t-57.5 8h-77v107h75q54 0 83.5 27.5t29.5 64.5q0 32 -25 56.5t-72 24.5q-29 0 -51 -5t-39 -16.5t-30 -30.5t-24 -46l-103 58q41 84 102.5 118.5t152.5 34.5
q107 0 166.5 -48.5t59.5 -129.5q0 -58 -25 -97.5t-63 -61.5q104 -38 104 -152q0 -50 -18 -88.5t-51.5 -64.5t-81.5 -39.5t-107 -13.5q-79 0 -145 31.5t-112 111.5z" />
    <glyph glyph-name="afii10026" unicode="&#x418;" horiz-adv-x="681" 
d="M73 0v667h135v-401l265 306v95h135v-667h-135v401l-265 -306v-95h-135z" />
    <glyph glyph-name="afii10027" unicode="&#x419;" horiz-adv-x="681" 
d="M268 867q8 -33 29.5 -50t44.5 -17t44.5 17t29.5 50h117q-2 -41 -19 -71t-43.5 -50.5t-60.5 -30.5t-68 -10q-35 0 -68 10t-60 30.5t-44 50.5t-19 71h117zM73 0v667h135v-401l265 306v95h135v-667h-135v401l-265 -306v-95h-135z" />
    <glyph glyph-name="afii10028" unicode="&#x41a;" horiz-adv-x="622" 
d="M73 0v667h135v-267h38q22 0 37 11.5t25.5 29.5t18 40t15.5 44q10 27 21 52.5t29 45.5t44.5 32t66.5 12h84v-121h-61q-25 0 -37.5 -19t-28.5 -61q-19 -48 -37 -77.5t-36 -46.5l230 -342h-160l-189 280h-60v-280h-135z" />
    <glyph glyph-name="afii10029" unicode="&#x41b;" horiz-adv-x="679" 
d="M21 0v121h23q29 0 56 9.5t43 39.5q10 19 16.5 40t10 58.5t5 98t1.5 159.5v141h434v-667h-135v548h-166v-14q0 -101 -2.5 -171.5t-9 -121t-18 -85.5t-29.5 -64q-32 -50 -82.5 -71t-109.5 -21h-37z" />
    <glyph glyph-name="afii10030" unicode="&#x41c;" horiz-adv-x="806" 
d="M77 0v667h138l197 -444l178 444h139v-667h-133v373l-161 -377h-48l-177 381v-377h-133z" />
    <glyph glyph-name="afii10031" unicode="&#x41d;" horiz-adv-x="689" 
d="M77 0v667h135v-264h265v264h135v-667h-135v282h-265v-282h-135z" />
    <glyph glyph-name="afii10032" unicode="&#x41e;" horiz-adv-x="707" 
d="M217 16q-58 31 -96 80t-57 111.5t-19 126.5t19 126.5t57 111.5t96 79t135 30q78 0 136 -30t97 -79t58 -111.5t19 -126.5t-19 -126.5t-58 -111.5t-97 -79.5t-136 -30.5q-77 0 -135 30zM225 175q22 -32 53.5 -51t73.5 -19t74.5 19t54.5 51t33 73.5t11 85.5t-11 85.5
t-33 73.5t-54.5 51t-74.5 19t-73.5 -19t-53.5 -51t-33 -73.5t-11 -85.5t11 -85.5t33 -73.5z" />
    <glyph glyph-name="afii10033" unicode="&#x41f;" horiz-adv-x="673" 
d="M75 0v667h523v-667h-135v546h-253v-546h-135z" />
    <glyph glyph-name="afii10034" unicode="&#x420;" horiz-adv-x="592" 
d="M77 0v667h210q51 0 94.5 -6.5t82.5 -25.5q51 -24 75 -71.5t24 -101.5q0 -30 -8 -60.5t-23 -56.5t-37 -47t-50 -33q-35 -14 -71 -19.5t-73 -5.5h-92v-240h-132zM209 355h75q29 0 52.5 3t40.5 11q29 13 41 36t12 49q0 28 -13.5 52t-42.5 34q-17 6 -36 9t-49 3h-80v-197z
" />
    <glyph glyph-name="afii10035" unicode="&#x421;" horiz-adv-x="608" 
d="M584 133q-45 -80 -102 -113.5t-139 -33.5q-66 0 -121 23t-94.5 67.5t-61 108.5t-21.5 146q0 90 24.5 155.5t65 109t94 64.5t110.5 21q46 0 83 -10.5t66.5 -30.5t52 -49t39.5 -66l-109 -61q-20 43 -49.5 71t-79.5 28q-31 0 -60 -14t-51 -43t-35.5 -72.5t-13.5 -102.5
q0 -52 13 -94t35.5 -71t52.5 -45t65 -16q19 0 36.5 4t33.5 14.5t31 28t30 45.5z" />
    <glyph glyph-name="afii10036" unicode="&#x422;" horiz-adv-x="543" 
d="M204 0v546h-199v121h533v-121h-198v-546h-136z" />
    <glyph glyph-name="afii10037" unicode="&#x423;" horiz-adv-x="606" 
d="M100 -6v121h29q25 0 44 2t33 9.5t25 22t22 39.5l-263 479h151l184 -350q35 81 67.5 170t61.5 180h137q-27 -81 -52.5 -152t-51.5 -134.5t-53 -122t-57 -113.5q-20 -38 -41.5 -66.5t-48 -47t-60 -28t-77.5 -9.5h-50z" />
    <glyph glyph-name="afii10038" unicode="&#x424;" horiz-adv-x="747" 
d="M306 -12v91q-131 9 -201.5 76t-70.5 179t70.5 179t201.5 76v91h135v-91q131 -9 201.5 -76t70.5 -179t-70.5 -179t-201.5 -76v-91h-135zM441 185q66 5 103 43t37 106t-37 105.5t-103 42.5v-297zM306 482q-66 -5 -103 -42.5t-37 -105.5t37 -106t103 -43v297z" />
    <glyph glyph-name="afii10039" unicode="&#x425;" horiz-adv-x="579" 
d="M0 0l217 347l-202 320h152l122 -203l122 203h152l-201 -320l217 -347h-151l-139 230l-138 -230h-151z" />
    <glyph glyph-name="afii10040" unicode="&#x426;" horiz-adv-x="682" 
d="M81 0v667h135v-548h241v548h135v-548h56v-254h-132v135h-435z" />
    <glyph glyph-name="afii10041" unicode="&#x427;" horiz-adv-x="643" 
d="M435 0v262q-26 -8 -70 -13.5t-85 -5.5q-109 0 -164.5 45.5t-63.5 141.5q-1 12 -1.5 25t-0.5 27v185h135v-173q0 -14 0.5 -26t1.5 -23q5 -48 34 -67.5t86 -19.5q33 0 69 5t59 14v290h135v-667h-135z" />
    <glyph glyph-name="afii10042" unicode="&#x428;" horiz-adv-x="921" 
d="M78 0v667h135v-549h182v549h131v-549h182v549h135v-667h-765z" />
    <glyph glyph-name="afii10043" unicode="&#x429;" horiz-adv-x="930" 
d="M82 0v667h135v-549h178v549h131v-549h178v549h135v-549h56v-253h-132v135h-681z" />
    <glyph glyph-name="afii10044" unicode="&#x42a;" horiz-adv-x="640" 
d="M106 0v546h-101v121h234v-224h120q60 0 106.5 -15.5t78.5 -44.5t49 -69.5t17 -89.5q0 -50 -17 -91t-49 -70.5t-78.5 -46t-106.5 -16.5h-253zM239 114h111q56 0 87.5 28.5t31.5 81.5q0 50 -31 77.5t-87 27.5h-112v-215z" />
    <glyph glyph-name="afii10045" unicode="&#x42b;" horiz-adv-x="846" 
d="M73 0v667h133v-224h105q60 0 106.5 -15.5t78.5 -44.5t49 -69.5t17 -89.5q0 -50 -17 -91t-49 -70.5t-78.5 -46t-106.5 -16.5h-238zM638 0v667h135v-667h-135zM206 114h96q56 0 87.5 28.5t31.5 81.5q0 50 -31 77.5t-87 27.5h-97v-215z" />
    <glyph glyph-name="afii10046" unicode="&#x42c;" horiz-adv-x="612" 
d="M73 0v667h133v-224h125q60 0 106.5 -15.5t78.5 -44.5t49 -69.5t17 -89.5q0 -50 -17 -91t-49 -70.5t-78.5 -46t-106.5 -16.5h-258zM206 114h116q56 0 87.5 28.5t31.5 81.5q0 50 -31 77.5t-87 27.5h-117v-215z" />
    <glyph glyph-name="afii10047" unicode="&#x42d;" horiz-adv-x="606" 
d="M131 197q26 -48 61 -70t86 -22q28 0 54 10t46.5 31t33 54t14.5 80h-248v121h244q-8 78 -49 120t-99 42q-51 0 -86.5 -26t-58.5 -63l-109 61q19 31 44 58t57 46.5t72 30.5t91 11q58 0 109.5 -20t89.5 -62t60 -107t22 -155q0 -87 -21 -153t-58.5 -110t-91 -66t-117.5 -22
q-90 0 -150.5 34t-103.5 110z" />
    <glyph glyph-name="afii10048" unicode="&#x42e;" horiz-adv-x="973" 
d="M73 0v667h135v-271h122q8 55 30 106.5t59 91.5t89.5 63.5t120.5 23.5q77 0 134 -30t94.5 -79t56 -111.5t18.5 -126.5t-18.5 -126.5t-56 -111.5t-94.5 -79.5t-134 -30.5q-69 0 -122 24.5t-90.5 65.5t-59 94.5t-28.5 110.5h-121v-281h-135zM504 175q21 -32 52 -51.5
t73 -19.5t73 19.5t52 51.5t31.5 73.5t10.5 85.5t-10.5 85.5t-31.5 73.5t-52 51t-73 19t-73 -19t-52 -51t-31.5 -73.5t-10.5 -85.5t10.5 -85.5t31.5 -73.5z" />
    <glyph glyph-name="afii10049" unicode="&#x42f;" horiz-adv-x="611" 
d="M40 0v121h41q35 0 57.5 21.5t30.5 84.5q2 9 2.5 18.5t1.5 20.5q-57 26 -91.5 74.5t-34.5 122.5q0 100 65.5 152t185.5 52h240v-667h-133v244h-100l-6 -52q-9 -63 -30 -100.5t-48 -58t-58 -27t-62 -6.5h-61zM405 360v193h-98q-56 0 -87.5 -20.5t-31.5 -69.5q0 -47 32 -75
t88 -28h97z" />
    <glyph glyph-name="afii10065" unicode="&#x430;" horiz-adv-x="514" 
d="M332 0l-6 36q-21 -22 -53.5 -34.5t-71.5 -12.5q-32 0 -62.5 10.5t-53.5 30t-37 48t-14 64.5t15 63.5t40 46.5t57.5 31t68.5 18q25 5 55 7.5t50 4.5v16q0 29 -20 47t-47 18q-17 0 -43 -9t-50 -34l-89 62q19 24 43.5 40t50 25t50.5 12.5t46 3.5q42 0 77 -10.5t60.5 -33
t39.5 -57t14 -83.5v-310h-120zM321 225q-20 -1 -42.5 -3.5t-42.5 -6.5q-42 -8 -58.5 -27.5t-16.5 -42.5q0 -24 18 -38.5t53 -14.5q25 0 48.5 10t40.5 25v98z" />
    <glyph glyph-name="afii10066" unicode="&#x431;" horiz-adv-x="570" 
d="M295 533q-48 -5 -78 -35.5t-42 -93.5q7 12 21.5 21.5t32.5 17t39 11.5t42 4q52 0 93 -17t68.5 -47.5t42 -72t14.5 -90.5q0 -47 -16 -90.5t-47 -77t-76.5 -54t-104.5 -20.5q-63 0 -109 21.5t-76 60t-44.5 91.5t-14.5 116q0 60 12 121t40.5 111.5t75.5 84.5t117 39l40 3
q26 2 38.5 12t17.5 40l105 -17q-3 -32 -11 -55.5t-24.5 -40t-42 -25.5t-62.5 -13zM199 133q29 -36 86 -36t86 36.5t29 91.5q0 54 -29 90.5t-86 36.5t-85.5 -36.5t-28.5 -90.5q0 -55 28 -92z" />
    <glyph glyph-name="afii10067" unicode="&#x432;" horiz-adv-x="551" 
d="M65 0v482h263q77 0 121 -33.5t44 -93.5q0 -69 -54 -100q38 -16 57.5 -41.5t19.5 -66.5q0 -38 -14 -65.5t-38 -45.5t-57 -27t-70 -9h-272zM191 97h132q29 0 43.5 13.5t14.5 36.5q0 49 -58 49h-132v-99zM191 291h116q32 0 43.5 17t11.5 34t-11.5 30t-43.5 13h-116v-94z" />
    <glyph glyph-name="afii10068" unicode="&#x433;" horiz-adv-x="425" 
d="M65 0v482h355v-105h-225v-377h-130z" />
    <glyph glyph-name="afii10069" unicode="&#x434;" horiz-adv-x="594" 
d="M8 -105v210h44q50 60 73 142t23 180v55h363v-377h48v-210h-123v105h-305v-105h-123zM388 103v276h-121q-2 -85 -22.5 -156.5t-55.5 -119.5h199z" />
    <glyph glyph-name="afii10070" unicode="&#x435;" horiz-adv-x="525" 
d="M166 210q5 -61 37.5 -88t72.5 -27q35 0 63 12.5t58 54.5l97 -59q-41 -63 -95 -88.5t-127 -25.5q-48 0 -91 15t-75.5 46.5t-51.5 78.5t-19 112q0 61 18.5 108t50.5 79t74.5 49t90.5 17q101 0 162.5 -70.5t63.5 -213.5h-329zM362 299q-4 48 -32.5 72t-60.5 24
q-17 0 -33.5 -6.5t-30.5 -19t-23.5 -30.5t-12.5 -40h193z" />
    <glyph glyph-name="afii10072" unicode="&#x436;" horiz-adv-x="747" 
d="M32 0l130 257q-13 14 -26 32.5t-27 46.5q-13 25 -23 35.5t-29 10.5h-27v100h59q30 0 49.5 -6.5t33.5 -19t25 -31.5t24 -43q22 -44 34 -64.5t32 -20.5h24v185h130v-185h23q20 0 31.5 20t34.5 64q12 23 23.5 42t25.5 32t34 20t50 7h54v-100h-27q-19 0 -30.5 -11.5
t-22.5 -34.5q-14 -29 -24 -45.5t-24 -30.5l125 -260h-135l-95 195h-43v-195h-130v195h-46l-96 -195h-137z" />
    <glyph glyph-name="afii10073" unicode="&#x437;" horiz-adv-x="478" 
d="M105 156q19 -30 46 -47t77 -17q41 0 64.5 12t23.5 39q0 22 -19 36.5t-70 14.5h-47v93h48q24 0 39 5t23.5 13.5t11.5 18.5t3 20q0 29 -22 39.5t-54 10.5q-37 0 -65 -15t-45 -58l-98 46q12 26 29.5 49t43 40.5t60.5 27.5t83 10q91 0 144 -35t53 -101q0 -32 -16 -62t-57 -46
q46 -14 65.5 -41t19.5 -70q0 -38 -16.5 -66t-45.5 -47t-69 -28t-87 -9q-88 0 -139.5 30.5t-77.5 76.5z" />
    <glyph glyph-name="afii10074" unicode="&#x438;" horiz-adv-x="584" 
d="M65 0v482h130v-261l194 184v77h130v-482h-130v261l-194 -184v-77h-130z" />
    <glyph glyph-name="afii10075" unicode="&#x439;" horiz-adv-x="584" 
d="M218 701q8 -33 29.5 -50t44.5 -17t44.5 17t29.5 50h117q-2 -41 -19 -71t-43.5 -50.5t-60.5 -30.5t-68 -10q-35 0 -68 10t-60 30.5t-44 50.5t-19 71h117zM65 0v482h130v-261l194 184v77h130v-482h-130v261l-194 -184v-77h-130z" />
    <glyph glyph-name="afii10076" unicode="&#x43a;" horiz-adv-x="540" 
d="M65 0v482h130v-183h38q12 0 20.5 9t16 23.5t14.5 33t16 36.5q7 15 16.5 29.5t23 26t33.5 18.5t48 7h80v-103h-39q-23 0 -36 -10.5t-24 -33.5q-12 -27 -21.5 -45t-20.5 -31l179 -259h-159l-121 189h-64v-189h-130z" />
    <glyph glyph-name="afii10077" unicode="&#x43b;" horiz-adv-x="575" 
d="M15 0v106h30q20 0 39 10t27 39q3 12 5 28t3 38.5t1 52.5v71v137h390v-482h-131v379h-130v-51q0 -41 -0.5 -71t-2.5 -52.5t-5 -40.5t-7 -36q-14 -55 -54.5 -91.5t-113.5 -36.5h-51z" />
    <glyph glyph-name="afii10078" unicode="&#x43c;" horiz-adv-x="675" 
d="M65 0v482h131l145 -294l139 294h130v-482h-126v271l-117 -271h-50l-126 271v-271h-126z" />
    <glyph glyph-name="afii10079" unicode="&#x43d;" horiz-adv-x="584" 
d="M68 0v482h130v-183h188v183h130v-482h-130v194h-188v-194h-130z" />
    <glyph glyph-name="afii10080" unicode="&#x43e;" horiz-adv-x="556" 
d="M171 11q-45 22 -75.5 58t-45.5 81.5t-15 92.5t15 92t45.5 80.5t76 57t106.5 21.5t106.5 -21.5t76 -57t45.5 -80.5t15 -92t-15 -92.5t-45.5 -81.5t-76 -58t-106.5 -22t-107 22zM192 139q14 -20 35.5 -31.5t50.5 -11.5q28 0 49.5 11.5t36 31.5t22 46.5t7.5 57.5
q0 30 -7.5 57t-22 46.5t-36 31t-49.5 11.5t-49.5 -11.5t-36 -31t-22 -46.5t-7.5 -57q0 -31 7.5 -57.5t21.5 -46.5z" />
    <glyph glyph-name="afii10081" unicode="&#x43f;" horiz-adv-x="584" 
d="M71 0v482h442v-482h-130v379h-182v-379h-130z" />
    <glyph glyph-name="afii10082" unicode="&#x440;" horiz-adv-x="554" 
d="M65 -189v671h119l6 -36q18 17 48 32.5t71 15.5q52 0 91.5 -21t65.5 -55.5t39.5 -80.5t13.5 -95q0 -47 -15 -92.5t-46.5 -81t-80 -57.5t-114.5 -22q-34 0 -67 14v-192h-131zM195 111q31 -14 61 -14q35 0 60.5 12t42.5 32.5t25 46t8 52.5q0 28 -7 55t-20.5 48t-34 34
t-48.5 13q-27 0 -51 -14.5t-36 -31.5v-233z" />
    <glyph glyph-name="afii10083" unicode="&#x441;" horiz-adv-x="487" 
d="M476 116q-31 -65 -83.5 -96t-122.5 -31q-46 0 -88.5 16t-75 47.5t-52 78t-19.5 108.5q0 64 19 112t50.5 80t72.5 47.5t85 15.5t78.5 -12.5t60 -32.5t42 -45t25.5 -50l-103 -51q-17 48 -42.5 67.5t-57.5 19.5q-20 0 -38 -9t-32.5 -27t-23 -46t-8.5 -67q0 -69 30.5 -107
t79.5 -38q38 0 62 19t43 54z" />
    <glyph glyph-name="afii10084" unicode="&#x442;" horiz-adv-x="449" 
d="M159 0v377h-154v105h439v-105h-154v-377h-131z" />
    <glyph glyph-name="afii10085" unicode="&#x443;" horiz-adv-x="517" 
d="M48 -81q19 -9 37.5 -13t31.5 -4q12 0 24 7t22 28l37 83l-200 462h139l126 -329l120 329h132l-250 -596q-11 -25 -26 -42t-33 -27t-38.5 -14t-40.5 -4q-26 0 -57.5 6.5t-64.5 20.5z" />
    <glyph glyph-name="afii10086" unicode="&#x444;" horiz-adv-x="702" 
d="M288 -189v189q-53 1 -98.5 17t-79.5 46.5t-53 74.5t-19 103q0 58 19 102t53 74t79.5 46t98.5 18v186h126v-186q53 -2 98.5 -17.5t79.5 -45.5t53 -74.5t19 -102.5t-19 -102.5t-53 -74.5t-79.5 -46.5t-98.5 -17.5v-189h-126zM414 105q52 5 87.5 39t35.5 97t-35.5 96.5
t-87.5 38.5v-271zM288 376q-52 -5 -87.5 -38.5t-35.5 -96.5t35.5 -97t87.5 -39v271z" />
    <glyph glyph-name="afii10087" unicode="&#x445;" horiz-adv-x="511" 
d="M3 0l181 238l-184 244h147l111 -149l111 149h134l-176 -235l184 -247h-147l-112 152l-113 -152h-136z" />
    <glyph glyph-name="afii10088" unicode="&#x446;" horiz-adv-x="578" 
d="M65 0v482h130v-379h170v379h130v-377h48v-210h-123v105h-355z" />
    <glyph glyph-name="afii10089" unicode="&#x447;" horiz-adv-x="566" 
d="M370 0v140q-24 -6 -59 -10t-77 -4q-80 0 -125 35.5t-58 93.5q-3 14 -4.5 34t-1.5 36v157h131v-151q0 -25 4 -40q6 -26 26 -39t58 -13q31 0 59 3t47 11v229h131v-482h-131z" />
    <glyph glyph-name="afii10090" unicode="&#x448;" horiz-adv-x="844" 
d="M65 0v482h130v-379h164v379h126v-379h164v379h130v-482h-714z" />
    <glyph glyph-name="afii10091" unicode="&#x449;" horiz-adv-x="856" 
d="M65 0v482h130v-379h161v379h126v-379h161v379h130v-377h48v-210h-123v105h-633z" />
    <glyph glyph-name="afii10092" unicode="&#x44a;" horiz-adv-x="568" 
d="M91 0v379h-86v103h214v-122h101q58 0 98.5 -14.5t66 -38.5t37 -56.5t11.5 -68.5t-11.5 -69t-37 -58t-66 -40t-98.5 -15h-229zM219 95h87q46 0 66.5 25t20.5 62q0 35 -20.5 58t-66.5 23h-87v-168z" />
    <glyph glyph-name="afii10093" unicode="&#x44b;" horiz-adv-x="758" 
d="M65 0v482h128v-122h101q58 0 98.5 -14.5t66 -38.5t37 -56.5t11.5 -68.5t-11.5 -69t-37 -58t-66 -40t-98.5 -15h-229zM562 0v482h131v-482h-131zM193 95h87q46 0 66.5 25t20.5 62q0 35 -20.5 58t-66.5 23h-87v-168z" />
    <glyph glyph-name="afii10094" unicode="&#x44c;" horiz-adv-x="555" 
d="M65 0v482h128v-122h114q58 0 98.5 -14.5t66 -38.5t37 -56.5t11.5 -68.5t-11.5 -69t-37 -58t-66 -40t-98.5 -15h-242zM193 95h100q46 0 66.5 25t20.5 62q0 35 -20.5 58t-66.5 23h-100v-168z" />
    <glyph glyph-name="afii10095" unicode="&#x44d;" horiz-adv-x="503" 
d="M102 144q19 -20 46 -35.5t69 -15.5q48 0 78.5 26t35.5 77h-197v94h196q-2 24 -12 42t-24.5 30t-32.5 18t-37 6q-39 0 -63.5 -14t-41.5 -39l-94 59q8 13 24 31t40.5 33.5t59 26.5t79.5 11q51 0 94 -15.5t73.5 -46.5t48 -78t17.5 -110q0 -67 -19 -115.5t-52 -79.5
t-76.5 -45.5t-92.5 -14.5q-74 0 -121 23.5t-78 61.5z" />
    <glyph glyph-name="afii10096" unicode="&#x44e;" horiz-adv-x="790" 
d="M65 0v482h130v-185h93q6 38 23 73.5t44.5 63t67.5 44t93 16.5q62 0 106 -21.5t72.5 -56.5t41.5 -80t13 -92q0 -48 -13.5 -94t-42 -81.5t-72.5 -57.5t-105 -22q-54 0 -94.5 16.5t-68 45t-44 65.5t-22.5 79h-92v-195h-130zM435 139q13 -20 32.5 -31.5t48.5 -11.5
q28 0 48 11.5t32.5 31.5t18 46.5t5.5 57.5q0 30 -5.5 57t-18 46.5t-32.5 31t-48 11.5t-48 -11.5t-32.5 -31t-18 -46.5t-5.5 -57q0 -31 5.5 -57.5t17.5 -46.5z" />
    <glyph glyph-name="afii10097" unicode="&#x44f;" horiz-adv-x="540" 
d="M35 0v100h30q12 0 21 3t16 11t12.5 23.5t10.5 39.5q-52 28 -72 64.5t-20 78.5q0 29 8.5 58t30 52t59 37.5t95.5 14.5h249v-482h-128v162h-98q-12 -56 -27 -88t-33 -48.5t-40.5 -21t-49.5 -4.5h-64zM347 257v130h-106q-23 0 -38 -5.5t-23.5 -15t-12 -21.5t-3.5 -25
q0 -12 3.5 -23.5t12 -20t23.5 -14t38 -5.5h106z" />
    <glyph glyph-name="afii10071" unicode="&#x451;" horiz-adv-x="525" 
d="M166 210q5 -61 37.5 -88t72.5 -27q35 0 63 12.5t58 54.5l97 -59q-41 -63 -95 -88.5t-127 -25.5q-48 0 -91 15t-75.5 46.5t-51.5 78.5t-19 112q0 61 18.5 108t50.5 79t74.5 49t90.5 17q101 0 162.5 -70.5t63.5 -213.5h-329zM362 299q-4 48 -32.5 72t-60.5 24
q-17 0 -33.5 -6.5t-30.5 -19t-23.5 -30.5t-12.5 -40h193zM364 560q-28 0 -46.5 21.5t-18.5 49.5q0 29 18.5 50t46.5 21q29 0 47 -21t18 -50q0 -28 -18 -49.5t-47 -21.5zM176 560q-29 0 -47 21.5t-18 49.5q0 29 18 50t47 21q28 0 46.5 -21t18.5 -50q0 -28 -18.5 -49.5
t-46.5 -21.5z" />
    <glyph glyph-name="afii10099" unicode="&#x452;" horiz-adv-x="573" 
d="M65 0v524h-65v83h65v60h131v-60h151v-83h-151v-111q25 19 59.5 33t81.5 14q66 0 105.5 -26.5t56.5 -69.5q10 -25 13 -54t3 -61v-223q0 -83 -40 -135t-107 -85l-69 83q45 23 65 54.5t20 88.5v208q0 19 -1 34.5t-5 27.5q-8 29 -28.5 39t-46.5 10q-32 0 -61 -15.5t-46 -29.5
v-306h-131z" />
    <glyph glyph-name="afii10100" unicode="&#x453;" horiz-adv-x="425" 
d="M65 0v482h355v-105h-225v-377h-130zM152 538l-36 54l201 141l63 -83z" />
    <glyph glyph-name="afii10101" unicode="&#x454;" horiz-adv-x="503" 
d="M172 196q5 -48 35.5 -75.5t78.5 -27.5q42 0 69 15.5t46 35.5l80 -70q-31 -38 -80.5 -61.5t-119.5 -23.5q-50 0 -93.5 15t-76 45.5t-51.5 76.5t-19 108q0 66 18.5 114.5t51 81t75.5 48.5t93 16q45 0 79 -10.5t58.5 -26t39.5 -33.5t22 -32l-94 -59q-19 27 -44.5 40.5
t-60.5 13.5q-38 0 -69 -24.5t-37 -72.5h196v-94h-197z" />
    <glyph glyph-name="afii10102" unicode="&#x455;" horiz-adv-x="485" 
d="M126 162q17 -32 47.5 -53.5t76.5 -21.5q40 0 62.5 12.5t22.5 34.5q0 21 -24 37t-89 28q-38 7 -69.5 18.5t-53.5 29.5t-34 43t-12 60q0 64 53.5 104t144.5 40q82 0 130 -26.5t74 -64.5l-92 -63q-18 24 -46 40t-66 16q-42 0 -58 -12.5t-16 -32.5q0 -23 20 -33t74 -21
q44 -9 78.5 -21t58.5 -30.5t36.5 -44.5t12.5 -61q0 -39 -16 -67.5t-44 -47t-66 -27.5t-81 -9q-86 0 -139.5 32.5t-81.5 81.5z" />
    <glyph glyph-name="afii10103" unicode="&#x456;" horiz-adv-x="260" 
d="M130 537q-39 0 -58.5 22t-19.5 49q0 26 19.5 48t58.5 22t58.5 -22t19.5 -48q0 -27 -19.5 -49t-58.5 -22zM65 0v482h130v-482h-130z" />
    <glyph glyph-name="afii10104" unicode="&#x457;" horiz-adv-x="261" 
d="M65 0v477h131v-477h-131zM225 560q-28 0 -46.5 21.5t-18.5 49.5q0 29 18.5 50t46.5 21q29 0 47 -21t18 -50q0 -28 -18 -49.5t-47 -21.5zM37 560q-29 0 -47 21.5t-18 49.5q0 29 18 50t47 21q28 0 46.5 -21t18.5 -50q0 -28 -18.5 -49.5t-46.5 -21.5z" />
    <glyph glyph-name="afii10105" unicode="&#x458;" horiz-adv-x="270" 
d="M141 537q-39 0 -58.5 22t-19.5 49q0 26 19.5 48t58.5 22q38 0 57.5 -22t19.5 -48q0 -27 -19.5 -49t-57.5 -22zM-8 -116q25 17 41.5 31.5t25.5 30t12.5 33t3.5 40.5v463h130v-463q0 -39 -8.5 -70.5t-26 -57.5t-44 -47t-62.5 -40z" />
    <glyph glyph-name="afii10106" unicode="&#x459;" horiz-adv-x="803" 
d="M1 0v100h33q24 0 41 11.5t25 38.5q3 9 6.5 24.5t6 42.5t4.5 68t2 101v96h356v-122h84q58 0 98.5 -14.5t66 -38.5t37 -56.5t11.5 -68.5t-11.5 -69t-37 -58t-66 -40t-98.5 -15h-211v382h-105q-2 -82 -6.5 -145.5t-15.5 -108.5q-6 -25 -18.5 -48t-32 -41t-48 -28.5
t-66.5 -10.5h-55zM475 95h70q46 0 66.5 25t20.5 62q0 35 -20.5 59t-66.5 24h-70v-170z" />
    <glyph glyph-name="afii10107" unicode="&#x45a;" horiz-adv-x="834" 
d="M65 0v482h128v-162h168v162h128v-162h121q58 0 95.5 -14t59 -36.5t30 -51t8.5 -56.5q0 -29 -8.5 -58t-30 -52t-59 -37.5t-95.5 -14.5h-249v221h-168v-221h-128zM489 95h102q46 0 61.5 18.5t15.5 44.5q0 12 -3.5 23.5t-12 20t-23.5 14t-38 5.5h-102v-126z" />
    <glyph glyph-name="afii10108" unicode="&#x45b;" horiz-adv-x="573" 
d="M65 0v524h-65v83h65v60h131v-60h151v-83h-151v-111q23 17 58 31.5t82 14.5q65 0 105.5 -25t57.5 -70q9 -23 12.5 -53t3.5 -62v-249h-131v240q0 19 -1 34.5t-5 27.5q-8 24 -24.5 36.5t-50.5 12.5q-30 0 -60 -15.5t-47 -29.5v-306h-131z" />
    <glyph glyph-name="afii10109" unicode="&#x45c;" horiz-adv-x="540" 
d="M65 0v482h130v-183h38q12 0 20.5 9t16 23.5t14.5 33t16 36.5q7 15 16.5 29.5t23 26t33.5 18.5t48 7h80v-103h-39q-23 0 -36 -10.5t-24 -33.5q-12 -27 -21.5 -45t-20.5 -31l179 -259h-159l-121 189h-64v-189h-130zM191 538l-36 54l201 141l63 -83z" />
    <glyph glyph-name="afii10110" unicode="&#x45e;" horiz-adv-x="517" 
d="M181 701q8 -33 29.5 -50t44.5 -17t44.5 17t29.5 50h117q-2 -41 -19 -71t-43.5 -50.5t-60.5 -30.5t-68 -10q-35 0 -68 10t-60 30.5t-44 50.5t-19 71h117zM48 -81q19 -9 37.5 -13t31.5 -4q12 0 24 7t22 28l37 83l-200 462h139l126 -329l120 329h132l-250 -596
q-11 -25 -26 -42t-33 -27t-38.5 -14t-40.5 -4q-26 0 -57.5 6.5t-64.5 20.5z" />
    <glyph glyph-name="afii10193" unicode="&#x45f;" horiz-adv-x="572" 
d="M68 0v482h130v-377h176v377h130v-482h-156v-105h-123v105h-157z" />
    <glyph glyph-name="afii10050" unicode="&#x490;" horiz-adv-x="505" 
d="M73 0v667h299v97h128v-218h-292v-546h-135z" />
    <glyph glyph-name="afii10098" unicode="&#x491;" horiz-adv-x="425" 
d="M65 0v482h243v76h112v-181h-225v-377h-130z" />
    <glyph glyph-name="Wgrave" unicode="&#x1e80;" horiz-adv-x="778" 
d="M152 0l-152 667h135l82 -396l130 396h83l130 -396l84 396h134l-153 -667h-85l-152 447l-151 -447h-85zM243 816l63 83l201 -141l-35 -54z" />
    <glyph glyph-name="wgrave" unicode="&#x1e81;" horiz-adv-x="717" 
d="M172 0l-172 482h136l87 -290l95 290h80l96 -290l87 290h136l-172 -482h-95l-92 279l-91 -279h-95zM216 650l63 83l201 -141l-35 -54z" />
    <glyph glyph-name="Wacute" unicode="&#x1e82;" horiz-adv-x="778" 
d="M152 0l-152 667h135l82 -396l130 396h83l130 -396l84 396h134l-153 -667h-85l-152 447l-151 -447h-85zM313 704l-36 54l201 141l63 -83z" />
    <glyph glyph-name="wacute" unicode="&#x1e83;" horiz-adv-x="717" 
d="M172 0l-172 482h136l87 -290l95 290h80l96 -290l87 290h136l-172 -482h-95l-92 279l-91 -279h-95zM282 538l-36 54l201 141l63 -83z" />
    <glyph glyph-name="Wdieresis" unicode="&#x1e84;" horiz-adv-x="778" 
d="M152 0l-152 667h135l82 -396l130 396h83l130 -396l84 396h134l-153 -667h-85l-152 447l-151 -447h-85zM483 726q-28 0 -46.5 21.5t-18.5 49.5q0 29 18.5 50t46.5 21q29 0 47 -21t18 -50q0 -28 -18 -49.5t-47 -21.5zM295 726q-29 0 -47 21.5t-18 49.5q0 29 18 50t47 21
q28 0 46.5 -21t18.5 -50q0 -28 -18.5 -49.5t-46.5 -21.5z" />
    <glyph glyph-name="wdieresis" unicode="&#x1e85;" horiz-adv-x="717" 
d="M172 0l-172 482h136l87 -290l95 290h80l96 -290l87 290h136l-172 -482h-95l-92 279l-91 -279h-95zM452 560q-28 0 -46.5 21.5t-18.5 49.5q0 29 18.5 50t46.5 21q29 0 47 -21t18 -50q0 -28 -18 -49.5t-47 -21.5zM264 560q-29 0 -47 21.5t-18 49.5q0 29 18 50t47 21
q28 0 46.5 -21t18.5 -50q0 -28 -18.5 -49.5t-46.5 -21.5z" />
    <glyph glyph-name="Ygrave" unicode="&#x1ef2;" horiz-adv-x="581" 
d="M225 0v268l-225 399h150l145 -265l138 265h148l-221 -399v-268h-135zM148 816l63 83l201 -141l-35 -54z" />
    <glyph glyph-name="ygrave" unicode="&#x1ef3;" horiz-adv-x="517" 
d="M48 -81q19 -9 37.5 -13t31.5 -4q12 0 24 7t22 28l37 83l-200 462h139l126 -329l120 329h132l-250 -596q-11 -25 -26 -42t-33 -27t-38.5 -14t-40.5 -4q-26 0 -57.5 6.5t-64.5 20.5zM99 650l63 83l201 -141l-35 -54z" />
    <glyph glyph-name="endash" unicode="&#x2013;" horiz-adv-x="553" 
d="M0 204v94h553v-94h-553z" />
    <glyph glyph-name="emdash" unicode="&#x2014;" horiz-adv-x="1106" 
d="M0 204v94h1106v-94h-1106z" />
    <glyph glyph-name="afii00208" unicode="&#x2015;" horiz-adv-x="1106" 
d="M0 204v94h1106v-94h-1106z" />
    <glyph glyph-name="quoteleft" unicode="&#x2018;" horiz-adv-x="230" 
d="M213 427q-47 12 -80 30.5t-54 40.5t-31 45.5t-10 44.5q0 33 21 56t53 23q36 0 54 -25.5t18 -55.5q0 -20 -8.5 -38t-21.5 -28q10 -12 31.5 -24t44.5 -17z" />
    <glyph glyph-name="quoteright" unicode="&#x2019;" horiz-adv-x="230" 
d="M0 479q23 5 44.5 17t31.5 24q-14 10 -22 28t-8 38q0 30 18 55.5t54 25.5q32 0 53 -23t21 -56q0 -21 -10 -44.5t-31 -45.5t-54.5 -40.5t-79.5 -30.5z" />
    <glyph glyph-name="quotesinglbase" unicode="&#x201a;" horiz-adv-x="230" 
d="M0 -54q23 5 44.5 17t31.5 24q-14 10 -22 28t-8 38q0 30 18 55.5t54 25.5q32 0 53 -23t21 -56q0 -21 -10 -44.5t-31 -45t-54.5 -40.5t-79.5 -31z" />
    <glyph glyph-name="quotedblleft" unicode="&#x201c;" horiz-adv-x="420" 
d="M407 427q-47 12 -80 30.5t-54 40.5t-31 45.5t-10 44.5q0 33 21 56t53 23q36 0 54 -25.5t18 -55.5q0 -20 -8 -38t-22 -28q10 -12 31.5 -24t44.5 -17zM209 427q-47 12 -80 30.5t-54 40.5t-31 45.5t-10 44.5q0 33 21 56t53 23q36 0 54 -25.5t18 -55.5q0 -20 -8.5 -38
t-21.5 -28q10 -12 31.5 -24t44.5 -17z" />
    <glyph glyph-name="quotedblright" unicode="&#x201d;" horiz-adv-x="420" 
d="M194 479q23 5 44.5 17t31.5 24q-13 10 -21.5 28t-8.5 38q0 30 18 55.5t54 25.5q32 0 53 -23t21 -56q0 -21 -10 -44.5t-31 -45.5t-54 -40.5t-80 -30.5zM-4 479q23 5 44.5 17t31.5 24q-14 10 -22 28t-8 38q0 30 18 55.5t54 25.5q32 0 53 -23t21 -56q0 -21 -10 -44.5
t-31 -45.5t-54.5 -40.5t-79.5 -30.5z" />
    <glyph glyph-name="quotedblbase" unicode="&#x201e;" horiz-adv-x="420" 
d="M194 -54q23 5 44.5 17t31.5 24q-13 10 -21.5 28t-8.5 38q0 30 18 55.5t54 25.5q32 0 53 -23t21 -56q0 -21 -10 -44.5t-31 -45t-54 -40.5t-80 -31zM-4 -54q23 5 44.5 17t31.5 24q-14 10 -22 28t-8 38q0 30 18 55.5t54 25.5q32 0 53 -23t21 -56q0 -21 -10 -44.5t-31 -45
t-54.5 -40.5t-79.5 -31z" />
    <glyph glyph-name="dagger" unicode="&#x2020;" horiz-adv-x="481" 
d="M179 -146v484h-139v118h139v211h125v-211h137v-118h-137v-484h-125z" />
    <glyph glyph-name="daggerdbl" unicode="&#x2021;" horiz-adv-x="485" 
d="M180 -146v216h-140v109h140v159h-139v118h139v211h125v-211h137v-118h-137v-159h140v-109h-140v-216h-125z" />
    <glyph glyph-name="bullet" unicode="&#x2022;" horiz-adv-x="514" 
d="M177 195q-38 17 -66 45t-44.5 65.5t-16.5 79.5t16.5 79.5t44.5 65.5t66 44.5t80 16.5t80 -16.5t66 -44.5t44.5 -65.5t16.5 -79.5t-16.5 -79.5t-44.5 -65.5t-66 -44.5t-80 -16.5t-80 16z" />
    <glyph glyph-name="ellipsis" unicode="&#x2026;" horiz-adv-x="686" 
d="M576 -11q-38 0 -55.5 22.5t-17.5 49.5q0 28 18 50.5t55 22.5t54.5 -22.5t17.5 -50.5q0 -27 -17.5 -49.5t-54.5 -22.5zM344 -11q-38 0 -56 22.5t-18 49.5q0 28 18 50.5t56 22.5q36 0 54 -22.5t18 -50.5q0 -27 -17.5 -49.5t-54.5 -22.5zM112 -11q-38 0 -56 22.5t-18 49.5
q0 28 18 50.5t56 22.5q36 0 54 -22.5t18 -50.5q0 -27 -17.5 -49.5t-54.5 -22.5z" />
    <glyph glyph-name="perthousand" unicode="&#x2030;" horiz-adv-x="1100" 
d="M853 5q-31 14 -52 36t-31.5 50t-10.5 57t10.5 57.5t31.5 50.5t52.5 35.5t73.5 13.5t73.5 -13.5t52.5 -35.5t31.5 -50t10.5 -57q0 -30 -10.5 -58t-31.5 -50t-52.5 -35.5t-73.5 -13.5t-74 13zM479 5q-31 14 -52 36t-31.5 50t-10.5 57t10.5 57.5t31.5 50.5t52.5 35.5
t73.5 13.5t73.5 -13.5t52.5 -35.5t31.5 -50t10.5 -57q0 -30 -10.5 -58t-31.5 -50t-52.5 -35.5t-73.5 -13.5t-74 13zM101 375q-31 14 -52 36t-31.5 50t-10.5 57q0 30 10.5 58t31.5 50t53 35.5t74 13.5t73.5 -13.5t52 -35.5t31 -50t10.5 -57q0 -30 -10.5 -58t-31.5 -50
t-52.5 -35.5t-73.5 -13.5t-74 13zM880 100q15 -22 46 -22q30 0 45 22.5t15 48.5t-15 48.5t-45 22.5q-31 0 -45.5 -22.5t-14.5 -48.5t14 -49zM506 100q15 -22 46 -22q30 0 45 22.5t15 48.5t-15 48.5t-45 22.5q-31 0 -45.5 -22.5t-14.5 -48.5t14 -49zM129 471q15 -23 45 -23
q31 0 45.5 23t14.5 49t-14.5 48.5t-45.5 22.5q-30 0 -45 -22.5t-15 -48.5t15 -49zM71 -4l-65 70l655 610l68 -69z" />
    <glyph glyph-name="guilsinglleft" unicode="&#x2039;" horiz-adv-x="346" 
d="M15 250l207 212l86 -68l-143 -138l157 -135l-80 -76z" />
    <glyph glyph-name="guilsinglright" unicode="&#x203a;" horiz-adv-x="346" 
d="M24 121l157 135l-143 138l86 68l207 -212l-227 -205z" />
    <glyph glyph-name="fraction" unicode="&#x2044;" horiz-adv-x="221" 
d="M-187 -12l-65 70l655 610l68 -69z" />
    <glyph glyph-name="zerosuperior" unicode="&#x2070;" 
d="M157 332q-71 0 -106 48t-35 123q0 35 8.5 66t26 54.5t44 37t62.5 13.5t62.5 -14t44 -37.5t26 -54.5t8.5 -65q0 -37 -9 -68t-26.5 -54t-44 -36t-61.5 -13zM112 441q7 -13 18 -21.5t27 -8.5q15 0 26 8.5t18 21.5t10 29.5t3 33.5q0 16 -3.5 32t-10 28.5t-17.5 20.5t-26 8
q-16 0 -27 -8t-17.5 -20.5t-9.5 -28.5t-3 -32q0 -17 3 -33.5t9 -29.5z" />
    <glyph glyph-name="foursuperior" unicode="&#x2074;" 
d="M12 408v73l161 184h89v-187h41v-70h-41v-71h-97v71h-153zM91 478h74v86z" />
    <glyph glyph-name="fivesuperior" unicode="&#x2075;" 
d="M91 445q9 -14 23.5 -24.5t34.5 -10.5q17 0 29.5 10.5t12.5 27.5q0 23 -24.5 32t-66.5 9h-49v176h216v-74h-125v-32q29 -1 55.5 -7t47 -18t32.5 -31.5t12 -48.5q0 -32 -12 -55t-31.5 -38t-43.5 -22t-49 -7q-19 0 -38.5 3t-36.5 9t-31 15.5t-22 23.5z" />
    <glyph glyph-name="sixsuperior" unicode="&#x2076;" 
d="M124 549q26 17 65 17q47 0 77 -30t30 -78q0 -56 -36.5 -91t-100.5 -35q-37 0 -63.5 12t-44 31.5t-25.5 45.5t-8 53q0 41 15.5 76.5t44.5 62.5t69.5 43.5t91.5 20.5l18 -69q-17 -2 -35.5 -6.5t-36.5 -11t-34 -16.5t-28 -23zM137 495q-9 -3 -20 -9q-1 -5 -1 -10.5v-10.5
q0 -20 9.5 -39t34.5 -19q17 0 29.5 11.5t12.5 31.5t-10.5 34t-33.5 14q-12 0 -21 -3z" />
    <glyph glyph-name="sevensuperior" unicode="&#x2077;" 
d="M60 337l118 254h-147v74h252v-60l-122 -268h-101z" />
    <glyph glyph-name="eightsuperior" unicode="&#x2078;" 
d="M30 473q12 21 37 34q-20 14 -31 33.5t-11 40.5q0 45 35 68.5t98 23.5q59 0 95.5 -23.5t36.5 -66.5q0 -23 -10 -42.5t-31 -33.5q24 -11 35.5 -32.5t11.5 -43.5q0 -50 -38 -74.5t-100 -24.5q-65 0 -102.5 24.5t-37.5 73.5q0 23 12 43zM116 435q0 -16 11.5 -24t30.5 -8
q17 0 28.5 8t11.5 24q0 17 -11.5 25.5t-29.5 8.5t-29.5 -9t-11.5 -25zM122 579q0 -14 9.5 -22.5t25.5 -8.5q17 0 26.5 8t9.5 23q0 14 -9.5 21.5t-25.5 7.5t-26 -8t-10 -21z" />
    <glyph glyph-name="ninesuperior" unicode="&#x2079;" 
d="M56 399q38 5 72.5 16t58.5 34l-2 2q-12 -6 -25.5 -10t-30.5 -3q-47 2 -78 34.5t-31 83.5q0 48 35.5 82.5t98.5 34.5q38 0 65 -12t44 -31.5t24.5 -44.5t7.5 -51q0 -45 -16 -81t-45 -61.5t-69.5 -41.5t-90.5 -22zM158 508q21 0 40 10q1 5 1 11.5v11.5q0 20 -9 38.5
t-34 18.5q-17 0 -29 -11t-12 -31t10 -34t33 -14z" />
    <glyph glyph-name="zeroinferior" unicode="&#x2080;" 
d="M157 -4q-71 0 -106 48t-35 123q0 35 8.5 66t26 54.5t44 37t62.5 13.5t62.5 -14t44 -37.5t26 -54.5t8.5 -65q0 -37 -9 -68t-26.5 -54t-44 -36t-61.5 -13zM112 105q7 -13 18 -21.5t27 -8.5q15 0 26 8.5t18 21.5t10 29.5t3 33.5q0 16 -3.5 32t-10 28.5t-17.5 20.5t-26 8
q-16 0 -27 -8t-17.5 -20.5t-9.5 -28.5t-3 -32q0 -17 3 -33.5t9 -29.5z" />
    <glyph glyph-name="oneinferior" unicode="&#x2081;" 
d="M162 1v218l-68 -36l-40 72l132 74h74v-328h-98z" />
    <glyph glyph-name="twoinferior" unicode="&#x2082;" 
d="M39 1v57q35 32 63 57t55 55q14 15 21.5 28t7.5 27t-7.5 22.5t-21.5 8.5q-12 0 -27 -10.5t-32 -45.5l-78 40q53 97 154 97q48 0 81.5 -25t33.5 -76q0 -29 -12 -53.5t-32 -45.5q-15 -17 -28.5 -29t-29.5 -24h110v-83h-258z" />
    <glyph glyph-name="threeinferior" unicode="&#x2083;" 
d="M94 117q17 -26 34 -34.5t32 -8.5q20 0 29.5 9t9.5 23q0 4 -1.5 9.5t-7.5 10.5t-17.5 8.5t-32.5 3.5v65q20 1 31 5t16 8.5t6 9.5t1 8q0 11 -8 18t-25 7q-14 0 -29 -8t-32 -35l-77 41q29 45 67.5 62.5t82.5 17.5q22 0 43.5 -5.5t38.5 -17t27 -28.5t10 -40q0 -28 -11 -44.5
t-27 -26.5q15 -8 29.5 -26t14.5 -46q0 -29 -12 -49t-31 -33t-43 -19t-49 -6q-40 0 -78 16.5t-69 63.5z" />
    <glyph glyph-name="fourinferior" unicode="&#x2084;" 
d="M12 72v73l161 184h89v-187h41v-70h-41v-71h-97v71h-153zM91 142h74v86z" />
    <glyph glyph-name="fiveinferior" unicode="&#x2085;" 
d="M91 109q9 -14 23.5 -24.5t34.5 -10.5q17 0 29.5 10.5t12.5 27.5q0 23 -24.5 32t-66.5 9h-49v176h216v-74h-125v-32q29 -1 55.5 -7t47 -18t32.5 -31.5t12 -48.5q0 -32 -12 -55t-31.5 -38t-43.5 -22t-49 -7q-19 0 -38.5 3t-36.5 9t-31 15.5t-22 23.5z" />
    <glyph glyph-name="sixinferior" unicode="&#x2086;" 
d="M124 213q26 17 65 17q47 0 77 -30t30 -78q0 -56 -36.5 -91t-100.5 -35q-37 0 -63.5 12t-44 31.5t-25.5 45.5t-8 53q0 41 15.5 76.5t44.5 62.5t69.5 43.5t91.5 20.5l18 -69q-17 -2 -35.5 -6.5t-36.5 -11t-34 -16.5t-28 -23zM137 159q-9 -3 -20 -9q-1 -5 -1 -10.5v-10.5
q0 -20 9.5 -39t34.5 -19q17 0 29.5 11.5t12.5 31.5t-10.5 34t-33.5 14q-12 0 -21 -3z" />
    <glyph glyph-name="seveninferior" unicode="&#x2087;" 
d="M60 1l118 254h-147v74h252v-60l-122 -268h-101z" />
    <glyph glyph-name="eightinferior" unicode="&#x2088;" 
d="M30 137q12 21 37 34q-20 14 -31 33.5t-11 40.5q0 45 35 68.5t98 23.5q59 0 95.5 -23.5t36.5 -66.5q0 -23 -10 -42.5t-31 -33.5q24 -11 35.5 -32.5t11.5 -43.5q0 -50 -38 -74.5t-100 -24.5q-65 0 -102.5 24.5t-37.5 73.5q0 23 12 43zM116 99q0 -16 11.5 -24t30.5 -8
q17 0 28.5 8t11.5 24q0 17 -11.5 25.5t-29.5 8.5t-29.5 -9t-11.5 -25zM122 243q0 -14 9.5 -22.5t25.5 -8.5q17 0 26.5 8t9.5 23q0 14 -9.5 21.5t-25.5 7.5t-26 -8t-10 -21z" />
    <glyph glyph-name="nineinferior" unicode="&#x2089;" 
d="M56 63q38 5 72.5 16t58.5 34l-2 2q-12 -6 -25.5 -10t-30.5 -3q-47 2 -78 34.5t-31 83.5q0 48 35.5 82.5t98.5 34.5q38 0 65 -12t44 -31.5t24.5 -44.5t7.5 -51q0 -45 -16 -81t-45 -61.5t-69.5 -41.5t-90.5 -22zM158 172q21 0 40 10q1 5 1 11.5v11.5q0 20 -9 38.5t-34 18.5
q-17 0 -29 -11t-12 -31t10 -34t33 -14z" />
    <glyph glyph-name="Euro" unicode="&#x20ac;" horiz-adv-x="540" 
d="M14 281v113h64q5 57 22.5 108t48.5 89.5t75.5 60.5t104.5 22q80 0 130 -36t82 -114l-114 -44q-19 46 -43 61.5t-53 15.5q-25 0 -43.5 -13.5t-31.5 -36t-20 -52t-9 -61.5h145v-113h-146q1 -36 8.5 -68.5t21 -56.5t33.5 -38t48 -14q31 0 55 17t52 67l98 -58
q-31 -67 -80 -104t-131 -37q-68 0 -114.5 24t-76.5 64.5t-44.5 93t-18.5 110.5h-63z" />
    <glyph glyph-name="afii61289" unicode="&#x2113;" horiz-adv-x="456" 
d="M180 289q54 60 85.5 123.5t31.5 132.5q0 48 -16 67.5t-38 19.5q-26 0 -44.5 -33t-18.5 -109v-201zM180 190q0 -41 6 -66.5t16.5 -39.5t25 -19.5t31.5 -5.5q32 0 61.5 16.5t45.5 39.5l19.5 -19.5t20.5 -18.5q-27 -40 -65.5 -63t-90.5 -23q-70 0 -108 39.5t-38 127.5
q-13 -10 -24.5 -18t-24.5 -17q-5 11 -11.5 22t-13.5 22q19 13 37 27.5t36 30.5v212q0 71 9.5 119.5t28 78t45 42.5t61.5 13q51 0 84 -37.5t33 -106.5q0 -91 -48 -172.5t-136 -163.5v-20z" />
    <glyph glyph-name="afii61352" unicode="&#x2116;" horiz-adv-x="1085" 
d="M73 0v667h138l270 -426v426h133v-667h-118l-290 451v-451h-133zM781 284q-37 18 -61 46.5t-36 64t-12 72.5t12 72.5t36 64t61 46t87 17.5t87 -17.5t61 -46t36 -64t12 -72.5t-12 -72.5t-36 -64t-61 -46t-87 -17.5t-87 17zM812 388q21 -28 56 -28t55.5 28t20.5 79t-20.5 79
t-55.5 28t-55.5 -28t-20.5 -79t20 -79z" />
    <glyph glyph-name="trademark" unicode="&#x2122;" horiz-adv-x="657" 
d="M295 380v287h92l64 -144l59 144h91v-287h-75v168l-67 -170h-15l-74 167v-165h-75zM99 380v208h-80v79h237v-79h-80v-208h-77z" />
    <glyph glyph-name="uni2126" unicode="&#x2126;" horiz-adv-x="737" 
d="M62 0v120h95q-43 38 -74 101t-31 150q0 69 23 126.5t65 98t101 63t131 22.5q73 0 131 -22t98.5 -62.5t62 -97t21.5 -125.5q0 -42 -10 -81t-26 -72t-36.5 -59t-42.5 -42h105v-120h-251l-1 114q22 16 44 37.5t40 50.5t29 66t11 84q0 103 -49 157t-129 54q-81 0 -130 -54
t-49 -157q0 -45 12 -82.5t30 -67t39.5 -51.5t41.5 -37v-114h-251z" />
    <glyph glyph-name="estimated" unicode="&#x212e;" horiz-adv-x="647" 
d="M137 118q0 -10 4 -18.5t10 -15.5q0 -2 2 -2q33 -32 76 -49t92 -17q57 0 104.5 23t82.5 63h42q-39 -47 -98.5 -74.5t-130.5 -27.5q-60 0 -113 20.5t-93 56t-63 83.5t-23 102t23 101.5t63 83t93 56t113 20.5q61 0 114.5 -21t92.5 -57.5t61.5 -85.5t22.5 -104h-469
q-6 0 -6 -8v-129zM137 275q0 -7 6 -7h354q7 0 7 7v131q0 9 -3.5 18t-8.5 16q-35 34 -79 51.5t-92 17.5q-99 0 -170 -69q-6 -7 -10 -16t-4 -18v-131z" />
    <glyph glyph-name="onethird" unicode="&#x2153;" horiz-adv-x="774" 
d="M112 337v218l-68 -36l-40 72l132 74h74v-328h-98zM83 -12l-65 70l655 610l68 -69zM568 117q17 -26 34 -34.5t32 -8.5q20 0 29.5 9t9.5 23q0 4 -1.5 9.5t-7.5 10.5t-17.5 8.5t-32.5 3.5v65q20 1 31 5t16 8.5t6 9.5t1 8q0 11 -8 18t-25 7q-14 0 -29 -8t-32 -35l-77 41
q29 45 67.5 62.5t82.5 17.5q22 0 43.5 -5.5t38.5 -17t27 -28.5t10 -40q0 -28 -11 -44.5t-27 -26.5q15 -8 29.5 -26t14.5 -46q0 -29 -12 -49t-31 -33t-43 -19t-49 -6q-40 0 -78 16.5t-69 63.5z" />
    <glyph glyph-name="twothirds" unicode="&#x2154;" horiz-adv-x="774" 
d="M99 -12l-65 70l655 610l68 -69zM568 117q17 -26 34 -34.5t32 -8.5q20 0 29.5 9t9.5 23q0 4 -1.5 9.5t-7.5 10.5t-17.5 8.5t-32.5 3.5v65q20 1 31 5t16 8.5t6 9.5t1 8q0 11 -8 18t-25 7q-14 0 -29 -8t-32 -35l-77 41q29 45 67.5 62.5t82.5 17.5q22 0 43.5 -5.5t38.5 -17
t27 -28.5t10 -40q0 -28 -11 -44.5t-27 -26.5q15 -8 29.5 -26t14.5 -46q0 -29 -12 -49t-31 -33t-43 -19t-49 -6q-40 0 -78 16.5t-69 63.5zM6 337v57q35 32 63 57t55 55q14 15 21.5 28t7.5 27t-7.5 22.5t-21.5 8.5q-12 0 -27 -10.5t-32 -45.5l-78 40q53 97 154 97
q48 0 81.5 -25t33.5 -76q0 -29 -12 -53.5t-32 -45.5q-15 -17 -28.5 -29t-29.5 -24h110v-83h-258z" />
    <glyph glyph-name="onefifth" unicode="&#x2155;" horiz-adv-x="774" 
d="M99 -12l-65 70l655 610l68 -69zM571 109q9 -14 23.5 -24.5t34.5 -10.5q17 0 29.5 10.5t12.5 27.5q0 23 -24.5 32t-66.5 9h-49v176h216v-74h-125v-32q29 -1 55.5 -7t47 -18t32.5 -31.5t12 -48.5q0 -32 -12 -55t-31.5 -38t-43.5 -22t-49 -7q-19 0 -38.5 3t-36.5 9t-31 15.5
t-22 23.5zM112 337v218l-68 -36l-40 72l132 74h74v-328h-98z" />
    <glyph glyph-name="twofifths" unicode="&#x2156;" horiz-adv-x="774" 
d="M99 -12l-65 70l655 610l68 -69zM6 337v57q35 32 63 57t55 55q14 15 21.5 28t7.5 27t-7.5 22.5t-21.5 8.5q-12 0 -27 -10.5t-32 -45.5l-78 40q53 97 154 97q48 0 81.5 -25t33.5 -76q0 -29 -12 -53.5t-32 -45.5q-15 -17 -28.5 -29t-29.5 -24h110v-83h-258zM571 109
q9 -14 23.5 -24.5t34.5 -10.5q17 0 29.5 10.5t12.5 27.5q0 23 -24.5 32t-66.5 9h-49v176h216v-74h-125v-32q29 -1 55.5 -7t47 -18t32.5 -31.5t12 -48.5q0 -32 -12 -55t-31.5 -38t-43.5 -22t-49 -7q-19 0 -38.5 3t-36.5 9t-31 15.5t-22 23.5z" />
    <glyph glyph-name="threefifths" unicode="&#x2157;" horiz-adv-x="774" 
d="M99 -12l-65 70l655 610l68 -69zM571 109q9 -14 23.5 -24.5t34.5 -10.5q17 0 29.5 10.5t12.5 27.5q0 23 -24.5 32t-66.5 9h-49v176h216v-74h-125v-32q29 -1 55.5 -7t47 -18t32.5 -31.5t12 -48.5q0 -32 -12 -55t-31.5 -38t-43.5 -22t-49 -7q-19 0 -38.5 3t-36.5 9t-31 15.5
t-22 23.5zM94 453q17 -26 34 -34.5t32 -8.5q20 0 29.5 9t9.5 23q0 4 -1.5 9.5t-7.5 10.5t-17.5 8.5t-32.5 3.5v65q20 1 31 5t16 8.5t6 9.5t1 8q0 11 -8 18t-25 7q-14 0 -29 -8t-32 -35l-77 41q29 45 67.5 62.5t82.5 17.5q22 0 43.5 -5.5t38.5 -17t27 -28.5t10 -40
q0 -28 -11 -44.5t-27 -26.5q15 -8 29.5 -26t14.5 -46q0 -29 -12 -49t-31 -33t-43 -19t-49 -6q-40 0 -78 16.5t-69 63.5z" />
    <glyph glyph-name="fourfifths" unicode="&#x2158;" horiz-adv-x="774" 
d="M99 -12l-65 70l655 610l68 -69zM571 109q9 -14 23.5 -24.5t34.5 -10.5q17 0 29.5 10.5t12.5 27.5q0 23 -24.5 32t-66.5 9h-49v176h216v-74h-125v-32q29 -1 55.5 -7t47 -18t32.5 -31.5t12 -48.5q0 -32 -12 -55t-31.5 -38t-43.5 -22t-49 -7q-19 0 -38.5 3t-36.5 9t-31 15.5
t-22 23.5zM12 408v73l161 184h89v-187h41v-70h-41v-71h-97v71h-153zM91 478h74v86z" />
    <glyph glyph-name="onesixth" unicode="&#x2159;" horiz-adv-x="774" 
d="M83 -12l-65 70l655 610l68 -69zM564 213q26 17 65 17q47 0 77 -30t30 -78q0 -56 -36.5 -91t-100.5 -35q-37 0 -63.5 12t-44 31.5t-25.5 45.5t-8 53q0 41 15.5 76.5t44.5 62.5t69.5 43.5t91.5 20.5l18 -69q-17 -2 -35.5 -6.5t-36.5 -11t-34 -16.5t-28 -23zM577 159
q-9 -3 -20 -9q-1 -5 -1 -10.5v-10.5q0 -20 9.5 -39t34.5 -19q17 0 29.5 11.5t12.5 31.5t-10.5 34t-33.5 14q-12 0 -21 -3zM112 337v218l-68 -36l-40 72l132 74h74v-328h-98z" />
    <glyph glyph-name="fivesixths" unicode="&#x215a;" horiz-adv-x="774" 
d="M83 -12l-65 70l655 610l68 -69zM91 445q9 -14 23.5 -24.5t34.5 -10.5q17 0 29.5 10.5t12.5 27.5q0 23 -24.5 32t-66.5 9h-49v176h216v-74h-125v-32q29 -1 55.5 -7t47 -18t32.5 -31.5t12 -48.5q0 -32 -12 -55t-31.5 -38t-43.5 -22t-49 -7q-19 0 -38.5 3t-36.5 9t-31 15.5
t-22 23.5zM564 213q26 17 65 17q47 0 77 -30t30 -78q0 -56 -36.5 -91t-100.5 -35q-37 0 -63.5 12t-44 31.5t-25.5 45.5t-8 53q0 41 15.5 76.5t44.5 62.5t69.5 43.5t91.5 20.5l18 -69q-17 -2 -35.5 -6.5t-36.5 -11t-34 -16.5t-28 -23zM577 159q-9 -3 -20 -9q-1 -5 -1 -10.5
v-10.5q0 -20 9.5 -39t34.5 -19q17 0 29.5 11.5t12.5 31.5t-10.5 34t-33.5 14q-12 0 -21 -3z" />
    <glyph glyph-name="oneeighth" unicode="&#x215b;" horiz-adv-x="774" 
d="M112 337v218l-68 -36l-40 72l132 74h74v-328h-98zM83 -12l-65 70l655 610l68 -69zM495 137q12 21 37 34q-20 14 -31 33.5t-11 40.5q0 45 35 68.5t98 23.5q59 0 95.5 -23.5t36.5 -66.5q0 -23 -10 -42.5t-31 -33.5q24 -11 35.5 -32.5t11.5 -43.5q0 -50 -38 -74.5
t-100 -24.5q-65 0 -102.5 24.5t-37.5 73.5q0 23 12 43zM581 99q0 -16 11.5 -24t30.5 -8q17 0 28.5 8t11.5 24q0 17 -11.5 25.5t-29.5 8.5t-29.5 -9t-11.5 -25zM587 243q0 -14 9.5 -22.5t25.5 -8.5q17 0 26.5 8t9.5 23q0 14 -9.5 21.5t-25.5 7.5t-26 -8t-10 -21z" />
    <glyph glyph-name="threeeighths" unicode="&#x215c;" horiz-adv-x="774" 
d="M83 -12l-65 70l655 610l68 -69zM495 137q12 21 37 34q-20 14 -31 33.5t-11 40.5q0 45 35 68.5t98 23.5q59 0 95.5 -23.5t36.5 -66.5q0 -23 -10 -42.5t-31 -33.5q24 -11 35.5 -32.5t11.5 -43.5q0 -50 -38 -74.5t-100 -24.5q-65 0 -102.5 24.5t-37.5 73.5q0 23 12 43z
M581 99q0 -16 11.5 -24t30.5 -8q17 0 28.5 8t11.5 24q0 17 -11.5 25.5t-29.5 8.5t-29.5 -9t-11.5 -25zM587 243q0 -14 9.5 -22.5t25.5 -8.5q17 0 26.5 8t9.5 23q0 14 -9.5 21.5t-25.5 7.5t-26 -8t-10 -21zM94 453q17 -26 34 -34.5t32 -8.5q20 0 29.5 9t9.5 23q0 4 -1.5 9.5
t-7.5 10.5t-17.5 8.5t-32.5 3.5v65q20 1 31 5t16 8.5t6 9.5t1 8q0 11 -8 18t-25 7q-14 0 -29 -8t-32 -35l-77 41q29 45 67.5 62.5t82.5 17.5q22 0 43.5 -5.5t38.5 -17t27 -28.5t10 -40q0 -28 -11 -44.5t-27 -26.5q15 -8 29.5 -26t14.5 -46q0 -29 -12 -49t-31 -33t-43 -19
t-49 -6q-40 0 -78 16.5t-69 63.5z" />
    <glyph glyph-name="fiveeighths" unicode="&#x215d;" horiz-adv-x="774" 
d="M83 -12l-65 70l655 610l68 -69zM495 137q12 21 37 34q-20 14 -31 33.5t-11 40.5q0 45 35 68.5t98 23.5q59 0 95.5 -23.5t36.5 -66.5q0 -23 -10 -42.5t-31 -33.5q24 -11 35.5 -32.5t11.5 -43.5q0 -50 -38 -74.5t-100 -24.5q-65 0 -102.5 24.5t-37.5 73.5q0 23 12 43z
M581 99q0 -16 11.5 -24t30.5 -8q17 0 28.5 8t11.5 24q0 17 -11.5 25.5t-29.5 8.5t-29.5 -9t-11.5 -25zM587 243q0 -14 9.5 -22.5t25.5 -8.5q17 0 26.5 8t9.5 23q0 14 -9.5 21.5t-25.5 7.5t-26 -8t-10 -21zM91 445q9 -14 23.5 -24.5t34.5 -10.5q17 0 29.5 10.5t12.5 27.5
q0 23 -24.5 32t-66.5 9h-49v176h216v-74h-125v-32q29 -1 55.5 -7t47 -18t32.5 -31.5t12 -48.5q0 -32 -12 -55t-31.5 -38t-43.5 -22t-49 -7q-19 0 -38.5 3t-36.5 9t-31 15.5t-22 23.5z" />
    <glyph glyph-name="seveneighths" unicode="&#x215e;" horiz-adv-x="774" 
d="M83 -12l-65 70l655 610l68 -69zM495 137q12 21 37 34q-20 14 -31 33.5t-11 40.5q0 45 35 68.5t98 23.5q59 0 95.5 -23.5t36.5 -66.5q0 -23 -10 -42.5t-31 -33.5q24 -11 35.5 -32.5t11.5 -43.5q0 -50 -38 -74.5t-100 -24.5q-65 0 -102.5 24.5t-37.5 73.5q0 23 12 43z
M581 99q0 -16 11.5 -24t30.5 -8q17 0 28.5 8t11.5 24q0 17 -11.5 25.5t-29.5 8.5t-29.5 -9t-11.5 -25zM587 243q0 -14 9.5 -22.5t25.5 -8.5q17 0 26.5 8t9.5 23q0 14 -9.5 21.5t-25.5 7.5t-26 -8t-10 -21zM85 337l118 254h-147v74h252v-60l-122 -268h-101z" />
    <glyph glyph-name="partialdiff" unicode="&#x2202;" horiz-adv-x="569" 
d="M146 677q43 -5 88 -17.5t87.5 -34.5t80.5 -54t67 -77t45.5 -103t16.5 -132q0 -58 -17.5 -107.5t-49.5 -85.5t-78 -56t-103 -20q-53 0 -97.5 17.5t-77 49.5t-51 78.5t-18.5 104.5q0 51 14.5 96.5t42 79.5t67.5 53.5t92 19.5q26 0 48.5 -5.5t45.5 -19.5q-32 47 -91.5 82
t-128.5 46zM389 312q-6 28 -14 47q-18 11 -42 18t-52 7q-51 0 -83 -35.5t-32 -107.5q0 -36 9.5 -63t25.5 -45.5t36.5 -27.5t42.5 -9q21 0 42 10.5t37.5 31t26.5 50t10 67.5q0 29 -7 57z" />
    <glyph glyph-name="Delta" unicode="&#x2206;" horiz-adv-x="662" 
d="M3 0l274 667h102l279 -667h-655zM184 110h288l-148 384z" />
    <glyph glyph-name="product" unicode="&#x220f;" horiz-adv-x="680" 
d="M100 0v546h-75v121h630v-121h-75v-546h-135v546h-210v-546h-135z" />
    <glyph glyph-name="summation" unicode="&#x2211;" horiz-adv-x="538" 
d="M41 0v111l206 225l-207 219v112h464v-121h-289l200 -210l-203 -215h296v-121h-467z" />
    <glyph glyph-name="minus" unicode="&#x2212;" horiz-adv-x="542" 
d="M25 275v110h492v-110h-492z" />
    <glyph glyph-name="uni2215" unicode="&#x2215;" horiz-adv-x="543" 
d="M0 25l444 741l99 -53l-442 -745z" />
    <glyph glyph-name="uni2219" unicode="&#x2219;" horiz-adv-x="326" 
d="M164 296q-38 0 -56 22.5t-18 49.5q0 28 18 50.5t56 22.5q36 0 54 -22.5t18 -50.5q0 -27 -17.5 -49.5t-54.5 -22.5z" />
    <glyph glyph-name="radical" unicode="&#x221a;" horiz-adv-x="540" 
d="M234 0l-125 243h-73v104h142l89 -172l182 565l110 -33l-235 -707h-90z" />
    <glyph glyph-name="infinity" unicode="&#x221e;" horiz-adv-x="532" 
d="M295 253q-15 19 -30 49q-14 -30 -29.5 -48.5t-31 -29t-31.5 -14t-31 -3.5q-34 0 -59 12.5t-41 33.5t-24 48.5t-8 57.5q0 74 37 113t95 39q18 0 35 -4t32 -14.5t29 -29.5t27 -48q13 27 26 45.5t28 29.5t32.5 15.5t39.5 4.5q58 0 92.5 -39.5t34.5 -111.5q0 -26 -6.5 -53
t-21.5 -49t-39.5 -36t-59.5 -14q-17 0 -33 3.5t-31.5 14t-31.5 28.5zM347 413q-15 -21 -29 -55q14 -30 30 -52t38 -22q15 0 24.5 7.5t15.5 19t8 25t2 24.5q0 35 -14.5 55t-37.5 20q-21 0 -37 -22zM203 336q7 13 11 23q-18 38 -32.5 56.5t-34.5 18.5q-14 0 -24 -7t-16.5 -18
t-9.5 -24t-3 -26q0 -34 13 -54q14 -20 40 -20q13 0 23.5 8t18.5 19.5t14 23.5z" />
    <glyph glyph-name="integral" unicode="&#x222b;" horiz-adv-x="413" 
d="M18 -86q30 2 52.5 8t37.5 19t22.5 34.5t7.5 54.5v428q0 112 64 163t192 53v-105q-30 -2 -52.5 -8t-37.5 -19t-22.5 -34.5t-7.5 -54.5v-428q0 -112 -64 -163t-192 -53v105z" />
    <glyph glyph-name="approxequal" unicode="&#x2248;" horiz-adv-x="540" 
d="M3 447q37 24 75.5 39t76.5 15q30 0 58 -6t56 -13t55.5 -13t56.5 -6q23 0 45.5 8.5t57.5 29.5l53 -96q-35 -26 -74 -41.5t-80 -15.5q-29 0 -57 6t-55.5 13t-55.5 13t-57 6q-23 0 -45.5 -8.5t-57.5 -28.5zM3 232q37 24 75.5 39t76.5 15q30 0 58 -6t56 -13t55.5 -13t56.5 -6
q23 0 45.5 8.5t57.5 29.5l53 -96q-35 -26 -74 -41.5t-80 -15.5q-29 0 -57 6t-55.5 13t-55.5 13t-57 6q-23 0 -45.5 -8.5t-57.5 -28.5z" />
    <glyph glyph-name="notequal" unicode="&#x2260;" horiz-adv-x="540" 
d="M36 117l33 38h-46v110h139l90 105h-229v110h322l84 99l76 -60l-33 -39h44v-110h-139l-90 -105h229v-110h-324l-83 -96z" />
    <glyph glyph-name="lessequal" unicode="&#x2264;" horiz-adv-x="540" 
d="M24 0v110h493v-110h-493zM23 291v83l459 155l34 -110l-263 -85l273 -94l-35 -112z" />
    <glyph glyph-name="greaterequal" unicode="&#x2265;" horiz-adv-x="540" 
d="M23 0v110h493v-110h-493zM49 128l-35 112l273 94l-263 85l34 110l459 -155v-83z" />
    <glyph glyph-name="lozenge" unicode="&#x25ca;" horiz-adv-x="532" 
d="M265 -16l-210 373l210 363l212 -363zM268 151l105 205l-108 192l-106 -191z" />
    <glyph glyph-name="fi" unicode="&#xf001;" horiz-adv-x="566" 
d="M371 0v482h130v-482h-130zM83 0v382h-67v100h67v17q0 50 17.5 85t46.5 56.5t66.5 31t78.5 9.5q65 0 106.5 -13.5t68.5 -32.5l-61 -95q-18 14 -44 22.5t-61 8.5t-61.5 -17t-26.5 -60v-12h109v-100h-108v-382h-131z" />
    <glyph glyph-name="fl" unicode="&#xf002;" horiz-adv-x="565" 
d="M83 0v382h-67v100h68v15q0 55 23.5 91t60 56t81.5 28t88 8q38 0 82 -4t81 -11v-665h-130v565q-12 2 -27 2.5t-26 0.5q-44 0 -74 -16.5t-30 -57.5v-12h102v-100h-101v-382h-131z" />
    <glyph glyph-name="oneseventh" unicode="&#xf506;" horiz-adv-x="774" 
d="M99 -12l-65 70l655 610l68 -69zM541 1l118 254h-147v74h252v-60l-122 -268h-101zM112 337v218l-68 -36l-40 72l132 74h74v-328h-98z" />
    <glyph glyph-name="twosevenths" unicode="&#xf507;" horiz-adv-x="774" 
d="M99 -12l-65 70l655 610l68 -69zM6 337v57q35 32 63 57t55 55q14 15 21.5 28t7.5 27t-7.5 22.5t-21.5 8.5q-12 0 -27 -10.5t-32 -45.5l-78 40q53 97 154 97q48 0 81.5 -25t33.5 -76q0 -29 -12 -53.5t-32 -45.5q-15 -17 -28.5 -29t-29.5 -24h110v-83h-258zM541 1l118 254
h-147v74h252v-60l-122 -268h-101z" />
    <glyph glyph-name="threesevenths" unicode="&#xf508;" horiz-adv-x="774" 
d="M99 -12l-65 70l655 610l68 -69zM541 1l118 254h-147v74h252v-60l-122 -268h-101zM94 453q17 -26 34 -34.5t32 -8.5q20 0 29.5 9t9.5 23q0 4 -1.5 9.5t-7.5 10.5t-17.5 8.5t-32.5 3.5v65q20 1 31 5t16 8.5t6 9.5t1 8q0 11 -8 18t-25 7q-14 0 -29 -8t-32 -35l-77 41
q29 45 67.5 62.5t82.5 17.5q22 0 43.5 -5.5t38.5 -17t27 -28.5t10 -40q0 -28 -11 -44.5t-27 -26.5q15 -8 29.5 -26t14.5 -46q0 -29 -12 -49t-31 -33t-43 -19t-49 -6q-40 0 -78 16.5t-69 63.5z" />
    <glyph glyph-name="foursevenths" unicode="&#xf509;" horiz-adv-x="774" 
d="M99 -12l-65 70l655 610l68 -69zM541 1l118 254h-147v74h252v-60l-122 -268h-101zM12 408v73l161 184h89v-187h41v-70h-41v-71h-97v71h-153zM91 478h74v86z" />
    <glyph glyph-name="fivesevenths" unicode="&#xf50a;" horiz-adv-x="774" 
d="M99 -12l-65 70l655 610l68 -69zM541 1l118 254h-147v74h252v-60l-122 -268h-101zM91 445q9 -14 23.5 -24.5t34.5 -10.5q17 0 29.5 10.5t12.5 27.5q0 23 -24.5 32t-66.5 9h-49v176h216v-74h-125v-32q29 -1 55.5 -7t47 -18t32.5 -31.5t12 -48.5q0 -32 -12 -55t-31.5 -38
t-43.5 -22t-49 -7q-19 0 -38.5 3t-36.5 9t-31 15.5t-22 23.5z" />
    <glyph glyph-name="sixsevenths" unicode="&#xf50b;" horiz-adv-x="774" 
d="M83 -12l-65 70l655 610l68 -69zM124 549q26 17 65 17q47 0 77 -30t30 -78q0 -56 -36.5 -91t-100.5 -35q-37 0 -63.5 12t-44 31.5t-25.5 45.5t-8 53q0 41 15.5 76.5t44.5 62.5t69.5 43.5t91.5 20.5l18 -69q-17 -2 -35.5 -6.5t-36.5 -11t-34 -16.5t-28 -23zM137 495
q-9 -3 -20 -9q-1 -5 -1 -10.5v-10.5q0 -20 9.5 -39t34.5 -19q17 0 29.5 11.5t12.5 31.5t-10.5 34t-33.5 14q-12 0 -21 -3zM539 1l118 254h-147v74h252v-60l-122 -268h-101z" />
    <glyph glyph-name="oneninth" unicode="&#xf50c;" horiz-adv-x="774" 
d="M83 -12l-65 70l655 610l68 -69zM521 63q38 5 72.5 16t58.5 34l-2 2q-12 -6 -25.5 -10t-30.5 -3q-47 2 -78 34.5t-31 83.5q0 48 35.5 82.5t98.5 34.5q38 0 65 -12t44 -31.5t24.5 -44.5t7.5 -51q0 -45 -16 -81t-45 -61.5t-69.5 -41.5t-90.5 -22zM623 172q21 0 40 10
q1 5 1 11.5v11.5q0 20 -9 38.5t-34 18.5q-17 0 -29 -11t-12 -31t10 -34t33 -14zM112 337v218l-68 -36l-40 72l132 74h74v-328h-98z" />
    <glyph glyph-name="twoninths" unicode="&#xf50d;" horiz-adv-x="774" 
d="M99 -12l-65 70l655 610l68 -69zM6 337v57q35 32 63 57t55 55q14 15 21.5 28t7.5 27t-7.5 22.5t-21.5 8.5q-12 0 -27 -10.5t-32 -45.5l-78 40q53 97 154 97q48 0 81.5 -25t33.5 -76q0 -29 -12 -53.5t-32 -45.5q-15 -17 -28.5 -29t-29.5 -24h110v-83h-258zM521 63
q38 5 72.5 16t58.5 34l-2 2q-12 -6 -25.5 -10t-30.5 -3q-47 2 -78 34.5t-31 83.5q0 48 35.5 82.5t98.5 34.5q38 0 65 -12t44 -31.5t24.5 -44.5t7.5 -51q0 -45 -16 -81t-45 -61.5t-69.5 -41.5t-90.5 -22zM623 172q21 0 40 10q1 5 1 11.5v11.5q0 20 -9 38.5t-34 18.5
q-17 0 -29 -11t-12 -31t10 -34t33 -14z" />
    <glyph glyph-name="fourninths" unicode="&#xf50e;" horiz-adv-x="774" 
d="M83 -12l-65 70l655 610l68 -69zM521 63q38 5 72.5 16t58.5 34l-2 2q-12 -6 -25.5 -10t-30.5 -3q-47 2 -78 34.5t-31 83.5q0 48 35.5 82.5t98.5 34.5q38 0 65 -12t44 -31.5t24.5 -44.5t7.5 -51q0 -45 -16 -81t-45 -61.5t-69.5 -41.5t-90.5 -22zM623 172q21 0 40 10
q1 5 1 11.5v11.5q0 20 -9 38.5t-34 18.5q-17 0 -29 -11t-12 -31t10 -34t33 -14zM12 408v73l161 184h89v-187h41v-70h-41v-71h-97v71h-153zM91 478h74v86z" />
    <glyph glyph-name="fiveninths" unicode="&#xf50f;" horiz-adv-x="774" 
d="M99 -12l-65 70l655 610l68 -69zM521 63q38 5 72.5 16t58.5 34l-2 2q-12 -6 -25.5 -10t-30.5 -3q-47 2 -78 34.5t-31 83.5q0 48 35.5 82.5t98.5 34.5q38 0 65 -12t44 -31.5t24.5 -44.5t7.5 -51q0 -45 -16 -81t-45 -61.5t-69.5 -41.5t-90.5 -22zM623 172q21 0 40 10
q1 5 1 11.5v11.5q0 20 -9 38.5t-34 18.5q-17 0 -29 -11t-12 -31t10 -34t33 -14zM91 445q9 -14 23.5 -24.5t34.5 -10.5q17 0 29.5 10.5t12.5 27.5q0 23 -24.5 32t-66.5 9h-49v176h216v-74h-125v-32q29 -1 55.5 -7t47 -18t32.5 -31.5t12 -48.5q0 -32 -12 -55t-31.5 -38
t-43.5 -22t-49 -7q-19 0 -38.5 3t-36.5 9t-31 15.5t-22 23.5z" />
    <glyph glyph-name="sevenninths" unicode="&#xf510;" horiz-adv-x="774" 
d="M83 -12l-65 70l655 610l68 -69zM521 63q38 5 72.5 16t58.5 34l-2 2q-12 -6 -25.5 -10t-30.5 -3q-47 2 -78 34.5t-31 83.5q0 48 35.5 82.5t98.5 34.5q38 0 65 -12t44 -31.5t24.5 -44.5t7.5 -51q0 -45 -16 -81t-45 -61.5t-69.5 -41.5t-90.5 -22zM623 172q21 0 40 10
q1 5 1 11.5v11.5q0 20 -9 38.5t-34 18.5q-17 0 -29 -11t-12 -31t10 -34t33 -14zM60 337l118 254h-147v74h252v-60l-122 -268h-101z" />
    <glyph glyph-name="eightninths" unicode="&#xf511;" horiz-adv-x="774" 
d="M83 -12l-65 70l655 610l68 -69zM30 473q12 21 37 34q-20 14 -31 33.5t-11 40.5q0 45 35 68.5t98 23.5q59 0 95.5 -23.5t36.5 -66.5q0 -23 -10 -42.5t-31 -33.5q24 -11 35.5 -32.5t11.5 -43.5q0 -50 -38 -74.5t-100 -24.5q-65 0 -102.5 24.5t-37.5 73.5q0 23 12 43z
M116 435q0 -16 11.5 -24t30.5 -8q17 0 28.5 8t11.5 24q0 17 -11.5 25.5t-29.5 8.5t-29.5 -9t-11.5 -25zM122 579q0 -14 9.5 -22.5t25.5 -8.5q17 0 26.5 8t9.5 23q0 14 -9.5 21.5t-25.5 7.5t-26 -8t-10 -21zM521 63q38 5 72.5 16t58.5 34l-2 2q-12 -6 -25.5 -10t-30.5 -3
q-47 2 -78 34.5t-31 83.5q0 48 35.5 82.5t98.5 34.5q38 0 65 -12t44 -31.5t24.5 -44.5t7.5 -51q0 -45 -16 -81t-45 -61.5t-69.5 -41.5t-90.5 -22zM623 172q21 0 40 10q1 5 1 11.5v11.5q0 20 -9 38.5t-34 18.5q-17 0 -29 -11t-12 -31t10 -34t33 -14z" />
    <glyph glyph-name="a.smcp" unicode="&#xf605;" horiz-adv-x="542" 
d="M4 0l217 522h97l222 -522h-129l-43 103h-194l-42 -103h-128zM206 198h124l-61 174z" />
    <glyph glyph-name="b.smcp" unicode="&#xf606;" horiz-adv-x="518" 
d="M65 0v522h207q91 0 140 -35t49 -102q0 -71 -64 -108q45 -15 70.5 -44.5t25.5 -83.5q0 -75 -52.5 -112t-138.5 -37h-237zM187 315h63q42 0 66 9.5t24 48.5q0 16 -7 26.5t-19 16t-27.5 7.5t-33.5 2h-66v-110zM187 97h84q21 0 39 2t31.5 8.5t21.5 18.5t8 31q0 38 -26.5 51
t-66.5 13h-91v-124z" />
    <glyph glyph-name="c.smcp" unicode="&#xf607;" horiz-adv-x="533" 
d="M503 105q-38 -63 -89 -89.5t-118 -26.5q-60 0 -106.5 19t-78.5 54.5t-49 85t-17 110.5q0 71 21 122.5t55.5 85.5t80 50t95.5 16q78 0 125.5 -32.5t76.5 -90.5l-91 -51q-18 33 -44.5 52.5t-64.5 19.5q-26 0 -50 -9.5t-42 -30t-29 -53t-11 -79.5q0 -78 37 -123t96 -45
q32 0 60.5 12.5t53.5 56.5z" />
    <glyph glyph-name="d.smcp" unicode="&#xf608;" horiz-adv-x="566" 
d="M65 0v522h171q32 0 74 -5t77 -19q37 -15 64 -39.5t45 -55t26.5 -65.5t8.5 -72t-9 -73t-27 -67.5t-45 -57t-63 -41.5q-30 -14 -68.5 -20.5t-78.5 -6.5h-175zM187 98h41q62 0 102 20q41 20 60 59t19 84t-17.5 81t-54.5 58q-20 12 -48.5 18t-57.5 6h-44v-326z" />
    <glyph glyph-name="e.smcp" unicode="&#xf609;" horiz-adv-x="503" 
d="M65 0v522h393v-100h-271v-109h224v-99h-224v-114h291v-100h-413z" />
    <glyph glyph-name="f.smcp" unicode="&#xf60a;" horiz-adv-x="475" 
d="M65 0v522h390v-100h-268v-113h213v-97h-213v-212h-122z" />
    <glyph glyph-name="g.smcp" unicode="&#xf60b;" horiz-adv-x="553" 
d="M311 179v98h202v-253h-5q-35 -14 -82 -24.5t-122 -10.5q-56 0 -103.5 18.5t-82 53t-54 85t-19.5 115.5q0 71 20.5 122t55.5 84t81.5 49t97.5 16q74 0 122 -28t78 -87l-94 -52q-19 34 -44 49.5t-60 15.5q-27 0 -51.5 -9.5t-42.5 -29.5t-28.5 -52.5t-10.5 -77.5
q0 -39 11 -71t30.5 -54t46.5 -34t60 -12q26 0 48.5 2.5t36.5 6.5v80h-91z" />
    <glyph glyph-name="h.smcp" unicode="&#xf60c;" horiz-adv-x="586" 
d="M65 0v522h122v-205h212v205h122v-522h-122v216h-212v-216h-122z" />
    <glyph glyph-name="i.smcp" unicode="&#xf60d;" horiz-adv-x="252" 
d="M65 0v522h122v-522h-122z" />
    <glyph glyph-name="j.smcp" unicode="&#xf60e;" horiz-adv-x="262" 
d="M-31 -21q59 11 82.5 33t23.5 58v452h122v-469q0 -75 -53.5 -117t-143.5 -56z" />
    <glyph glyph-name="k.smcp" unicode="&#xf60f;" horiz-adv-x="545" 
d="M65 0v522h122v-197l203 197h143l-212 -207l224 -315h-141l-173 240l-44 -44v-196h-122z" />
    <glyph glyph-name="l.smcp" unicode="&#xf610;" horiz-adv-x="485" 
d="M65 0v522h122v-421h278v-101h-400z" />
    <glyph glyph-name="m.smcp" unicode="&#xf611;" horiz-adv-x="687" 
d="M65 0v522h121l164 -332l151 332h121v-522h-117v287l-135 -290h-40l-148 293v-290h-117z" />
    <glyph glyph-name="n.smcp" unicode="&#xf612;" horiz-adv-x="594" 
d="M65 0v522h121l223 -313v313h120v-522h-96l-248 330v-330h-120z" />
    <glyph glyph-name="o.smcp" unicode="&#xf613;" horiz-adv-x="609" 
d="M189 11q-49 23 -81.5 60.5t-48 85.5t-15.5 98q0 55 17 105t50.5 88t83.5 61t115 23q67 0 116 -23t81 -60.5t47 -86.5t15 -100t-16.5 -100t-49.5 -87.5t-82.5 -62t-116.5 -23.5q-66 0 -115 22zM204 140q17 -23 42.5 -36.5t58.5 -13.5q34 0 59.5 13.5t43 37t26.5 54.5t9 66
q0 34 -8.5 65t-25.5 54t-42.5 36.5t-59.5 13.5q-33 0 -59 -13t-43 -36.5t-26 -55t-9 -68.5q0 -33 8.5 -63t25.5 -54z" />
    <glyph glyph-name="p.smcp" unicode="&#xf614;" horiz-adv-x="509" 
d="M65 0v522h189q45 0 87 -6.5t73.5 -23.5t50.5 -47.5t19 -79.5t-17 -83t-46 -55t-67.5 -30.5t-81.5 -9.5h-86v-187h-121zM186 283h59q22 0 43 3t37 11t25.5 23t9.5 39q0 22 -9 34.5t-24.5 19.5t-35.5 9t-42 2h-63v-141z" />
    <glyph glyph-name="q.smcp" unicode="&#xf615;" horiz-adv-x="609" 
d="M475 -126q-104 0 -159 33t-74 88q-49 11 -86 35.5t-62 59.5t-37.5 78t-12.5 91q0 53 17.5 102.5t51.5 87.5t83.5 60.5t113.5 22.5q69 0 118 -23.5t80.5 -62t46 -87t14.5 -99.5q0 -45 -13 -86t-37.5 -75.5t-61 -60t-83.5 -38.5q11 -19 40 -25t75 -4zM204 140
q17 -23 42.5 -36.5t58.5 -13.5q34 0 59.5 13.5t43 37t26.5 54.5t9 66q0 34 -8.5 65t-25.5 54t-42.5 36.5t-59.5 13.5q-33 0 -59 -13t-43 -36.5t-26 -55t-9 -68.5q0 -33 8.5 -63t25.5 -54z" />
    <glyph glyph-name="r.smcp" unicode="&#xf616;" horiz-adv-x="520" 
d="M65 0v522h206q36 0 74 -6t68.5 -23t50.5 -46.5t20 -75.5q0 -57 -29 -101.5t-83 -65.5l138 -204h-139l-121 187h-64v-187h-121zM186 283h64q33 0 54.5 5.5t34 15t17 23t4.5 29.5q0 42 -26.5 55t-83.5 13h-64v-141z" />
    <glyph glyph-name="s.smcp" unicode="&#xf617;" horiz-adv-x="490" 
d="M121 146q20 -29 52 -44t73 -15q32 0 57 12t25 40q0 14 -5 23.5t-19 18.5t-38.5 18.5t-62.5 23.5q-38 13 -67 27.5t-49 32.5t-30.5 42t-10.5 57q0 31 14 58.5t40.5 47.5t63.5 32t83 12q39 0 70 -7.5t55 -20t42 -29.5t30 -35l-87 -59q-18 23 -48.5 38.5t-64.5 15.5
q-30 0 -52.5 -10.5t-22.5 -33.5q0 -24 23.5 -38.5t80.5 -34.5q46 -17 79.5 -32.5t55.5 -35t32 -44t10 -58.5q0 -38 -16 -67.5t-44 -50t-65.5 -31t-80.5 -10.5q-153 0 -214 97z" />
    <glyph glyph-name="t.smcp" unicode="&#xf618;" horiz-adv-x="498" 
d="M188 0v421h-163v101h448v-101h-163v-421h-122z" />
    <glyph glyph-name="u.smcp" unicode="&#xf619;" horiz-adv-x="588" 
d="M187 198q0 -47 28 -77.5t83 -30.5t81.5 30.5t26.5 77.5v324h122v-341q0 -47 -18 -83t-49.5 -60t-74.5 -36.5t-92 -12.5q-50 0 -92 11.5t-72.5 35.5t-47.5 60t-17 85v341h122v-324z" />
    <glyph glyph-name="v.smcp" unicode="&#xf61a;" horiz-adv-x="553" 
d="M238 0l-228 522h135l137 -346l141 346h125l-227 -522h-83z" />
    <glyph glyph-name="w.smcp" unicode="&#xf61b;" horiz-adv-x="699" 
d="M148 0l-128 522h120l67 -298l107 298h79l102 -302l71 302h118l-129 -522h-83l-124 351l-119 -351h-81z" />
    <glyph glyph-name="x.smcp" unicode="&#xf61c;" horiz-adv-x="516" 
d="M10 0l182 272l-169 250h136l99 -153l98 153h137l-169 -250l182 -272h-135l-113 174l-111 -174h-137z" />
    <glyph glyph-name="y.smcp" unicode="&#xf61d;" horiz-adv-x="522" 
d="M204 0v212l-189 310h137l116 -199l112 199h132l-186 -310v-212h-122z" />
    <glyph glyph-name="z.smcp" unicode="&#xf61e;" horiz-adv-x="519" 
d="M45 0v89l284 335h-261v98h406v-92l-278 -332h278v-98h-429z" />
    <glyph glyph-name="ae.smcp" unicode="&#xf61f;" horiz-adv-x="796" 
d="M15 0l319 522h412v-100h-230v-110h183v-97h-183v-115h250v-100h-372v136h-166l-82 -136h-131zM280 233h114v192z" />
    <glyph glyph-name="eng.smcp" unicode="&#xf620;" horiz-adv-x="594" 
d="M65 0v522h121l223 -313v313h120v-522h-1q-4 -70 -38.5 -115.5t-101.5 -80.5l-72 80q25 17 41.5 31.5t25.5 30t12.5 33t3.5 40.5v25l-214 286v-330h-120z" />
    <glyph glyph-name="oe.smcp" unicode="&#xf621;" horiz-adv-x="822" 
d="M334 0q-63 0 -116 18.5t-91.5 52t-60 82t-21.5 108.5q0 61 21.5 109.5t60 82t91.5 51.5t116 18h439v-100h-253v-110h206v-97h-206v-115h272v-100h-458zM398 98v326h-62q-36 0 -66.5 -11t-53.5 -32t-36 -51t-13 -69q0 -37 13.5 -67t36.5 -51.5t53.5 -33t65.5 -11.5h62z
" />
    <glyph glyph-name="eth.smcp" unicode="&#xf622;" horiz-adv-x="566" 
d="M65 0v223h-65v92h65v207h171q32 0 74 -5t77 -19q37 -15 64 -39.5t45 -55t26.5 -65.5t8.5 -72t-9 -73t-27 -67.5t-45 -57t-63 -41.5q-30 -14 -68.5 -20.5t-78.5 -6.5h-175zM187 98h41q62 0 102 20q41 20 60 59t19 84t-17.5 81t-54.5 58q-20 12 -48.5 18t-57.5 6h-44v-109
h120v-92h-120v-125z" />
    <glyph glyph-name="hbar.smcp" unicode="&#xf623;" horiz-adv-x="586" 
d="M65 0v373h-54v92h54v57h122v-57h212v57h122v-57h51v-92h-51v-373h-122v216h-212v-216h-122zM187 317h212v56h-212v-56z" />
    <glyph glyph-name="ij.smcp" unicode="&#xf624;" horiz-adv-x="517" 
d="M65 0v522h122v-522h-122zM224 -21q59 11 82.5 33t23.5 58v452h122v-469q0 -75 -53.5 -117t-143.5 -56z" />
    <glyph glyph-name="idotaccent.smcp" unicode="&#xf625;" horiz-adv-x="252" 
d="M65 0v522h122v-522h-122zM128 554q-30 0 -50 23t-20 54t20 54t50 23q31 0 51 -23t20 -54t-20 -54t-51 -23z" />
    <glyph glyph-name="dotlessi.smcp" unicode="&#xf626;" horiz-adv-x="252" 
d="M65 0v522h122v-522h-122z" />
    <glyph glyph-name="oslash.smcp" unicode="&#xf627;" horiz-adv-x="608" 
d="M32 33l58 62q-23 35 -34.5 77.5t-11.5 85.5q0 52 17 101t50.5 87.5t83 62t114.5 23.5q45 0 80.5 -10.5t64.5 -28.5l52 60l69 -60l-57 -64q27 -33 38.5 -79.5t11.5 -88.5q0 -51 -16.5 -99.5t-50 -87t-84 -62t-118.5 -23.5q-42 0 -80.5 12t-67.5 35l-59 -60zM376 412
q-15 10 -31.5 15t-38.5 5q-34 0 -60 -13.5t-43.5 -37t-26.5 -55.5t-9 -69q0 -19 2.5 -37.5t7.5 -35.5zM228 111q14 -8 35 -15.5t41 -7.5q34 0 60.5 13.5t44 37t26.5 55t9 67.5q0 17 -3 41.5t-7 39.5z" />
    <glyph glyph-name="thorn.smcp" unicode="&#xf628;" horiz-adv-x="518" 
d="M65 0v522h121v-74h73q42 0 82 -7.5t71.5 -26.5t51 -50.5t19.5 -79.5q0 -45 -16.5 -78.5t-45.5 -55.5t-68.5 -33t-84.5 -11h-82v-106h-121zM186 203h69q21 0 40 3t33.5 11.5t23.5 22.5t9 37t-9.5 37.5t-24.5 22.5t-34.5 11t-40.5 3h-66v-148z" />
    <glyph glyph-name="tbar.smcp" unicode="&#xf629;" horiz-adv-x="498" 
d="M188 0v209h-114v101h114v111h-163v101h448v-101h-163v-111h117v-101h-117v-209h-122z" />
    <glyph glyph-name="kgreenlandic.smcp" unicode="&#xf62a;" horiz-adv-x="545" 
d="M65 0v522h122v-197l203 197h143l-212 -207l224 -315h-141l-173 240l-44 -44v-196h-122z" />
    <glyph glyph-name="lslash.smcp" unicode="&#xf62b;" horiz-adv-x="515" 
d="M80 0v198l-48 -28l-37 75l85 48v229h122v-172l81 48l39 -73l-120 -70v-156h278v-99h-400z" />
    <glyph glyph-name="ampersand.smcp" unicode="&#xf62c;" horiz-adv-x="564" 
d="M413 0l-53 63q-16 -17 -31.5 -30.5t-34.5 -22.5t-43 -14t-55 -5q-41 0 -73 12t-54.5 33.5t-34.5 50.5t-12 63q0 50 27.5 93.5t90.5 78.5q-17 20 -30 42t-13 51q0 52 42.5 84.5t113.5 32.5q64 0 101.5 -25t54.5 -60l-89 -52q-11 18 -26 30t-36 12q-14 0 -23.5 -6t-9.5 -20
q0 -11 8.5 -22.5t19.5 -25.5l102 -123q23 41 49.5 73.5t63.5 55.5l63 -79q-35 -27 -59.5 -62.5t-47.5 -75.5l125 -152h-136zM208 244q-65 -42 -65 -94q0 -26 17 -44.5t48 -18.5q44 0 84 56z" />
    <glyph glyph-name="f_i.smcp" unicode="&#xf62d;" horiz-adv-x="727" 
d="M65 0v522h390v-100h-268v-113h213v-97h-213v-212h-122zM540 0v522h122v-522h-122z" />
    <glyph glyph-name="f_l.smcp" unicode="&#xf62e;" horiz-adv-x="960" 
d="M65 0v522h390v-100h-268v-113h213v-97h-213v-212h-122zM540 0v522h122v-421h278v-101h-400z" />
    <glyph glyph-name="f_f.smcp" unicode="&#xf62f;" horiz-adv-x="960" 
d="M65 0v522h390v-100h-268v-113h213v-97h-213v-212h-122zM540 0v522h390v-100h-268v-113h213v-97h-213v-212h-122z" />
    <glyph glyph-name="f_f_i.smcp" unicode="&#xf630;" horiz-adv-x="1202" 
d="M1015 0v522h122v-522h-122zM65 0v522h390v-100h-268v-113h213v-97h-213v-212h-122zM540 0v522h390v-100h-268v-113h213v-97h-213v-212h-122z" />
    <glyph glyph-name="f_f_l.smcp" unicode="&#xf631;" horiz-adv-x="1435" 
d="M1015 0v522h122v-421h278v-101h-400zM65 0v522h390v-100h-268v-113h213v-97h-213v-212h-122zM540 0v522h390v-100h-268v-113h213v-97h-213v-212h-122z" />
    </font>
</defs>
</svg>
