<?xml version="1.0" standalone="no"?>
<!DOCTYPE svg PUBLIC "-//W3C//DTD SVG 1.1//EN" "http://www.w3.org/Graphics/SVG/1.1/DTD/svg11.dtd" >
<svg xmlns="http://www.w3.org/2000/svg" xmlns:xlink="http://www.w3.org/1999/xlink" version="1.1">
<metadata>
Created by FontForge 20170731 at Thu Feb 13 14:22:08 2014
 By Aleksey,,,
Copyright 2000-2007 Dalton Maag Ltd. All rights reserved. No modification without the prior permission of Dalton Maag Ltd.
</metadata>
<defs>
<font id="InterFace-Thin" horiz-adv-x="280" >
  <font-face 
    font-family="InterFace Thin"
    font-weight="400"
    font-stretch="normal"
    units-per-em="1000"
    panose-1="2 11 2 3 3 2 3 2 2 4"
    ascent="800"
    descent="-200"
    x-height="476"
    cap-height="667"
    bbox="-223 -223 1086 897"
    underline-thickness="20"
    underline-position="-153"
    unicode-range="U+0008-FB04"
  />
<missing-glyph horiz-adv-x="500" 
d="M50 0v750h400v-750h-400zM400 50v650h-300v-650h300z" />
    <glyph glyph-name="f_b" unicode="fb" horiz-adv-x="750" 
d="M86 0v444h-71v32h71v67q0 33 11 58.5t30.5 43t46 26.5t56.5 9q50 0 79 -11t49 -24v-196q21 15 53.5 27.5t79.5 12.5q43 0 81.5 -15t67.5 -45.5t46.5 -76.5t17.5 -108q0 -59 -18 -106t-48.5 -80t-72 -51t-88.5 -18q-48 0 -88 8.5t-67 19.5v609q-14 9 -34 15.5t-57 6.5
q-46 0 -78 -27t-32 -84v-61h110v-32h-109v-444h-36zM358 42q25 -10 56 -16t56 -6q43 0 79.5 16.5t63 46t41 70.5t14.5 91t-14 90t-39 67.5t-58.5 42.5t-72.5 15q-37 0 -68.5 -13.5t-57.5 -33.5v-370z" />
    <glyph glyph-name="f_j" unicode="fj" horiz-adv-x="390" 
d="M210 -167q47 28 65.5 68.5t18.5 94.5v480h36v-480q0 -72 -24.5 -116t-78.5 -76zM86 0v444h-71v32h71v67q0 35 11 60.5t29.5 42.5t43 25.5t51.5 8.5q40 0 66.5 -12t39.5 -22l-19 -28q-11 8 -32.5 19t-53.5 11q-20 0 -38.5 -5.5t-32.5 -18.5t-22 -34.5t-8 -52.5v-61h110
v-32h-109v-444h-36z" />
    <glyph glyph-name="f_k" unicode="fk" horiz-adv-x="693" 
d="M86 0v444h-71v32h71v67q0 33 11 58.5t30.5 43t46 26.5t56.5 9q50 0 79 -11t49 -24v-390l234 221h47l-160 -155l214 -321h-44l-198 296l-93 -87v-209h-36v626q-14 9 -34 15.5t-57 6.5q-46 0 -78 -27t-32 -84v-61h110v-32h-109v-444h-36z" />
    <glyph glyph-name="f_t" unicode="ft" horiz-adv-x="525" 
d="M86 0v444h-71v32h71v70q0 64 30.5 99t84.5 35q33 0 52 -6.5t30 -13.5l-15 -31q-11 7 -27 13t-39 6q-37 0 -59 -25t-22 -83v-64h223v126h36v-126h125v-32h-126v-348q0 -39 16.5 -57t47.5 -18q19 0 31.5 4.5t26.5 13.5l16 -28q-17 -11 -35.5 -16.5t-48.5 -5.5
q-39 0 -64 25.5t-25 72.5v357h-222v-444h-36z" />
    <glyph glyph-name="f_h" unicode="fh" horiz-adv-x="758" 
d="M86 0v444h-71v32h71v67q0 33 11 58.5t30.5 43t46 26.5t56.5 9q50 0 79 -11t49 -24v-212q29 23 67 39.5t92 16.5q90 0 133 -46t43 -134v-309h-36v307q0 80 -38.5 114.5t-105.5 34.5q-48 0 -85.5 -18t-69.5 -44v-394h-36v626q-14 9 -34 15.5t-57 6.5q-46 0 -78 -27t-32 -84
v-61h110v-32h-109v-444h-36z" />
    <glyph glyph-name="f_f" unicode="ff" horiz-adv-x="483" 
d="M86 0v444h-71v32h71v70q0 64 30.5 99t84.5 35q33 0 52 -6.5t30 -13.5l-15 -31q-11 7 -27 13t-39 6q-37 0 -59 -25t-22 -83v-64h205v70q0 64 30.5 99t84.5 35q33 0 52 -6.5t30 -13.5l-15 -31q-11 7 -27 13t-39 6q-37 0 -59 -25t-22 -83v-64h110v-32h-109v-444h-36v444
h-204v-444h-36z" />
    <glyph glyph-name="f_i" unicode="fi" horiz-adv-x="419" 
d="M323 0v476h36v-476h-36zM86 0v444h-71v32h71v67q0 35 11 60.5t29.5 42.5t43 25.5t51.5 8.5q40 0 66.5 -12t39.5 -22l-19 -28q-11 8 -32.5 19t-53.5 11q-20 0 -38.5 -5.5t-32.5 -18.5t-22 -34.5t-8 -52.5v-61h110v-32h-109v-444h-36z" />
    <glyph glyph-name="f_l" unicode="fl" horiz-adv-x="427" 
d="M86 0v444h-71v32h71v67q0 33 11 58.5t30.5 43t46 26.5t56.5 9q50 0 79 -11t49 -24v-645h-36v626q-14 9 -34 15.5t-57 6.5q-46 0 -78 -27t-32 -84v-61h110v-32h-109v-444h-36z" />
    <glyph glyph-name="f_f_i" unicode="ffi" horiz-adv-x="655" 
d="M86 0v444h-71v32h71v70q0 64 30.5 99t84.5 35q33 0 52 -6.5t30 -13.5l-15 -31q-11 7 -27 13t-39 6q-37 0 -59 -25t-22 -83v-64h201v67q0 35 11 60.5t29.5 42.5t43 25.5t51.5 8.5q40 0 66.5 -12t39.5 -22l-19 -28q-11 8 -32.5 19t-53.5 11q-20 0 -38.5 -5.5t-32.5 -18.5
t-22 -34.5t-8 -52.5v-61h110v-32h-109v-444h-36v444h-200v-444h-36zM559 0v476h36v-476h-36z" />
    <glyph glyph-name="f_f_l" unicode="ffl" horiz-adv-x="663" 
d="M86 0v444h-71v32h71v70q0 64 30.5 99t84.5 35q33 0 52 -6.5t30 -13.5l-15 -31q-11 7 -27 13t-39 6q-37 0 -59 -25t-22 -83v-64h201v67q0 33 11 58.5t30.5 43t46 26.5t56.5 9q50 0 79 -11t49 -24v-645h-36v626q-14 9 -34 15.5t-57 6.5q-46 0 -78 -27t-32 -84v-61h110v-32
h-109v-444h-36v444h-200v-444h-36z" />
    <glyph glyph-name=".notdef" horiz-adv-x="500" 
d="M50 0v750h400v-750h-400zM400 50v650h-300v-650h300z" />
    <glyph glyph-name=".null" horiz-adv-x="0" 
 />
    <glyph glyph-name=".null" horiz-adv-x="0" 
 />
    <glyph glyph-name=".null" horiz-adv-x="0" 
 />
    <glyph glyph-name="nonmarkingreturn" unicode="&#x9;" horiz-adv-x="200" 
 />
    <glyph glyph-name="nonmarkingreturn" unicode="&#xd;" horiz-adv-x="200" 
 />
    <glyph glyph-name="space" unicode=" " horiz-adv-x="200" 
 />
    <glyph glyph-name="exclam" unicode="!" horiz-adv-x="161" 
d="M64 197v470h36v-470h-36zM81 -11q-14 0 -22.5 12t-8.5 28t8.5 28t22.5 12t22 -12.5t8 -27.5t-8 -27.5t-22 -12.5z" />
    <glyph glyph-name="quotedbl" unicode="&#x22;" horiz-adv-x="264" 
d="M175 371v296h36v-296h-36zM53 371v296h36v-296h-36z" />
    <glyph glyph-name="numbersign" unicode="#" horiz-adv-x="568" 
d="M173 74v177h-169v32h169v168h-169v32h169v184h34v-184h154v184h34v-184h169v-32h-169v-168h169v-32h-169v-177h-34v177h-154v-177h-34zM207 283h154v168h-154v-168z" />
    <glyph glyph-name="dollar" unicode="$" horiz-adv-x="502" 
d="M233 -126v118q-124 3 -184 86l30 22q21 -32 62.5 -52.5t91.5 -21.5v315q-38 15 -68.5 32t-52 38.5t-33 49.5t-11.5 65q0 69 45.5 107.5t119.5 40.5v117h32v-117q59 -2 97.5 -24.5t64.5 -58.5l-31 -22q-22 29 -55.5 48.5t-75.5 22.5v-273q44 -19 76.5 -37.5t54.5 -41.5
t32.5 -52.5t10.5 -69.5q0 -35 -11 -65.5t-33 -53.5t-54.5 -37.5t-75.5 -17.5v-118h-32zM233 640q-62 -2 -94.5 -33.5t-32.5 -75.5q0 -31 8 -53.5t24 -40t39.5 -32t55.5 -27.5v262zM265 26q64 7 100 43t36 95q0 32 -7.5 56t-24 42.5t-42.5 34.5t-62 33v-304z" />
    <glyph glyph-name="percent" unicode="%" horiz-adv-x="710" 
d="M111 399q-24 11 -42 30.5t-28.5 45t-10.5 55.5t10.5 56t28.5 45.5t42.5 30.5t53.5 11t53.5 -11t42.5 -30.5t28.5 -45.5t10.5 -56t-10.5 -55.5t-28.5 -45t-42.5 -30.5t-53.5 -11t-54 11zM61 2l-25 26l605 641l24 -21zM490 6q-24 11 -42 30.5t-28.5 45.5t-10.5 56
t10.5 55.5t28.5 45t42.5 30.5t53.5 11t53.5 -11t42.5 -30.5t28.5 -45t10.5 -55.5t-10.5 -56t-28.5 -45.5t-42.5 -30.5t-53.5 -11t-54 11zM91 453q14 -16 33 -25.5t41 -9.5t41 9.5t32.5 25.5t21 36.5t7.5 41.5q0 48 -28.5 80t-73.5 32t-73.5 -32t-28.5 -80q0 -21 7.5 -41.5
t20.5 -36.5zM470 61q14 -16 33 -26t41 -10t41 10t32.5 26t21 36.5t7.5 41.5q0 47 -28.5 79t-73.5 32t-73.5 -32t-28.5 -79q0 -21 7.5 -41.5t20.5 -36.5z" />
    <glyph glyph-name="ampersand" unicode="&#x26;" horiz-adv-x="568" 
d="M487 0l-90 129q-21 -38 -42 -65t-44 -44t-48.5 -25t-56.5 -8q-39 0 -70.5 15.5t-53.5 41t-34 58t-12 67.5q0 82 43 136.5t123 95.5l-29 41q-18 26 -29.5 52.5t-11.5 58.5q0 26 10 48t27.5 38t41.5 25t51 9q25 0 47.5 -8.5t40 -24t27.5 -38t10 -49.5q0 -58 -34 -95
t-100 -71l138 -198l26 52t32 60.5t34.5 58t34.5 45.5l23 -22q-38 -45 -67.5 -101.5t-60.5 -120.5l116 -161h-42zM235 415q60 29 87.5 59.5t27.5 78.5q0 39 -25.5 63t-63.5 24q-42 0 -67 -24.5t-25 -62.5q0 -23 10 -45.5t24 -44.5zM221 373q-72 -35 -109 -83t-37 -122
q0 -30 9.5 -57t27 -47.5t42 -32.5t54.5 -12q32 0 56.5 11t44 29.5t35 43t30.5 51.5z" />
    <glyph glyph-name="quotesingle" unicode="'" horiz-adv-x="144" 
d="M54 371v296h36v-296h-36z" />
    <glyph glyph-name="parenleft" unicode="(" horiz-adv-x="243" 
d="M228 -46q-83 57 -131.5 159t-48.5 230t48.5 230t131.5 159l19 -26q-79 -59 -121 -155t-42 -208q0 -111 41.5 -207t121.5 -156z" />
    <glyph glyph-name="parenright" unicode=")" horiz-adv-x="243" 
d="M-3 -20q80 61 121.5 156t41.5 207t-42 207.5t-121 155.5l19 26q83 -57 131.5 -159t48.5 -230t-48.5 -230t-131.5 -159z" />
    <glyph glyph-name="asterisk" unicode="*" horiz-adv-x="391" 
d="M53 383l-18 24l139 90l-138 92l17 25l128 -90l-1 155h30l-1 -155l130 89l17 -24l-139 -92l139 -90l-16 -24l-131 87l1 -161h-30l1 161z" />
    <glyph glyph-name="plus" unicode="+" horiz-adv-x="502" 
d="M233 91v223h-200v35h200v223h35v-223h200v-35h-200v-223h-35z" />
    <glyph glyph-name="comma" unicode="," horiz-adv-x="152" 
d="M15 -56q14 6 31 18.5t23 25.5q-23 14 -23 40q0 17 8 29t22 12t22.5 -11t8.5 -31q0 -17 -7.5 -32.5t-19.5 -28.5t-27.5 -22.5t-31.5 -15.5z" />
    <glyph glyph-name="hyphen" unicode="-" horiz-adv-x="299" 
d="M45 248v40h209v-40h-209z" />
    <glyph glyph-name="period" unicode="." horiz-adv-x="151" 
d="M76 -11q-14 0 -22.5 12t-8.5 28t8.5 28t22.5 12t22 -12.5t8 -27.5t-8 -27.5t-22 -12.5z" />
    <glyph glyph-name="slash" unicode="/" horiz-adv-x="446" 
d="M0 5l417 747l29 -19l-415 -749z" />
    <glyph glyph-name="zero" unicode="0" horiz-adv-x="502" 
d="M152 18q-40 31 -66 80.5t-38 110.5t-12 121q0 61 12 122t38 110t66.5 80t98.5 31t98.5 -31t66.5 -80t38 -110t12 -122q0 -60 -12 -121t-38 -110.5t-66.5 -80.5t-98.5 -31t-99 31zM115 127q21 -46 54.5 -76.5t81.5 -30.5t81.5 30.5t54.5 76.5t31 100.5t10 103.5
q0 52 -10 107t-31 100t-54.5 73.5t-81.5 28.5t-81.5 -28.5t-54.5 -73.5t-31 -100t-10 -107q0 -49 10 -103.5t31 -100.5z" />
    <glyph glyph-name="one" unicode="1" horiz-adv-x="502" 
d="M274 0v620l-160 -114l-21 30l174 124h45v-660h-38z" />
    <glyph glyph-name="two" unicode="2" horiz-adv-x="502" 
d="M73 0v26q50 56 98.5 113t97.5 117q23 28 45.5 58t40 60.5t28.5 61t11 61.5q0 33 -11 60t-30.5 45.5t-46 28.5t-57.5 10q-57 0 -97 -30.5t-65 -73.5l-30 16q27 51 76.5 85.5t119.5 34.5q43 0 76.5 -13t56.5 -35.5t34.5 -52.5t11.5 -64q0 -41 -11 -77t-30 -69.5t-43 -65
t-50 -62.5q-17 -21 -42.5 -50.5t-50.5 -59t-46.5 -54t-31.5 -35.5h321v-35h-375z" />
    <glyph glyph-name="three" unicode="3" horiz-adv-x="502" 
d="M71 101q24 -39 64 -60t91 -21q34 0 65.5 9.5t55 29t37.5 48t14 66.5q0 37 -14.5 65.5t-38 48t-52.5 30.5t-59 14v29q20 3 46.5 13.5t50.5 28t40.5 43t16.5 58.5t-13 59t-34.5 43.5t-49.5 27t-58 9.5t-53.5 -7.5t-42 -20t-32.5 -28.5t-25 -33l-28 17q12 19 28.5 37.5
t39 33t52.5 23.5t70 9q41 0 75 -13t58 -35t37.5 -52t13.5 -63q0 -61 -39 -102.5t-99 -60.5q29 -6 56 -20t47.5 -36t32.5 -51.5t12 -65.5q0 -43 -16.5 -77.5t-44.5 -59t-66 -37.5t-81 -13q-64 0 -111.5 24t-76.5 69z" />
    <glyph glyph-name="four" unicode="4" horiz-adv-x="502" 
d="M40 204v46l325 410h29v-421h74v-35h-74v-204h-35v204h-319zM74 239h285v361z" />
    <glyph glyph-name="five" unicode="5" horiz-adv-x="502" 
d="M92 94q21 -31 59 -53t96 -22q39 0 71 13.5t55.5 37.5t36 58t12.5 75q0 45 -17 79t-47 58t-69.5 38.5t-84.5 19.5q-9 1 -21.5 1.5t-27.5 1t-31 0t-30 -0.5v260h329v-35h-293v-191h11q51 0 97.5 -7t84.5 -24q62 -26 98.5 -75.5t36.5 -125.5q0 -49 -15.5 -89t-43 -68
t-66.5 -43t-86 -15q-74 0 -118 26.5t-67 59.5z" />
    <glyph glyph-name="six" unicode="6" horiz-adv-x="502" 
d="M404 637q-45 -11 -91 -34.5t-86 -59.5t-70.5 -83t-43.5 -105q29 22 70 38t92 16q45 0 81 -16t62 -44t40 -66.5t14 -82.5q0 -45 -14 -84t-39.5 -67.5t-62 -45t-81.5 -16.5q-50 0 -89.5 19t-66.5 53.5t-41.5 82.5t-14.5 105q0 79 25.5 148.5t70 124t105.5 92.5t132 55z
M177 358q-41 -18 -70 -45q-2 -14 -4 -33.5t-2 -39.5q0 -43 10.5 -83t32 -71t54.5 -49.5t78 -18.5q38 0 67.5 14.5t50 39.5t31.5 57.5t11 68.5q0 37 -11 69.5t-32.5 57t-53 38.5t-72.5 14q-48 0 -90 -19z" />
    <glyph glyph-name="seven" unicode="7" horiz-adv-x="502" 
d="M169 0l244 625h-372v35h412v-29l-245 -631h-39z" />
    <glyph glyph-name="eight" unicode="8" horiz-adv-x="502" 
d="M132 323q26 15 55 22q-26 7 -50 19.5t-42 31.5t-29 45t-11 61q0 37 13 68.5t38 54.5t61.5 35.5t83.5 12.5t83.5 -12.5t61.5 -35.5t38 -54.5t13 -68.5q0 -35 -11 -61t-29 -45t-42 -31.5t-50 -19.5q29 -7 55 -21.5t45.5 -37t31 -51.5t11.5 -65q0 -43 -15.5 -77t-43 -57.5
t-65.5 -36t-83 -12.5t-83 12.5t-65.5 36t-43 57.5t-15.5 77q0 36 11.5 65t31 51.5t45.5 36.5zM102 443q13 -26 34.5 -44t51 -27.5t63.5 -9.5t63.5 9.5t51 27.5t34 44.5t12.5 60.5t-12.5 60t-34.5 43.5t-51 26.5t-63 9t-63.5 -9t-51 -26.5t-34 -43.5t-12.5 -60t12 -61z
M93 105q13 -28 36.5 -47.5t54.5 -29.5t67 -10t67 10t54.5 29.5t36.5 48t13 65.5q0 33 -13 62t-36.5 50.5t-54.5 34t-67 12.5t-67 -12.5t-54.5 -34t-36.5 -50.5t-13 -62q0 -37 13 -66z" />
    <glyph glyph-name="nine" unicode="9" horiz-adv-x="502" 
d="M118 23q52 13 99 38.5t85.5 62.5t67 84.5t42.5 105.5q-27 -22 -67.5 -38t-97.5 -16q-45 0 -81 15t-62 42.5t-40 65.5t-14 84q0 42 14 79.5t40 65.5t62 44.5t81 16.5q49 0 88.5 -19t67 -53.5t42 -82.5t14.5 -105q0 -82 -25.5 -152t-70 -124t-105.5 -91t-132 -53zM387 332
q19 12 31 24q3 28 3 64q0 43 -10.5 83t-32 71t-54.5 49.5t-78 18.5q-38 0 -67.5 -14.5t-50 -38.5t-31.5 -55t-11 -65q0 -82 43.5 -129.5t125.5 -47.5q23 0 47 5.5t45.5 14.5t39.5 20z" />
    <glyph glyph-name="colon" unicode=":" horiz-adv-x="151" 
d="M76 360q-14 0 -22.5 12t-8.5 28t8.5 28t22.5 12t22 -12.5t8 -27.5t-8 -27.5t-22 -12.5zM76 -11q-14 0 -22.5 12t-8.5 28t8.5 28t22.5 12t22 -12.5t8 -27.5t-8 -27.5t-22 -12.5z" />
    <glyph glyph-name="semicolon" unicode=";" horiz-adv-x="152" 
d="M76 360q-14 0 -22.5 12t-8.5 28t8.5 28t22.5 12t22 -12.5t8 -27.5t-8 -27.5t-22 -12.5zM15 -56q14 6 31 18.5t23 25.5q-23 14 -23 40q0 17 8 29t22 12t22.5 -11t8.5 -31q0 -17 -7.5 -32.5t-19.5 -28.5t-27.5 -22.5t-31.5 -15.5z" />
    <glyph glyph-name="less" unicode="&#x3c;" horiz-adv-x="502" 
d="M54 316v34l383 155l13 -35l-346 -137l349 -138l-13 -36z" />
    <glyph glyph-name="equal" unicode="=" horiz-adv-x="502" 
d="M33 381v35h437v-35h-437zM33 229v35h437v-35h-437z" />
    <glyph glyph-name="greater" unicode="&#x3e;" horiz-adv-x="502" 
d="M68 159l-13 36l348 138l-346 137l14 35l383 -155v-34z" />
    <glyph glyph-name="question" unicode="?" horiz-adv-x="340" 
d="M141 197v22q0 44 20.5 75t47.5 62q35 39 59.5 80t24.5 96q0 51 -33 80t-90 29q-26 0 -47 -8t-38 -20t-30 -26.5t-22 -27.5l-27 19q10 16 25.5 32.5t36 30.5t46 23t56.5 9q78 0 119 -39.5t41 -103.5q0 -29 -8 -55t-21.5 -51t-31.5 -48t-37 -46q-25 -30 -40 -53.5
t-15 -59.5v-20h-36zM159 -11q-14 0 -22.5 12t-8.5 28t8.5 28t22.5 12t22 -12.5t8 -27.5t-8 -27.5t-22 -12.5z" />
    <glyph glyph-name="at" unicode="@" horiz-adv-x="762" 
d="M155 -36q-14 19 -29.5 50t-29.5 70t-23 85.5t-9 96.5q0 93 21.5 169.5t64.5 131t107 84t150 29.5q63 0 110.5 -17t80 -46.5t49 -69.5t16.5 -86v-482q0 -45 22 -67t58 -22q14 0 28.5 3t25.5 7l10 -32q-15 -6 -35 -9.5t-39 -3.5q-20 0 -39 7t-34 22.5t-24.5 39t-9.5 56.5
v109q-26 -23 -61 -40t-83 -17q-37 0 -68.5 13.5t-55 40t-36.5 64t-13 85.5q0 43 13 79.5t36 62.5t55 40.5t70 14.5q49 0 82 -14t61 -34v68q0 47 -17 83.5t-46.5 61t-69.5 37.5t-86 13q-78 0 -135.5 -28.5t-95 -79.5t-56 -121.5t-18.5 -154.5q0 -41 7 -80t18 -74.5t26 -67
t31 -57.5zM625 347q-27 20 -62 35.5t-77 15.5q-33 0 -59 -12.5t-44 -34.5t-27 -52.5t-9 -65.5q0 -32 9 -62.5t26 -53.5t43 -37t61 -14q41 0 78 20.5t61 43.5v217z" />
    <glyph glyph-name="A" unicode="A" horiz-adv-x="540" 
d="M0 0l251 667h36l253 -667h-38l-84 220h-296l-83 -220h-39zM134 255h272l-138 367z" />
    <glyph glyph-name="B" unicode="B" horiz-adv-x="509" 
d="M81 0v667h176q91 0 139.5 -39.5t48.5 -128.5q0 -58 -30.5 -94.5t-96.5 -50.5q83 -4 122 -49t39 -121q0 -43 -14 -77t-38.5 -58t-59 -36.5t-76.5 -12.5h-210zM119 370h131q78 0 117.5 35.5t39.5 96.5q0 69 -39 99t-111 30h-138v-261zM119 36h168q75 0 114 42t39 108
q0 40 -13.5 68.5t-38 46t-59 25.5t-76.5 8h-134v-298z" />
    <glyph glyph-name="C" unicode="C" horiz-adv-x="545" 
d="M525 116q-32 -61 -81.5 -95t-127.5 -34q-67 0 -117 27.5t-83.5 74t-50 109t-16.5 133.5q0 79 19 143t52.5 110t81 71t104.5 25q43 0 76.5 -10t59 -28t44.5 -42.5t33 -52.5l-33 -17q-12 24 -28 45t-37.5 36.5t-49.5 25t-64 9.5q-44 0 -84 -20.5t-70 -60.5t-47.5 -99
t-17.5 -136q0 -65 15.5 -121.5t45 -98t72 -65.5t95.5 -24q34 0 61.5 9t49 24.5t38.5 36t29 43.5z" />
    <glyph glyph-name="D" unicode="D" horiz-adv-x="595" 
d="M81 0v667h159q150 0 233.5 -84t83.5 -240q0 -167 -81 -255t-236 -88h-159zM119 36h111q138 0 213 74.5t75 228.5q0 143 -75 217.5t-209 74.5h-115v-595z" />
    <glyph glyph-name="E" unicode="E" horiz-adv-x="478" 
d="M81 0v667h364v-36h-326v-256h238v-36h-239v-303h344v-36h-381z" />
    <glyph glyph-name="F" unicode="F" horiz-adv-x="442" 
d="M81 0v667h361v-36h-323v-266h237v-36h-238v-329h-37z" />
    <glyph glyph-name="G" unicode="G" horiz-adv-x="581" 
d="M531 24q-37 -16 -89 -26.5t-112 -10.5q-66 0 -118 24.5t-88 69.5t-55.5 108.5t-19.5 141.5t20.5 142t57 110t86 71.5t107.5 25.5q45 0 79 -10.5t59.5 -27.5t43.5 -39t30 -46l-32 -19q-10 19 -26 38.5t-38 35t-51 25t-65 9.5q-47 0 -89 -21t-74 -61.5t-50.5 -99
t-18.5 -134.5q0 -68 17 -125t48.5 -98t76.5 -64.5t101 -23.5q23 0 46.5 3t45 7.5t40 10t31.5 10.5v229h-137v36h174v-291z" />
    <glyph glyph-name="H" unicode="H" horiz-adv-x="621" 
d="M81 0v667h38v-303h383v303h38v-667h-38v328h-383v-328h-38z" />
    <glyph glyph-name="I" unicode="I" horiz-adv-x="200" 
d="M81 0v667h38v-667h-38z" />
    <glyph glyph-name="J" unicode="J" horiz-adv-x="207" 
d="M-39 -88q24 6 47 15.5t40.5 25.5t28.5 40t11 57v617h38v-621q0 -41 -13.5 -70t-35.5 -48.5t-50.5 -31.5t-58.5 -18z" />
    <glyph glyph-name="K" unicode="K" horiz-adv-x="527" 
d="M81 0v667h38v-344l338 344h46l-255 -263l279 -404h-45l-261 376l-102 -100v-276h-38z" />
    <glyph glyph-name="L" unicode="L" horiz-adv-x="450" 
d="M81 0v667h38v-631h331v-36h-369z" />
    <glyph glyph-name="M" unicode="M" horiz-adv-x="710" 
d="M81 0v667h54l226 -590l217 590h51v-667h-37v607l-225 -618h-10l-239 617v-606h-37z" />
    <glyph glyph-name="N" unicode="N" horiz-adv-x="640" 
d="M81 0v667h42l398 -603v603h38v-667h-41l-400 606v-606h-37z" />
    <glyph glyph-name="O" unicode="O" horiz-adv-x="631" 
d="M199 16q-50 29 -83.5 77.5t-50 111t-16.5 129.5q0 69 18 132t52.5 110.5t84 75.5t113.5 28q67 0 117 -29.5t83 -78t49 -111t16 -127.5t-16 -127.5t-49 -111t-83 -78.5t-117 -30t-118 29zM144 121q29 -44 72 -72t101 -28t100.5 28t70.5 73t41.5 101t13.5 111t-13.5 110.5
t-41 100.5t-70.5 73t-101 28q-60 0 -103 -28t-71 -72.5t-41.5 -100.5t-13.5 -111q0 -56 14 -112t42 -101z" />
    <glyph glyph-name="P" unicode="P" horiz-adv-x="508" 
d="M81 0v667h209q90 0 144.5 -49t54.5 -142q0 -47 -16 -82t-43 -58.5t-62 -35.5t-74 -12h-175v-288h-38zM119 324h171q38 0 67.5 11.5t50 31.5t31.5 47.5t11 59.5q0 69 -39 113t-122 44h-170v-307z" />
    <glyph glyph-name="Q" unicode="Q" horiz-adv-x="631" 
d="M492 -129q-32 2 -62 8t-55.5 19.5t-46 35t-32.5 55.5q-62 5 -108.5 36t-77.5 78.5t-46 107.5t-15 124q0 69 18 131.5t52 110t84 75.5t114 28q67 0 117 -29.5t83 -78t49 -110.5t16 -127q0 -62 -15 -121t-45 -107t-76 -80t-108 -38q7 -22 22.5 -37.5t36.5 -25t46 -14.5
t52 -6zM144 122q29 -45 72 -73t101 -28t100.5 28.5t70.5 73.5t41.5 101t13.5 111t-13.5 110.5t-41 100t-70.5 72.5t-101 28q-60 0 -103 -28t-71 -72.5t-41.5 -100t-13.5 -110.5q0 -56 14 -112t42 -101z" />
    <glyph glyph-name="R" unicode="R" horiz-adv-x="515" 
d="M81 0v667h208q94 0 146 -46t52 -135q0 -86 -47.5 -128.5t-135.5 -48.5l188 -309h-43l-190 309h-140v-309h-38zM119 344h167q79 0 121 34.5t42 107.5q0 69 -41 107t-122 38h-167v-287z" />
    <glyph glyph-name="S" unicode="S" horiz-adv-x="494" 
d="M67 122q29 -48 74 -74.5t105 -26.5q38 0 70 8.5t54.5 26.5t35 45t12.5 64t-14.5 64.5t-40 48.5t-60 37t-75.5 31q-26 10 -56.5 24t-57 35t-44.5 49.5t-18 67.5q0 38 15 67.5t42 49.5t64 30.5t80 10.5q42 0 73.5 -8.5t55.5 -22.5t42 -32t32 -37l-30 -23q-29 37 -70 63
t-105 26q-32 0 -60.5 -7t-51 -22t-35.5 -38.5t-13 -55.5q0 -31 16 -53.5t40 -38.5t50.5 -27.5t47.5 -19.5q41 -16 79 -34t67.5 -42.5t47.5 -59t18 -83.5q0 -86 -53 -132t-158 -46q-74 0 -126 28.5t-87 84.5z" />
    <glyph glyph-name="T" unicode="T" horiz-adv-x="452" 
d="M206 0v631h-206v36h452v-36h-207v-631h-39z" />
    <glyph glyph-name="U" unicode="U" horiz-adv-x="621" 
d="M114 237q0 -97 50 -155.5t146 -58.5q97 0 147 57t50 157v430h38v-445q0 -56 -17.5 -100t-49 -74t-74.5 -45.5t-94 -15.5t-94 15.5t-74 45.5t-48.5 74t-17.5 100v445h38v-430z" />
    <glyph glyph-name="V" unicode="V" horiz-adv-x="547" 
d="M262 0l-252 667h39l226 -601l222 601h40l-250 -667h-25z" />
    <glyph glyph-name="W" unicode="W" horiz-adv-x="745" 
d="M179 0l-169 667h36l152 -592l162 592h24l165 -592l149 592h37l-169 -667h-30l-164 579l-164 -579h-29z" />
    <glyph glyph-name="X" unicode="X" horiz-adv-x="474" 
d="M10 0l207 342l-189 325h42l168 -296l165 296h41l-187 -324l207 -343h-43l-183 313l-187 -313h-41z" />
    <glyph glyph-name="Y" unicode="Y" horiz-adv-x="496" 
d="M225 0v321l-225 346h42l203 -312l210 312h41l-233 -345v-322h-38z" />
    <glyph glyph-name="Z" unicode="Z" horiz-adv-x="534" 
d="M39 0v36l403 595h-386v36h428v-35l-403 -596h418v-36h-460z" />
    <glyph glyph-name="bracketleft" unicode="[" horiz-adv-x="186" 
d="M74 -143v879h112v-32h-76v-815h76v-32h-112z" />
    <glyph glyph-name="backslash" unicode="\" horiz-adv-x="445" 
d="M414 -16l-414 749l29 19l416 -747z" />
    <glyph glyph-name="bracketright" unicode="]" horiz-adv-x="186" 
d="M0 -143v32h76v815h-76v32h112v-879h-112z" />
    <glyph glyph-name="asciicircum" unicode="^" horiz-adv-x="502" 
d="M66 316l165 353h38l167 -350l-32 -15l-154 331l-155 -333z" />
    <glyph glyph-name="underscore" unicode="_" horiz-adv-x="499" 
d="M0 -208v32h499v-32h-499z" />
    <glyph glyph-name="grave" unicode="`" horiz-adv-x="192" 
d="M0 678l28 32l164 -141l-17 -20z" />
    <glyph glyph-name="a" unicode="a" horiz-adv-x="443" 
d="M346 0l-3 42q-24 -24 -58 -38.5t-89 -14.5q-71 0 -113 38t-42 107q0 53 25.5 88t67.5 55t96.5 28.5t111.5 9.5v31q0 52 -29.5 81.5t-84.5 29.5q-40 0 -71.5 -18t-49.5 -39l-25 22q22 25 57 46t88 21q77 0 114 -38.5t37 -109.5v-341h-32zM342 282q-47 -1 -94 -7t-85 -22.5
t-62 -45.5t-24 -74q0 -29 10 -50t27.5 -34.5t40 -20.5t47.5 -7q44 0 80.5 18.5t59.5 44.5v198z" />
    <glyph glyph-name="b" unicode="b" horiz-adv-x="497" 
d="M105 449q21 15 53.5 27.5t79.5 12.5q43 0 81.5 -15t67.5 -45.5t46.5 -76.5t17.5 -108q0 -59 -18 -106t-48.5 -80t-72 -51t-88.5 -18q-48 0 -88 8.5t-67 19.5v650h36v-218zM105 42q25 -10 56 -16t56 -6q43 0 79.5 16.5t63 46t41 70.5t14.5 91t-14 90t-39 67.5t-58.5 42.5
t-72.5 15q-37 0 -68.5 -13.5t-57.5 -33.5v-370z" />
    <glyph glyph-name="c" unicode="c" horiz-adv-x="442" 
d="M418 79q-12 -18 -27 -34t-35.5 -28.5t-46 -20t-58.5 -7.5q-46 0 -83.5 17.5t-64.5 50t-41.5 78.5t-14.5 104q0 59 15.5 105.5t42.5 78.5t64 49t80 17q34 0 60 -8t45 -21t32 -30t23 -36l-31 -16q-8 15 -18.5 29t-26 25t-36 18t-48.5 7q-40 0 -71 -17.5t-52 -47.5
t-32 -69.5t-11 -83.5q0 -47 11.5 -87t33.5 -68.5t53.5 -44.5t71.5 -16q48 0 80.5 20t55.5 55z" />
    <glyph glyph-name="d" unicode="d" horiz-adv-x="497" 
d="M398 0l-6 44q-20 -23 -55.5 -39t-84.5 -16q-47 0 -85 17t-65 49.5t-41.5 78.5t-14.5 105t16.5 105.5t46 78.5t68.5 49t84 17q51 0 81.5 -12t49.5 -28v218h36v-667h-30zM392 407q-20 21 -53 35.5t-75 14.5q-39 0 -72 -15t-57.5 -43t-38.5 -68.5t-14 -91.5
q0 -102 46.5 -160t125.5 -58q48 0 83 20.5t55 47.5v318z" />
    <glyph glyph-name="e" unicode="e" horiz-adv-x="471" 
d="M81 250q0 -109 43.5 -169t129.5 -60q55 0 89 26t56 66l30 -16q-11 -20 -26 -39.5t-36.5 -34.5t-49.5 -24.5t-65 -9.5q-98 0 -151.5 66.5t-53.5 182.5q0 59 15 105.5t41 79t62.5 49.5t79.5 17q45 0 79.5 -17t59 -48t38 -75.5t15.5 -98.5h-356zM397 283q-3 46 -17 79
t-35 54t-47 31t-53 10q-31 0 -58 -10.5t-49 -31.5t-36.5 -54t-19.5 -78h315z" />
    <glyph glyph-name="f" unicode="f" horiz-adv-x="243" 
d="M86 0v444h-71v32h71v70q0 64 30.5 99t84.5 35q33 0 52 -6.5t30 -13.5l-15 -31q-11 7 -27 13t-39 6q-37 0 -59 -25t-22 -83v-64h110v-32h-109v-444h-36z" />
    <glyph glyph-name="g" unicode="g" horiz-adv-x="490" 
d="M393 437q16 -14 29.5 -41.5t13.5 -63.5t-14.5 -66.5t-40 -52.5t-60.5 -34.5t-76 -12.5q-25 0 -43 3t-31 7q-24 -6 -41.5 -18.5t-17.5 -29.5q0 -27 34.5 -38t112.5 -19q34 -3 68 -7.5t52 -9.5q53 -13 75.5 -41.5t22.5 -72.5q0 -69 -51.5 -104.5t-156.5 -35.5
q-113 0 -171 35t-58 109q0 50 25.5 78.5t57.5 42.5q-17 8 -30.5 21.5t-13.5 39.5q0 23 15.5 39.5t42.5 25.5q-31 18 -54.5 50.5t-23.5 88.5q0 35 14.5 64t39.5 50t59 33t74 12q45 0 72 -8.5t48 -20.5l51 60l26 -22zM104 273q12 -24 32 -40.5t47.5 -25t59.5 -8.5
q29 0 57.5 7.5t51 24t36.5 42.5t14 62q0 34 -15 57.5t-38 38t-50 21t-52 6.5q-31 0 -59 -9t-49 -26t-33.5 -40.5t-12.5 -53.5q0 -32 11 -56zM178 49q-12 2 -20 4q-33 -10 -58.5 -37t-25.5 -69q0 -33 14 -55.5t39.5 -36t61 -19t79.5 -5.5q82 0 128.5 25.5t46.5 79.5
q0 60 -46 80q-17 8 -51 13.5t-88 10.5q-11 1 -25 2.5t-28 3.5t-27 3z" />
    <glyph glyph-name="h" unicode="h" horiz-adv-x="505" 
d="M69 0v667h36v-234q29 23 67 39.5t92 16.5q90 0 133 -46t43 -134v-309h-36v307q0 80 -38.5 114.5t-105.5 34.5q-48 0 -85.5 -18t-69.5 -44v-394h-36z" />
    <glyph glyph-name="i" unicode="i" horiz-adv-x="175" 
d="M87 594q-11 0 -19 11t-8 27q0 15 7.5 25t19.5 10t20 -10t8 -25q0 -17 -8 -27.5t-20 -10.5zM69 0v476h36v-476h-36z" />
    <glyph glyph-name="j" unicode="j" horiz-adv-x="173" 
d="M85 594q-11 0 -19 11t-8 27q0 15 7.5 25t19.5 10t20 -10t8 -25q0 -17 -8 -27.5t-20 -10.5zM-15 -167q47 28 65.5 68.5t18.5 94.5v480h36v-480q0 -72 -24.5 -116t-78.5 -76z" />
    <glyph glyph-name="k" unicode="k" horiz-adv-x="440" 
d="M69 0v667h36v-412l234 221h47l-160 -155l214 -321h-44l-198 296l-93 -87v-209h-36z" />
    <glyph glyph-name="l" unicode="l" horiz-adv-x="174" 
d="M69 0v667h36v-667h-36z" />
    <glyph glyph-name="m" unicode="m" horiz-adv-x="772" 
d="M69 0v476h33l2 -49q23 21 61 41.5t92 20.5q50 0 78.5 -16t45.5 -39q26 22 63 38.5t93 16.5q79 0 124.5 -46t45.5 -131v-312h-36v311q0 73 -39 108.5t-96 35.5q-45 0 -77.5 -14t-59.5 -37q7 -14 12 -37t5 -47v-320h-36v320q0 57 -31.5 96t-97.5 39q-44 0 -82.5 -21.5
t-63.5 -46.5v-387h-36z" />
    <glyph glyph-name="n" unicode="n" horiz-adv-x="507" 
d="M69 0v476h32l4 -48q15 12 31 23t35.5 19.5t43.5 13.5t54 5q82 0 127.5 -46.5t45.5 -142.5v-300h-36v307q0 69 -35.5 108.5t-104.5 39.5q-53 0 -92.5 -20.5t-68.5 -47.5v-387h-36z" />
    <glyph glyph-name="o" unicode="o" horiz-adv-x="507" 
d="M164 10q-38 21 -64 56.5t-39.5 81t-13.5 94.5q0 48 13 93t39 79t64.5 54.5t89.5 20.5q50 0 88.5 -20.5t65 -54.5t40 -79.5t13.5 -94.5q0 -50 -13.5 -95.5t-40 -80t-65 -55t-88.5 -20.5t-89 21zM125 91q21 -31 53 -50.5t75 -19.5t75 19.5t53.5 51t32 70.5t10.5 79
t-10.5 79t-32 69.5t-53.5 49t-75 18.5t-75 -18.5t-53 -49t-31.5 -69t-10.5 -78.5t10.5 -79.5t31.5 -71.5z" />
    <glyph glyph-name="p" unicode="p" horiz-adv-x="496" 
d="M69 -189v665h32l4 -44q10 9 23 19t30 18.5t38.5 14t48.5 5.5q97 0 151 -64t54 -182q0 -57 -15 -104t-43.5 -80t-69.5 -51.5t-92 -18.5q-44 0 -75 11.5t-50 25.5v-215h-36zM105 65q23 -18 54.5 -30.5t71.5 -12.5q85 0 134 59t49 160q0 47 -10 86.5t-31.5 68.5t-54.5 45
t-78 16q-44 0 -77.5 -20t-57.5 -44v-328z" />
    <glyph glyph-name="q" unicode="q" horiz-adv-x="497" 
d="M392 -189v221q-20 -16 -54 -29.5t-87 -13.5q-44 0 -81.5 16.5t-65 48t-43 78t-15.5 105.5q0 57 17.5 103.5t48.5 79.5t74.5 51t94.5 18q52 0 89.5 -7.5t57.5 -13.5v-657h-36zM392 440q-21 7 -48 12t-60 5q-42 0 -79 -15t-64 -43.5t-42.5 -70t-15.5 -93.5
q0 -55 14.5 -95.5t39 -66.5t57 -39t67.5 -13q43 0 78 17t53 36v366z" />
    <glyph glyph-name="r" unicode="r" horiz-adv-x="286" 
d="M69 0v476h31l3 -53q23 28 53.5 46t70.5 18q36 0 56 -6l-6 -34q-10 3 -23 5t-28 2q-18 0 -35.5 -6.5t-33 -17t-29 -23.5t-23.5 -27v-380h-36z" />
    <glyph glyph-name="s" unicode="s" horiz-adv-x="372" 
d="M64 87q20 -29 51 -47.5t76 -18.5q52 0 85 24.5t33 69.5q0 27 -7.5 46.5t-23 34.5t-40.5 27t-60 24q-67 23 -94.5 52t-27.5 77q0 49 36 81t105 32q55 0 89 -21t51 -52l-29 -18q-15 25 -42 43t-69 18q-53 0 -78.5 -23.5t-25.5 -58.5q0 -20 5.5 -34t19.5 -25.5t37.5 -22
t59.5 -23.5q67 -23 98.5 -58t31.5 -99q0 -62 -44 -94t-110 -32q-62 0 -99.5 24t-56.5 54z" />
    <glyph glyph-name="t" unicode="t" horiz-adv-x="278" 
d="M132 96q0 -39 16.5 -57t47.5 -18q19 0 31.5 4.5t26.5 13.5l16 -28q-17 -11 -35.5 -16.5t-48.5 -5.5q-39 0 -64 25.5t-25 72.5v357h-82v32h82v126h36v-126h125v-32h-126v-348z" />
    <glyph glyph-name="u" unicode="u" horiz-adv-x="505" 
d="M101 167q0 -39 10.5 -66.5t29.5 -45t45 -25.5t57 -8q51 0 89.5 21.5t67.5 53.5v379h36v-476h-31l-4 54q-26 -25 -64 -45t-97 -20q-38 0 -70.5 10.5t-55.5 32t-36 55t-13 78.5v311h36v-309z" />
    <glyph glyph-name="v" unicode="v" horiz-adv-x="410" 
d="M189 0l-189 476h40l167 -430l165 430h38l-186 -476h-35z" />
    <glyph glyph-name="w" unicode="w" horiz-adv-x="642" 
d="M156 0l-156 476h37l134 -415l132 415h30l132 -414l140 414h37l-163 -476h-29l-132 410l-133 -410h-29z" />
    <glyph glyph-name="x" unicode="x" horiz-adv-x="367" 
d="M0 0l165 243l-157 233h39l139 -205l134 205h38l-152 -233l161 -243h-39l-142 216l-147 -216h-39z" />
    <glyph glyph-name="y" unicode="y" horiz-adv-x="425" 
d="M17 -154q14 -6 32 -12t32 -6q26 0 42.5 12t27.5 40l43 112l-194 484h40l174 -435l173 435h38l-243 -607q-15 -38 -37.5 -54.5t-60.5 -16.5q-22 0 -42.5 5t-37.5 13z" />
    <glyph glyph-name="z" unicode="z" horiz-adv-x="450" 
d="M42 0v36l316 408h-305v32h344v-37l-316 -407h323v-32h-362z" />
    <glyph glyph-name="braceleft" unicode="{" horiz-adv-x="232" 
d="M209 -64q-41 1 -70.5 29t-29.5 90v150q0 31 -4.5 51t-14 32.5t-25.5 18.5t-40 10v33q24 3 40 9.5t25.5 18.5t14 32t4.5 51v151q0 62 29.5 90t70.5 29l3 -30q-43 -2 -56 -28t-13 -66v-146q0 -27 -3.5 -48.5t-12.5 -37t-25.5 -26t-42.5 -16.5q26 -6 42.5 -16.5t25.5 -26
t12.5 -36.5t3.5 -49v-145q0 -41 13 -66.5t56 -28.5z" />
    <glyph glyph-name="bar" unicode="|" horiz-adv-x="198" 
d="M81 -74v812h36v-812h-36z" />
    <glyph glyph-name="braceright" unicode="}" horiz-adv-x="232" 
d="M20 -35q43 3 56 28.5t13 66.5v145q0 28 3.5 49t12.5 36.5t25.5 26t42.5 16.5q-26 6 -42.5 16.5t-25.5 26t-12.5 37t-3.5 48.5v146q0 40 -13 66t-56 28l3 30q20 0 38.5 -7t32 -21.5t21.5 -37t8 -53.5v-151q0 -31 4.5 -51t14 -32t25.5 -18.5t40 -9.5v-33q-24 -4 -40 -10
t-25.5 -18.5t-14 -32.5t-4.5 -51v-150q0 -31 -8 -53.5t-21.5 -37t-32 -21.5t-38.5 -7z" />
    <glyph glyph-name="asciitilde" unicode="~" horiz-adv-x="428" 
d="M10 537q8 56 41.5 83t84.5 27q30 0 52 -10.5t39 -23.5q9 -6 19 -14.5t21 -16t22 -12.5t22 -5q35 0 52.5 23.5t22.5 58.5h32q-4 -57 -35 -84t-74 -27q-14 0 -27 5t-26 12q-13 8 -23.5 16t-18.5 13q-17 11 -35.5 23.5t-40.5 12.5q-42 0 -67 -24.5t-30 -56.5h-31z" />
    <glyph glyph-name="uni00A0" unicode="&#xa0;" horiz-adv-x="200" 
 />
    <glyph glyph-name="exclamdown" unicode="&#xa1;" horiz-adv-x="161" 
d="M80 409q-14 0 -22 12.5t-8 27.5t8 27.5t22 12.5t22.5 -12t8.5 -28t-8.5 -28t-22.5 -12zM61 -196v465h36v-465h-36z" />
    <glyph glyph-name="cent" unicode="&#xa2;" horiz-adv-x="502" 
d="M245 -4v145q-63 12 -104.5 60t-41.5 136q0 40 11.5 72.5t31.5 56t46.5 37.5t56.5 18v146h32v-145q34 -1 61.5 -13.5t45.5 -31.5l-24 -24q-17 17 -37 25.5t-46 9.5v-314q50 3 85 41l23 -23q-20 -23 -46.5 -36.5t-61.5 -15.5v-144h-32zM245 487q-45 -5 -77.5 -42.5
t-32.5 -107.5q0 -76 31 -114.5t79 -47.5v312z" />
    <glyph glyph-name="sterling" unicode="&#xa3;" horiz-adv-x="502" 
d="M98 0v262h-70v34h69v182q0 97 44 146t124 49q60 0 94.5 -27t56.5 -69l-34 -16q-16 31 -43.5 54.5t-74.5 23.5q-131 0 -131 -166v-177h221v-34h-221v-228h295v-34h-330z" />
    <glyph glyph-name="currency" unicode="&#xa4;" horiz-adv-x="668" 
d="M51 37l-22 23l154 167q-26 38 -38 73t-12 70t11 68t35 71l-150 160l27 25l146 -159q37 29 70 41.5t67 12.5q33 0 64.5 -11.5t66.5 -38.5l142 155l27 -25l-144 -154q26 -39 38 -73.5t12 -71.5q0 -38 -12.5 -74t-41.5 -75l148 -162l-22 -22l-149 161q-36 -25 -66.5 -36
t-62.5 -11q-34 0 -66 12.5t-67 38.5zM216 238q24 -25 55.5 -39.5t67.5 -14.5t67.5 14.5t55.5 39.5t37.5 59t13.5 72q0 39 -13.5 72.5t-37.5 59t-55.5 40t-67.5 14.5t-67.5 -14.5t-55.5 -40t-37.5 -59t-13.5 -72.5q0 -38 13.5 -72t37.5 -59z" />
    <glyph glyph-name="yen" unicode="&#xa5;" horiz-adv-x="502" 
d="M219 0v217h-159v33h159v67l-25 45h-134v33h117l-152 264h41l173 -311l184 311h38l-159 -264h114v-33h-132l-27 -44v-68h159v-33h-159v-217h-38z" />
    <glyph glyph-name="brokenbar" unicode="&#xa6;" horiz-adv-x="212" 
d="M88 462v276h36v-276h-36zM88 -74v275h36v-275h-36z" />
    <glyph glyph-name="section" unicode="&#xa7;" horiz-adv-x="421" 
d="M93 -64q21 -24 47.5 -37.5t56.5 -13.5q50 0 79 22t29 63q0 21 -5.5 37.5t-20 34.5t-40 39.5t-66.5 51.5q-56 42 -78.5 75.5t-22.5 77.5q0 60 34.5 93t89.5 50q-17 16 -34 32.5t-30 35t-21 39t-8 43.5q0 45 34 73t91 28q41 0 69.5 -15t43.5 -34l-20 -22q-15 17 -37 29
t-58 12q-40 0 -64 -18.5t-24 -53.5q0 -21 7.5 -38.5t22 -35.5t35 -37t46.5 -42q34 -30 56 -53t34.5 -42.5t17 -39t4.5 -43.5q0 -53 -31 -84t-78 -49q26 -21 43 -38.5t26.5 -34t13.5 -33.5t4 -37q0 -51 -39 -83t-100 -32q-45 0 -75 16t-55 41zM176 170q22 -17 47 -36
q22 7 41 17t33 23.5t22 31.5t8 41q0 22 -5.5 40.5t-18 37.5t-32.5 38.5t-49 43.5q-49 -14 -83 -41.5t-34 -78.5q0 -24 9 -43.5t25 -37.5t37 -36z" />
    <glyph glyph-name="dieresis" unicode="&#xa8;" horiz-adv-x="200" 
d="M167 594q-11 0 -19 11t-8 27q0 15 7.5 25t19.5 10t20 -10t8 -25q0 -17 -8 -27.5t-20 -10.5zM33 594q-11 0 -19 11t-8 27q0 15 7.5 25t19.5 10t20 -10t8 -25q0 -17 -8 -27.5t-20 -10.5z" />
    <glyph glyph-name="copyright" unicode="&#xa9;" horiz-adv-x="776" 
d="M244 -48q-64 29 -109.5 79.5t-70.5 119t-25 146.5t25 145.5t70.5 118t110 79.5t143.5 29t143 -29t110 -79.5t71 -118t25 -145.5t-25 -146.5t-71 -119t-110 -79.5t-143 -29t-144 29zM158 58q41 -47 99.5 -75.5t130.5 -28.5t130.5 28.5t99.5 75.5t63 109t22 130t-22 130
t-63 109t-99.5 75t-130.5 28t-130.5 -28t-99.5 -75t-63 -109t-22 -130t22 -130t63 -109zM526 145q-21 -31 -51.5 -50.5t-78.5 -19.5q-34 0 -65 13t-54 40t-37 68.5t-14 98.5q0 58 14 100t37.5 70t54.5 41.5t65 13.5q48 0 79.5 -22t46.5 -50l-29 -16q-16 25 -37 40.5
t-62 15.5q-58 0 -96 -50t-38 -143q0 -91 38.5 -139.5t97.5 -48.5q36 0 60.5 16t41.5 42z" />
    <glyph glyph-name="ordfeminine" unicode="&#xaa;" horiz-adv-x="303" 
d="M241 374l-3 32q-14 -14 -38.5 -28t-59.5 -14q-48 0 -81.5 27t-33.5 79q0 35 17 60.5t45.5 42t67 25t82.5 8.5v21q0 40 -21.5 60t-59.5 20q-28 0 -49 -10.5t-38 -30.5l-21 17q16 21 44 37t66 16q55 0 84 -30t29 -87v-245h-30zM237 577q-34 0 -66 -6t-57 -18.5t-40 -33
t-15 -49.5q0 -38 22.5 -56.5t58.5 -18.5q33 0 56.5 13.5t40.5 33.5v135z" />
    <glyph glyph-name="guillemotleft" unicode="&#xab;" horiz-adv-x="453" 
d="M398 71l-178 180l166 189l24 -24l-145 -162l156 -160zM224 62l-184 189l168 196l23 -23l-146 -170l163 -169z" />
    <glyph glyph-name="logicalnot" unicode="&#xac;" horiz-adv-x="502" 
d="M33 314v35h435v-258h-35v223h-400z" />
    <glyph glyph-name="uni00AD" unicode="&#xad;" horiz-adv-x="833" 
 />
    <glyph glyph-name="registered" unicode="&#xae;" horiz-adv-x="776" 
d="M244 -48q-64 29 -109.5 79.5t-70.5 119t-25 146.5t25 145.5t70.5 118t110 79.5t143.5 29t143 -29t110 -79.5t71 -118t25 -145.5t-25 -146.5t-71 -119t-110 -79.5t-143 -29t-144 29zM158 58q41 -47 99.5 -75.5t130.5 -28.5t130.5 28.5t99.5 75.5t63 109t22 130t-22 130
t-63 109t-99.5 75t-130.5 28t-130.5 -28t-99.5 -75t-63 -109t-22 -130t22 -130t63 -109zM274 86v429h129q59 0 95.5 -30t36.5 -85q0 -29 -8.5 -49t-22.5 -33.5t-33 -21.5t-40 -12l107 -198h-38l-104 196h-90v-196h-32zM306 313h94q48 0 74.5 19.5t26.5 67.5q0 42 -26 64
t-71 22h-98v-173z" />
    <glyph glyph-name="macron" unicode="&#xaf;" horiz-adv-x="282" 
d="M0 616v33h282v-33h-282z" />
    <glyph glyph-name="degree" unicode="&#xb0;" horiz-adv-x="351" 
d="M123 404q-24 11 -42.5 29.5t-29 43.5t-10.5 53q0 27 10.5 52t29 43.5t43 30t52.5 11.5t52.5 -11t42.5 -30t28.5 -43.5t10.5 -52.5t-10.5 -53t-28.5 -43.5t-42.5 -29.5t-52.5 -11t-53 11zM104 455q14 -14 32.5 -22t39.5 -8q22 0 41 8.5t32.5 23t21.5 33.5t8 40t-7.5 40
t-21.5 33.5t-33 23.5t-41 9t-40.5 -8.5t-32.5 -23t-22 -33.5t-8 -41t8.5 -41t22.5 -34z" />
    <glyph glyph-name="plusminus" unicode="&#xb1;" horiz-adv-x="502" 
d="M233 91v223h-200v35h200v223h35v-223h200v-35h-200v-223h-35zM33 0v35h435v-35h-435z" />
    <glyph glyph-name="twosuperior" unicode="&#xb2;" 
d="M37 337v21q32 29 57.5 53t53.5 54q27 29 43 58.5t16 58.5q0 27 -17 44.5t-51 17.5q-29 0 -47 -13.5t-32 -34.5l-26 15q7 12 16 23t22 19.5t30 14t40 5.5q52 0 76 -23.5t24 -62.5q0 -41 -20 -73t-50 -65q-8 -9 -19.5 -20t-23.5 -22.5t-23.5 -22t-19.5 -18.5h166v-29h-215z
" />
    <glyph glyph-name="threesuperior" unicode="&#xb3;" 
d="M55 402q12 -17 30.5 -28.5t50.5 -11.5q75 0 75 61q0 37 -26 54t-60 18v25q31 3 55.5 18.5t24.5 46.5q0 26 -18.5 42.5t-53.5 16.5q-23 0 -42 -11t-32 -28l-23 17q17 22 41 36.5t62 14.5q48 0 75 -24.5t27 -60.5q0 -31 -21 -51t-53 -28q35 -7 57.5 -27t22.5 -58
q0 -43 -29.5 -67.5t-80.5 -24.5q-42 0 -68 15t-40 38z" />
    <glyph glyph-name="acute" unicode="&#xb4;" horiz-adv-x="192" 
d="M17 549l-17 20l164 141l28 -32z" />
    <glyph glyph-name="mu" unicode="&#xb5;" horiz-adv-x="544" 
d="M80 -189v665h36v-298q0 -33 12 -61.5t32 -50t47 -33.5t56 -12q31 0 57.5 8.5t46 22t32.5 31.5t18 36q4 14 5 30.5t1 33.5v293h36v-381q0 -34 7 -54t34 -20q8 0 15.5 2t14.5 4l6 -30q-8 -3 -18.5 -5.5t-21.5 -2.5q-35 0 -54 21.5t-19 53.5q-23 -31 -62.5 -53t-94.5 -22
q-53 0 -92 22t-58 64v-264h-36z" />
    <glyph glyph-name="paragraph" unicode="&#xb6;" horiz-adv-x="460" 
d="M359 -145v812h36v-812h-36zM225 -145v443q-44 0 -80 14.5t-61.5 39.5t-39.5 58.5t-14 71.5t13.5 72t37.5 59t56 39.5t68 14.5h55v-812h-35zM205 633q-24 0 -48.5 -10t-44 -29t-32 -47.5t-12.5 -65.5t13.5 -65t35.5 -46.5t50.5 -28t57.5 -9.5v301h-20z" />
    <glyph glyph-name="periodcentered" unicode="&#xb7;" horiz-adv-x="263" 
d="M131 323q-17 0 -29 13.5t-12 32.5t12 32.5t29 13.5q18 0 30 -13.5t12 -32.5t-12 -32.5t-30 -13.5z" />
    <glyph glyph-name="cedilla" unicode="&#xb8;" horiz-adv-x="103" 
d="M3 -174l51 130h47l-70 -130h-28z" />
    <glyph glyph-name="onesuperior" unicode="&#xb9;" 
d="M140 337v293l-93 -54l-15 25l108 64h36v-328h-36z" />
    <glyph glyph-name="ordmasculine" unicode="&#xba;" horiz-adv-x="351" 
d="M110 380q-28 16 -47 42.5t-28.5 60.5t-9.5 70t9.5 69t28 58.5t46.5 40.5t66 15q37 0 65.5 -15t47.5 -40.5t28.5 -58.5t9.5 -69t-9.5 -70t-28.5 -60.5t-47.5 -42.5t-65.5 -16t-65 16zM87 443q15 -22 36.5 -36t51.5 -14t52 14t36.5 37t21.5 51.5t7 57.5t-7 56.5t-21.5 49.5
t-36.5 35t-52 13t-52 -13.5t-36 -35t-21 -49.5t-7 -56q0 -29 7 -58t21 -52z" />
    <glyph glyph-name="guillemotright" unicode="&#xbb;" horiz-adv-x="453" 
d="M245 62l-23 23l146 169l-163 169l24 24l184 -189zM67 68l-24 25l145 161l-156 160l23 24l177 -180z" />
    <glyph glyph-name="onequarter" unicode="&#xbc;" horiz-adv-x="708" 
d="M67 2l-25 27l605 641l24 -22zM150 337v293l-93 -54l-15 25l108 64h36v-328h-36zM419 94v30l165 206h30v-207h45v-29h-45v-92h-34v92h-161zM456 123h124v157z" />
    <glyph glyph-name="onehalf" unicode="&#xbd;" horiz-adv-x="710" 
d="M151 337v293l-93 -54l-15 25l108 64h36v-328h-36zM58 2l-25 27l605 641l24 -22zM450 5v21q32 29 57.5 53t53.5 54q27 29 43 58.5t16 58.5q0 27 -17 44.5t-51 17.5q-29 0 -47 -13.5t-32 -34.5l-26 15q7 12 16 23t22 19.5t30 14t40 5.5q52 0 76 -23.5t24 -62.5
q0 -41 -20 -73t-50 -65q-8 -9 -19.5 -20t-23.5 -22.5t-23.5 -22t-19.5 -18.5h166v-29h-215z" />
    <glyph glyph-name="threequarters" unicode="&#xbe;" horiz-adv-x="684" 
d="M87 2l-25 27l605 641l24 -22zM62 402q12 -17 30.5 -28.5t50.5 -11.5q75 0 75 61q0 37 -26 54t-60 18v25q31 3 55.5 18.5t24.5 46.5q0 26 -18.5 42.5t-53.5 16.5q-23 0 -42 -11t-32 -28l-23 17q17 22 41 36.5t62 14.5q48 0 75 -24.5t27 -60.5q0 -31 -21 -51t-53 -28
q35 -7 57.5 -27t22.5 -58q0 -43 -29.5 -67.5t-80.5 -24.5q-42 0 -68 15t-40 38zM420 94v30l165 206h30v-207h45v-29h-45v-92h-34v92h-161zM457 123h124v157z" />
    <glyph glyph-name="questiondown" unicode="&#xbf;" horiz-adv-x="340" 
d="M181 409q-14 0 -22 12.5t-8 27.5t8 27.5t22 12.5t22.5 -12t8.5 -28t-8.5 -28t-22.5 -12zM334 -112q-10 -16 -25.5 -32.5t-36 -30.5t-46 -23t-56.5 -9q-78 0 -119 39.5t-41 103.5q0 29 8 55t21.5 51t31.5 48t37 46q25 30 40 53.5t15 59.5v20h36v-22q0 -44 -20.5 -75
t-47.5 -62q-35 -39 -59.5 -80t-24.5 -96q0 -51 33 -80t90 -29q25 0 46.5 7.5t38.5 19.5t30 26.5t22 28.5z" />
    <glyph glyph-name="Agrave" unicode="&#xc0;" horiz-adv-x="540" 
d="M0 0l251 667h36l253 -667h-38l-84 220h-296l-83 -220h-39zM134 255h272l-138 367zM164 842l28 32l164 -141l-17 -20z" />
    <glyph glyph-name="Aacute" unicode="&#xc1;" horiz-adv-x="540" 
d="M0 0l251 667h36l253 -667h-38l-84 220h-296l-83 -220h-39zM134 255h272l-138 367zM195 713l-17 20l164 141l28 -32z" />
    <glyph glyph-name="Acircumflex" unicode="&#xc2;" horiz-adv-x="540" 
d="M0 0l251 667h36l253 -667h-38l-84 220h-296l-83 -220h-39zM134 255h272l-138 367zM131 728l123 154h36l120 -154l-26 -18l-112 142l-115 -142z" />
    <glyph glyph-name="Atilde" unicode="&#xc3;" horiz-adv-x="540" 
d="M0 0l251 667h36l253 -667h-38l-84 220h-296l-83 -220h-39zM134 255h272l-138 367zM103 771q15 29 37 48t54 19q20 0 39 -8t37 -19q11 -7 26 -15.5t29 -8.5q22 0 36 12t27 37l27 -13q-29 -66 -91 -66q-14 0 -31.5 8t-37.5 19q-23 14 -34 19.5t-27 5.5q-36 0 -64 -52z" />
    <glyph glyph-name="Adieresis" unicode="&#xc4;" horiz-adv-x="540" 
d="M0 0l251 667h36l253 -667h-38l-84 220h-296l-83 -220h-39zM134 255h272l-138 367zM341 772q-11 0 -19 11t-8 27q0 15 7.5 25t19.5 10t20 -10t8 -25q0 -17 -8 -27.5t-20 -10.5zM207 772q-11 0 -19 11t-8 27q0 15 7.5 25t19.5 10t20 -10t8 -25q0 -17 -8 -27.5t-20 -10.5z
" />
    <glyph glyph-name="Aring" unicode="&#xc5;" horiz-adv-x="540" 
d="M0 0l250 665q-28 6 -47 27q-26 29 -26 69q0 41 26 69.5t68 28.5t67.5 -28.5t25.5 -68.5q0 -41 -26 -70q-20 -22 -51 -27l253 -665h-38l-84 220h-296l-83 -220h-39zM134 255h272l-138 367zM336 762q0 29 -19 50t-46 21q-28 0 -47 -21t-19 -50t19 -50.5t47 -21.5
q27 0 46 21t19 50v1z" />
    <glyph glyph-name="AE" unicode="&#xc6;" horiz-adv-x="828" 
d="M0 0l421 667h374v-36h-326v-256h238v-36h-239v-303h344v-36h-381v224h-247l-143 -224h-41zM205 260h226v358z" />
    <glyph glyph-name="Ccedilla" unicode="&#xc7;" horiz-adv-x="545" 
d="M525 116q-32 -61 -81.5 -95t-127.5 -34q-67 0 -117 27.5t-83.5 74t-50 109t-16.5 133.5q0 79 19 143t52.5 110t81 71t104.5 25q43 0 76.5 -10t59 -28t44.5 -42.5t33 -52.5l-33 -17q-12 24 -28 45t-37.5 36.5t-49.5 25t-64 9.5q-44 0 -84 -20.5t-70 -60.5t-47.5 -99
t-17.5 -136q0 -65 15.5 -121.5t45 -98t72 -65.5t95.5 -24q34 0 61.5 9t49 24.5t38.5 36t29 43.5zM251 -174l51 130h47l-70 -130h-28z" />
    <glyph glyph-name="Egrave" unicode="&#xc8;" horiz-adv-x="478" 
d="M81 0v667h364v-36h-326v-256h238v-36h-239v-303h344v-36h-381zM146 842l28 32l164 -141l-17 -20z" />
    <glyph glyph-name="Eacute" unicode="&#xc9;" horiz-adv-x="478" 
d="M81 0v667h364v-36h-326v-256h238v-36h-239v-303h344v-36h-381zM190 713l-17 20l164 141l28 -32z" />
    <glyph glyph-name="Ecircumflex" unicode="&#xca;" horiz-adv-x="478" 
d="M81 0v667h364v-36h-326v-256h238v-36h-239v-303h344v-36h-381zM113 728l123 154h36l120 -154l-26 -18l-112 142l-115 -142z" />
    <glyph glyph-name="Edieresis" unicode="&#xcb;" horiz-adv-x="478" 
d="M81 0v667h364v-36h-326v-256h238v-36h-239v-303h344v-36h-381zM329 772q-11 0 -19 11t-8 27q0 15 7.5 25t19.5 10t20 -10t8 -25q0 -17 -8 -27.5t-20 -10.5zM195 772q-11 0 -19 11t-8 27q0 15 7.5 25t19.5 10t20 -10t8 -25q0 -17 -8 -27.5t-20 -10.5z" />
    <glyph glyph-name="Igrave" unicode="&#xcc;" horiz-adv-x="200" 
d="M81 0v667h38v-667h-38zM0 842l28 32l164 -141l-17 -20z" />
    <glyph glyph-name="Iacute" unicode="&#xcd;" horiz-adv-x="200" 
d="M81 0v667h38v-667h-38zM31 713l-17 20l164 141l28 -32z" />
    <glyph glyph-name="Icircumflex" unicode="&#xce;" horiz-adv-x="200" 
d="M81 0v667h38v-667h-38zM-38 728l123 154h36l120 -154l-26 -18l-112 142l-115 -142z" />
    <glyph glyph-name="Idieresis" unicode="&#xcf;" horiz-adv-x="200" 
d="M81 0v667h38v-667h-38zM167 758q-11 0 -19 11t-8 27q0 15 7.5 25t19.5 10t20 -10t8 -25q0 -17 -8 -27.5t-20 -10.5zM33 758q-11 0 -19 11t-8 27q0 15 7.5 25t19.5 10t20 -10t8 -25q0 -17 -8 -27.5t-20 -10.5z" />
    <glyph glyph-name="Eth" unicode="&#xd0;" horiz-adv-x="595" 
d="M81 0v342h-77v36h77v289h159q150 0 233.5 -84t83.5 -240q0 -167 -81 -255t-236 -88h-159zM119 36h111q138 0 213 74.5t75 228.5q0 143 -75 217.5t-209 74.5h-115v-253h169v-36h-169v-306z" />
    <glyph glyph-name="Ntilde" unicode="&#xd1;" horiz-adv-x="640" 
d="M81 0v667h42l398 -603v603h38v-667h-41l-400 606v-606h-37zM166 771q15 29 37 48t54 19q20 0 39 -8t37 -19q11 -7 26 -15.5t29 -8.5q22 0 36 12t27 37l27 -13q-29 -66 -91 -66q-14 0 -31.5 8t-37.5 19q-23 14 -34 19.5t-27 5.5q-36 0 -64 -52z" />
    <glyph glyph-name="Ograve" unicode="&#xd2;" horiz-adv-x="631" 
d="M199 16q-50 29 -83.5 77.5t-50 111t-16.5 129.5q0 69 18 132t52.5 110.5t84 75.5t113.5 28q67 0 117 -29.5t83 -78t49 -111t16 -127.5t-16 -127.5t-49 -111t-83 -78.5t-117 -30t-118 29zM144 121q29 -44 72 -72t101 -28t100.5 28t70.5 73t41.5 101t13.5 111t-13.5 110.5
t-41 100.5t-70.5 73t-101 28q-60 0 -103 -28t-71 -72.5t-41.5 -100.5t-13.5 -111q0 -56 14 -112t42 -101zM216 842l28 32l164 -141l-17 -20z" />
    <glyph glyph-name="Oacute" unicode="&#xd3;" horiz-adv-x="631" 
d="M199 16q-50 29 -83.5 77.5t-50 111t-16.5 129.5q0 69 18 132t52.5 110.5t84 75.5t113.5 28q67 0 117 -29.5t83 -78t49 -111t16 -127.5t-16 -127.5t-49 -111t-83 -78.5t-117 -30t-118 29zM144 121q29 -44 72 -72t101 -28t100.5 28t70.5 73t41.5 101t13.5 111t-13.5 110.5
t-41 100.5t-70.5 73t-101 28q-60 0 -103 -28t-71 -72.5t-41.5 -100.5t-13.5 -111q0 -56 14 -112t42 -101zM237 713l-17 20l164 141l28 -32z" />
    <glyph glyph-name="Ocircumflex" unicode="&#xd4;" horiz-adv-x="631" 
d="M199 16q-50 29 -83.5 77.5t-50 111t-16.5 129.5q0 69 18 132t52.5 110.5t84 75.5t113.5 28q67 0 117 -29.5t83 -78t49 -111t16 -127.5t-16 -127.5t-49 -111t-83 -78.5t-117 -30t-118 29zM144 121q29 -44 72 -72t101 -28t100.5 28t70.5 73t41.5 101t13.5 111t-13.5 110.5
t-41 100.5t-70.5 73t-101 28q-60 0 -103 -28t-71 -72.5t-41.5 -100.5t-13.5 -111q0 -56 14 -112t42 -101zM178 728l123 154h36l120 -154l-26 -18l-112 142l-115 -142z" />
    <glyph glyph-name="Otilde" unicode="&#xd5;" horiz-adv-x="631" 
d="M199 16q-50 29 -83.5 77.5t-50 111t-16.5 129.5q0 69 18 132t52.5 110.5t84 75.5t113.5 28q67 0 117 -29.5t83 -78t49 -111t16 -127.5t-16 -127.5t-49 -111t-83 -78.5t-117 -30t-118 29zM144 121q29 -44 72 -72t101 -28t100.5 28t70.5 73t41.5 101t13.5 111t-13.5 110.5
t-41 100.5t-70.5 73t-101 28q-60 0 -103 -28t-71 -72.5t-41.5 -100.5t-13.5 -111q0 -56 14 -112t42 -101zM155 771q15 29 37 48t54 19q20 0 39 -8t37 -19q11 -7 26 -15.5t29 -8.5q22 0 36 12t27 37l27 -13q-29 -66 -91 -66q-14 0 -31.5 8t-37.5 19q-23 14 -34 19.5t-27 5.5
q-36 0 -64 -52z" />
    <glyph glyph-name="Odieresis" unicode="&#xd6;" horiz-adv-x="631" 
d="M199 16q-50 29 -83.5 77.5t-50 111t-16.5 129.5q0 69 18 132t52.5 110.5t84 75.5t113.5 28q67 0 117 -29.5t83 -78t49 -111t16 -127.5t-16 -127.5t-49 -111t-83 -78.5t-117 -30t-118 29zM144 121q29 -44 72 -72t101 -28t100.5 28t70.5 73t41.5 101t13.5 111t-13.5 110.5
t-41 100.5t-70.5 73t-101 28q-60 0 -103 -28t-71 -72.5t-41.5 -100.5t-13.5 -111q0 -56 14 -112t42 -101zM389 772q-11 0 -19 11t-8 27q0 15 7.5 25t19.5 10t20 -10t8 -25q0 -17 -8 -27.5t-20 -10.5zM255 772q-11 0 -19 11t-8 27q0 15 7.5 25t19.5 10t20 -10t8 -25
q0 -17 -8 -27.5t-20 -10.5z" />
    <glyph glyph-name="multiply" unicode="&#xd7;" horiz-adv-x="502" 
d="M93 149l-25 25l158 157l-158 158l25 25l157 -158l158 158l25 -25l-158 -158l158 -157l-25 -25l-158 158z" />
    <glyph glyph-name="Oslash" unicode="&#xd8;" horiz-adv-x="631" 
d="M45 4l71 90q-33 48 -50 110.5t-17 129.5q0 69 18 132t52.5 110.5t84 75.5t113.5 28q63 0 109 -24.5t78 -66.5l67 85l28 -20l-75 -95q29 -48 43.5 -106t14.5 -119q0 -65 -16 -127.5t-49 -111t-83 -78.5t-117 -30q-57 0 -102.5 21.5t-78.5 58.5l-65 -83zM480 558
q-28 39 -67.5 63.5t-95.5 24.5q-60 0 -103 -28t-71 -72.5t-41.5 -100.5t-13.5 -111q0 -54 13.5 -108t40.5 -99zM161 98q28 -35 67 -56t89 -21q58 0 100.5 28t70.5 73t41.5 101t13.5 111q0 50 -11 100t-33 93z" />
    <glyph glyph-name="Ugrave" unicode="&#xd9;" horiz-adv-x="621" 
d="M114 237q0 -97 50 -155.5t146 -58.5q97 0 147 57t50 157v430h38v-445q0 -56 -17.5 -100t-49 -74t-74.5 -45.5t-94 -15.5t-94 15.5t-74 45.5t-48.5 74t-17.5 100v445h38v-430zM204 842l28 32l164 -141l-17 -20z" />
    <glyph glyph-name="Uacute" unicode="&#xda;" horiz-adv-x="621" 
d="M114 237q0 -97 50 -155.5t146 -58.5q97 0 147 57t50 157v430h38v-445q0 -56 -17.5 -100t-49 -74t-74.5 -45.5t-94 -15.5t-94 15.5t-74 45.5t-48.5 74t-17.5 100v445h38v-430zM249 713l-17 20l164 141l28 -32z" />
    <glyph glyph-name="Ucircumflex" unicode="&#xdb;" horiz-adv-x="621" 
d="M114 237q0 -97 50 -155.5t146 -58.5q97 0 147 57t50 157v430h38v-445q0 -56 -17.5 -100t-49 -74t-74.5 -45.5t-94 -15.5t-94 15.5t-74 45.5t-48.5 74t-17.5 100v445h38v-430zM178 728l123 154h36l120 -154l-26 -18l-112 142l-115 -142z" />
    <glyph glyph-name="Udieresis" unicode="&#xdc;" horiz-adv-x="621" 
d="M114 237q0 -97 50 -155.5t146 -58.5q97 0 147 57t50 157v430h38v-445q0 -56 -17.5 -100t-49 -74t-74.5 -45.5t-94 -15.5t-94 15.5t-74 45.5t-48.5 74t-17.5 100v445h38v-430zM382 772q-11 0 -19 11t-8 27q0 15 7.5 25t19.5 10t20 -10t8 -25q0 -17 -8 -27.5t-20 -10.5z
M248 772q-11 0 -19 11t-8 27q0 15 7.5 25t19.5 10t20 -10t8 -25q0 -17 -8 -27.5t-20 -10.5z" />
    <glyph glyph-name="Yacute" unicode="&#xdd;" horiz-adv-x="496" 
d="M225 0v321l-225 346h42l203 -312l210 312h41l-233 -345v-322h-38zM193 713l-17 20l164 141l28 -32z" />
    <glyph glyph-name="Thorn" unicode="&#xde;" horiz-adv-x="501" 
d="M81 0v667h38v-130h171q90 0 144.5 -49t54.5 -142q0 -47 -16 -82t-43 -58.5t-62 -35.5t-74 -12h-175v-158h-38zM119 194h171q38 0 67.5 11.5t50 31.5t31.5 47.5t11 59.5q0 69 -39 113t-122 44h-170v-307z" />
    <glyph glyph-name="germandbls" unicode="&#xdf;" horiz-adv-x="511" 
d="M86 0v444h-71v32h71v32q0 40 13 72t36 54t55 34t70 12q80 0 123.5 -62t44.5 -174h-77q-103 0 -103 -76q0 -17 6 -30t19.5 -25t35 -23.5t52.5 -25.5q64 -29 94 -62.5t30 -89.5q0 -57 -38 -90t-102 -33q-58 0 -94 20.5t-57 57.5l31 19q19 -31 46.5 -48t73.5 -17
q47 0 75.5 24.5t28.5 66.5q0 44 -29 71.5t-96 56.5q-26 11 -46.5 23t-35 26.5t-22.5 33t-8 44.5q0 51 35 80t104 29h42q-8 78 -39.5 125t-93.5 47q-64 0 -101.5 -37t-37.5 -109v-502h-35z" />
    <glyph glyph-name="agrave" unicode="&#xe0;" horiz-adv-x="443" 
d="M346 0l-3 42q-24 -24 -58 -38.5t-89 -14.5q-71 0 -113 38t-42 107q0 53 25.5 88t67.5 55t96.5 28.5t111.5 9.5v31q0 52 -29.5 81.5t-84.5 29.5q-40 0 -71.5 -18t-49.5 -39l-25 22q22 25 57 46t88 21q77 0 114 -38.5t37 -109.5v-341h-32zM342 282q-47 -1 -94 -7t-85 -22.5
t-62 -45.5t-24 -74q0 -29 10 -50t27.5 -34.5t40 -20.5t47.5 -7q44 0 80.5 18.5t59.5 44.5v198zM118 678l28 32l164 -141l-17 -20z" />
    <glyph glyph-name="aacute" unicode="&#xe1;" horiz-adv-x="443" 
d="M346 0l-3 42q-24 -24 -58 -38.5t-89 -14.5q-71 0 -113 38t-42 107q0 53 25.5 88t67.5 55t96.5 28.5t111.5 9.5v31q0 52 -29.5 81.5t-84.5 29.5q-40 0 -71.5 -18t-49.5 -39l-25 22q22 25 57 46t88 21q77 0 114 -38.5t37 -109.5v-341h-32zM342 282q-47 -1 -94 -7t-85 -22.5
t-62 -45.5t-24 -74q0 -29 10 -50t27.5 -34.5t40 -20.5t47.5 -7q44 0 80.5 18.5t59.5 44.5v198zM160 549l-17 20l164 141l28 -32z" />
    <glyph glyph-name="acircumflex" unicode="&#xe2;" horiz-adv-x="443" 
d="M346 0l-3 42q-24 -24 -58 -38.5t-89 -14.5q-71 0 -113 38t-42 107q0 53 25.5 88t67.5 55t96.5 28.5t111.5 9.5v31q0 52 -29.5 81.5t-84.5 29.5q-40 0 -71.5 -18t-49.5 -39l-25 22q22 25 57 46t88 21q77 0 114 -38.5t37 -109.5v-341h-32zM342 282q-47 -1 -94 -7t-85 -22.5
t-62 -45.5t-24 -74q0 -29 10 -50t27.5 -34.5t40 -20.5t47.5 -7q44 0 80.5 18.5t59.5 44.5v198zM89 564l123 154h36l120 -154l-26 -18l-112 142l-115 -142z" />
    <glyph glyph-name="atilde" unicode="&#xe3;" horiz-adv-x="443" 
d="M346 0l-3 42q-24 -24 -58 -38.5t-89 -14.5q-71 0 -113 38t-42 107q0 53 25.5 88t67.5 55t96.5 28.5t111.5 9.5v31q0 52 -29.5 81.5t-84.5 29.5q-40 0 -71.5 -18t-49.5 -39l-25 22q22 25 57 46t88 21q77 0 114 -38.5t37 -109.5v-341h-32zM342 282q-47 -1 -94 -7t-85 -22.5
t-62 -45.5t-24 -74q0 -29 10 -50t27.5 -34.5t40 -20.5t47.5 -7q44 0 80.5 18.5t59.5 44.5v198zM61 607q15 29 37 48t54 19q20 0 39 -8t37 -19q11 -7 26 -15.5t29 -8.5q22 0 36 12t27 37l27 -13q-29 -66 -91 -66q-14 0 -31.5 8t-37.5 19q-23 14 -34 19.5t-27 5.5
q-36 0 -64 -52z" />
    <glyph glyph-name="adieresis" unicode="&#xe4;" horiz-adv-x="443" 
d="M346 0l-3 42q-24 -24 -58 -38.5t-89 -14.5q-71 0 -113 38t-42 107q0 53 25.5 88t67.5 55t96.5 28.5t111.5 9.5v31q0 52 -29.5 81.5t-84.5 29.5q-40 0 -71.5 -18t-49.5 -39l-25 22q22 25 57 46t88 21q77 0 114 -38.5t37 -109.5v-341h-32zM342 282q-47 -1 -94 -7t-85 -22.5
t-62 -45.5t-24 -74q0 -29 10 -50t27.5 -34.5t40 -20.5t47.5 -7q44 0 80.5 18.5t59.5 44.5v198zM298 594q-11 0 -19 11t-8 27q0 15 7.5 25t19.5 10t20 -10t8 -25q0 -17 -8 -27.5t-20 -10.5zM164 594q-11 0 -19 11t-8 27q0 15 7.5 25t19.5 10t20 -10t8 -25q0 -17 -8 -27.5
t-20 -10.5z" />
    <glyph glyph-name="aring" unicode="&#xe5;" horiz-adv-x="443" 
d="M346 0l-3 42q-24 -24 -58 -38.5t-89 -14.5q-71 0 -113 38t-42 107q0 53 25.5 88t67.5 55t96.5 28.5t111.5 9.5v31q0 52 -29.5 81.5t-84.5 29.5q-40 0 -71.5 -18t-49.5 -39l-25 22q22 25 57 46t88 21q77 0 114 -38.5t37 -109.5v-341h-32zM342 282q-47 -1 -94 -7t-85 -22.5
t-62 -45.5t-24 -74q0 -29 10 -50t27.5 -34.5t40 -20.5t47.5 -7q44 0 80.5 18.5t59.5 44.5v198zM234 536q-42 0 -68 28.5t-26 68.5q0 41 26 69.5t68 28.5t67.5 -28.5t25.5 -68.5q0 -41 -25.5 -69.5t-67.5 -28.5zM299 634q0 29 -19 50t-46 21q-28 0 -47 -21t-19 -50t19 -50.5
t47 -21.5q27 0 46 21t19 50v1z" />
    <glyph glyph-name="ae" unicode="&#xe6;" horiz-adv-x="756" 
d="M80 420q22 28 57.5 48.5t95.5 20.5t95 -22.5t51 -66.5q21 41 56 65t95 24q93 0 141.5 -62.5t50.5 -173.5h-336q0 -50 8.5 -92t27 -73.5t49.5 -49t78 -17.5q53 0 84 25t51 64l30 -16q-11 -22 -24 -41t-32.5 -33.5t-46.5 -22.5t-64 -8q-70 0 -111 30.5t-58 74.5
q-11 -21 -28.5 -40t-40 -33.5t-50.5 -23t-59 -8.5q-80 0 -119.5 37t-39.5 97q0 57 35 95t92 52q41 10 85 13t100 3v60q0 54 -35 82.5t-87 28.5q-38 0 -70.5 -16.5t-53.5 -40.5zM683 286q-3 45 -17.5 77.5t-35.5 53.5t-47 30.5t-53 9.5q-33 0 -59.5 -13t-45.5 -35.5t-29 -54
t-10 -68.5h297zM353 253q-51 0 -94 -3.5t-81 -11.5q-44 -10 -72.5 -41.5t-28.5 -74.5q0 -48 32 -74.5t92 -26.5q29 0 56.5 10.5t48.5 28t34 41t13 49.5v103z" />
    <glyph glyph-name="ccedilla" unicode="&#xe7;" horiz-adv-x="442" 
d="M418 79q-12 -18 -27 -34t-35.5 -28.5t-46 -20t-58.5 -7.5q-46 0 -83.5 17.5t-64.5 50t-41.5 78.5t-14.5 104q0 59 15.5 105.5t42.5 78.5t64 49t80 17q34 0 60 -8t45 -21t32 -30t23 -36l-31 -16q-8 15 -18.5 29t-26 25t-36 18t-48.5 7q-40 0 -71 -17.5t-52 -47.5
t-32 -69.5t-11 -83.5q0 -47 11.5 -87t33.5 -68.5t53.5 -44.5t71.5 -16q48 0 80.5 20t55.5 55zM184 -174l51 130h47l-70 -130h-28z" />
    <glyph glyph-name="egrave" unicode="&#xe8;" horiz-adv-x="471" 
d="M81 250q0 -109 43.5 -169t129.5 -60q55 0 89 26t56 66l30 -16q-11 -20 -26 -39.5t-36.5 -34.5t-49.5 -24.5t-65 -9.5q-98 0 -151.5 66.5t-53.5 182.5q0 59 15 105.5t41 79t62.5 49.5t79.5 17q45 0 79.5 -17t59 -48t38 -75.5t15.5 -98.5h-356zM397 283q-3 46 -17 79
t-35 54t-47 31t-53 10q-31 0 -58 -10.5t-49 -31.5t-36.5 -54t-19.5 -78h315zM132 678l28 32l164 -141l-17 -20z" />
    <glyph glyph-name="eacute" unicode="&#xe9;" horiz-adv-x="471" 
d="M81 250q0 -109 43.5 -169t129.5 -60q55 0 89 26t56 66l30 -16q-11 -20 -26 -39.5t-36.5 -34.5t-49.5 -24.5t-65 -9.5q-98 0 -151.5 66.5t-53.5 182.5q0 59 15 105.5t41 79t62.5 49.5t79.5 17q45 0 79.5 -17t59 -48t38 -75.5t15.5 -98.5h-356zM397 283q-3 46 -17 79
t-35 54t-47 31t-53 10q-31 0 -58 -10.5t-49 -31.5t-36.5 -54t-19.5 -78h315zM165 549l-17 20l164 141l28 -32z" />
    <glyph glyph-name="ecircumflex" unicode="&#xea;" horiz-adv-x="471" 
d="M81 250q0 -109 43.5 -169t129.5 -60q55 0 89 26t56 66l30 -16q-11 -20 -26 -39.5t-36.5 -34.5t-49.5 -24.5t-65 -9.5q-98 0 -151.5 66.5t-53.5 182.5q0 59 15 105.5t41 79t62.5 49.5t79.5 17q45 0 79.5 -17t59 -48t38 -75.5t15.5 -98.5h-356zM397 283q-3 46 -17 79
t-35 54t-47 31t-53 10q-31 0 -58 -10.5t-49 -31.5t-36.5 -54t-19.5 -78h315zM103 564l123 154h36l120 -154l-26 -18l-112 142l-115 -142z" />
    <glyph glyph-name="edieresis" unicode="&#xeb;" horiz-adv-x="471" 
d="M81 250q0 -109 43.5 -169t129.5 -60q55 0 89 26t56 66l30 -16q-11 -20 -26 -39.5t-36.5 -34.5t-49.5 -24.5t-65 -9.5q-98 0 -151.5 66.5t-53.5 182.5q0 59 15 105.5t41 79t62.5 49.5t79.5 17q45 0 79.5 -17t59 -48t38 -75.5t15.5 -98.5h-356zM397 283q-3 46 -17 79
t-35 54t-47 31t-53 10q-31 0 -58 -10.5t-49 -31.5t-36.5 -54t-19.5 -78h315zM312 594q-11 0 -19 11t-8 27q0 15 7.5 25t19.5 10t20 -10t8 -25q0 -17 -8 -27.5t-20 -10.5zM178 594q-11 0 -19 11t-8 27q0 15 7.5 25t19.5 10t20 -10t8 -25q0 -17 -8 -27.5t-20 -10.5z" />
    <glyph glyph-name="igrave" unicode="&#xec;" horiz-adv-x="175" 
d="M69 0v476h36v-476h-36zM-13 678l28 32l164 -141l-17 -20z" />
    <glyph glyph-name="iacute" unicode="&#xed;" horiz-adv-x="175" 
d="M69 0v476h36v-476h-36zM19 549l-17 20l164 141l28 -32z" />
    <glyph glyph-name="icircumflex" unicode="&#xee;" horiz-adv-x="175" 
d="M69 0v476h36v-476h-36zM-51 564l123 154h36l120 -154l-26 -18l-112 142l-115 -142z" />
    <glyph glyph-name="idieresis" unicode="&#xef;" horiz-adv-x="175" 
d="M69 0v476h36v-476h-36zM155 594q-11 0 -19 11t-8 27q0 15 7.5 25t19.5 10t20 -10t8 -25q0 -17 -8 -27.5t-20 -10.5zM21 594q-11 0 -19 11t-8 27q0 15 7.5 25t19.5 10t20 -10t8 -25q0 -17 -8 -27.5t-20 -10.5z" />
    <glyph glyph-name="eth" unicode="&#xf0;" horiz-adv-x="499" 
d="M211 545l44 65q-23 14 -49.5 24.5t-50.5 17.5l9 25q60 -12 107 -42l41 60l22 -15l-41 -60q72 -51 115.5 -140t43.5 -217q0 -71 -15 -122.5t-41.5 -85t-63.5 -50t-81 -16.5q-42 0 -79.5 15t-65 46t-43.5 78t-16 111q0 59 15 105.5t41.5 78.5t63.5 49t81 17
q48 0 81.5 -11.5t59.5 -28.5q-20 44 -48.5 83t-62.5 64l-44 -65zM411 344q-5 39 -11 62q-32 22 -68 36.5t-82 14.5q-73 0 -120 -56.5t-47 -161.5q0 -54 13.5 -95t36 -68t53 -41t65.5 -14t65.5 14.5t53 44t35 75t12.5 107.5q0 44 -6 82z" />
    <glyph glyph-name="ntilde" unicode="&#xf1;" horiz-adv-x="507" 
d="M69 0v476h32l4 -48q15 12 31 23t35.5 19.5t43.5 13.5t54 5q82 0 127.5 -46.5t45.5 -142.5v-300h-36v307q0 69 -35.5 108.5t-104.5 39.5q-53 0 -92.5 -20.5t-68.5 -47.5v-387h-36zM102 607q15 29 37 48t54 19q20 0 39 -8t37 -19q11 -7 26 -15.5t29 -8.5q22 0 36 12t27 37
l27 -13q-29 -66 -91 -66q-14 0 -31.5 8t-37.5 19q-23 14 -34 19.5t-27 5.5q-36 0 -64 -52z" />
    <glyph glyph-name="ograve" unicode="&#xf2;" horiz-adv-x="507" 
d="M164 10q-38 21 -64 56.5t-39.5 81t-13.5 94.5q0 48 13 93t39 79t64.5 54.5t89.5 20.5q50 0 88.5 -20.5t65 -54.5t40 -79.5t13.5 -94.5q0 -50 -13.5 -95.5t-40 -80t-65 -55t-88.5 -20.5t-89 21zM125 91q21 -31 53 -50.5t75 -19.5t75 19.5t53.5 51t32 70.5t10.5 79
t-10.5 79t-32 69.5t-53.5 49t-75 18.5t-75 -18.5t-53 -49t-31.5 -69t-10.5 -78.5t10.5 -79.5t31.5 -71.5zM147 678l28 32l164 -141l-17 -20z" />
    <glyph glyph-name="oacute" unicode="&#xf3;" horiz-adv-x="507" 
d="M164 10q-38 21 -64 56.5t-39.5 81t-13.5 94.5q0 48 13 93t39 79t64.5 54.5t89.5 20.5q50 0 88.5 -20.5t65 -54.5t40 -79.5t13.5 -94.5q0 -50 -13.5 -95.5t-40 -80t-65 -55t-88.5 -20.5t-89 21zM125 91q21 -31 53 -50.5t75 -19.5t75 19.5t53.5 51t32 70.5t10.5 79
t-10.5 79t-32 69.5t-53.5 49t-75 18.5t-75 -18.5t-53 -49t-31.5 -69t-10.5 -78.5t10.5 -79.5t31.5 -71.5zM176 549l-17 20l164 141l28 -32z" />
    <glyph glyph-name="ocircumflex" unicode="&#xf4;" horiz-adv-x="507" 
d="M164 10q-38 21 -64 56.5t-39.5 81t-13.5 94.5q0 48 13 93t39 79t64.5 54.5t89.5 20.5q50 0 88.5 -20.5t65 -54.5t40 -79.5t13.5 -94.5q0 -50 -13.5 -95.5t-40 -80t-65 -55t-88.5 -20.5t-89 21zM125 91q21 -31 53 -50.5t75 -19.5t75 19.5t53.5 51t32 70.5t10.5 79
t-10.5 79t-32 69.5t-53.5 49t-75 18.5t-75 -18.5t-53 -49t-31.5 -69t-10.5 -78.5t10.5 -79.5t31.5 -71.5zM115 564l123 154h36l120 -154l-26 -18l-112 142l-115 -142z" />
    <glyph glyph-name="otilde" unicode="&#xf5;" horiz-adv-x="507" 
d="M164 10q-38 21 -64 56.5t-39.5 81t-13.5 94.5q0 48 13 93t39 79t64.5 54.5t89.5 20.5q50 0 88.5 -20.5t65 -54.5t40 -79.5t13.5 -94.5q0 -50 -13.5 -95.5t-40 -80t-65 -55t-88.5 -20.5t-89 21zM125 91q21 -31 53 -50.5t75 -19.5t75 19.5t53.5 51t32 70.5t10.5 79
t-10.5 79t-32 69.5t-53.5 49t-75 18.5t-75 -18.5t-53 -49t-31.5 -69t-10.5 -78.5t10.5 -79.5t31.5 -71.5zM93 607q15 29 37 48t54 19q20 0 39 -8t37 -19q11 -7 26 -15.5t29 -8.5q22 0 36 12t27 37l27 -13q-29 -66 -91 -66q-14 0 -31.5 8t-37.5 19q-23 14 -34 19.5t-27 5.5
q-36 0 -64 -52z" />
    <glyph glyph-name="odieresis" unicode="&#xf6;" horiz-adv-x="507" 
d="M164 10q-38 21 -64 56.5t-39.5 81t-13.5 94.5q0 48 13 93t39 79t64.5 54.5t89.5 20.5q50 0 88.5 -20.5t65 -54.5t40 -79.5t13.5 -94.5q0 -50 -13.5 -95.5t-40 -80t-65 -55t-88.5 -20.5t-89 21zM125 91q21 -31 53 -50.5t75 -19.5t75 19.5t53.5 51t32 70.5t10.5 79
t-10.5 79t-32 69.5t-53.5 49t-75 18.5t-75 -18.5t-53 -49t-31.5 -69t-10.5 -78.5t10.5 -79.5t31.5 -71.5zM322 594q-11 0 -19 11t-8 27q0 15 7.5 25t19.5 10t20 -10t8 -25q0 -17 -8 -27.5t-20 -10.5zM188 594q-11 0 -19 11t-8 27q0 15 7.5 25t19.5 10t20 -10t8 -25
q0 -17 -8 -27.5t-20 -10.5z" />
    <glyph glyph-name="divide" unicode="&#xf7;" horiz-adv-x="502" 
d="M250 454q-16 0 -26.5 12.5t-10.5 29.5t10.5 29t26.5 12t26.5 -12t10.5 -29t-10.5 -29.5t-26.5 -12.5zM33 314v35h435v-35h-435zM250 125q-16 0 -26.5 12t-10.5 29t10.5 29.5t26.5 12.5t26.5 -12.5t10.5 -29.5t-10.5 -29t-26.5 -12z" />
    <glyph glyph-name="oslash" unicode="&#xf8;" horiz-adv-x="507" 
d="M74 -41l48 82q-37 36 -56 89t-19 112q0 48 13 93t39 79t64.5 54.5t89.5 20.5q33 0 60.5 -9t50.5 -25l46 78l28 -16l-49 -83q35 -35 53 -86t18 -108q0 -50 -13.5 -95.5t-40 -80t-65 -55t-88.5 -20.5q-31 0 -57.5 8.5t-48.5 23.5l-46 -78zM164 50q18 -14 40.5 -21.5
t48.5 -7.5q43 0 75 19.5t53.5 51t32 70.5t10.5 79q0 45 -13 87.5t-40 74.5zM347 426q-19 14 -42 22.5t-52 8.5q-43 0 -75 -18.5t-53 -49t-31.5 -69t-10.5 -78.5q0 -47 14 -92.5t43 -77.5z" />
    <glyph glyph-name="ugrave" unicode="&#xf9;" horiz-adv-x="505" 
d="M101 167q0 -39 10.5 -66.5t29.5 -45t45 -25.5t57 -8q51 0 89.5 21.5t67.5 53.5v379h36v-476h-31l-4 54q-26 -25 -64 -45t-97 -20q-38 0 -70.5 10.5t-55.5 32t-36 55t-13 78.5v311h36v-309zM140 678l28 32l164 -141l-17 -20z" />
    <glyph glyph-name="uacute" unicode="&#xfa;" horiz-adv-x="505" 
d="M101 167q0 -39 10.5 -66.5t29.5 -45t45 -25.5t57 -8q51 0 89.5 21.5t67.5 53.5v379h36v-476h-31l-4 54q-26 -25 -64 -45t-97 -20q-38 0 -70.5 10.5t-55.5 32t-36 55t-13 78.5v311h36v-309zM188 549l-17 20l164 141l28 -32z" />
    <glyph glyph-name="ucircumflex" unicode="&#xfb;" horiz-adv-x="505" 
d="M101 167q0 -39 10.5 -66.5t29.5 -45t45 -25.5t57 -8q51 0 89.5 21.5t67.5 53.5v379h36v-476h-31l-4 54q-26 -25 -64 -45t-97 -20q-38 0 -70.5 10.5t-55.5 32t-36 55t-13 78.5v311h36v-309zM116 564l123 154h36l120 -154l-26 -18l-112 142l-115 -142z" />
    <glyph glyph-name="udieresis" unicode="&#xfc;" horiz-adv-x="505" 
d="M101 167q0 -39 10.5 -66.5t29.5 -45t45 -25.5t57 -8q51 0 89.5 21.5t67.5 53.5v379h36v-476h-31l-4 54q-26 -25 -64 -45t-97 -20q-38 0 -70.5 10.5t-55.5 32t-36 55t-13 78.5v311h36v-309zM321 594q-11 0 -19 11t-8 27q0 15 7.5 25t19.5 10t20 -10t8 -25q0 -17 -8 -27.5
t-20 -10.5zM187 594q-11 0 -19 11t-8 27q0 15 7.5 25t19.5 10t20 -10t8 -25q0 -17 -8 -27.5t-20 -10.5z" />
    <glyph glyph-name="yacute" unicode="&#xfd;" horiz-adv-x="425" 
d="M17 -154q14 -6 32 -12t32 -6q26 0 42.5 12t27.5 40l43 112l-194 484h40l174 -435l173 435h38l-243 -607q-15 -38 -37.5 -54.5t-60.5 -16.5q-22 0 -42.5 5t-37.5 13zM162 549l-17 20l164 141l28 -32z" />
    <glyph glyph-name="thorn" unicode="&#xfe;" horiz-adv-x="496" 
d="M69 -195v862h36v-230q20 17 54 34.5t86 17.5q97 0 151 -65.5t54 -180.5q0 -57 -15 -104t-43.5 -80t-69.5 -51.5t-92 -18.5q-44 0 -75 11.5t-50 25.5v-221h-36zM105 65q23 -18 54.5 -30.5t71.5 -12.5q85 0 134 59t49 160q0 47 -10 86.5t-31.5 68.5t-54.5 45t-78 16
q-42 0 -77 -17.5t-58 -41.5v-333z" />
    <glyph glyph-name="ydieresis" unicode="&#xff;" horiz-adv-x="425" 
d="M17 -154q14 -6 32 -12t32 -6q26 0 42.5 12t27.5 40l43 112l-194 484h40l174 -435l173 435h38l-243 -607q-15 -38 -37.5 -54.5t-60.5 -16.5q-22 0 -42.5 5t-37.5 13zM293 594q-11 0 -19 11t-8 27q0 15 7.5 25t19.5 10t20 -10t8 -25q0 -17 -8 -27.5t-20 -10.5zM159 594
q-11 0 -19 11t-8 27q0 15 7.5 25t19.5 10t20 -10t8 -25q0 -17 -8 -27.5t-20 -10.5z" />
    <glyph glyph-name="Amacron" unicode="&#x100;" horiz-adv-x="540" 
d="M0 0l251 667h36l253 -667h-38l-84 220h-296l-83 -220h-39zM134 255h272l-138 367zM119 782v33h282v-33h-282z" />
    <glyph glyph-name="amacron" unicode="&#x101;" horiz-adv-x="443" 
d="M346 0l-3 42q-24 -24 -58 -38.5t-89 -14.5q-71 0 -113 38t-42 107q0 53 25.5 88t67.5 55t96.5 28.5t111.5 9.5v31q0 52 -29.5 81.5t-84.5 29.5q-40 0 -71.5 -18t-49.5 -39l-25 22q22 25 57 46t88 21q77 0 114 -38.5t37 -109.5v-341h-32zM342 282q-47 -1 -94 -7t-85 -22.5
t-62 -45.5t-24 -74q0 -29 10 -50t27.5 -34.5t40 -20.5t47.5 -7q44 0 80.5 18.5t59.5 44.5v198zM87 616v33h282v-33h-282z" />
    <glyph glyph-name="Abreve" unicode="&#x102;" horiz-adv-x="540" 
d="M0 0l251 667h36l253 -667h-38l-84 220h-296l-83 -220h-39zM134 255h272l-138 367zM144 867q5 -57 37 -86.5t85 -29.5t85 29.5t37 86.5h31q-1 -39 -15 -67t-35.5 -45.5t-48.5 -26t-54 -8.5t-54 8.5t-48.5 26t-35.5 45.5t-15 67h31z" />
    <glyph glyph-name="abreve" unicode="&#x103;" horiz-adv-x="443" 
d="M346 0l-3 42q-24 -24 -58 -38.5t-89 -14.5q-71 0 -113 38t-42 107q0 53 25.5 88t67.5 55t96.5 28.5t111.5 9.5v31q0 52 -29.5 81.5t-84.5 29.5q-40 0 -71.5 -18t-49.5 -39l-25 22q22 25 57 46t88 21q77 0 114 -38.5t37 -109.5v-341h-32zM342 282q-47 -1 -94 -7t-85 -22.5
t-62 -45.5t-24 -74q0 -29 10 -50t27.5 -34.5t40 -20.5t47.5 -7q44 0 80.5 18.5t59.5 44.5v198zM110 701q5 -57 37 -86.5t85 -29.5t85 29.5t37 86.5h31q-1 -39 -15 -67t-35.5 -45.5t-48.5 -26t-54 -8.5t-54 8.5t-48.5 26t-35.5 45.5t-15 67h31z" />
    <glyph glyph-name="Aogonek" unicode="&#x104;" horiz-adv-x="540" 
d="M543 -162q-9 -4 -18.5 -6t-21.5 -2q-36 0 -54 19.5t-18 50.5q0 22 8 40t20 32t25 25q8 6 15 11l-81 212h-296l-83 -220h-39l251 667h36l253 -667h-11q-9 -6 -18 -14q-12 -10 -22.5 -22.5t-17 -27t-6.5 -32.5q0 -20 11 -32t31 -12q14 0 29 6zM134 255h272l-138 367z" />
    <glyph glyph-name="aogonek" unicode="&#x105;" horiz-adv-x="443" 
d="M384 -162q-9 -4 -18.5 -6t-21.5 -2q-36 0 -54 19.5t-18 50.5q0 22 8 40t20 32t25 25q11 9 20 15l-2 30q-24 -24 -58 -38.5t-89 -14.5q-71 0 -113 38t-42 107q0 53 25.5 88t67.5 55t96.5 28.5t111.5 9.5v31q0 52 -29.5 81.5t-84.5 29.5q-40 0 -71.5 -18t-49.5 -39l-25 22
q22 25 57 46t88 21q77 0 114 -38.5t37 -109.5v-341h-8q-9 -6 -18 -14q-12 -10 -22.5 -22.5t-17 -27t-6.5 -32.5q0 -20 11 -32t31 -12q14 0 29 6zM342 282q-47 -1 -94 -7t-85 -22.5t-62 -45.5t-24 -74q0 -29 10 -50t27.5 -34.5t40 -20.5t47.5 -7q44 0 80.5 18.5t59.5 44.5
v198z" />
    <glyph glyph-name="Cacute" unicode="&#x106;" horiz-adv-x="545" 
d="M525 116q-32 -61 -81.5 -95t-127.5 -34q-67 0 -117 27.5t-83.5 74t-50 109t-16.5 133.5q0 79 19 143t52.5 110t81 71t104.5 25q43 0 76.5 -10t59 -28t44.5 -42.5t33 -52.5l-33 -17q-12 24 -28 45t-37.5 36.5t-49.5 25t-64 9.5q-44 0 -84 -20.5t-70 -60.5t-47.5 -99
t-17.5 -136q0 -65 15.5 -121.5t45 -98t72 -65.5t95.5 -24q34 0 61.5 9t49 24.5t38.5 36t29 43.5zM231 715l-17 20l164 141l28 -32z" />
    <glyph glyph-name="cacute" unicode="&#x107;" horiz-adv-x="442" 
d="M418 79q-12 -18 -27 -34t-35.5 -28.5t-46 -20t-58.5 -7.5q-46 0 -83.5 17.5t-64.5 50t-41.5 78.5t-14.5 104q0 59 15.5 105.5t42.5 78.5t64 49t80 17q34 0 60 -8t45 -21t32 -30t23 -36l-31 -16q-8 15 -18.5 29t-26 25t-36 18t-48.5 7q-40 0 -71 -17.5t-52 -47.5
t-32 -69.5t-11 -83.5q0 -47 11.5 -87t33.5 -68.5t53.5 -44.5t71.5 -16q48 0 80.5 20t55.5 55zM170 549l-17 20l164 141l28 -32z" />
    <glyph glyph-name="Ccircumflex" unicode="&#x108;" horiz-adv-x="545" 
d="M525 116q-32 -61 -81.5 -95t-127.5 -34q-67 0 -117 27.5t-83.5 74t-50 109t-16.5 133.5q0 79 19 143t52.5 110t81 71t104.5 25q43 0 76.5 -10t59 -28t44.5 -42.5t33 -52.5l-33 -17q-12 24 -28 45t-37.5 36.5t-49.5 25t-64 9.5q-44 0 -84 -20.5t-70 -60.5t-47.5 -99
t-17.5 -136q0 -65 15.5 -121.5t45 -98t72 -65.5t95.5 -24q34 0 61.5 9t49 24.5t38.5 36t29 43.5zM171 730l123 154h36l120 -154l-26 -18l-112 142l-115 -142z" />
    <glyph glyph-name="ccircumflex" unicode="&#x109;" horiz-adv-x="442" 
d="M418 79q-12 -18 -27 -34t-35.5 -28.5t-46 -20t-58.5 -7.5q-46 0 -83.5 17.5t-64.5 50t-41.5 78.5t-14.5 104q0 59 15.5 105.5t42.5 78.5t64 49t80 17q34 0 60 -8t45 -21t32 -30t23 -36l-31 -16q-8 15 -18.5 29t-26 25t-36 18t-48.5 7q-40 0 -71 -17.5t-52 -47.5
t-32 -69.5t-11 -83.5q0 -47 11.5 -87t33.5 -68.5t53.5 -44.5t71.5 -16q48 0 80.5 20t55.5 55zM105 564l123 154h36l120 -154l-26 -18l-112 142l-115 -142z" />
    <glyph glyph-name="Cdotaccent" unicode="&#x10a;" horiz-adv-x="545" 
d="M525 116q-32 -61 -81.5 -95t-127.5 -34q-67 0 -117 27.5t-83.5 74t-50 109t-16.5 133.5q0 79 19 143t52.5 110t81 71t104.5 25q43 0 76.5 -10t59 -28t44.5 -42.5t33 -52.5l-33 -17q-12 24 -28 45t-37.5 36.5t-49.5 25t-64 9.5q-44 0 -84 -20.5t-70 -60.5t-47.5 -99
t-17.5 -136q0 -65 15.5 -121.5t45 -98t72 -65.5t95.5 -24q34 0 61.5 9t49 24.5t38.5 36t29 43.5zM304 760q-14 0 -22.5 12t-8.5 28t8.5 28t22.5 12t22 -12.5t8 -27.5t-8 -27.5t-22 -12.5z" />
    <glyph glyph-name="cdotaccent" unicode="&#x10b;" horiz-adv-x="442" 
d="M418 79q-12 -18 -27 -34t-35.5 -28.5t-46 -20t-58.5 -7.5q-46 0 -83.5 17.5t-64.5 50t-41.5 78.5t-14.5 104q0 59 15.5 105.5t42.5 78.5t64 49t80 17q34 0 60 -8t45 -21t32 -30t23 -36l-31 -16q-8 15 -18.5 29t-26 25t-36 18t-48.5 7q-40 0 -71 -17.5t-52 -47.5
t-32 -69.5t-11 -83.5q0 -47 11.5 -87t33.5 -68.5t53.5 -44.5t71.5 -16q48 0 80.5 20t55.5 55zM250 594q-14 0 -22.5 12t-8.5 28t8.5 28t22.5 12t22 -12.5t8 -27.5t-8 -27.5t-22 -12.5z" />
    <glyph glyph-name="Ccaron" unicode="&#x10c;" horiz-adv-x="545" 
d="M525 116q-32 -61 -81.5 -95t-127.5 -34q-67 0 -117 27.5t-83.5 74t-50 109t-16.5 133.5q0 79 19 143t52.5 110t81 71t104.5 25q43 0 76.5 -10t59 -28t44.5 -42.5t33 -52.5l-33 -17q-12 24 -28 45t-37.5 36.5t-49.5 25t-64 9.5q-44 0 -84 -20.5t-70 -60.5t-47.5 -99
t-17.5 -136q0 -65 15.5 -121.5t45 -98t72 -65.5t95.5 -24q34 0 61.5 9t49 24.5t38.5 36t29 43.5zM290 712l-123 154l26 18l115 -142l112 142l26 -18l-120 -154h-36z" />
    <glyph glyph-name="ccaron" unicode="&#x10d;" horiz-adv-x="442" 
d="M418 79q-12 -18 -27 -34t-35.5 -28.5t-46 -20t-58.5 -7.5q-46 0 -83.5 17.5t-64.5 50t-41.5 78.5t-14.5 104q0 59 15.5 105.5t42.5 78.5t64 49t80 17q34 0 60 -8t45 -21t32 -30t23 -36l-31 -16q-8 15 -18.5 29t-26 25t-36 18t-48.5 7q-40 0 -71 -17.5t-52 -47.5
t-32 -69.5t-11 -83.5q0 -47 11.5 -87t33.5 -68.5t53.5 -44.5t71.5 -16q48 0 80.5 20t55.5 55zM229 546l-123 154l26 18l115 -142l112 142l26 -18l-120 -154h-36z" />
    <glyph glyph-name="Dcaron" unicode="&#x10e;" horiz-adv-x="595" 
d="M81 0v667h159q150 0 233.5 -84t83.5 -240q0 -167 -81 -255t-236 -88h-159zM119 36h111q138 0 213 74.5t75 228.5q0 143 -75 217.5t-209 74.5h-115v-595zM235 712l-123 154l26 18l115 -142l112 142l26 -18l-120 -154h-36z" />
    <glyph glyph-name="dcaron" unicode="&#x10f;" horiz-adv-x="497" 
d="M398 0l-6 44q-20 -23 -55.5 -39t-84.5 -16q-47 0 -85 17t-65 49.5t-41.5 78.5t-14.5 105t16.5 105.5t46 78.5t68.5 49t84 17q51 0 81.5 -12t49.5 -28v218h36v-667h-30zM392 407q-20 21 -53 35.5t-75 14.5q-39 0 -72 -15t-57.5 -43t-38.5 -68.5t-14 -91.5
q0 -102 46.5 -160t125.5 -58q48 0 83 20.5t55 47.5v318zM476 502v165h40l-14 -165h-26z" />
    <glyph glyph-name="Dcroat" unicode="&#x110;" horiz-adv-x="595" 
d="M81 0v342h-77v36h77v289h159q150 0 233.5 -84t83.5 -240q0 -167 -81 -255t-236 -88h-159zM119 36h111q138 0 213 74.5t75 228.5q0 143 -75 217.5t-209 74.5h-115v-253h169v-36h-169v-306z" />
    <glyph glyph-name="dcroat" unicode="&#x111;" horiz-adv-x="497" 
d="M398 0l-6 44q-20 -23 -55.5 -39t-84.5 -16q-47 0 -85 17t-65 49.5t-41.5 78.5t-14.5 105t16.5 105.5t46 78.5t68.5 49t84 17q51 0 81.5 -12t49.5 -28v115h-184v33h184v70h36v-70h62v-33h-62v-564h-30zM392 407q-20 21 -53 35.5t-75 14.5q-39 0 -72 -15t-57.5 -43
t-38.5 -68.5t-14 -91.5q0 -102 46.5 -160t125.5 -58q48 0 83 20.5t55 47.5v318z" />
    <glyph glyph-name="Emacron" unicode="&#x112;" horiz-adv-x="478" 
d="M81 0v667h364v-36h-326v-256h238v-36h-239v-303h344v-36h-381zM119 782v33h282v-33h-282z" />
    <glyph glyph-name="emacron" unicode="&#x113;" horiz-adv-x="471" 
d="M81 250q0 -109 43.5 -169t129.5 -60q55 0 89 26t56 66l30 -16q-11 -20 -26 -39.5t-36.5 -34.5t-49.5 -24.5t-65 -9.5q-98 0 -151.5 66.5t-53.5 182.5q0 59 15 105.5t41 79t62.5 49.5t79.5 17q45 0 79.5 -17t59 -48t38 -75.5t15.5 -98.5h-356zM397 283q-3 46 -17 79
t-35 54t-47 31t-53 10q-31 0 -58 -10.5t-49 -31.5t-36.5 -54t-19.5 -78h315zM106 616v33h282v-33h-282z" />
    <glyph glyph-name="Ebreve" unicode="&#x114;" horiz-adv-x="478" 
d="M81 0v667h364v-36h-326v-256h238v-36h-239v-303h344v-36h-381zM147 867q5 -57 37 -86.5t85 -29.5t85 29.5t37 86.5h31q-1 -39 -15 -67t-35.5 -45.5t-48.5 -26t-54 -8.5t-54 8.5t-48.5 26t-35.5 45.5t-15 67h31z" />
    <glyph glyph-name="ebreve" unicode="&#x115;" horiz-adv-x="471" 
d="M81 250q0 -109 43.5 -169t129.5 -60q55 0 89 26t56 66l30 -16q-11 -20 -26 -39.5t-36.5 -34.5t-49.5 -24.5t-65 -9.5q-98 0 -151.5 66.5t-53.5 182.5q0 59 15 105.5t41 79t62.5 49.5t79.5 17q45 0 79.5 -17t59 -48t38 -75.5t15.5 -98.5h-356zM397 283q-3 46 -17 79
t-35 54t-47 31t-53 10q-31 0 -58 -10.5t-49 -31.5t-36.5 -54t-19.5 -78h315zM127 701q5 -57 37 -86.5t85 -29.5t85 29.5t37 86.5h31q-1 -39 -15 -67t-35.5 -45.5t-48.5 -26t-54 -8.5t-54 8.5t-48.5 26t-35.5 45.5t-15 67h31z" />
    <glyph glyph-name="Edotaccent" unicode="&#x116;" horiz-adv-x="478" 
d="M81 0v667h364v-36h-326v-256h238v-36h-239v-303h344v-36h-381zM261 772q-14 0 -22.5 12t-8.5 28t8.5 28t22.5 12t22 -12.5t8 -27.5t-8 -27.5t-22 -12.5z" />
    <glyph glyph-name="edotaccent" unicode="&#x117;" horiz-adv-x="471" 
d="M81 250q0 -109 43.5 -169t129.5 -60q55 0 89 26t56 66l30 -16q-11 -20 -26 -39.5t-36.5 -34.5t-49.5 -24.5t-65 -9.5q-98 0 -151.5 66.5t-53.5 182.5q0 59 15 105.5t41 79t62.5 49.5t79.5 17q45 0 79.5 -17t59 -48t38 -75.5t15.5 -98.5h-356zM397 283q-3 46 -17 79
t-35 54t-47 31t-53 10q-31 0 -58 -10.5t-49 -31.5t-36.5 -54t-19.5 -78h315zM246 594q-14 0 -22.5 12t-8.5 28t8.5 28t22.5 12t22 -12.5t8 -27.5t-8 -27.5t-22 -12.5z" />
    <glyph glyph-name="Eogonek" unicode="&#x118;" horiz-adv-x="478" 
d="M455 -162q-9 -4 -18.5 -6t-21.5 -2q-36 0 -54 19.5t-18 50.5q0 22 8 40t20 32t25 25l4 3h-319v667h364v-36h-326v-256h238v-36h-239v-303h344v-36h-21q-9 -6 -18 -14q-12 -10 -22.5 -22.5t-17 -27t-6.5 -32.5q0 -20 11 -32t31 -12q14 0 29 6z" />
    <glyph glyph-name="eogonek" unicode="&#x119;" horiz-adv-x="471" 
d="M339 -162q-9 -4 -18.5 -6t-21.5 -2q-36 0 -54 19.5t-18 50.5q0 22 8 40t20 32l16 18q-9 -1 -19 -1q-98 0 -151.5 66.5t-53.5 182.5q0 59 15 105.5t41 79t62.5 49.5t79.5 17q45 0 79.5 -17t59 -48t38 -75.5t15.5 -98.5h-356q0 -109 43.5 -169t129.5 -60q55 0 89 26t56 66
l30 -16q-11 -20 -26 -39.5t-37 -34.5q-15 -11 -34 -19q-12 -8 -24.5 -18t-23 -22.5t-17 -27t-6.5 -32.5q0 -20 11 -32t31 -12q14 0 29 6zM397 283q-3 46 -17 79t-35 54t-47 31t-53 10q-31 0 -58 -10.5t-49 -31.5t-36.5 -54t-19.5 -78h315z" />
    <glyph glyph-name="Ecaron" unicode="&#x11a;" horiz-adv-x="478" 
d="M81 0v667h364v-36h-326v-256h238v-36h-239v-303h344v-36h-381zM239 712l-123 154l26 18l115 -142l112 142l26 -18l-120 -154h-36z" />
    <glyph glyph-name="ecaron" unicode="&#x11b;" horiz-adv-x="471" 
d="M81 250q0 -109 43.5 -169t129.5 -60q55 0 89 26t56 66l30 -16q-11 -20 -26 -39.5t-36.5 -34.5t-49.5 -24.5t-65 -9.5q-98 0 -151.5 66.5t-53.5 182.5q0 59 15 105.5t41 79t62.5 49.5t79.5 17q45 0 79.5 -17t59 -48t38 -75.5t15.5 -98.5h-356zM397 283q-3 46 -17 79
t-35 54t-47 31t-53 10q-31 0 -58 -10.5t-49 -31.5t-36.5 -54t-19.5 -78h315zM225 546l-123 154l26 18l115 -142l112 142l26 -18l-120 -154h-36z" />
    <glyph glyph-name="Gcircumflex" unicode="&#x11c;" horiz-adv-x="581" 
d="M531 24q-37 -16 -89 -26.5t-112 -10.5q-66 0 -118 24.5t-88 69.5t-55.5 108.5t-19.5 141.5t20.5 142t57 110t86 71.5t107.5 25.5q45 0 79 -10.5t59.5 -27.5t43.5 -39t30 -46l-32 -19q-10 19 -26 38.5t-38 35t-51 25t-65 9.5q-47 0 -89 -21t-74 -61.5t-50.5 -99
t-18.5 -134.5q0 -68 17 -125t48.5 -98t76.5 -64.5t101 -23.5q23 0 46.5 3t45 7.5t40 10t31.5 10.5v229h-137v36h174v-291zM189 730l123 154h36l120 -154l-26 -18l-112 142l-115 -142z" />
    <glyph glyph-name="gcircumflex" unicode="&#x11d;" horiz-adv-x="490" 
d="M393 437q16 -14 29.5 -41.5t13.5 -63.5t-14.5 -66.5t-40 -52.5t-60.5 -34.5t-76 -12.5q-25 0 -43 3t-31 7q-24 -6 -41.5 -18.5t-17.5 -29.5q0 -27 34.5 -38t112.5 -19q34 -3 68 -7.5t52 -9.5q53 -13 75.5 -41.5t22.5 -72.5q0 -69 -51.5 -104.5t-156.5 -35.5
q-113 0 -171 35t-58 109q0 50 25.5 78.5t57.5 42.5q-17 8 -30.5 21.5t-13.5 39.5q0 23 15.5 39.5t42.5 25.5q-31 18 -54.5 50.5t-23.5 88.5q0 35 14.5 64t39.5 50t59 33t74 12q45 0 72 -8.5t48 -20.5l51 60l26 -22zM104 273q12 -24 32 -40.5t47.5 -25t59.5 -8.5
q29 0 57.5 7.5t51 24t36.5 42.5t14 62q0 34 -15 57.5t-38 38t-50 21t-52 6.5q-31 0 -59 -9t-49 -26t-33.5 -40.5t-12.5 -53.5q0 -32 11 -56zM178 49q-12 2 -20 4q-33 -10 -58.5 -37t-25.5 -69q0 -33 14 -55.5t39.5 -36t61 -19t79.5 -5.5q82 0 128.5 25.5t46.5 79.5
q0 60 -46 80q-17 8 -51 13.5t-88 10.5q-11 1 -25 2.5t-28 3.5t-27 3zM111 564l123 154h36l120 -154l-26 -18l-112 142l-115 -142z" />
    <glyph glyph-name="Gbreve" unicode="&#x11e;" horiz-adv-x="581" 
d="M531 24q-37 -16 -89 -26.5t-112 -10.5q-66 0 -118 24.5t-88 69.5t-55.5 108.5t-19.5 141.5t20.5 142t57 110t86 71.5t107.5 25.5q45 0 79 -10.5t59.5 -27.5t43.5 -39t30 -46l-32 -19q-10 19 -26 38.5t-38 35t-51 25t-65 9.5q-47 0 -89 -21t-74 -61.5t-50.5 -99
t-18.5 -134.5q0 -68 17 -125t48.5 -98t76.5 -64.5t101 -23.5q23 0 46.5 3t45 7.5t40 10t31.5 10.5v229h-137v36h174v-291zM199 867q5 -57 37 -86.5t85 -29.5t85 29.5t37 86.5h31q-1 -39 -15 -67t-35.5 -45.5t-48.5 -26t-54 -8.5t-54 8.5t-48.5 26t-35.5 45.5t-15 67h31z" />
    <glyph glyph-name="gbreve" unicode="&#x11f;" horiz-adv-x="490" 
d="M393 437q16 -14 29.5 -41.5t13.5 -63.5t-14.5 -66.5t-40 -52.5t-60.5 -34.5t-76 -12.5q-25 0 -43 3t-31 7q-24 -6 -41.5 -18.5t-17.5 -29.5q0 -27 34.5 -38t112.5 -19q34 -3 68 -7.5t52 -9.5q53 -13 75.5 -41.5t22.5 -72.5q0 -69 -51.5 -104.5t-156.5 -35.5
q-113 0 -171 35t-58 109q0 50 25.5 78.5t57.5 42.5q-17 8 -30.5 21.5t-13.5 39.5q0 23 15.5 39.5t42.5 25.5q-31 18 -54.5 50.5t-23.5 88.5q0 35 14.5 64t39.5 50t59 33t74 12q45 0 72 -8.5t48 -20.5l51 60l26 -22zM104 273q12 -24 32 -40.5t47.5 -25t59.5 -8.5
q29 0 57.5 7.5t51 24t36.5 42.5t14 62q0 34 -15 57.5t-38 38t-50 21t-52 6.5q-31 0 -59 -9t-49 -26t-33.5 -40.5t-12.5 -53.5q0 -32 11 -56zM178 49q-12 2 -20 4q-33 -10 -58.5 -37t-25.5 -69q0 -33 14 -55.5t39.5 -36t61 -19t79.5 -5.5q82 0 128.5 25.5t46.5 79.5
q0 60 -46 80q-17 8 -51 13.5t-88 10.5q-11 1 -25 2.5t-28 3.5t-27 3zM123 701q5 -57 37 -86.5t85 -29.5t85 29.5t37 86.5h31q-1 -39 -15 -67t-35.5 -45.5t-48.5 -26t-54 -8.5t-54 8.5t-48.5 26t-35.5 45.5t-15 67h31z" />
    <glyph glyph-name="Gdotaccent" unicode="&#x120;" horiz-adv-x="581" 
d="M531 24q-37 -16 -89 -26.5t-112 -10.5q-66 0 -118 24.5t-88 69.5t-55.5 108.5t-19.5 141.5t20.5 142t57 110t86 71.5t107.5 25.5q45 0 79 -10.5t59.5 -27.5t43.5 -39t30 -46l-32 -19q-10 19 -26 38.5t-38 35t-51 25t-65 9.5q-47 0 -89 -21t-74 -61.5t-50.5 -99
t-18.5 -134.5q0 -68 17 -125t48.5 -98t76.5 -64.5t101 -23.5q23 0 46.5 3t45 7.5t40 10t31.5 10.5v229h-137v36h174v-291zM328 760q-14 0 -22.5 12t-8.5 28t8.5 28t22.5 12t22 -12.5t8 -27.5t-8 -27.5t-22 -12.5z" />
    <glyph glyph-name="gdotaccent" unicode="&#x121;" horiz-adv-x="490" 
d="M393 437q16 -14 29.5 -41.5t13.5 -63.5t-14.5 -66.5t-40 -52.5t-60.5 -34.5t-76 -12.5q-25 0 -43 3t-31 7q-24 -6 -41.5 -18.5t-17.5 -29.5q0 -27 34.5 -38t112.5 -19q34 -3 68 -7.5t52 -9.5q53 -13 75.5 -41.5t22.5 -72.5q0 -69 -51.5 -104.5t-156.5 -35.5
q-113 0 -171 35t-58 109q0 50 25.5 78.5t57.5 42.5q-17 8 -30.5 21.5t-13.5 39.5q0 23 15.5 39.5t42.5 25.5q-31 18 -54.5 50.5t-23.5 88.5q0 35 14.5 64t39.5 50t59 33t74 12q45 0 72 -8.5t48 -20.5l51 60l26 -22zM104 273q12 -24 32 -40.5t47.5 -25t59.5 -8.5
q29 0 57.5 7.5t51 24t36.5 42.5t14 62q0 34 -15 57.5t-38 38t-50 21t-52 6.5q-31 0 -59 -9t-49 -26t-33.5 -40.5t-12.5 -53.5q0 -32 11 -56zM178 49q-12 2 -20 4q-33 -10 -58.5 -37t-25.5 -69q0 -33 14 -55.5t39.5 -36t61 -19t79.5 -5.5q82 0 128.5 25.5t46.5 79.5
q0 60 -46 80q-17 8 -51 13.5t-88 10.5q-11 1 -25 2.5t-28 3.5t-27 3zM248 594q-14 0 -22.5 12t-8.5 28t8.5 28t22.5 12t22 -12.5t8 -27.5t-8 -27.5t-22 -12.5z" />
    <glyph glyph-name="Gcommaaccent" unicode="&#x122;" horiz-adv-x="581" 
d="M531 24q-37 -16 -89 -26.5t-112 -10.5q-66 0 -118 24.5t-88 69.5t-55.5 108.5t-19.5 141.5t20.5 142t57 110t86 71.5t107.5 25.5q45 0 79 -10.5t59.5 -27.5t43.5 -39t30 -46l-32 -19q-10 19 -26 38.5t-38 35t-51 25t-65 9.5q-47 0 -89 -21t-74 -61.5t-50.5 -99
t-18.5 -134.5q0 -68 17 -125t48.5 -98t76.5 -64.5t101 -23.5q23 0 46.5 3t45 7.5t40 10t31.5 10.5v229h-137v36h174v-291zM262 -174l51 130h47l-70 -130h-28z" />
    <glyph glyph-name="gcommaaccent" unicode="&#x123;" horiz-adv-x="490" 
d="M393 437q16 -14 29.5 -41.5t13.5 -63.5t-14.5 -66.5t-40 -52.5t-60.5 -34.5t-76 -12.5q-25 0 -43 3t-31 7q-24 -6 -41.5 -18.5t-17.5 -29.5q0 -27 34.5 -38t112.5 -19q34 -3 68 -7.5t52 -9.5q53 -13 75.5 -41.5t22.5 -72.5q0 -69 -51.5 -104.5t-156.5 -35.5
q-113 0 -171 35t-58 109q0 50 25.5 78.5t57.5 42.5q-17 8 -30.5 21.5t-13.5 39.5q0 23 15.5 39.5t42.5 25.5q-31 18 -54.5 50.5t-23.5 88.5q0 35 14.5 64t39.5 50t59 33t74 12q45 0 72 -8.5t48 -20.5l51 60l26 -22zM104 273q12 -24 32 -40.5t47.5 -25t59.5 -8.5
q29 0 57.5 7.5t51 24t36.5 42.5t14 62q0 34 -15 57.5t-38 38t-50 21t-52 6.5q-31 0 -59 -9t-49 -26t-33.5 -40.5t-12.5 -53.5q0 -32 11 -56zM178 49q-12 2 -20 4q-33 -10 -58.5 -37t-25.5 -69q0 -33 14 -55.5t39.5 -36t61 -19t79.5 -5.5q82 0 128.5 25.5t46.5 79.5
q0 60 -46 80q-17 8 -51 13.5t-88 10.5q-11 1 -25 2.5t-28 3.5t-27 3zM217 569l70 130h28l-51 -130h-47z" />
    <glyph glyph-name="Hcircumflex" unicode="&#x124;" horiz-adv-x="621" 
d="M81 0v667h38v-303h383v303h38v-667h-38v328h-383v-328h-38zM176 730l123 154h36l120 -154l-26 -18l-112 142l-115 -142z" />
    <glyph glyph-name="hcircumflex" unicode="&#x125;" horiz-adv-x="505" 
d="M69 0v667h36v-234q29 23 67 39.5t92 16.5q90 0 133 -46t43 -134v-309h-36v307q0 80 -38.5 114.5t-105.5 34.5q-48 0 -85.5 -18t-69.5 -44v-394h-36zM69 730l123 154h36l120 -154l-26 -18l-112 142l-115 -142z" />
    <glyph glyph-name="Hbar" unicode="&#x126;" horiz-adv-x="621" 
d="M81 0v518h-90v32h90v117h38v-117h383v117h38v-117h123v-32h-123v-518h-38v328h-383v-328h-38zM119 364h383v154h-383v-154z" />
    <glyph glyph-name="hbar" unicode="&#x127;" horiz-adv-x="505" 
d="M69 0v577h-67v32h67v58h36v-58h239v-32h-239v-144q29 23 67 39.5t92 16.5q90 0 133 -46t43 -134v-309h-36v307q0 80 -38.5 114.5t-105.5 34.5q-48 0 -85.5 -18t-69.5 -44v-394h-36z" />
    <glyph glyph-name="Itilde" unicode="&#x128;" horiz-adv-x="200" 
d="M81 0v667h38v-667h-38zM-56 773q15 29 37 48t54 19q20 0 39 -8t37 -19q11 -7 26 -15.5t29 -8.5q22 0 36 12t27 37l27 -13q-29 -66 -91 -66q-14 0 -31.5 8t-37.5 19q-23 14 -34 19.5t-27 5.5q-36 0 -64 -52z" />
    <glyph glyph-name="itilde" unicode="&#x129;" horiz-adv-x="175" 
d="M69 0v476h36v-476h-36zM-68 607q15 29 37 48t54 19q20 0 39 -8t37 -19q11 -7 26 -15.5t29 -8.5q22 0 36 12t27 37l27 -13q-29 -66 -91 -66q-14 0 -31.5 8t-37.5 19q-23 14 -34 19.5t-27 5.5q-36 0 -64 -52z" />
    <glyph glyph-name="Imacron" unicode="&#x12a;" horiz-adv-x="200" 
d="M81 0v667h38v-667h-38zM-41 782v33h282v-33h-282z" />
    <glyph glyph-name="imacron" unicode="&#x12b;" horiz-adv-x="175" 
d="M69 0v476h36v-476h-36zM-52 616v33h282v-33h-282z" />
    <glyph glyph-name="Ibreve" unicode="&#x12c;" horiz-adv-x="200" 
d="M81 0v667h38v-667h-38zM-22 867q5 -57 37 -86.5t85 -29.5t85 29.5t37 86.5h31q-1 -39 -15 -67t-35.5 -45.5t-48.5 -26t-54 -8.5t-54 8.5t-48.5 26t-35.5 45.5t-15 67h31z" />
    <glyph glyph-name="ibreve" unicode="&#x12d;" horiz-adv-x="175" 
d="M69 0v476h36v-476h-36zM-34 701q5 -57 37 -86.5t85 -29.5t85 29.5t37 86.5h31q-1 -39 -15 -67t-35.5 -45.5t-48.5 -26t-54 -8.5t-54 8.5t-48.5 26t-35.5 45.5t-15 67h31z" />
    <glyph glyph-name="Iogonek" unicode="&#x12e;" horiz-adv-x="200" 
d="M126 -162q-9 -4 -18.5 -6t-21.5 -2q-36 0 -54 19.5t-18 50.5q0 22 8 40t20 32t25 25q8 6 14 11v659h38v-667h-7q-9 -6 -18 -14q-12 -10 -22.5 -22.5t-17 -27t-6.5 -32.5q0 -20 11 -32t31 -12q14 0 29 6z" />
    <glyph glyph-name="iogonek" unicode="&#x12f;" horiz-adv-x="175" 
d="M114 -162q-9 -4 -18.5 -6t-21.5 -2q-36 0 -54 19.5t-18 50.5q0 22 8 40t20 32t25 25q8 6 14 11v468h36v-471l2 -1l-2 -1v-3h-5q-9 -6 -18 -14q-12 -10 -22.5 -22.5t-17 -27t-6.5 -32.5q0 -20 11 -32t31 -12q14 0 29 6zM87 594q-11 0 -19 11t-8 27q0 15 7.5 25t19.5 10
t20 -10t8 -25q0 -17 -8 -27.5t-20 -10.5z" />
    <glyph glyph-name="Idotaccent" unicode="&#x130;" horiz-adv-x="200" 
d="M81 0v667h38v-667h-38zM100 772q-14 0 -22.5 12t-8.5 28t8.5 28t22.5 12t22 -12.5t8 -27.5t-8 -27.5t-22 -12.5z" />
    <glyph glyph-name="dotlessi" unicode="&#x131;" horiz-adv-x="175" 
d="M69 0v476h36v-476h-36z" />
    <glyph glyph-name="IJ" unicode="&#x132;" horiz-adv-x="449" 
d="M81 0v667h38v-667h-38zM203 -88q24 6 47 15.5t40.5 25.5t28.5 40t11 57v617h38v-621q0 -41 -13.5 -70t-35.5 -48.5t-50.5 -31.5t-58.5 -18z" />
    <glyph glyph-name="ij" unicode="&#x133;" horiz-adv-x="384" 
d="M87 594q-11 0 -19 11t-8 27q0 15 7.5 25t19.5 10t20 -10t8 -25q0 -17 -8 -27.5t-20 -10.5zM69 0v476h36v-476h-36zM296 594q-11 0 -19 11t-8 27q0 15 7.5 25t19.5 10t20 -10t8 -25q0 -17 -8 -27.5t-20 -10.5zM196 -167q47 28 65.5 68.5t18.5 94.5v480h36v-480
q0 -72 -24.5 -116t-78.5 -76z" />
    <glyph glyph-name="Jcircumflex" unicode="&#x134;" horiz-adv-x="207" 
d="M-39 -88q24 6 47 15.5t40.5 25.5t28.5 40t11 57v617h38v-621q0 -41 -13.5 -70t-35.5 -48.5t-50.5 -31.5t-58.5 -18zM-30 730l123 154h36l120 -154l-26 -18l-112 142l-115 -142z" />
    <glyph glyph-name="jcircumflex" unicode="&#x135;" horiz-adv-x="173" 
d="M-15 -167q47 28 65.5 68.5t18.5 94.5v480h36v-480q0 -72 -24.5 -116t-78.5 -76zM-49 564l123 154h36l120 -154l-26 -18l-112 142l-115 -142z" />
    <glyph glyph-name="Kcommaaccent" unicode="&#x136;" horiz-adv-x="527" 
d="M81 0v667h38v-344l338 344h46l-255 -263l279 -404h-45l-261 376l-102 -100v-276h-38zM217 -174l51 130h47l-70 -130h-28z" />
    <glyph glyph-name="kcommaaccent" unicode="&#x137;" horiz-adv-x="440" 
d="M69 0v667h36v-412l234 221h47l-160 -155l214 -321h-44l-198 296l-93 -87v-209h-36zM174 -174l51 130h47l-70 -130h-28z" />
    <glyph glyph-name="kgreenlandic" unicode="&#x138;" horiz-adv-x="440" 
d="M69 0v476h36v-259l234 259h47l-159 -178l213 -298h-44l-197 273l-94 -104v-169h-36z" />
    <glyph glyph-name="Lacute" unicode="&#x139;" horiz-adv-x="450" 
d="M81 0v667h38v-631h331v-36h-369zM81 715l-17 20l164 141l28 -32z" />
    <glyph glyph-name="lacute" unicode="&#x13a;" horiz-adv-x="174" 
d="M69 0v667h36v-667h-36zM37 715l-17 20l164 141l28 -32z" />
    <glyph glyph-name="Lcommaaccent" unicode="&#x13b;" horiz-adv-x="450" 
d="M81 0v667h38v-631h331v-36h-369zM195 -174l51 130h47l-70 -130h-28z" />
    <glyph glyph-name="lcommaaccent" unicode="&#x13c;" horiz-adv-x="174" 
d="M69 0v667h36v-667h-36zM10 -174l51 130h47l-70 -130h-28z" />
    <glyph glyph-name="Lcaron" unicode="&#x13d;" horiz-adv-x="450" 
d="M81 0v667h38v-631h331v-36h-369zM227 502v165h40l-14 -165h-26z" />
    <glyph glyph-name="lcaron" unicode="&#x13e;" horiz-adv-x="174" 
d="M69 0v667h36v-667h-36zM154 502v165h40l-14 -165h-26z" />
    <glyph glyph-name="Ldot" unicode="&#x13f;" horiz-adv-x="450" 
d="M81 0v667h38v-631h331v-36h-369zM335 312q-14 0 -22.5 12t-8.5 28t8.5 28t22.5 12t22 -12.5t8 -27.5t-8 -27.5t-22 -12.5z" />
    <glyph glyph-name="ldot" unicode="&#x140;" horiz-adv-x="215" 
d="M69 0v667h36v-667h-36zM198 312q-14 0 -22.5 12t-8.5 28t8.5 28t22.5 12t22 -12.5t8 -27.5t-8 -27.5t-22 -12.5z" />
    <glyph glyph-name="Lslash" unicode="&#x141;" horiz-adv-x="450" 
d="M81 0v311l-79 -54l-17 28l96 64v318h38v-293l120 80l20 -28l-140 -90v-300h331v-36h-369z" />
    <glyph glyph-name="lslash" unicode="&#x142;" horiz-adv-x="174" 
d="M69 0v313l-68 -44l-16 26l84 56v316h36v-292l67 44l19 -26l-86 -56v-337h-36z" />
    <glyph glyph-name="Nacute" unicode="&#x143;" horiz-adv-x="640" 
d="M81 0v667h42l398 -603v603h38v-667h-41l-400 606v-606h-37zM263 715l-17 20l164 141l28 -32z" />
    <glyph glyph-name="nacute" unicode="&#x144;" horiz-adv-x="507" 
d="M69 0v476h32l4 -48q15 12 31 23t35.5 19.5t43.5 13.5t54 5q82 0 127.5 -46.5t45.5 -142.5v-300h-36v307q0 69 -35.5 108.5t-104.5 39.5q-53 0 -92.5 -20.5t-68.5 -47.5v-387h-36zM178 549l-17 20l164 141l28 -32z" />
    <glyph glyph-name="Ncommaaccent" unicode="&#x145;" horiz-adv-x="640" 
d="M81 0v667h42l398 -603v603h38v-667h-41l-400 606v-606h-37zM274 -174l51 130h47l-70 -130h-28z" />
    <glyph glyph-name="ncommaaccent" unicode="&#x146;" horiz-adv-x="507" 
d="M69 0v476h32l4 -48q15 12 31 23t35.5 19.5t43.5 13.5t54 5q82 0 127.5 -46.5t45.5 -142.5v-300h-36v307q0 69 -35.5 108.5t-104.5 39.5q-53 0 -92.5 -20.5t-68.5 -47.5v-387h-36zM197 -174l51 130h47l-70 -130h-28z" />
    <glyph glyph-name="Ncaron" unicode="&#x147;" horiz-adv-x="640" 
d="M81 0v667h42l398 -603v603h38v-667h-41l-400 606v-606h-37zM309 712l-123 154l26 18l115 -142l112 142l26 -18l-120 -154h-36z" />
    <glyph glyph-name="ncaron" unicode="&#x148;" horiz-adv-x="507" 
d="M69 0v476h32l4 -48q15 12 31 23t35.5 19.5t43.5 13.5t54 5q82 0 127.5 -46.5t45.5 -142.5v-300h-36v307q0 69 -35.5 108.5t-104.5 39.5q-53 0 -92.5 -20.5t-68.5 -47.5v-387h-36zM236 546l-123 154l26 18l115 -142l112 142l26 -18l-120 -154h-36z" />
    <glyph glyph-name="napostrophe" unicode="&#x149;" horiz-adv-x="507" 
d="M69 0v476h32l4 -48q15 12 31 23t35.5 19.5t43.5 13.5t54 5q82 0 127.5 -46.5t45.5 -142.5v-300h-36v307q0 69 -35.5 108.5t-104.5 39.5q-53 0 -92.5 -20.5t-68.5 -47.5v-387h-36zM17 531q15 9 31 27.5t22 32.5q-11 6 -18.5 15t-7.5 28q0 17 8 29t23 12q14 0 22.5 -11.5
t8.5 -31.5q0 -38 -23.5 -68.5t-55.5 -51.5z" />
    <glyph glyph-name="Eng" unicode="&#x14a;" horiz-adv-x="640" 
d="M81 0v667h42l398 -603v603h38v-675q0 -69 -25 -113t-78 -75l-17 29q46 28 64.5 67.5t19.5 93.5l-405 612v-606h-37z" />
    <glyph glyph-name="eng" unicode="&#x14b;" horiz-adv-x="507" 
d="M69 0v476h32l4 -48q15 12 31 23t35.5 19.5t43.5 13.5t54 5q82 0 127.5 -46.5t45.5 -142.5v-311q-2 -68 -26.5 -111t-76.5 -74l-17 29q47 28 65.5 68.5t18.5 94.5v311q0 69 -35.5 108.5t-104.5 39.5q-53 0 -92.5 -20.5t-68.5 -47.5v-387h-36z" />
    <glyph glyph-name="Omacron" unicode="&#x14c;" horiz-adv-x="631" 
d="M199 16q-50 29 -83.5 77.5t-50 111t-16.5 129.5q0 69 18 132t52.5 110.5t84 75.5t113.5 28q67 0 117 -29.5t83 -78t49 -111t16 -127.5t-16 -127.5t-49 -111t-83 -78.5t-117 -30t-118 29zM144 121q29 -44 72 -72t101 -28t100.5 28t70.5 73t41.5 101t13.5 111t-13.5 110.5
t-41 100.5t-70.5 73t-101 28q-60 0 -103 -28t-71 -72.5t-41.5 -100.5t-13.5 -111q0 -56 14 -112t42 -101zM171 782v33h282v-33h-282z" />
    <glyph glyph-name="omacron" unicode="&#x14d;" horiz-adv-x="507" 
d="M164 10q-38 21 -64 56.5t-39.5 81t-13.5 94.5q0 48 13 93t39 79t64.5 54.5t89.5 20.5q50 0 88.5 -20.5t65 -54.5t40 -79.5t13.5 -94.5q0 -50 -13.5 -95.5t-40 -80t-65 -55t-88.5 -20.5t-89 21zM125 91q21 -31 53 -50.5t75 -19.5t75 19.5t53.5 51t32 70.5t10.5 79
t-10.5 79t-32 69.5t-53.5 49t-75 18.5t-75 -18.5t-53 -49t-31.5 -69t-10.5 -78.5t10.5 -79.5t31.5 -71.5zM115 616v33h282v-33h-282z" />
    <glyph glyph-name="Obreve" unicode="&#x14e;" horiz-adv-x="631" 
d="M199 16q-50 29 -83.5 77.5t-50 111t-16.5 129.5q0 69 18 132t52.5 110.5t84 75.5t113.5 28q67 0 117 -29.5t83 -78t49 -111t16 -127.5t-16 -127.5t-49 -111t-83 -78.5t-117 -30t-118 29zM144 121q29 -44 72 -72t101 -28t100.5 28t70.5 73t41.5 101t13.5 111t-13.5 110.5
t-41 100.5t-70.5 73t-101 28q-60 0 -103 -28t-71 -72.5t-41.5 -100.5t-13.5 -111q0 -56 14 -112t42 -101zM201 867q5 -57 37 -86.5t85 -29.5t85 29.5t37 86.5h31q-1 -39 -15 -67t-35.5 -45.5t-48.5 -26t-54 -8.5t-54 8.5t-48.5 26t-35.5 45.5t-15 67h31z" />
    <glyph glyph-name="obreve" unicode="&#x14f;" horiz-adv-x="507" 
d="M164 10q-38 21 -64 56.5t-39.5 81t-13.5 94.5q0 48 13 93t39 79t64.5 54.5t89.5 20.5q50 0 88.5 -20.5t65 -54.5t40 -79.5t13.5 -94.5q0 -50 -13.5 -95.5t-40 -80t-65 -55t-88.5 -20.5t-89 21zM125 91q21 -31 53 -50.5t75 -19.5t75 19.5t53.5 51t32 70.5t10.5 79
t-10.5 79t-32 69.5t-53.5 49t-75 18.5t-75 -18.5t-53 -49t-31.5 -69t-10.5 -78.5t10.5 -79.5t31.5 -71.5zM134 701q5 -57 37 -86.5t85 -29.5t85 29.5t37 86.5h31q-1 -39 -15 -67t-35.5 -45.5t-48.5 -26t-54 -8.5t-54 8.5t-48.5 26t-35.5 45.5t-15 67h31z" />
    <glyph glyph-name="Ohungarumlaut" unicode="&#x150;" horiz-adv-x="631" 
d="M199 16q-50 29 -83.5 77.5t-50 111t-16.5 129.5q0 69 18 132t52.5 110.5t84 75.5t113.5 28q67 0 117 -29.5t83 -78t49 -111t16 -127.5t-16 -127.5t-49 -111t-83 -78.5t-117 -30t-118 29zM144 121q29 -44 72 -72t101 -28t100.5 28t70.5 73t41.5 101t13.5 111t-13.5 110.5
t-41 100.5t-70.5 73t-101 28q-60 0 -103 -28t-71 -72.5t-41.5 -100.5t-13.5 -111q0 -56 14 -112t42 -101zM371 708l-19 19l151 154l31 -29zM212 708l-19 19l151 154l31 -29z" />
    <glyph glyph-name="ohungarumlaut" unicode="&#x151;" horiz-adv-x="507" 
d="M164 10q-38 21 -64 56.5t-39.5 81t-13.5 94.5q0 48 13 93t39 79t64.5 54.5t89.5 20.5q50 0 88.5 -20.5t65 -54.5t40 -79.5t13.5 -94.5q0 -50 -13.5 -95.5t-40 -80t-65 -55t-88.5 -20.5t-89 21zM125 91q21 -31 53 -50.5t75 -19.5t75 19.5t53.5 51t32 70.5t10.5 79
t-10.5 79t-32 69.5t-53.5 49t-75 18.5t-75 -18.5t-53 -49t-31.5 -69t-10.5 -78.5t10.5 -79.5t31.5 -71.5zM305 542l-19 19l151 154l31 -29zM146 542l-19 19l151 154l31 -29z" />
    <glyph glyph-name="OE" unicode="&#x152;" horiz-adv-x="860" 
d="M363 0q-68 0 -125.5 24t-99.5 67.5t-65.5 105t-23.5 137.5q0 77 23.5 139t65.5 105t99.5 66t124.5 23h465v-36h-316v-256h228v-36h-229v-303h334v-36h-481zM473 36v595h-111q-60 0 -110.5 -22.5t-87 -62.5t-56.5 -94t-20 -118q0 -63 21 -117.5t58 -94.5t87 -63t108 -23
h111z" />
    <glyph glyph-name="oe" unicode="&#x153;" horiz-adv-x="800" 
d="M439 250q0 -43 8 -84t26.5 -73.5t49 -52t74.5 -19.5q54 0 82.5 25.5t49.5 66.5l29 -16q-12 -21 -25 -40.5t-31.5 -34.5t-44 -24t-62.5 -9q-72 0 -114.5 36.5t-58.5 100.5q-23 -63 -63.5 -100t-115.5 -37q-50 0 -87 20.5t-61 55.5t-36 81t-12 96q0 49 12 94t36 79t61 54
t87 20q41 0 70 -9.5t49.5 -26.5t33.5 -39.5t23 -49.5q9 26 22.5 48.5t33.5 39.5t47 27t63 10q90 0 134 -62.5t47 -176.5h-327zM726 283q-3 46 -15 79t-31 54t-43.5 31t-51.5 10q-60 0 -97.5 -41.5t-48.5 -132.5h287zM120 87q20 -30 50.5 -48t72.5 -18t72.5 18t50 48.5
t29 70.5t9.5 84q0 48 -9.5 87.5t-29.5 68t-50.5 44t-71.5 15.5t-71.5 -17.5t-50 -47t-29 -68.5t-9.5 -82q0 -44 9 -84t28 -71z" />
    <glyph glyph-name="Racute" unicode="&#x154;" horiz-adv-x="515" 
d="M81 0v667h208q94 0 146 -46t52 -135q0 -86 -47.5 -128.5t-135.5 -48.5l188 -309h-43l-190 309h-140v-309h-38zM119 344h167q79 0 121 34.5t42 107.5q0 69 -41 107t-122 38h-167v-287zM170 715l-17 20l164 141l28 -32z" />
    <glyph glyph-name="racute" unicode="&#x155;" horiz-adv-x="286" 
d="M69 0v476h31l3 -53q23 28 53.5 46t70.5 18q36 0 56 -6l-6 -34q-10 3 -23 5t-28 2q-18 0 -35.5 -6.5t-33 -17t-29 -23.5t-23.5 -27v-380h-36zM103 549l-17 20l164 141l28 -32z" />
    <glyph glyph-name="Rcommaaccent" unicode="&#x156;" horiz-adv-x="515" 
d="M81 0v667h208q94 0 146 -46t52 -135q0 -86 -47.5 -128.5t-135.5 -48.5l188 -309h-43l-190 309h-140v-309h-38zM119 344h167q79 0 121 34.5t42 107.5q0 69 -41 107t-122 38h-167v-287zM211 -174l51 130h47l-70 -130h-28z" />
    <glyph glyph-name="rcommaaccent" unicode="&#x157;" horiz-adv-x="286" 
d="M69 0v476h31l3 -53q23 28 53.5 46t70.5 18q36 0 56 -6l-6 -34q-10 3 -23 5t-28 2q-18 0 -35.5 -6.5t-33 -17t-29 -23.5t-23.5 -27v-380h-36zM13 -174l51 130h47l-70 -130h-28z" />
    <glyph glyph-name="Rcaron" unicode="&#x158;" horiz-adv-x="515" 
d="M81 0v667h208q94 0 146 -46t52 -135q0 -86 -47.5 -128.5t-135.5 -48.5l188 -309h-43l-190 309h-140v-309h-38zM119 344h167q79 0 121 34.5t42 107.5q0 69 -41 107t-122 38h-167v-287zM235 712l-123 154l26 18l115 -142l112 142l26 -18l-120 -154h-36z" />
    <glyph glyph-name="rcaron" unicode="&#x159;" horiz-adv-x="286" 
d="M69 0v476h31l3 -53q23 28 53.5 46t70.5 18q36 0 56 -6l-6 -34q-10 3 -23 5t-28 2q-18 0 -35.5 -6.5t-33 -17t-29 -23.5t-23.5 -27v-380h-36zM165 546l-123 154l26 18l115 -142l112 142l26 -18l-120 -154h-36z" />
    <glyph glyph-name="Sacute" unicode="&#x15a;" horiz-adv-x="494" 
d="M67 122q29 -48 74 -74.5t105 -26.5q38 0 70 8.5t54.5 26.5t35 45t12.5 64t-14.5 64.5t-40 48.5t-60 37t-75.5 31q-26 10 -56.5 24t-57 35t-44.5 49.5t-18 67.5q0 38 15 67.5t42 49.5t64 30.5t80 10.5q42 0 73.5 -8.5t55.5 -22.5t42 -32t32 -37l-30 -23q-29 37 -70 63
t-105 26q-32 0 -60.5 -7t-51 -22t-35.5 -38.5t-13 -55.5q0 -31 16 -53.5t40 -38.5t50.5 -27.5t47.5 -19.5q41 -16 79 -34t67.5 -42.5t47.5 -59t18 -83.5q0 -86 -53 -132t-158 -46q-74 0 -126 28.5t-87 84.5zM178 715l-17 20l164 141l28 -32z" />
    <glyph glyph-name="sacute" unicode="&#x15b;" horiz-adv-x="372" 
d="M64 87q20 -29 51 -47.5t76 -18.5q52 0 85 24.5t33 69.5q0 27 -7.5 46.5t-23 34.5t-40.5 27t-60 24q-67 23 -94.5 52t-27.5 77q0 49 36 81t105 32q55 0 89 -21t51 -52l-29 -18q-15 25 -42 43t-69 18q-53 0 -78.5 -23.5t-25.5 -58.5q0 -20 5.5 -34t19.5 -25.5t37.5 -22
t59.5 -23.5q67 -23 98.5 -58t31.5 -99q0 -62 -44 -94t-110 -32q-62 0 -99.5 24t-56.5 54zM122 549l-17 20l164 141l28 -32z" />
    <glyph glyph-name="Scircumflex" unicode="&#x15c;" horiz-adv-x="494" 
d="M67 122q29 -48 74 -74.5t105 -26.5q38 0 70 8.5t54.5 26.5t35 45t12.5 64t-14.5 64.5t-40 48.5t-60 37t-75.5 31q-26 10 -56.5 24t-57 35t-44.5 49.5t-18 67.5q0 38 15 67.5t42 49.5t64 30.5t80 10.5q42 0 73.5 -8.5t55.5 -22.5t42 -32t32 -37l-30 -23q-29 37 -70 63
t-105 26q-32 0 -60.5 -7t-51 -22t-35.5 -38.5t-13 -55.5q0 -31 16 -53.5t40 -38.5t50.5 -27.5t47.5 -19.5q41 -16 79 -34t67.5 -42.5t47.5 -59t18 -83.5q0 -86 -53 -132t-158 -46q-74 0 -126 28.5t-87 84.5zM112 730l123 154h36l120 -154l-26 -18l-112 142l-115 -142z" />
    <glyph glyph-name="scircumflex" unicode="&#x15d;" horiz-adv-x="372" 
d="M64 87q20 -29 51 -47.5t76 -18.5q52 0 85 24.5t33 69.5q0 27 -7.5 46.5t-23 34.5t-40.5 27t-60 24q-67 23 -94.5 52t-27.5 77q0 49 36 81t105 32q55 0 89 -21t51 -52l-29 -18q-15 25 -42 43t-69 18q-53 0 -78.5 -23.5t-25.5 -58.5q0 -20 5.5 -34t19.5 -25.5t37.5 -22
t59.5 -23.5q67 -23 98.5 -58t31.5 -99q0 -62 -44 -94t-110 -32q-62 0 -99.5 24t-56.5 54zM60 564l123 154h36l120 -154l-26 -18l-112 142l-115 -142z" />
    <glyph glyph-name="Scedilla" unicode="&#x15e;" horiz-adv-x="494" 
d="M67 122q29 -48 74 -74.5t105 -26.5q38 0 70 8.5t54.5 26.5t35 45t12.5 64t-14.5 64.5t-40 48.5t-60 37t-75.5 31q-26 10 -56.5 24t-57 35t-44.5 49.5t-18 67.5q0 38 15 67.5t42 49.5t64 30.5t80 10.5q42 0 73.5 -8.5t55.5 -22.5t42 -32t32 -37l-30 -23q-29 37 -70 63
t-105 26q-32 0 -60.5 -7t-51 -22t-35.5 -38.5t-13 -55.5q0 -31 16 -53.5t40 -38.5t50.5 -27.5t47.5 -19.5q41 -16 79 -34t67.5 -42.5t47.5 -59t18 -83.5q0 -86 -53 -132t-158 -46q-74 0 -126 28.5t-87 84.5zM174 -174l51 130h47l-70 -130h-28z" />
    <glyph glyph-name="scedilla" unicode="&#x15f;" horiz-adv-x="372" 
d="M64 87q20 -29 51 -47.5t76 -18.5q52 0 85 24.5t33 69.5q0 27 -7.5 46.5t-23 34.5t-40.5 27t-60 24q-67 23 -94.5 52t-27.5 77q0 49 36 81t105 32q55 0 89 -21t51 -52l-29 -18q-15 25 -42 43t-69 18q-53 0 -78.5 -23.5t-25.5 -58.5q0 -20 5.5 -34t19.5 -25.5t37.5 -22
t59.5 -23.5q67 -23 98.5 -58t31.5 -99q0 -62 -44 -94t-110 -32q-62 0 -99.5 24t-56.5 54zM119 -174l51 130h47l-70 -130h-28z" />
    <glyph glyph-name="Scaron" unicode="&#x160;" horiz-adv-x="494" 
d="M67 122q29 -48 74 -74.5t105 -26.5q38 0 70 8.5t54.5 26.5t35 45t12.5 64t-14.5 64.5t-40 48.5t-60 37t-75.5 31q-26 10 -56.5 24t-57 35t-44.5 49.5t-18 67.5q0 38 15 67.5t42 49.5t64 30.5t80 10.5q42 0 73.5 -8.5t55.5 -22.5t42 -32t32 -37l-30 -23q-29 37 -70 63
t-105 26q-32 0 -60.5 -7t-51 -22t-35.5 -38.5t-13 -55.5q0 -31 16 -53.5t40 -38.5t50.5 -27.5t47.5 -19.5q41 -16 79 -34t67.5 -42.5t47.5 -59t18 -83.5q0 -86 -53 -132t-158 -46q-74 0 -126 28.5t-87 84.5zM242 710l-123 154l26 18l115 -142l112 142l26 -18l-120 -154h-36z
" />
    <glyph glyph-name="scaron" unicode="&#x161;" horiz-adv-x="372" 
d="M64 87q20 -29 51 -47.5t76 -18.5q52 0 85 24.5t33 69.5q0 27 -7.5 46.5t-23 34.5t-40.5 27t-60 24q-67 23 -94.5 52t-27.5 77q0 49 36 81t105 32q55 0 89 -21t51 -52l-29 -18q-15 25 -42 43t-69 18q-53 0 -78.5 -23.5t-25.5 -58.5q0 -20 5.5 -34t19.5 -25.5t37.5 -22
t59.5 -23.5q67 -23 98.5 -58t31.5 -99q0 -62 -44 -94t-110 -32q-62 0 -99.5 24t-56.5 54zM177 546l-123 154l26 18l115 -142l112 142l26 -18l-120 -154h-36z" />
    <glyph glyph-name="Tcommaaccent" unicode="&#x162;" horiz-adv-x="452" 
d="M206 0v631h-206v36h452v-36h-207v-631h-39zM148 -174l51 130h47l-70 -130h-28z" />
    <glyph glyph-name="tcommaaccent" unicode="&#x163;" horiz-adv-x="278" 
d="M132 96q0 -39 16.5 -57t47.5 -18q19 0 31.5 4.5t26.5 13.5l16 -28q-17 -11 -35.5 -16.5t-48.5 -5.5q-39 0 -64 25.5t-25 72.5v357h-82v32h82v126h36v-126h125v-32h-126v-348zM105 -174l51 130h47l-70 -130h-28z" />
    <glyph glyph-name="Tcaron" unicode="&#x164;" horiz-adv-x="452" 
d="M206 0v631h-206v36h452v-36h-207v-631h-39zM205 712l-123 154l26 18l115 -142l112 142l26 -18l-120 -154h-36z" />
    <glyph glyph-name="tcaron" unicode="&#x165;" horiz-adv-x="278" 
d="M132 96q0 -39 16.5 -57t47.5 -18q19 0 31.5 4.5t26.5 13.5l16 -28q-17 -11 -35.5 -16.5t-48.5 -5.5q-39 0 -64 25.5t-25 72.5v357h-82v32h82v126h36v-126h125v-32h-126v-348zM189 521v165h40l-14 -165h-26z" />
    <glyph glyph-name="Tbar" unicode="&#x166;" horiz-adv-x="452" 
d="M206 0v332h-149v32h149v267h-206v36h452v-36h-207v-267h166v-32h-166v-332h-39z" />
    <glyph glyph-name="tbar" unicode="&#x167;" horiz-adv-x="278" 
d="M132 96q0 -39 16.5 -57t47.5 -18q19 0 31.5 4.5t26.5 13.5l16 -28q-17 -11 -35.5 -16.5t-48.5 -5.5q-39 0 -64 25.5t-25 72.5v160h-82v32h82v165h-82v32h82v126h36v-126h125v-32h-126v-165h126v-32h-126v-151z" />
    <glyph glyph-name="Utilde" unicode="&#x168;" horiz-adv-x="621" 
d="M114 237q0 -97 50 -155.5t146 -58.5q97 0 147 57t50 157v430h38v-445q0 -56 -17.5 -100t-49 -74t-74.5 -45.5t-94 -15.5t-94 15.5t-74 45.5t-48.5 74t-17.5 100v445h38v-430zM148 773q15 29 37 48t54 19q20 0 39 -8t37 -19q11 -7 26 -15.5t29 -8.5q22 0 36 12t27 37
l27 -13q-29 -66 -91 -66q-14 0 -31.5 8t-37.5 19q-23 14 -34 19.5t-27 5.5q-36 0 -64 -52z" />
    <glyph glyph-name="utilde" unicode="&#x169;" horiz-adv-x="505" 
d="M101 167q0 -39 10.5 -66.5t29.5 -45t45 -25.5t57 -8q51 0 89.5 21.5t67.5 53.5v379h36v-476h-31l-4 54q-26 -25 -64 -45t-97 -20q-38 0 -70.5 10.5t-55.5 32t-36 55t-13 78.5v311h36v-309zM93 607q15 29 37 48t54 19q20 0 39 -8t37 -19q11 -7 26 -15.5t29 -8.5
q22 0 36 12t27 37l27 -13q-29 -66 -91 -66q-14 0 -31.5 8t-37.5 19q-23 14 -34 19.5t-27 5.5q-36 0 -64 -52z" />
    <glyph glyph-name="Umacron" unicode="&#x16a;" horiz-adv-x="621" 
d="M114 237q0 -97 50 -155.5t146 -58.5q97 0 147 57t50 157v430h38v-445q0 -56 -17.5 -100t-49 -74t-74.5 -45.5t-94 -15.5t-94 15.5t-74 45.5t-48.5 74t-17.5 100v445h38v-430zM168 782v33h282v-33h-282z" />
    <glyph glyph-name="umacron" unicode="&#x16b;" horiz-adv-x="505" 
d="M101 167q0 -39 10.5 -66.5t29.5 -45t45 -25.5t57 -8q51 0 89.5 21.5t67.5 53.5v379h36v-476h-31l-4 54q-26 -25 -64 -45t-97 -20q-38 0 -70.5 10.5t-55.5 32t-36 55t-13 78.5v311h36v-309zM109 616v33h282v-33h-282z" />
    <glyph glyph-name="Ubreve" unicode="&#x16c;" horiz-adv-x="621" 
d="M114 237q0 -97 50 -155.5t146 -58.5q97 0 147 57t50 157v430h38v-445q0 -56 -17.5 -100t-49 -74t-74.5 -45.5t-94 -15.5t-94 15.5t-74 45.5t-48.5 74t-17.5 100v445h38v-430zM191 867q5 -57 37 -86.5t85 -29.5t85 29.5t37 86.5h31q-1 -39 -15 -67t-35.5 -45.5t-48.5 -26
t-54 -8.5t-54 8.5t-48.5 26t-35.5 45.5t-15 67h31z" />
    <glyph glyph-name="ubreve" unicode="&#x16d;" horiz-adv-x="505" 
d="M101 167q0 -39 10.5 -66.5t29.5 -45t45 -25.5t57 -8q51 0 89.5 21.5t67.5 53.5v379h36v-476h-31l-4 54q-26 -25 -64 -45t-97 -20q-38 0 -70.5 10.5t-55.5 32t-36 55t-13 78.5v311h36v-309zM135 701q5 -57 37 -86.5t85 -29.5t85 29.5t37 86.5h31q-1 -39 -15 -67
t-35.5 -45.5t-48.5 -26t-54 -8.5t-54 8.5t-48.5 26t-35.5 45.5t-15 67h31z" />
    <glyph glyph-name="Uring" unicode="&#x16e;" horiz-adv-x="621" 
d="M114 237q0 -97 50 -155.5t146 -58.5q97 0 147 57t50 157v430h38v-445q0 -56 -17.5 -100t-49 -74t-74.5 -45.5t-94 -15.5t-94 15.5t-74 45.5t-48.5 74t-17.5 100v445h38v-430zM318 702q-42 0 -68 28.5t-26 68.5q0 41 26 69.5t68 28.5t67.5 -28.5t25.5 -68.5
q0 -41 -25.5 -69.5t-67.5 -28.5zM383 800q0 29 -19 50t-46 21q-28 0 -47 -21t-19 -50t19 -50.5t47 -21.5q27 0 46 21t19 50v1z" />
    <glyph glyph-name="uring" unicode="&#x16f;" horiz-adv-x="505" 
d="M101 167q0 -39 10.5 -66.5t29.5 -45t45 -25.5t57 -8q51 0 89.5 21.5t67.5 53.5v379h36v-476h-31l-4 54q-26 -25 -64 -45t-97 -20q-38 0 -70.5 10.5t-55.5 32t-36 55t-13 78.5v311h36v-309zM259 536q-42 0 -68 28.5t-26 68.5q0 41 26 69.5t68 28.5t67.5 -28.5t25.5 -68.5
q0 -41 -25.5 -69.5t-67.5 -28.5zM324 634q0 29 -19 50t-46 21q-28 0 -47 -21t-19 -50t19 -50.5t47 -21.5q27 0 46 21t19 50v1z" />
    <glyph glyph-name="Uhungarumlaut" unicode="&#x170;" horiz-adv-x="621" 
d="M114 237q0 -97 50 -155.5t146 -58.5q97 0 147 57t50 157v430h38v-445q0 -56 -17.5 -100t-49 -74t-74.5 -45.5t-94 -15.5t-94 15.5t-74 45.5t-48.5 74t-17.5 100v445h38v-430zM362 708l-19 19l151 154l31 -29zM203 708l-19 19l151 154l31 -29z" />
    <glyph glyph-name="uhungarumlaut" unicode="&#x171;" horiz-adv-x="505" 
d="M101 167q0 -39 10.5 -66.5t29.5 -45t45 -25.5t57 -8q51 0 89.5 21.5t67.5 53.5v379h36v-476h-31l-4 54q-26 -25 -64 -45t-97 -20q-38 0 -70.5 10.5t-55.5 32t-36 55t-13 78.5v311h36v-309zM313 542l-19 19l151 154l31 -29zM154 542l-19 19l151 154l31 -29z" />
    <glyph glyph-name="Uogonek" unicode="&#x172;" horiz-adv-x="621" 
d="M407 -162q-9 -4 -18.5 -6t-21.5 -2q-36 0 -54 19.5t-18 50.5q0 22 8 40t20 32q7 9 15 16q-14 -1 -28 -1q-51 0 -94 15.5t-74 45.5t-48.5 74t-17.5 100v445h38v-430q0 -97 50 -155.5t146 -58.5q97 0 147 57t50 157v430h38v-445q0 -56 -17.5 -100t-49 -74t-74.5 -46
q-31 -10 -66 -14q5 5 10 9q14 11 24 18l28 -11q-12 -8 -24.5 -18t-23 -22.5t-17 -27t-6.5 -32.5q0 -20 11 -32t31 -12q14 0 29 6z" />
    <glyph glyph-name="uogonek" unicode="&#x173;" horiz-adv-x="505" 
d="M440 -162q-9 -4 -18.5 -6t-21.5 -2q-36 0 -54 19.5t-18 50.5q0 22 8 40t20 32t25 25q13 10 23 17l-3 40q-26 -25 -64 -45t-97 -20q-38 0 -70.5 10.5t-55.5 32t-36 55t-13 78.5v311h36v-309q0 -39 10.5 -66.5t29.5 -45t45 -25.5t57 -8q51 0 89.5 21.5t67.5 53.5v379h36
v-476h-10q-9 -6 -18 -14q-12 -10 -22.5 -22.5t-17 -27t-6.5 -32.5q0 -20 11 -32t31 -12q14 0 29 6z" />
    <glyph glyph-name="Wcircumflex" unicode="&#x174;" horiz-adv-x="745" 
d="M179 0l-169 667h36l152 -592l162 592h24l165 -592l149 592h37l-169 -667h-30l-164 579l-164 -579h-29zM231 730l123 154h36l120 -154l-26 -18l-112 142l-115 -142z" />
    <glyph glyph-name="wcircumflex" unicode="&#x175;" horiz-adv-x="642" 
d="M156 0l-156 476h37l134 -415l132 415h30l132 -414l140 414h37l-163 -476h-29l-132 410l-133 -410h-29zM179 564l123 154h36l120 -154l-26 -18l-112 142l-115 -142z" />
    <glyph glyph-name="Ycircumflex" unicode="&#x176;" horiz-adv-x="496" 
d="M225 0v321l-225 346h42l203 -312l210 312h41l-233 -345v-322h-38zM110 730l123 154h36l120 -154l-26 -18l-112 142l-115 -142z" />
    <glyph glyph-name="ycircumflex" unicode="&#x177;" horiz-adv-x="425" 
d="M17 -154q14 -6 32 -12t32 -6q26 0 42.5 12t27.5 40l43 112l-194 484h40l174 -435l173 435h38l-243 -607q-15 -38 -37.5 -54.5t-60.5 -16.5q-22 0 -42.5 5t-37.5 13zM76 564l123 154h36l120 -154l-26 -18l-112 142l-115 -142z" />
    <glyph glyph-name="Ydieresis" unicode="&#x178;" horiz-adv-x="496" 
d="M225 0v321l-225 346h42l203 -312l210 312h41l-233 -345v-322h-38zM318 758q-11 0 -19 11t-8 27q0 15 7.5 25t19.5 10t20 -10t8 -25q0 -17 -8 -27.5t-20 -10.5zM184 758q-11 0 -19 11t-8 27q0 15 7.5 25t19.5 10t20 -10t8 -25q0 -17 -8 -27.5t-20 -10.5z" />
    <glyph glyph-name="Zacute" unicode="&#x179;" horiz-adv-x="534" 
d="M39 0v36l403 595h-386v36h428v-35l-403 -596h418v-36h-460zM207 715l-17 20l164 141l28 -32z" />
    <glyph glyph-name="zacute" unicode="&#x17a;" horiz-adv-x="450" 
d="M42 0v36l316 408h-305v32h344v-37l-316 -407h323v-32h-362zM153 549l-17 20l164 141l28 -32z" />
    <glyph glyph-name="Zdotaccent" unicode="&#x17b;" horiz-adv-x="534" 
d="M39 0v36l403 595h-386v36h428v-35l-403 -596h418v-36h-460zM269 772q-14 0 -22.5 12t-8.5 28t8.5 28t22.5 12t22 -12.5t8 -27.5t-8 -27.5t-22 -12.5z" />
    <glyph glyph-name="zdotaccent" unicode="&#x17c;" horiz-adv-x="450" 
d="M42 0v36l316 408h-305v32h344v-37l-316 -407h323v-32h-362zM225 594q-14 0 -22.5 12t-8.5 28t8.5 28t22.5 12t22 -12.5t8 -27.5t-8 -27.5t-22 -12.5z" />
    <glyph glyph-name="Zcaron" unicode="&#x17d;" horiz-adv-x="534" 
d="M39 0v36l403 595h-386v36h428v-35l-403 -596h418v-36h-460zM254 710l-123 154l26 18l115 -142l112 142l26 -18l-120 -154h-36z" />
    <glyph glyph-name="zcaron" unicode="&#x17e;" horiz-adv-x="450" 
d="M42 0v36l316 408h-305v32h344v-37l-316 -407h323v-32h-362zM210 546l-123 154l26 18l115 -142l112 142l26 -18l-120 -154h-36z" />
    <glyph glyph-name="longs" unicode="&#x17f;" horiz-adv-x="243" 
d="M86 0v546q0 64 30.5 99t84.5 35q33 0 52 -6.5t30 -13.5l-15 -31q-11 7 -27 13t-39 6q-37 0 -58.5 -25t-21.5 -83v-540h-36z" />
    <glyph glyph-name="florin" unicode="&#x192;" horiz-adv-x="547" 
d="M1 -95q40 2 69.5 10t51.5 26q25 21 37 50t22 76l69 343h-112v31h118l13 62q11 52 32.5 86.5t51 55t66.5 28.5t78 8v-32q-34 -1 -63.5 -6.5t-54 -21t-43 -44.5t-29.5 -77l-14 -59h172v-31h-177l-71 -349q-6 -28 -12 -49.5t-14.5 -38.5t-20 -31t-27.5 -27q-25 -20 -61 -30
t-81 -12v32z" />
    <glyph glyph-name="Scommaaccent" unicode="&#x218;" horiz-adv-x="494" 
d="M67 122q29 -48 74 -74.5t105 -26.5q38 0 70 8.5t54.5 26.5t35 45t12.5 64t-14.5 64.5t-40 48.5t-60 37t-75.5 31q-26 10 -56.5 24t-57 35t-44.5 49.5t-18 67.5q0 38 15 67.5t42 49.5t64 30.5t80 10.5q42 0 73.5 -8.5t55.5 -22.5t42 -32t32 -37l-30 -23q-29 37 -70 63
t-105 26q-32 0 -60.5 -7t-51 -22t-35.5 -38.5t-13 -55.5q0 -31 16 -53.5t40 -38.5t50.5 -27.5t47.5 -19.5q41 -16 79 -34t67.5 -42.5t47.5 -59t18 -83.5q0 -86 -53 -132t-158 -46q-74 0 -126 28.5t-87 84.5zM201 -174l51 130h47l-70 -130h-28z" />
    <glyph glyph-name="scommaaccent" unicode="&#x219;" horiz-adv-x="372" 
d="M64 87q20 -29 51 -47.5t76 -18.5q52 0 85 24.5t33 69.5q0 27 -7.5 46.5t-23 34.5t-40.5 27t-60 24q-67 23 -94.5 52t-27.5 77q0 49 36 81t105 32q55 0 89 -21t51 -52l-29 -18q-15 25 -42 43t-69 18q-53 0 -78.5 -23.5t-25.5 -58.5q0 -20 5.5 -34t19.5 -25.5t37.5 -22
t59.5 -23.5q67 -23 98.5 -58t31.5 -99q0 -62 -44 -94t-110 -32q-62 0 -99.5 24t-56.5 54zM140 -174l51 130h47l-70 -130h-28z" />
    <glyph glyph-name="uni021A" unicode="&#x21a;" horiz-adv-x="452" 
d="M206 0v631h-206v36h452v-36h-207v-631h-39zM146 -174l51 130h47l-70 -130h-28z" />
    <glyph glyph-name="uni021B" unicode="&#x21b;" horiz-adv-x="278" 
d="M132 96q0 -39 16.5 -57t47.5 -18q19 0 31.5 4.5t26.5 13.5l16 -28q-17 -11 -35.5 -16.5t-48.5 -5.5q-39 0 -64 25.5t-25 72.5v357h-82v32h82v126h36v-126h125v-32h-126v-348zM103 -174l51 130h47l-70 -130h-28z" />
    <glyph glyph-name="dotlessj" unicode="&#x237;" horiz-adv-x="173" 
d="M-15 -167q47 28 65.5 68.5t18.5 94.5v480h36v-480q0 -72 -24.5 -116t-78.5 -76z" />
    <glyph glyph-name="apostrophe" unicode="&#x2bc;" horiz-adv-x="112" 
d="M8 531q15 9 31 27.5t22 32.5q-11 6 -18.5 15t-7.5 28q0 17 8 29t23 12q14 0 22.5 -11.5t8.5 -31.5q0 -38 -23.5 -68.5t-55.5 -51.5z" />
    <glyph glyph-name="circumflex" unicode="&#x2c6;" horiz-adv-x="279" 
d="M0 564l123 154h36l120 -154l-26 -18l-112 142l-115 -142z" />
    <glyph glyph-name="caron" unicode="&#x2c7;" horiz-adv-x="279" 
d="M123 546l-123 154l26 18l115 -142l112 142l26 -18l-120 -154h-36z" />
    <glyph glyph-name="uni02C9" unicode="&#x2c9;" horiz-adv-x="282" 
d="M0 616v33h282v-33h-282z" />
    <glyph glyph-name="breve" unicode="&#x2d8;" horiz-adv-x="323" 
d="M39 701q5 -57 37 -86.5t85 -29.5t85 29.5t37 86.5h31q-1 -39 -15 -67t-35.5 -45.5t-48.5 -26t-54 -8.5t-54 8.5t-48.5 26t-35.5 45.5t-15 67h31z" />
    <glyph glyph-name="dotaccent" unicode="&#x2d9;" horiz-adv-x="61" 
d="M31 594q-14 0 -22.5 12t-8.5 28t8.5 28t22.5 12t22 -12.5t8 -27.5t-8 -27.5t-22 -12.5z" />
    <glyph glyph-name="ring" unicode="&#x2da;" horiz-adv-x="187" 
d="M94 536q-42 0 -68 28.5t-26 68.5q0 41 26 69.5t68 28.5t67.5 -28.5t25.5 -68.5q0 -41 -25.5 -69.5t-67.5 -28.5zM159 634q0 29 -19 50t-46 21q-28 0 -47 -21t-19 -50t19 -50.5t47 -21.5q27 0 46 21t19 50v1z" />
    <glyph glyph-name="ogonek" unicode="&#x2db;" horiz-adv-x="207" 
d="M116 -162q-9 -4 -18.5 -6t-21.5 -2q-36 0 -54 19.5t-18 50.5q0 22 8 40t20 32t25.5 25t23.5 18l28 -11q-12 -8 -24.5 -18t-23 -22.5t-17 -27t-6.5 -32.5q0 -20 11 -32t31 -12q14 0 29 6z" />
    <glyph glyph-name="tilde" unicode="&#x2dc;" horiz-adv-x="324" 
d="M6 607q15 29 37 48t54 19q20 0 39 -8t37 -19q11 -7 26 -15.5t29 -8.5q22 0 36 12t27 37l27 -13q-29 -66 -91 -66q-14 0 -31.5 8t-37.5 19q-23 14 -34 19.5t-27 5.5q-36 0 -64 -52z" />
    <glyph glyph-name="hungarumlaut" unicode="&#x2dd;" horiz-adv-x="341" 
d="M178 542l-19 19l151 154l31 -29zM19 542l-19 19l151 154l31 -29z" />
    <glyph glyph-name="tonos" unicode="&#x384;" horiz-adv-x="442" 
d="M149 555l94 194l42 -17l-110 -190z" />
    <glyph glyph-name="dieresistonos" unicode="&#x385;" horiz-adv-x="276" 
d="M227 594q-11 0 -19 11t-8 27q0 15 7.5 25t19.5 10t20 -10t8 -25q0 -17 -8 -27.5t-20 -10.5zM48 594q-11 0 -19 11t-8 27q0 15 7.5 25t19.5 10t20 -10t8 -25q0 -17 -8 -27.5t-20 -10.5zM79 555l94 194l42 -17l-110 -190z" />
    <glyph glyph-name="Alphatonos" unicode="&#x386;" horiz-adv-x="540" 
d="M73 463l63 205l45 -10l-80 -204zM0 0l251 667h36l253 -667h-38l-84 220h-296l-83 -220h-39zM134 255h272l-138 367z" />
    <glyph glyph-name="Epsilontonos" unicode="&#x388;" horiz-adv-x="478" 
d="M-51 463l63 205l45 -10l-80 -204zM81 0v667h364v-36h-326v-256h238v-36h-239v-303h344v-36h-381z" />
    <glyph glyph-name="Etatonos" unicode="&#x389;" horiz-adv-x="621" 
d="M-54 463l63 205l45 -10l-80 -204zM81 0v667h38v-303h383v303h38v-667h-38v328h-383v-328h-38z" />
    <glyph glyph-name="Iotatonos" unicode="&#x38a;" horiz-adv-x="200" 
d="M-51 463l63 205l45 -10l-80 -204zM81 0v667h38v-667h-38z" />
    <glyph glyph-name="Omicrontonos" unicode="&#x38c;" horiz-adv-x="631" 
d="M-25 463l63 205l45 -10l-80 -204zM199 16q-50 29 -83.5 77.5t-50 111t-16.5 129.5q0 69 18 132t52.5 110.5t84 75.5t113.5 28q67 0 117 -29.5t83 -78t49 -111t16 -127.5t-16 -127.5t-49 -111t-83 -78.5t-117 -30t-118 29zM144 121q29 -44 72 -72t101 -28t100.5 28
t70.5 73t41.5 101t13.5 111t-13.5 110.5t-41 100.5t-70.5 73t-101 28q-60 0 -103 -28t-71 -72.5t-41.5 -100.5t-13.5 -111q0 -56 14 -112t42 -101z" />
    <glyph glyph-name="Upsilontonos" unicode="&#x38e;" horiz-adv-x="548" 
d="M254 0v144v36.5t-2 36.5q-5 62 -26 125.5t-52 121t-68.5 105.5t-74.5 81l25 28q40 -36 77.5 -84.5t67 -102t49.5 -107.5t26 -102q15 66 40.5 124.5t56.5 108.5t64.5 91t64.5 71l22 -27q-32 -32 -67 -76t-66.5 -97.5t-56 -115t-34.5 -126.5q-4 -24 -6 -53.5t-2 -46.5v-135
h-38zM-101 463l63 205l45 -10l-80 -204z" />
    <glyph glyph-name="Omegatonos" unicode="&#x38f;" horiz-adv-x="655" 
d="M48 0v36h158q-30 24 -57.5 53.5t-48.5 68t-33 87t-12 108.5q0 69 18 128.5t52.5 104t86 70t118.5 25.5q70 0 122 -25.5t86.5 -70t51 -104t16.5 -128.5q0 -60 -12 -108.5t-33 -87t-48.5 -68t-57.5 -53.5h158v-36h-215v39q78 50 123.5 127.5t45.5 186.5q0 61 -15 114.5
t-44.5 93.5t-73.5 63t-103 23t-103.5 -23t-74 -63t-44.5 -93.5t-15 -114.5q0 -109 45.5 -186.5t123.5 -127.5v-39h-215zM-15 463l63 205l45 -10l-80 -204z" />
    <glyph glyph-name="iotadieresistonos" unicode="&#x390;" horiz-adv-x="235" 
d="M111 91q0 -38 15.5 -53.5t43.5 -15.5q11 0 26 3.5t27 8.5l7 -30q-11 -5 -29 -10t-37 -5q-40 0 -64.5 22t-24.5 73v392h36v-385zM187 594q-11 0 -19 11t-8 27q0 15 7.5 25t19.5 10t20 -10t8 -25q0 -17 -8 -27.5t-20 -10.5zM8 594q-11 0 -19 11t-8 27q0 15 7.5 25t19.5 10
t20 -10t8 -25q0 -17 -8 -27.5t-20 -10.5zM39 555l94 194l42 -17l-110 -190z" />
    <glyph glyph-name="Alpha" unicode="&#x391;" horiz-adv-x="540" 
d="M0 0l251 667h36l253 -667h-38l-84 220h-296l-83 -220h-39zM134 255h272l-138 367z" />
    <glyph glyph-name="Beta" unicode="&#x392;" horiz-adv-x="509" 
d="M81 0v667h176q91 0 139.5 -39.5t48.5 -128.5q0 -58 -30.5 -94.5t-96.5 -50.5q83 -4 122 -49t39 -121q0 -43 -14 -77t-38.5 -58t-59 -36.5t-76.5 -12.5h-210zM119 370h131q78 0 117.5 35.5t39.5 96.5q0 69 -39 99t-111 30h-138v-261zM119 36h168q75 0 114 42t39 108
q0 40 -13.5 68.5t-38 46t-59 25.5t-76.5 8h-134v-298z" />
    <glyph glyph-name="Gamma" unicode="&#x393;" horiz-adv-x="451" 
d="M90 -1v668h361v-36h-323v-631z" />
    <glyph glyph-name="uni0394" unicode="&#x394;" horiz-adv-x="560" 
d="M10 0l251 667h36l253 -667h-540zM64 36h433l-218 584z" />
    <glyph glyph-name="Epsilon" unicode="&#x395;" horiz-adv-x="478" 
d="M81 0v667h364v-36h-326v-256h238v-36h-239v-303h344v-36h-381z" />
    <glyph glyph-name="Zeta" unicode="&#x396;" horiz-adv-x="534" 
d="M39 0v36l403 595h-386v36h428v-35l-403 -596h418v-36h-460z" />
    <glyph glyph-name="Eta" unicode="&#x397;" horiz-adv-x="621" 
d="M81 0v667h38v-303h383v303h38v-667h-38v328h-383v-328h-38z" />
    <glyph glyph-name="Theta" unicode="&#x398;" horiz-adv-x="631" 
d="M187 318v36h262v-36h-262zM199 16q-50 29 -83.5 77.5t-50 111t-16.5 129.5q0 69 18 132t52.5 110.5t84 75.5t113.5 28q67 0 117 -29.5t83 -78t49 -111t16 -127.5t-16 -127.5t-49 -111t-83 -78.5t-117 -30t-118 29zM144 121q29 -44 72 -72t101 -28t100.5 28t70.5 73
t41.5 101t13.5 111t-13.5 110.5t-41 100.5t-70.5 73t-101 28q-60 0 -103 -28t-71 -72.5t-41.5 -100.5t-13.5 -111q0 -56 14 -112t42 -101z" />
    <glyph glyph-name="Iota" unicode="&#x399;" horiz-adv-x="200" 
d="M81 0v667h38v-667h-38z" />
    <glyph glyph-name="Kappa" unicode="&#x39a;" horiz-adv-x="527" 
d="M81 0v667h38v-344l338 344h46l-255 -263l279 -404h-45l-261 376l-102 -100v-276h-38z" />
    <glyph glyph-name="Lambda" unicode="&#x39b;" horiz-adv-x="560" 
d="M20 0l241 667h36l243 -667h-39l-222 620l-220 -620h-39z" />
    <glyph glyph-name="Mu" unicode="&#x39c;" horiz-adv-x="710" 
d="M81 0v667h54l226 -590l217 590h51v-667h-37v607l-225 -618h-10l-239 617v-606h-37z" />
    <glyph glyph-name="Nu" unicode="&#x39d;" horiz-adv-x="640" 
d="M81 0v667h42l398 -603v603h38v-667h-41l-400 606v-606h-37z" />
    <glyph glyph-name="Xi" unicode="&#x39e;" horiz-adv-x="573" 
d="M65 0v36h405v-36h-405zM71 631v36h391v-36h-391zM120 330v36h296v-36h-296z" />
    <glyph glyph-name="Omicron" unicode="&#x39f;" horiz-adv-x="631" 
d="M199 16q-50 29 -83.5 77.5t-50 111t-16.5 129.5q0 69 18 132t52.5 110.5t84 75.5t113.5 28q67 0 117 -29.5t83 -78t49 -111t16 -127.5t-16 -127.5t-49 -111t-83 -78.5t-117 -30t-118 29zM144 121q29 -44 72 -72t101 -28t100.5 28t70.5 73t41.5 101t13.5 111t-13.5 110.5
t-41 100.5t-70.5 73t-101 28q-60 0 -103 -28t-71 -72.5t-41.5 -100.5t-13.5 -111q0 -56 14 -112t42 -101z" />
    <glyph glyph-name="Pi" unicode="&#x3a0;" horiz-adv-x="650" 
d="M90 0v667h451v-667h-38v633h-374v-633h-39z" />
    <glyph glyph-name="Rho" unicode="&#x3a1;" horiz-adv-x="508" 
d="M81 0v667h209q90 0 144.5 -49t54.5 -142q0 -47 -16 -82t-43 -58.5t-62 -35.5t-74 -12h-175v-288h-38zM119 324h171q38 0 67.5 11.5t50 31.5t31.5 47.5t11 59.5q0 69 -39 113t-122 44h-170v-307z" />
    <glyph glyph-name="Sigma" unicode="&#x3a3;" horiz-adv-x="508" 
d="M35 0v38l296 294l-292 295v40h427v-36h-379l295 -299l-299 -296h405v-36h-453z" />
    <glyph glyph-name="Tau" unicode="&#x3a4;" horiz-adv-x="452" 
d="M206 0v631h-206v36h452v-36h-207v-631h-39z" />
    <glyph glyph-name="Upsilon" unicode="&#x3a5;" horiz-adv-x="548" 
d="M254 0v144v36.5t-2 36.5q-5 62 -26 125.5t-52 121t-68.5 105.5t-74.5 81l25 28q40 -36 77.5 -84.5t67 -102t49.5 -107.5t26 -102q15 66 40.5 124.5t56.5 108.5t64.5 91t64.5 71l22 -27q-32 -32 -67 -76t-66.5 -97.5t-56 -115t-34.5 -126.5q-4 -24 -6 -53.5t-2 -46.5v-135
h-38z" />
    <glyph glyph-name="Phi" unicode="&#x3a6;" horiz-adv-x="710" 
d="M335 -11v97q-138 5 -211.5 70t-73.5 177t73.5 176t211.5 70v100h39v-100q139 -6 212.5 -70t73.5 -176t-73.5 -177t-212.5 -70v-97h-39zM335 544q-54 0 -99.5 -13t-78.5 -39t-51.5 -65.5t-18.5 -93.5q0 -51 18.5 -90.5t51.5 -66.5t78.5 -41t99.5 -14v423zM374 121
q54 0 99.5 13t78.5 39t52 66t19 94q0 52 -19 91t-52 65.5t-78.5 40.5t-99.5 14v-423z" />
    <glyph glyph-name="Chi" unicode="&#x3a7;" horiz-adv-x="474" 
d="M10 0l207 342l-189 325h42l168 -296l165 296h41l-187 -324l207 -343h-43l-183 313l-187 -313h-41z" />
    <glyph glyph-name="Psi" unicode="&#x3a8;" horiz-adv-x="752" 
d="M362 0v202q-136 5 -201.5 66t-65.5 191v208h39v-217q0 -59 17.5 -99t48 -65.5t72.5 -36.5t90 -11v429h37v-429q43 0 83 10.5t71.5 35.5t50.5 66t19 103v214h39v-214q0 -115 -64.5 -179.5t-198.5 -71.5v-202h-37z" />
    <glyph glyph-name="Omega" unicode="&#x3a9;" horiz-adv-x="655" 
d="M48 0v36h158q-30 24 -57.5 53.5t-48.5 68t-33 87t-12 108.5q0 69 18 128.5t52.5 104t86 70t118.5 25.5q70 0 122 -25.5t86.5 -70t51 -104t16.5 -128.5q0 -60 -12 -108.5t-33 -87t-48.5 -68t-57.5 -53.5h158v-36h-215v39q78 50 123.5 127.5t45.5 186.5q0 61 -15 114.5
t-44.5 93.5t-73.5 63t-103 23t-103.5 -23t-74 -63t-44.5 -93.5t-15 -114.5q0 -109 45.5 -186.5t123.5 -127.5v-39h-215z" />
    <glyph glyph-name="Iotadieresis" unicode="&#x3aa;" horiz-adv-x="200" 
d="M81 0v667h38v-667h-38zM167 758q-11 0 -19 11t-8 27q0 15 7.5 25t19.5 10t20 -10t8 -25q0 -17 -8 -27.5t-20 -10.5zM33 758q-11 0 -19 11t-8 27q0 15 7.5 25t19.5 10t20 -10t8 -25q0 -17 -8 -27.5t-20 -10.5z" />
    <glyph glyph-name="Upsilondieresis" unicode="&#x3ab;" horiz-adv-x="548" 
d="M254 0v144v36.5t-2 36.5q-5 62 -26 125.5t-52 121t-68.5 105.5t-74.5 81l25 28q40 -36 77.5 -84.5t67 -102t49.5 -107.5t26 -102q15 66 40.5 124.5t56.5 108.5t64.5 91t64.5 71l22 -27q-32 -32 -67 -76t-66.5 -97.5t-56 -115t-34.5 -126.5q-4 -24 -6 -53.5t-2 -46.5v-135
h-38zM344 758q-11 0 -19 11t-8 27q0 15 7.5 25t19.5 10t20 -10t8 -25q0 -17 -8 -27.5t-20 -10.5zM210 758q-11 0 -19 11t-8 27q0 15 7.5 25t19.5 10t20 -10t8 -25q0 -17 -8 -27.5t-20 -10.5z" />
    <glyph glyph-name="alphatonos" unicode="&#x3ac;" horiz-adv-x="531" 
d="M516 -8q-15 -3 -28 -3q-39 0 -64 26.5t-25 76.5q-6 -11 -13 -22.5t-15 -19.5q-25 -29 -58.5 -45t-75.5 -16q-40 0 -74.5 15t-60 45t-40 74.5t-14.5 103.5q0 51 12.5 98.5t37.5 84t63 58t89 21.5q66 0 106.5 -33.5t60.5 -87.5q3 33 12.5 66t20.5 55l36 -14
q-29 -63 -42 -146t-13 -192q0 -24 2 -45t8.5 -36t18 -24t31.5 -9q5 0 10 0.5t10 1.5zM129 71q21 -25 50 -37.5t62 -12.5q24 0 47 8.5t43 24.5t35 39.5t21 52.5q7 29 9.5 58t2.5 62q0 25 -6.5 58t-23 62t-46 49t-74.5 20q-72 0 -118.5 -58t-46.5 -172q0 -51 12 -89.5
t33 -64.5zM232 555l94 194l42 -17l-110 -190z" />
    <glyph glyph-name="epsilontonos" unicode="&#x3ad;" horiz-adv-x="458" 
d="M411 26q-14 -8 -32.5 -15t-39.5 -12t-43 -7.5t-41 -2.5q-87 0 -141 34.5t-54 105.5q0 46 32 78t77 43q-43 10 -69 38.5t-26 70.5q0 58 45 94t122 36q57 0 95.5 -14.5t66.5 -31.5l-16 -30q-37 23 -73 33.5t-70 10.5q-71 0 -102.5 -29.5t-31.5 -68.5q0 -35 23.5 -58
t61.5 -29q19 -3 54 -3.5t64 -0.5h36v-32h-51q-22 0 -43.5 -0.5t-47.5 -2.5q-26 -3 -46.5 -12t-34.5 -23t-22 -31t-8 -36q0 -48 38 -78.5t122 -30.5q44 0 78.5 10.5t66.5 24.5zM204 555l94 194l42 -17l-110 -190z" />
    <glyph glyph-name="etatonos" unicode="&#x3ae;" horiz-adv-x="528" 
d="M81 0v399q0 26 -8.5 37.5t-24.5 11.5q-13 0 -28 -6l-10 32q9 4 22 7.5t29 3.5q29 0 42.5 -19.5t15.5 -48.5q63 72 175 72q78 0 120 -37.5t47 -100.5q2 -17 2 -29v-32v-479h-36v481q0 17 -1 33t-3 30q-4 21 -12.5 39.5t-24.5 32t-40.5 21t-59.5 7.5q-60 0 -104 -26.5
t-58 -64.5q-2 -6 -3.5 -15.5t-2.5 -19.5t-1 -19v-15v-295h-36zM228 555l94 194l42 -17l-110 -190z" />
    <glyph glyph-name="iotatonos" unicode="&#x3af;" horiz-adv-x="235" 
d="M111 91q0 -38 15.5 -53.5t43.5 -15.5q11 0 26 3.5t27 8.5l7 -30q-11 -5 -29 -10t-37 -5q-40 0 -64.5 22t-24.5 73v392h36v-385zM42 555l94 194l42 -17l-110 -190z" />
    <glyph glyph-name="upsilondieresistonos" unicode="&#x3b0;" horiz-adv-x="504" 
d="M119 191q0 -86 31 -127.5t104 -41.5q34 0 58 10.5t40.5 30t26 46.5t14.5 60q4 23 4.5 50t0.5 57q0 52 -5 98t-14 100l37 6q8 -51 13 -100t5 -103q0 -31 -1 -58t-4 -51q-11 -83 -53.5 -131t-126.5 -48q-82 0 -124 45.5t-42 145.5v214q0 56 -38 56q-10 0 -27 -5l-8 32
q9 3 20 5.5t25 2.5q22 0 35 -7.5t19.5 -19.5t8 -28t1.5 -33v-206zM337 594q-11 0 -19 11t-8 27q0 15 7.5 25t19.5 10t20 -10t8 -25q0 -17 -8 -27.5t-20 -10.5zM158 594q-11 0 -19 11t-8 27q0 15 7.5 25t19.5 10t20 -10t8 -25q0 -17 -8 -27.5t-20 -10.5zM189 555l94 194
l42 -17l-110 -190z" />
    <glyph glyph-name="alpha" unicode="&#x3b1;" horiz-adv-x="531" 
d="M516 -8q-15 -3 -28 -3q-39 0 -64 26.5t-25 76.5q-6 -11 -13 -22.5t-15 -19.5q-25 -29 -58.5 -45t-75.5 -16q-40 0 -74.5 15t-60 45t-40 74.5t-14.5 103.5q0 51 12.5 98.5t37.5 84t63 58t89 21.5q66 0 106.5 -33.5t60.5 -87.5q3 33 12.5 66t20.5 55l36 -14
q-29 -63 -42 -146t-13 -192q0 -24 2 -45t8.5 -36t18 -24t31.5 -9q5 0 10 0.5t10 1.5zM129 71q21 -25 50 -37.5t62 -12.5q24 0 47 8.5t43 24.5t35 39.5t21 52.5q7 29 9.5 58t2.5 62q0 25 -6.5 58t-23 62t-46 49t-74.5 20q-72 0 -118.5 -58t-46.5 -172q0 -51 12 -89.5
t33 -64.5z" />
    <glyph glyph-name="beta" unicode="&#x3b2;" horiz-adv-x="565" 
d="M80 -189v645q0 14 1.5 29t3.5 30q4 26 16 54.5t34.5 52t57 39t85.5 15.5q39 0 71 -11t54.5 -31.5t34.5 -48.5t12 -61q0 -34 -13 -61t-32.5 -47t-43 -32.5t-44.5 -17.5q34 -3 68.5 -15.5t62.5 -36t45.5 -57.5t17.5 -81q0 -41 -12 -75t-36 -59t-59.5 -39t-83.5 -14
q-42 0 -75.5 11.5t-59.5 27t-44 33t-28 29.5v-279h-33zM116 128q13 -15 32.5 -33.5t45.5 -35t57.5 -27.5t68.5 -11q31 0 59 8t49 26t33.5 48t12.5 74q0 37 -16 68t-44 53t-67 34t-84 12v37q24 0 50.5 9.5t49 27.5t37 44t14.5 60q0 21 -7.5 43t-24 39.5t-43 28.5t-64.5 11
q-44 0 -73 -14.5t-46.5 -36t-25.5 -47.5t-11 -48q-2 -12 -2.5 -26t-0.5 -25v-319z" />
    <glyph glyph-name="gamma" unicode="&#x3b3;" horiz-adv-x="465" 
d="M208 -189v44q0 25 -1 49.5t-4 62.5q-3 31 -11 71.5t-19.5 83.5t-25 86.5t-27 81t-26 67.5t-20.5 45q-14 24 -26 34t-27 10q-13 0 -34 -8l-10 34q11 5 26 8.5t29 3.5q26 0 42.5 -16t33.5 -48q13 -25 30.5 -71t35.5 -101.5t33 -115t22 -110.5q4 31 14.5 71t25.5 84t32.5 89
t35.5 86t35 75t31 56l31 -12q-29 -52 -59.5 -120.5t-57.5 -141.5t-46 -145t-24 -130q-2 -31 -2.5 -48t-0.5 -37v-38h-36z" />
    <glyph glyph-name="delta" unicode="&#x3b4;" horiz-adv-x="518" 
d="M165 635q22 -16 50.5 -38.5t58 -47.5t57.5 -49.5t48 -44.5q50 -50 72 -102.5t22 -119.5q0 -42 -11.5 -85.5t-37.5 -79t-67.5 -57.5t-101.5 -22q-52 0 -90.5 20t-64 53.5t-38 76.5t-12.5 90t16 91.5t47.5 79t79.5 55.5t111 22q-16 14 -38.5 33.5t-47.5 39.5t-49.5 39
t-43.5 32l15 46h305v-32h-280zM321 449q-57 0 -100.5 -16.5t-73.5 -46t-45 -70t-15 -88.5t13 -86t36.5 -65t55 -41.5t68.5 -14.5q44 0 77 17t55 46t33 67t11 81q0 39 -8 70t-22.5 57.5t-33 48t-39.5 41.5h-12z" />
    <glyph glyph-name="epsilon" unicode="&#x3b5;" horiz-adv-x="458" 
d="M411 26q-14 -8 -32.5 -15t-39.5 -12t-43 -7.5t-41 -2.5q-87 0 -141 34.5t-54 105.5q0 46 32 78t77 43q-43 10 -69 38.5t-26 70.5q0 58 45 94t122 36q57 0 95.5 -14.5t66.5 -31.5l-16 -30q-37 23 -73 33.5t-70 10.5q-71 0 -102.5 -29.5t-31.5 -68.5q0 -35 23.5 -58
t61.5 -29q19 -3 54 -3.5t64 -0.5h36v-32h-51q-22 0 -43.5 -0.5t-47.5 -2.5q-26 -3 -46.5 -12t-34.5 -23t-22 -31t-8 -36q0 -48 38 -78.5t122 -30.5q44 0 78.5 10.5t66.5 24.5z" />
    <glyph glyph-name="zeta" unicode="&#x3b6;" horiz-adv-x="425" 
d="M328 -165q6 16 12 36t11.5 40.5t9.5 40.5t6 37q-57 0 -114 5.5t-102 26t-73 59.5t-28 106q0 51 14.5 101t40.5 97t62.5 91.5t80.5 84.5q22 20 48 40t51 36q-22 -2 -47 -3t-48 -1q-43 0 -84.5 2.5t-78.5 7.5l8 31q45 -6 80.5 -7.5t80.5 -1.5q31 0 73.5 2t78.5 4v-30
q-35 -18 -71 -45.5t-65 -53.5q-99 -89 -143.5 -179.5t-44.5 -173.5q0 -89 62 -128t194 -39h25q17 0 26 -5t9 -22t-5 -39t-12.5 -45t-15.5 -45t-15 -38z" />
    <glyph glyph-name="eta" unicode="&#x3b7;" horiz-adv-x="528" 
d="M81 0v399q0 26 -8.5 37.5t-24.5 11.5q-13 0 -28 -6l-10 32q9 4 22 7.5t29 3.5q29 0 42.5 -19.5t15.5 -48.5q63 72 175 72q78 0 120 -37.5t47 -100.5q2 -17 2 -29v-32v-479h-36v481q0 17 -1 33t-3 30q-4 21 -12.5 39.5t-24.5 32t-40.5 21t-59.5 7.5q-60 0 -104 -26.5
t-58 -64.5q-2 -6 -3.5 -15.5t-2.5 -19.5t-1 -19v-15v-295h-36z" />
    <glyph glyph-name="theta" unicode="&#x3b8;" horiz-adv-x="499" 
d="M146 19q-39 30 -61.5 78.5t-31 109.5t-8.5 123q0 61 9.5 123t33.5 111.5t64 80.5t101 31q60 0 98.5 -30.5t60 -79t29.5 -109.5t8 -122q0 -66 -9 -128t-31.5 -110.5t-61.5 -78t-100 -29.5q-62 0 -101 30zM83 318q0 -62 8.5 -116t28 -94.5t51 -63.5t78.5 -23t79 25t51 66
t27 95t8 111h-331zM414 348q-1 58 -9.5 112t-27.5 94.5t-49.5 65t-76.5 24.5t-77.5 -25t-51.5 -66.5t-29 -95t-10 -109.5h331z" />
    <glyph glyph-name="iota" unicode="&#x3b9;" horiz-adv-x="235" 
d="M111 91q0 -38 15.5 -53.5t43.5 -15.5q11 0 26 3.5t27 8.5l7 -30q-11 -5 -29 -10t-37 -5q-40 0 -64.5 22t-24.5 73v392h36v-385z" />
    <glyph glyph-name="kappa" unicode="&#x3ba;" horiz-adv-x="525" 
d="M75 0v476h36v-278q25 30 52.5 62t54.5 62t51.5 57t44.5 48q27 29 51 41t53 12q13 0 29 -3t27 -11l-13 -34q-9 5 -22.5 8t-24.5 3q-20 0 -36 -8t-35 -27q-20 -20 -45.5 -48t-53.5 -60l244 -300h-43l-225 272l-109 -122v-150h-36z" />
    <glyph glyph-name="lambda" unicode="&#x3bb;" horiz-adv-x="476" 
d="M34 0l189 466l-40 102q-13 32 -31.5 43t-42.5 11q-23 0 -41.5 -6.5t-30.5 -11.5l-12 30q15 8 40.5 15.5t47.5 7.5q43 0 69 -21.5t42 -66.5l171 -478q12 -35 22.5 -50.5t32.5 -15.5q7 0 14 2l14 4l8 -33q-20 -9 -40 -9t-33.5 6t-23.5 19.5t-19 35.5t-20 53l-111 315
l-166 -418h-39z" />
    <glyph glyph-name="uni03BC" unicode="&#x3bc;" horiz-adv-x="544" 
d="M80 -189v665h36v-298q0 -33 12 -61.5t32 -50t47 -33.5t56 -12q31 0 57.5 8.5t46 22t32.5 31.5t18 36q4 14 5 30.5t1 33.5v293h36v-381q0 -34 7 -54t34 -20q8 0 15.5 2t14.5 4l6 -30q-8 -3 -18.5 -5.5t-21.5 -2.5q-35 0 -54 21.5t-19 53.5q-23 -31 -62.5 -53t-94.5 -22
q-53 0 -92 22t-58 64v-264h-36z" />
    <glyph glyph-name="nu" unicode="&#x3bd;" horiz-adv-x="476" 
d="M211 -11q-11 55 -28.5 117t-36 119.5t-37 105t-31.5 73.5q-12 25 -24.5 34t-27.5 9q-13 0 -34 -8l-10 33q11 5 26 8.5t29 3.5q26 0 42 -13.5t32 -45.5q13 -28 31 -74t36.5 -101t35 -114t28.5 -112q18 51 39 113t43 125t42.5 121t37.5 102l33 -11q-21 -57 -43.5 -120
t-44 -126.5t-42 -124.5t-38.5 -114h-58z" />
    <glyph glyph-name="xi" unicode="&#x3be;" horiz-adv-x="432" 
d="M343 -165q6 16 12 36t11.5 40.5t9.5 40.5t6 37q-61 0 -120.5 5.5t-106.5 25t-76 56.5t-29 100q0 32 11 61.5t30 52.5t44 39.5t52 22.5q-47 10 -80 39.5t-33 82.5q0 28 12 54t33.5 47.5t51 37.5t64.5 24v1q-8 -1 -20 -1h-21q-35 0 -71 2t-62 7l8 31q45 -6 89.5 -8.5
t89.5 -2.5q31 0 71 2t76 4v-31q-38 -3 -69 -7t-64 -12q-28 -7 -55.5 -19.5t-49 -30.5t-34.5 -42t-13 -54q0 -46 31 -71t79 -30q21 -2 43.5 -2.5t45.5 -0.5h58v-32h-22.5t-32.5 -0.5t-38 -1.5t-38 -2q-35 -3 -63 -17t-47.5 -36t-29.5 -49.5t-10 -57.5q0 -78 65 -116.5
t206 -38.5h25q17 0 26 -5t9 -22t-5 -39t-12.5 -45t-15.5 -45t-15 -38z" />
    <glyph glyph-name="omicron" unicode="&#x3bf;" horiz-adv-x="507" 
d="M164 10q-38 21 -64 56.5t-39.5 81t-13.5 94.5q0 48 13 93t39 79t64.5 54.5t89.5 20.5q50 0 88.5 -20.5t65 -54.5t40 -79.5t13.5 -94.5q0 -50 -13.5 -95.5t-40 -80t-65 -55t-88.5 -20.5t-89 21zM125 91q21 -31 53 -50.5t75 -19.5t75 19.5t53.5 51t32 70.5t10.5 79
t-10.5 79t-32 69.5t-53.5 49t-75 18.5t-75 -18.5t-53 -49t-31.5 -69t-10.5 -78.5t10.5 -79.5t31.5 -71.5z" />
    <glyph glyph-name="pi" unicode="&#x3c0;" horiz-adv-x="627" 
d="M145 0v444h-12q-16 0 -30.5 -2.5t-28.5 -10.5q-13 -7 -23 -17.5t-20 -25.5l-26 17q8 15 22.5 31t39.5 27q15 8 35.5 10.5t41.5 2.5h423v-32h-105v-353q0 -38 12.5 -53.5t38.5 -15.5q9 0 20.5 2.5t23.5 7.5l7 -30q-11 -5 -26.5 -9t-30.5 -4q-37 0 -59 22t-22 73v360h-245
v-444h-36z" />
    <glyph glyph-name="rho" unicode="&#x3c1;" horiz-adv-x="525" 
d="M75 -189v422q0 14 1 27.5t2 27.5q3 40 16.5 76.5t38 64t60.5 44t83 16.5q55 0 93 -21t61.5 -55.5t34 -77.5t10.5 -87q0 -51 -12 -98t-36.5 -82.5t-62.5 -57t-89 -21.5q-31 0 -57 8.5t-47 21.5t-36.5 28t-25.5 28v-264h-34zM111 121q12 -16 28.5 -33.5t37.5 -32.5
t46 -24.5t54 -9.5q34 0 64 15t51.5 43.5t34 68.5t12.5 90q0 35 -7.5 73.5t-26 71t-49.5 53.5t-79 21q-44 0 -73.5 -15t-48 -38t-28.5 -52t-13 -56q-3 -29 -3 -56v-119z" />
    <glyph glyph-name="sigma1" unicode="&#x3c2;" horiz-adv-x="441" 
d="M313 -164q6 16 12 36t11.5 40.5t9.5 40.5t6 37q-68 0 -124.5 16.5t-97 49t-63 79.5t-22.5 107q0 59 15.5 105.5t42.5 78t64 48t80 16.5q34 0 60 -8t45 -21t32 -30t23 -36l-31 -16q-8 15 -18.5 29t-26 25t-36 18t-48.5 7q-40 0 -71 -17t-52 -46.5t-32 -67.5t-11 -80
q0 -44 15.5 -85t48 -72t84 -49.5t123.5 -18.5q17 0 26 -5t9 -22t-5 -39t-12.5 -45t-15.5 -45t-15 -38z" />
    <glyph glyph-name="sigma" unicode="&#x3c3;" horiz-adv-x="555" 
d="M345 446q45 -32 77.5 -85.5t32.5 -130.5q0 -44 -11.5 -87.5t-36 -77.5t-63 -55t-92.5 -21q-52 0 -90 21t-62.5 55t-36.5 75.5t-12 83.5q0 50 13 93t39 76t65 53.5t91 25.5q42 4 80 4.5t76 0.5h90v-31h-160zM136 78q23 -26 54.5 -41t68.5 -15q36 0 65.5 15.5t50.5 42.5
t32.5 64.5t11.5 81.5q0 43 -12 78.5t-30.5 62.5t-39.5 46t-39 30q-19 0 -41 -3q-84 -11 -126.5 -67.5t-42.5 -149.5q0 -44 13 -81t35 -64z" />
    <glyph glyph-name="tau" unicode="&#x3c4;" horiz-adv-x="502" 
d="M244 91q0 -39 19 -54t55 -15q20 0 41 6t33 12l8 -31q-11 -6 -36 -13t-51 -7q-50 0 -77.5 22t-27.5 73v360h-71q-17 0 -33 -2.5t-30 -10.5q-13 -7 -23 -17.5t-20 -25.5l-26 17q8 15 22.5 31t39.5 27q17 8 38.5 10.5t45.5 2.5h296v-32h-203v-353z" />
    <glyph glyph-name="upsilon" unicode="&#x3c5;" horiz-adv-x="504" 
d="M119 191q0 -86 31 -127.5t104 -41.5q34 0 58 10.5t40.5 30t26 46.5t14.5 60q4 23 4.5 50t0.5 57q0 52 -5 98t-14 100l37 6q8 -51 13 -100t5 -103q0 -31 -1 -58t-4 -51q-11 -83 -53.5 -131t-126.5 -48q-82 0 -124 45.5t-42 145.5v214q0 56 -38 56q-10 0 -27 -5l-8 32
q9 3 20 5.5t25 2.5q22 0 35 -7.5t19.5 -19.5t8 -28t1.5 -33v-206z" />
    <glyph glyph-name="phi" unicode="&#x3c6;" horiz-adv-x="646" 
d="M300 -189v189q-52 1 -97.5 17t-79.5 46t-53.5 73t-19.5 99q0 57 21 101t55.5 74.5t79.5 47t94 19.5v190h36v-190q52 -1 98.5 -16.5t81.5 -44.5t55.5 -72t20.5 -98q0 -59 -22.5 -105t-59 -77.5t-82.5 -47.5t-92 -16v-189h-36zM336 32q45 0 85 15t70 42.5t47.5 66
t17.5 85.5q0 45 -16 82.5t-44.5 64.5t-69.5 42t-90 15v-413zM300 445q-48 -1 -87.5 -17t-67.5 -43.5t-43.5 -66.5t-15.5 -86q0 -45 16.5 -81.5t45.5 -63t68 -41t84 -14.5v413z" />
    <glyph glyph-name="chi" unicode="&#x3c7;" horiz-adv-x="481" 
d="M36 -185l180 333l-93 226q-13 32 -27.5 55t-40.5 23q-15 0 -29 -5l-11 33q9 4 21 6.5t24 2.5q20 0 34 -7t25.5 -21t21 -34t20.5 -47l79 -195l155 299l34 -14l-169 -319l114 -243q16 -33 34 -50.5t43 -17.5q18 0 37 8l8 -33q-21 -10 -45 -10q-46 0 -71.5 25.5t-48.5 76.5
l-94 205l-168 -310z" />
    <glyph glyph-name="psi" unicode="&#x3c8;" horiz-adv-x="681" 
d="M317 -189v179q-128 7 -188.5 66t-60.5 173v127q0 26 -1.5 58.5t-6.5 61.5l35 5q6 -28 7.5 -63t1.5 -61v-123q0 -103 56.5 -156t156.5 -55v583h36v-583q95 2 142.5 34.5t65.5 91.5q8 27 11 60t3 67q0 52 -5 99.5t-14 101.5l35 5q9 -51 14.5 -101t5.5 -104
q0 -34 -2.5 -63.5t-9.5 -57.5q-9 -35 -26 -64.5t-46 -51.5t-71.5 -35t-102.5 -16v-178h-36z" />
    <glyph glyph-name="omega" unicode="&#x3c9;" horiz-adv-x="745" 
d="M167 470q-14 -23 -28 -52t-24.5 -62.5t-17 -70.5t-6.5 -74q0 -54 12 -90t31.5 -58t44.5 -31t52 -9q29 0 51 14t37 37t23.5 54t10.5 64q2 18 2.5 47t0.5 57v52h35v-37q0 -28 0.5 -61.5t3.5 -62.5q3 -33 12.5 -63t24.5 -52.5t37 -36t51 -13.5q33 0 59 15t44 42.5t27.5 65
t9.5 82.5q0 33 -6.5 67.5t-17.5 66.5t-25.5 60.5t-30.5 48.5l31 9q16 -20 31 -48.5t27 -61t19 -67t7 -65.5q0 -53 -10.5 -98t-32 -78.5t-54 -52.5t-76.5 -19q-32 0 -57.5 11.5t-44 31t-30.5 44t-16 50.5q-6 -26 -18 -50.5t-30 -43.5t-42.5 -31t-55.5 -12q-46 0 -78.5 17.5
t-53.5 47.5t-31 71t-10 88q0 39 7.5 78t19.5 74.5t26 65t28 49.5z" />
    <glyph glyph-name="iotadieresis" unicode="&#x3ca;" horiz-adv-x="235" 
d="M111 91q0 -38 15.5 -53.5t43.5 -15.5q11 0 26 3.5t27 8.5l7 -30q-11 -5 -29 -10t-37 -5q-40 0 -64.5 22t-24.5 73v392h36v-385zM163 594q-11 0 -19 11t-8 27q0 15 7.5 25t19.5 10t20 -10t8 -25q0 -17 -8 -27.5t-20 -10.5zM29 594q-11 0 -19 11t-8 27q0 15 7.5 25t19.5 10
t20 -10t8 -25q0 -17 -8 -27.5t-20 -10.5z" />
    <glyph glyph-name="upsilondieresis" unicode="&#x3cb;" horiz-adv-x="504" 
d="M119 191q0 -86 31 -127.5t104 -41.5q34 0 58 10.5t40.5 30t26 46.5t14.5 60q4 23 4.5 50t0.5 57q0 52 -5 98t-14 100l37 6q8 -51 13 -100t5 -103q0 -31 -1 -58t-4 -51q-11 -83 -53.5 -131t-126.5 -48q-82 0 -124 45.5t-42 145.5v214q0 56 -38 56q-10 0 -27 -5l-8 32
q9 3 20 5.5t25 2.5q22 0 35 -7.5t19.5 -19.5t8 -28t1.5 -33v-206zM315 594q-11 0 -19 11t-8 27q0 15 7.5 25t19.5 10t20 -10t8 -25q0 -17 -8 -27.5t-20 -10.5zM181 594q-11 0 -19 11t-8 27q0 15 7.5 25t19.5 10t20 -10t8 -25q0 -17 -8 -27.5t-20 -10.5z" />
    <glyph glyph-name="omicrontonos" unicode="&#x3cc;" horiz-adv-x="507" 
d="M164 10q-38 21 -64 56.5t-39.5 81t-13.5 94.5q0 48 13 93t39 79t64.5 54.5t89.5 20.5q50 0 88.5 -20.5t65 -54.5t40 -79.5t13.5 -94.5q0 -50 -13.5 -95.5t-40 -80t-65 -55t-88.5 -20.5t-89 21zM125 91q21 -31 53 -50.5t75 -19.5t75 19.5t53.5 51t32 70.5t10.5 79
t-10.5 79t-32 69.5t-53.5 49t-75 18.5t-75 -18.5t-53 -49t-31.5 -69t-10.5 -78.5t10.5 -79.5t31.5 -71.5zM213 555l94 194l42 -17l-110 -190z" />
    <glyph glyph-name="upsilontonos" unicode="&#x3cd;" horiz-adv-x="504" 
d="M119 191q0 -86 31 -127.5t104 -41.5q34 0 58 10.5t40.5 30t26 46.5t14.5 60q4 23 4.5 50t0.5 57q0 52 -5 98t-14 100l37 6q8 -51 13 -100t5 -103q0 -31 -1 -58t-4 -51q-11 -83 -53.5 -131t-126.5 -48q-82 0 -124 45.5t-42 145.5v214q0 56 -38 56q-10 0 -27 -5l-8 32
q9 3 20 5.5t25 2.5q22 0 35 -7.5t19.5 -19.5t8 -28t1.5 -33v-206zM208 555l94 194l42 -17l-110 -190z" />
    <glyph glyph-name="omegatonos" unicode="&#x3ce;" horiz-adv-x="745" 
d="M167 470q-14 -23 -28 -52t-24.5 -62.5t-17 -70.5t-6.5 -74q0 -54 12 -90t31.5 -58t44.5 -31t52 -9q29 0 51 14t37 37t23.5 54t10.5 64q2 18 2.5 47t0.5 57v52h35v-37q0 -28 0.5 -61.5t3.5 -62.5q3 -33 12.5 -63t24.5 -52.5t37 -36t51 -13.5q33 0 59 15t44 42.5t27.5 65
t9.5 82.5q0 33 -6.5 67.5t-17.5 66.5t-25.5 60.5t-30.5 48.5l31 9q16 -20 31 -48.5t27 -61t19 -67t7 -65.5q0 -53 -10.5 -98t-32 -78.5t-54 -52.5t-76.5 -19q-32 0 -57.5 11.5t-44 31t-30.5 44t-16 50.5q-6 -26 -18 -50.5t-30 -43.5t-42.5 -31t-55.5 -12q-46 0 -78.5 17.5
t-53.5 47.5t-31 71t-10 88q0 39 7.5 78t19.5 74.5t26 65t28 49.5zM341 555l94 194l42 -17l-110 -190z" />
    <glyph glyph-name="afii10023" unicode="&#x401;" horiz-adv-x="478" 
d="M81 0v667h364v-36h-326v-256h238v-36h-239v-303h344v-36h-381zM329 772q-11 0 -19 11t-8 27q0 15 7.5 25t19.5 10t20 -10t8 -25q0 -17 -8 -27.5t-20 -10.5zM195 772q-11 0 -19 11t-8 27q0 15 7.5 25t19.5 10t20 -10t8 -25q0 -17 -8 -27.5t-20 -10.5z" />
    <glyph glyph-name="afii10051" unicode="&#x402;" horiz-adv-x="664" 
d="M183 0v631h-173v36h396v-36h-185v-255q16 11 37.5 23.5t46 23t51 17t53.5 6.5q97 0 153.5 -59t56.5 -167q0 -56 -16 -97.5t-44.5 -68.5t-67.5 -40.5t-86 -13.5h-34v36h39q37 0 68.5 10t54.5 32t35.5 57t12.5 85q0 88 -45 139t-126 51q-32 0 -61 -8t-53 -19.5t-43 -25
t-32 -23.5v-334h-38z" />
    <glyph glyph-name="afii10052" unicode="&#x403;" horiz-adv-x="451" 
d="M90 -1v668h361v-36h-323v-631zM199 715l-17 20l164 141l28 -32z" />
    <glyph glyph-name="afii10053" unicode="&#x404;" horiz-adv-x="569" 
d="M89 316q2 -142 63.5 -218.5t173.5 -76.5q33 0 59 8t48 22t39.5 33t33.5 41l28 -19q-14 -23 -34.5 -44.5t-47 -38t-59.5 -27t-73 -10.5q-56 0 -105.5 19.5t-86 61.5t-57.5 107t-21 156t22.5 156.5t59.5 107.5t85 62t99 20q74 0 129 -34t88 -88l-28 -18q-13 18 -30 37
t-39.5 34.5t-52.5 25t-70 9.5q-54 0 -96 -22.5t-70.5 -62t-43 -92.5t-14.5 -114h265v-35h-265z" />
    <glyph glyph-name="afii10054" unicode="&#x405;" horiz-adv-x="494" 
d="M67 122q29 -48 74 -74.5t105 -26.5q38 0 70 8.5t54.5 26.5t35 45t12.5 64t-14.5 64.5t-40 48.5t-60 37t-75.5 31q-26 10 -56.5 24t-57 35t-44.5 49.5t-18 67.5q0 38 15 67.5t42 49.5t64 30.5t80 10.5q42 0 73.5 -8.5t55.5 -22.5t42 -32t32 -37l-30 -23q-29 37 -70 63
t-105 26q-32 0 -60.5 -7t-51 -22t-35.5 -38.5t-13 -55.5q0 -31 16 -53.5t40 -38.5t50.5 -27.5t47.5 -19.5q41 -16 79 -34t67.5 -42.5t47.5 -59t18 -83.5q0 -86 -53 -132t-158 -46q-74 0 -126 28.5t-87 84.5z" />
    <glyph glyph-name="uni0406" unicode="&#x406;" horiz-adv-x="200" 
d="M81 0v667h38v-667h-38z" />
    <glyph glyph-name="afii10056" unicode="&#x407;" horiz-adv-x="200" 
d="M81 0v667h38v-667h-38zM167 760q-11 0 -19 11t-8 27q0 15 7.5 25t19.5 10t20 -10t8 -25q0 -17 -8 -27.5t-20 -10.5zM33 760q-11 0 -19 11t-8 27q0 15 7.5 25t19.5 10t20 -10t8 -25q0 -17 -8 -27.5t-20 -10.5z" />
    <glyph glyph-name="afii10057" unicode="&#x408;" horiz-adv-x="207" 
d="M-39 -88q24 6 47 15.5t40.5 25.5t28.5 40t11 57v617h38v-621q0 -41 -13.5 -70t-35.5 -48.5t-50.5 -31.5t-58.5 -18z" />
    <glyph glyph-name="afii10058" unicode="&#x409;" horiz-adv-x="936" 
d="M5 0v35q18 0 34.5 2t31.5 10t28 23.5t24 42.5q38 91 52.5 234t14.5 320h327v-266h157q104 0 160.5 -50t56.5 -142q0 -47 -14.5 -85t-43 -66t-70 -43t-94.5 -15h-190v632h-250q-1 -101 -8 -189t-17.5 -159.5t-24.5 -123.5t-30 -79q-26 -46 -57 -63.5t-78 -17.5h-9zM517 35
h152q95 0 139.5 47.5t44.5 126.5q0 76 -47 117t-135 41h-154v-332z" />
    <glyph glyph-name="afii10059" unicode="&#x40a;" horiz-adv-x="935" 
d="M90 0v667h38v-272h350v272h38v-272h153q105 0 163 -48.5t58 -142.5q0 -48 -16 -86t-46 -64.5t-72.5 -40t-94.5 -13.5h-183v359h-350v-359h-38zM516 35h148q91 0 139 44t48 125q0 156 -186 156h-149v-325z" />
    <glyph glyph-name="afii10060" unicode="&#x40b;" horiz-adv-x="688" 
d="M184 0v631h-174v36h397v-36h-185v-256q16 11 37.5 23.5t46 23t51.5 17.5t54 7q91 0 141.5 -50.5t50.5 -156.5v-239h-38v239q0 36 -8 67t-26.5 54.5t-48.5 36.5t-74 13q-30 0 -58.5 -8.5t-52.5 -20.5t-43 -26t-32 -24v-331h-38z" />
    <glyph glyph-name="afii10061" unicode="&#x40c;" horiz-adv-x="533" 
d="M90 0v667h38v-311h88q25 0 43 9t33.5 30t30.5 56t33 87q24 66 53.5 97.5t80.5 31.5h33v-36h-26q-22 0 -38 -6t-28 -19t-22.5 -34.5t-20.5 -51.5q-14 -39 -26 -67.5t-23 -49.5t-22.5 -35.5t-23.5 -24.5l221 -343h-42l-212 322h-132v-322h-38zM228 715l-17 20l164 141
l28 -32z" />
    <glyph glyph-name="afii10062" unicode="&#x40e;" horiz-adv-x="525" 
d="M96 -6v37h13q20 0 39 4.5t38 20.5t39 45.5t42 80.5l-252 485h42l232 -448q23 45 48.5 102t50 117.5t46.5 119.5t38 109h38q-45 -136 -100.5 -269t-117.5 -251q-15 -29 -31.5 -56.5t-37 -49t-46 -34.5t-59.5 -13h-22zM180 833q8 -45 37.5 -67.5t65.5 -22.5q38 0 66 21.5
t36 68.5h30q-6 -55 -43.5 -88t-90.5 -33q-26 0 -49.5 8.5t-41.5 24.5t-29 38.5t-13 49.5h32z" />
    <glyph glyph-name="afii10145" unicode="&#x40f;" horiz-adv-x="636" 
d="M90 0v667h39v-633h379v633h38v-667h-205v-146h-38v146h-213z" />
    <glyph glyph-name="afii10017" unicode="&#x410;" horiz-adv-x="540" 
d="M0 0l251 667h36l253 -667h-38l-84 220h-296l-83 -220h-39zM134 255h272l-138 367z" />
    <glyph glyph-name="afii10018" unicode="&#x411;" horiz-adv-x="539" 
d="M90 0v667h333v-36h-295v-245h147q106 0 162.5 -48.5t56.5 -142.5q0 -96 -55 -145.5t-164 -49.5h-185zM128 35h152q88 0 132 38.5t44 119.5q0 40 -13 70t-36 49.5t-55 29t-71 9.5h-153v-316z" />
    <glyph glyph-name="afii10019" unicode="&#x412;" horiz-adv-x="509" 
d="M81 0v667h176q91 0 139.5 -39.5t48.5 -128.5q0 -58 -30.5 -94.5t-96.5 -50.5q83 -4 122 -49t39 -121q0 -43 -14 -77t-38.5 -58t-59 -36.5t-76.5 -12.5h-210zM119 370h131q78 0 117.5 35.5t39.5 96.5q0 69 -39 99t-111 30h-138v-261zM119 36h168q75 0 114 42t39 108
q0 40 -13.5 68.5t-38 46t-59 25.5t-76.5 8h-134v-298z" />
    <glyph glyph-name="afii10020" unicode="&#x413;" horiz-adv-x="451" 
d="M90 -1v668h361v-36h-323v-631z" />
    <glyph glyph-name="afii10021" unicode="&#x414;" horiz-adv-x="596" 
d="M0 -146v180h35q45 67 76 145t49 154q9 38 15.5 80.5t10 86t5.5 86t2 81.5h312v-633h56v-180h-38v146h-485v-146h-38zM467 34v599h-237q0 -38 -3 -79.5t-7.5 -83t-10.5 -79.5t-13 -69q-8 -37 -21.5 -77.5t-29.5 -79t-33 -73t-32 -58.5h387z" />
    <glyph glyph-name="afii10022" unicode="&#x415;" horiz-adv-x="478" 
d="M81 0v667h364v-36h-326v-256h238v-36h-239v-303h344v-36h-381z" />
    <glyph glyph-name="afii10024" unicode="&#x416;" horiz-adv-x="778" 
d="M26 0l218 336q-17 9 -30.5 25t-25 37.5t-23 48.5t-24.5 60q-17 42 -28.5 66.5t-23 37.5t-27 16.5t-39.5 3.5h-8v36h27q28 0 46.5 -7t33 -24.5t28 -47t31.5 -74.5q18 -44 32 -75t29 -51t32.5 -29.5t42.5 -9.5h54v318h36v-318h55q24 0 42.5 9.5t34 29.5t30 51t32.5 75
q18 45 31.5 74.5t28 47t33 24.5t46.5 7h23v-36h-11q-23 0 -38 -3.5t-27 -16t-23 -37.5t-27 -67q-26 -69 -50.5 -112t-51.5 -60l218 -335h-47l-203 314h-96v-314h-36v314h-98l-204 -314h-43z" />
    <glyph glyph-name="afii10025" unicode="&#x417;" horiz-adv-x="520" 
d="M60 112q33 -41 77.5 -66t115.5 -25q88 0 133.5 42.5t45.5 114.5q0 63 -41.5 100t-107.5 42q-8 1 -21 1.5t-28.5 1t-30.5 0.5h-26v34h43q20 0 40 1.5t31 3.5q24 5 46.5 18t40 31.5t28 42.5t10.5 51q0 67 -40 102.5t-120 35.5q-66 0 -108 -27t-71 -72l-27 21
q31 57 86.5 85.5t121.5 28.5q100 0 148 -45t48 -122q0 -34 -10.5 -62t-29 -49.5t-43 -36.5t-51.5 -22q72 -7 111 -51.5t39 -113.5q0 -47 -16 -83t-45.5 -60t-70.5 -36.5t-92 -12.5q-64 0 -121.5 24.5t-94.5 77.5z" />
    <glyph glyph-name="afii10026" unicode="&#x418;" horiz-adv-x="650" 
d="M90 0v667h38v-546l394 479v67h38v-667h-38v544l-394 -478v-66h-38z" />
    <glyph glyph-name="afii10027" unicode="&#x419;" horiz-adv-x="650" 
d="M90 0v667h38v-546l394 479v67h38v-667h-38v544l-394 -478v-66h-38zM230 837q8 -45 37.5 -67.5t65.5 -22.5q38 0 66 21.5t36 68.5h30q-6 -55 -43.5 -88t-90.5 -33q-26 0 -49.5 8.5t-41.5 24.5t-29 38.5t-13 49.5h32z" />
    <glyph glyph-name="afii10028" unicode="&#x41a;" horiz-adv-x="533" 
d="M90 0v667h38v-311h88q25 0 43 9t33.5 30t30.5 56t33 87q24 66 53.5 97.5t80.5 31.5h33v-36h-26q-22 0 -38 -6t-28 -19t-22.5 -34.5t-20.5 -51.5q-14 -39 -26 -67.5t-23 -49.5t-22.5 -35.5t-23.5 -24.5l221 -343h-42l-212 322h-132v-322h-38z" />
    <glyph glyph-name="afii10029" unicode="&#x41b;" horiz-adv-x="623" 
d="M5 0v35q18 0 34 2t31 9.5t28 22t24 39.5q19 43 32 103t21.5 132t12 154t3.5 170h342v-667h-38v633h-265q0 -93 -6.5 -181t-17.5 -161t-25 -128t-30 -82q-26 -46 -57.5 -63.5t-78.5 -17.5h-10z" />
    <glyph glyph-name="afii10030" unicode="&#x41c;" horiz-adv-x="741" 
d="M90 0v667h61l227 -594l214 594h59v-667h-37v620l-229 -629h-15l-242 629v-620h-38z" />
    <glyph glyph-name="afii10031" unicode="&#x41d;" horiz-adv-x="644" 
d="M90 0v667h38v-308h389v308h37v-667h-37v323h-389v-323h-38z" />
    <glyph glyph-name="afii10032" unicode="&#x41e;" horiz-adv-x="631" 
d="M199 16q-50 29 -83.5 77.5t-50 111t-16.5 129.5q0 69 18 132t52.5 110.5t84 75.5t113.5 28q67 0 117 -29.5t83 -78t49 -111t16 -127.5t-16 -127.5t-49 -111t-83 -78.5t-117 -30t-118 29zM144 121q29 -44 72 -72t101 -28t100.5 28t70.5 73t41.5 101t13.5 111t-13.5 110.5
t-41 100.5t-70.5 73t-101 28q-60 0 -103 -28t-71 -72.5t-41.5 -100.5t-13.5 -111q0 -56 14 -112t42 -101z" />
    <glyph glyph-name="afii10033" unicode="&#x41f;" horiz-adv-x="641" 
d="M90 0v667h461v-667h-38v633h-384v-633h-39z" />
    <glyph glyph-name="afii10034" unicode="&#x420;" horiz-adv-x="508" 
d="M81 0v667h209q90 0 144.5 -49t54.5 -142q0 -47 -16 -82t-43 -58.5t-62 -35.5t-74 -12h-175v-288h-38zM119 324h171q38 0 67.5 11.5t50 31.5t31.5 47.5t11 59.5q0 69 -39 113t-122 44h-170v-307z" />
    <glyph glyph-name="afii10035" unicode="&#x421;" horiz-adv-x="545" 
d="M525 116q-32 -61 -81.5 -95t-127.5 -34q-67 0 -117 27.5t-83.5 74t-50 109t-16.5 133.5q0 79 19 143t52.5 110t81 71t104.5 25q43 0 76.5 -10t59 -28t44.5 -42.5t33 -52.5l-33 -17q-12 24 -28 45t-37.5 36.5t-49.5 25t-64 9.5q-44 0 -84 -20.5t-70 -60.5t-47.5 -99
t-17.5 -136q0 -65 15.5 -121.5t45 -98t72 -65.5t95.5 -24q34 0 61.5 9t49 24.5t38.5 36t29 43.5z" />
    <glyph glyph-name="afii10036" unicode="&#x422;" horiz-adv-x="452" 
d="M206 0v631h-206v36h452v-36h-207v-631h-39z" />
    <glyph glyph-name="afii10037" unicode="&#x423;" horiz-adv-x="525" 
d="M96 -6v37h13q20 0 39 4.5t38 20.5t39 45.5t42 80.5l-252 485h42l232 -448q23 45 48.5 102t50 117.5t46.5 119.5t38 109h38q-45 -136 -100.5 -269t-117.5 -251q-15 -29 -31.5 -56.5t-37 -49t-46 -34.5t-59.5 -13h-22z" />
    <glyph glyph-name="afii10038" unicode="&#x424;" horiz-adv-x="710" 
d="M335 -11v97q-138 5 -211.5 70t-73.5 177t73.5 176t211.5 70v100h39v-100q139 -6 212.5 -70t73.5 -176t-73.5 -177t-212.5 -70v-97h-39zM335 544q-54 0 -99.5 -13t-78.5 -39t-51.5 -65.5t-18.5 -93.5q0 -51 18.5 -90.5t51.5 -66.5t78.5 -41t99.5 -14v423zM374 121
q54 0 99.5 13t78.5 39t52 66t19 94q0 52 -19 91t-52 65.5t-78.5 40.5t-99.5 14v-423z" />
    <glyph glyph-name="afii10039" unicode="&#x425;" horiz-adv-x="474" 
d="M10 0l207 342l-189 325h42l168 -296l165 296h41l-187 -324l207 -343h-43l-183 313l-187 -313h-41z" />
    <glyph glyph-name="afii10040" unicode="&#x426;" horiz-adv-x="632" 
d="M90 0v667h38v-633h375v633h38v-633h56v-180h-38v146h-469z" />
    <glyph glyph-name="afii10041" unicode="&#x427;" horiz-adv-x="596" 
d="M468 0v312q-45 -17 -104 -26.5t-110 -9.5q-47 0 -81 9.5t-56.5 28.5t-35 47.5t-17.5 67.5q-2 16 -3 36.5t-1 39.5v162h38v-153q0 -16 0.5 -35t2.5 -32q7 -71 43 -103.5t116 -32.5q26 0 54.5 3t56.5 8t53 12t44 15v318h38v-667h-38z" />
    <glyph glyph-name="afii10042" unicode="&#x428;" horiz-adv-x="864" 
d="M90 0v667h38v-633h286v633h36v-633h286v633h38v-667h-684z" />
    <glyph glyph-name="afii10043" unicode="&#x429;" horiz-adv-x="851" 
d="M90 0v667h38v-633h277v633h36v-633h282v633h36v-633h57v-180h-38v146h-688z" />
    <glyph glyph-name="afii10044" unicode="&#x42a;" horiz-adv-x="594" 
d="M120 0v632h-105v35h143v-245h167q110 0 167 -57t57 -151q0 -48 -13.5 -87t-40.5 -67.5t-68 -44t-96 -15.5h-211zM158 36h169q48 0 83 13t57 36.5t32.5 56.5t10.5 72q0 78 -47 125t-138 47h-167v-350z" />
    <glyph glyph-name="afii10045" unicode="&#x42b;" horiz-adv-x="762" 
d="M90 0v667h38v-245h149q112 0 168 -57t56 -151q0 -48 -13 -87t-40 -67.5t-68.5 -44t-97.5 -15.5h-192zM128 36h151q95 0 139 49.5t44 128.5q0 78 -47.5 125t-134.5 47h-152v-350zM634 0v667h38v-667h-38z" />
    <glyph glyph-name="afii10046" unicode="&#x42c;" horiz-adv-x="562" 
d="M90 0v667h38v-266h168q110 0 165.5 -50.5t55.5 -143.5q0 -97 -58 -152t-169 -55h-200zM128 37h171q88 0 133 44.5t45 125.5q0 78 -47.5 118t-132.5 40h-169v-328z" />
    <glyph glyph-name="afii10047" unicode="&#x42d;" horiz-adv-x="569" 
d="M67 127q15 -22 33 -41.5t39.5 -33.5t48.5 -22.5t62 -8.5q114 0 172.5 78.5t58.5 219.5h-266v35h266q-2 64 -17.5 116.5t-45 90.5t-72.5 59t-98 21q-36 0 -64.5 -9.5t-51 -24.5t-39.5 -34t-30 -37l-27 18q33 54 89 88t130 34q51 0 98.5 -19t84.5 -60.5t59 -107.5t22 -159
q0 -91 -21 -156t-57.5 -107t-86 -61.5t-105.5 -19.5q-40 0 -73 10.5t-59.5 27t-47 38t-34.5 44.5z" />
    <glyph glyph-name="afii10048" unicode="&#x42e;" horiz-adv-x="887" 
d="M90 0v667h38v-310h183q4 63 21.5 121t49.5 102t79.5 70t110.5 26q68 0 118 -28.5t82.5 -76.5t48.5 -110t16 -128t-16 -128.5t-49 -111t-83 -78t-117 -29.5q-65 0 -112.5 27.5t-80 74t-49 107t-19.5 126.5h-183v-321h-38zM406 120q28 -44 70 -71.5t101 -27.5q54 0 95.5 26
t69 69.5t41.5 99.5t14 117q0 60 -14 115.5t-42.5 98t-70.5 68t-98 25.5t-97.5 -26t-68.5 -68.5t-40.5 -98t-13.5 -114.5q0 -57 13 -113t41 -100z" />
    <glyph glyph-name="afii10049" unicode="&#x42f;" horiz-adv-x="547" 
d="M40 0v37h15q9 0 20.5 1.5t23.5 8.5t25 23t26 45.5t25 74t23 110.5q-72 22 -109.5 66t-37.5 117q0 39 13 72.5t39 58.5t65.5 39t92.5 14h196v-667h-38v295h-184q-18 -101 -40 -159.5t-45.5 -88.5t-47 -38.5t-43.5 -8.5h-19zM419 330v302h-174q-75 0 -115 -41t-40 -106
q0 -33 10.5 -61t30.5 -49t50 -33t69 -12h169z" />
    <glyph glyph-name="afii10065" unicode="&#x430;" horiz-adv-x="443" 
d="M346 0l-3 42q-24 -24 -58 -38.5t-89 -14.5q-71 0 -113 38t-42 107q0 53 25.5 88t67.5 55t96.5 28.5t111.5 9.5v31q0 52 -29.5 81.5t-84.5 29.5q-40 0 -71.5 -18t-49.5 -39l-25 22q22 25 57 46t88 21q77 0 114 -38.5t37 -109.5v-341h-32zM342 282q-47 -1 -94 -7t-85 -22.5
t-62 -45.5t-24 -74q0 -29 10 -50t27.5 -34.5t40 -20.5t47.5 -7q44 0 80.5 18.5t59.5 44.5v198z" />
    <glyph glyph-name="afii10066" unicode="&#x431;" horiz-adv-x="510" 
d="M258 590q-51 -2 -82.5 -25t-50 -59t-27 -79.5t-12.5 -86.5q29 57 77.5 85.5t107.5 28.5q46 0 83 -18t63 -49t39.5 -74t13.5 -92q0 -44 -13 -85.5t-39.5 -74t-66 -52.5t-92.5 -20t-92 21.5t-65 60t-39 91t-13 114.5q0 174 50.5 260.5t161.5 88.5l41 1q37 1 59 11t30 39
q8 -1 13 -2.5t10 -2.5q-8 -45 -35 -61t-72 -18zM137 87q22 -29 52.5 -46.5t69.5 -17.5q43 0 76 17t54.5 45.5t32.5 64t11 73.5q0 37 -10.5 72.5t-31.5 63.5t-53 44.5t-75 16.5q-34 0 -64.5 -14t-54 -38t-37 -56.5t-13.5 -69.5q0 -45 11 -85t32 -70z" />
    <glyph glyph-name="afii10067" unicode="&#x432;" horiz-adv-x="468" 
d="M75 0v476h194q137 0 137 -114q0 -47 -22.5 -73t-55.5 -39q41 -8 70.5 -39t29.5 -81q0 -62 -39 -96t-98 -34h-216zM111 32h173q21 0 40.5 5t34.5 17t24 31t9 46q0 41 -31 70t-88 29h-162v-198zM111 263h155q54 0 79 29t25 68q0 41 -24.5 62.5t-72.5 21.5h-162v-181z" />
    <glyph glyph-name="afii10068" unicode="&#x433;" horiz-adv-x="361" 
d="M75 0v476h281v-34h-245v-442h-36z" />
    <glyph glyph-name="afii10069" unicode="&#x434;" horiz-adv-x="513" 
d="M-5 -113v145h25q36 23 58.5 56t34.5 73t16 84t4 89v142h309v-444h56v-145h-36v113h-431v-113h-36zM406 32v412h-237v-133q0 -39 -5 -78t-16 -76t-29 -69t-45 -56h332z" />
    <glyph glyph-name="afii10070" unicode="&#x435;" horiz-adv-x="471" 
d="M81 250q0 -109 43.5 -169t129.5 -60q55 0 89 26t56 66l30 -16q-11 -20 -26 -39.5t-36.5 -34.5t-49.5 -24.5t-65 -9.5q-98 0 -151.5 66.5t-53.5 182.5q0 59 15 105.5t41 79t62.5 49.5t79.5 17q45 0 79.5 -17t59 -48t38 -75.5t15.5 -98.5h-356zM397 283q-3 46 -17 79
t-35 54t-47 31t-53 10q-31 0 -58 -10.5t-49 -31.5t-36.5 -54t-19.5 -78h315z" />
    <glyph glyph-name="afii10072" unicode="&#x436;" horiz-adv-x="670" 
d="M36 0l156 255q-20 11 -30 28.5t-24 43.5l-16 30q-14 25 -24 42t-19 27t-20 14t-28 4h-16v32h25q21 0 34.5 -4.5t23.5 -14t19.5 -25.5t23.5 -39l6 -12t8 -14q16 -29 28 -48.5t23 -31t23.5 -16.5t30.5 -5h58v210h34v-210h59q18 0 30.5 5t24 16.5t23 31t27.5 48.5l14 26
q13 23 23 39t20.5 25.5t24 14t33.5 4.5h24v-32h-17q-18 0 -29 -4t-20 -14t-18.5 -27t-23.5 -42q-20 -35 -36 -61t-31 -38l149 -258h-41l-134 234h-102v-234h-34v234h-98l-144 -234h-40z" />
    <glyph glyph-name="afii10073" unicode="&#x437;" horiz-adv-x="425" 
d="M60 101q9 -16 20.5 -30.5t28 -25.5t39 -17.5t54.5 -6.5q72 0 107 27t35 73q0 48 -30.5 73t-81.5 30q-10 1 -33 1.5t-40 0.5v30h38.5t33.5 2q23 3 41.5 13.5t31.5 25.5t20 33.5t7 36.5q0 47 -35 68.5t-86 21.5q-54 0 -86 -21t-56 -69l-26 14q24 54 64 81t105 27
q72 0 114 -31.5t42 -85.5q0 -42 -23 -78.5t-66 -50.5q45 -9 73.5 -38.5t28.5 -75.5q0 -70 -48 -105t-130 -35q-72 0 -111 26t-61 68z" />
    <glyph glyph-name="afii10074" unicode="&#x438;" horiz-adv-x="513" 
d="M75 0v476h36v-382l291 335v47h36v-476h-36v380l-291 -335v-45h-36z" />
    <glyph glyph-name="afii10075" unicode="&#x439;" horiz-adv-x="513" 
d="M75 0v476h36v-382l291 335v47h36v-476h-36v380l-291 -335v-45h-36zM164 667q8 -45 37.5 -67.5t65.5 -22.5q38 0 66 21.5t36 68.5h30q-6 -55 -43.5 -88t-90.5 -33q-26 0 -49.5 8.5t-41.5 24.5t-29 38.5t-13 49.5h32z" />
    <glyph glyph-name="afii10076" unicode="&#x43a;" horiz-adv-x="453" 
d="M75 0v476h36v-216h76q17 0 29 6t22 20t21 37.5t27 58.5q13 30 27 48t29 28.5t31 14t35 3.5h20v-32h-22q-17 0 -29.5 -4t-23 -13.5t-20 -25t-19.5 -37.5q-18 -40 -32 -69.5t-30 -43.5l173 -251h-44l-157 228h-113v-228h-36z" />
    <glyph glyph-name="afii10077" unicode="&#x43b;" horiz-adv-x="508" 
d="M5 0v33q18 0 33.5 2.5t28.5 11t23.5 25t17.5 44.5q6 22 10 50.5t6.5 70t3.5 99.5t1 140h304v-476h-36v444h-231q-2 -104 -6.5 -191.5t-15.5 -138.5q-12 -53 -42.5 -83.5t-85.5 -30.5h-11z" />
    <glyph glyph-name="afii10078" unicode="&#x43c;" horiz-adv-x="611" 
d="M75 0v476h60l172 -414l173 414h56v-476h-35v442l-189 -447h-12l-190 448v-443h-35z" />
    <glyph glyph-name="afii10079" unicode="&#x43d;" horiz-adv-x="508" 
d="M75 0v476h36v-210h286v210h36v-476h-36v232h-286v-232h-36z" />
    <glyph glyph-name="afii10080" unicode="&#x43e;" horiz-adv-x="507" 
d="M164 10q-38 21 -64 56.5t-39.5 81t-13.5 94.5q0 48 13 93t39 79t64.5 54.5t89.5 20.5q50 0 88.5 -20.5t65 -54.5t40 -79.5t13.5 -94.5q0 -50 -13.5 -95.5t-40 -80t-65 -55t-88.5 -20.5t-89 21zM125 91q21 -31 53 -50.5t75 -19.5t75 19.5t53.5 51t32 70.5t10.5 79
t-10.5 79t-32 69.5t-53.5 49t-75 18.5t-75 -18.5t-53 -49t-31.5 -69t-10.5 -78.5t10.5 -79.5t31.5 -71.5z" />
    <glyph glyph-name="afii10081" unicode="&#x43f;" horiz-adv-x="503" 
d="M75 0v476h353v-476h-36v444h-281v-444h-36z" />
    <glyph glyph-name="afii10082" unicode="&#x440;" horiz-adv-x="496" 
d="M69 -189v665h32l4 -44q10 9 23 19t30 18.5t38.5 14t48.5 5.5q97 0 151 -64t54 -182q0 -57 -15 -104t-43.5 -80t-69.5 -51.5t-92 -18.5q-44 0 -75 11.5t-50 25.5v-215h-36zM105 65q23 -18 54.5 -30.5t71.5 -12.5q85 0 134 59t49 160q0 47 -10 86.5t-31.5 68.5t-54.5 45
t-78 16q-44 0 -77.5 -20t-57.5 -44v-328z" />
    <glyph glyph-name="afii10083" unicode="&#x441;" horiz-adv-x="442" 
d="M418 79q-12 -18 -27 -34t-35.5 -28.5t-46 -20t-58.5 -7.5q-46 0 -83.5 17.5t-64.5 50t-41.5 78.5t-14.5 104q0 59 15.5 105.5t42.5 78.5t64 49t80 17q34 0 60 -8t45 -21t32 -30t23 -36l-31 -16q-8 15 -18.5 29t-26 25t-36 18t-48.5 7q-40 0 -71 -17.5t-52 -47.5
t-32 -69.5t-11 -83.5q0 -47 11.5 -87t33.5 -68.5t53.5 -44.5t71.5 -16q48 0 80.5 20t55.5 55z" />
    <glyph glyph-name="afii10084" unicode="&#x442;" horiz-adv-x="389" 
d="M177 0v442h-162v34h359v-34h-161v-442h-36z" />
    <glyph glyph-name="afii10085" unicode="&#x443;" horiz-adv-x="425" 
d="M17 -154q14 -6 32 -12t32 -6q26 0 42.5 12t27.5 40l43 112l-194 484h40l174 -435l173 435h38l-243 -607q-15 -38 -37.5 -54.5t-60.5 -16.5q-22 0 -42.5 5t-37.5 13z" />
    <glyph glyph-name="afii10086" unicode="&#x444;" horiz-adv-x="646" 
d="M300 -189v189q-52 1 -97.5 17t-79.5 46t-53.5 73t-19.5 99q0 57 21 101t55.5 74.5t79.5 47t94 19.5v190h36v-190q52 -1 98.5 -16.5t81.5 -44.5t55.5 -72t20.5 -98q0 -59 -22.5 -105t-59 -77.5t-82.5 -47.5t-92 -16v-189h-36zM336 32q45 0 85 15t70 42.5t47.5 66
t17.5 85.5q0 45 -16 82.5t-44.5 64.5t-69.5 42t-90 15v-413zM300 445q-48 -1 -87.5 -17t-67.5 -43.5t-43.5 -66.5t-15.5 -86q0 -45 16.5 -81.5t45.5 -63t68 -41t84 -14.5v413z" />
    <glyph glyph-name="afii10087" unicode="&#x445;" horiz-adv-x="367" 
d="M0 0l165 243l-157 233h39l139 -205l134 205h38l-152 -233l161 -243h-39l-142 216l-147 -216h-39z" />
    <glyph glyph-name="afii10088" unicode="&#x446;" horiz-adv-x="500" 
d="M75 0v476h36v-444h271v444h36v-444h57v-145h-36v113h-364z" />
    <glyph glyph-name="afii10089" unicode="&#x447;" horiz-adv-x="509" 
d="M398 0v193q-43 -11 -85.5 -18t-82.5 -7q-68 0 -106.5 20.5t-49.5 74.5q-2 13 -3.5 27t-1.5 31v155h37v-149q0 -12 0.5 -25t2.5 -22q6 -43 36.5 -61t87.5 -18q42 0 85.5 7t79.5 19v249h36v-476h-36z" />
    <glyph glyph-name="afii10090" unicode="&#x448;" horiz-adv-x="734" 
d="M75 0v476h37v-444h238v444h35v-444h238v444h36v-476h-584z" />
    <glyph glyph-name="afii10091" unicode="&#x449;" horiz-adv-x="730" 
d="M75 0v476h37v-444h233v444h35v-444h233v444h36v-444h56v-145h-36v113h-594z" />
    <glyph glyph-name="afii10092" unicode="&#x44a;" horiz-adv-x="510" 
d="M111 0v442h-106v34h142v-162h140q48 0 82.5 -11.5t57 -32t33 -48t10.5 -60.5t-10.5 -62.5t-33 -51.5t-57 -35t-82.5 -13h-176zM147 32h136q151 0 151 130q0 63 -40.5 91.5t-109.5 28.5h-137v-250z" />
    <glyph glyph-name="afii10093" unicode="&#x44b;" horiz-adv-x="642" 
d="M75 0v476h36v-162h134q47 0 81.5 -11.5t56.5 -32t32.5 -48.5t10.5 -61t-11 -62.5t-33.5 -51.5t-57 -34.5t-81.5 -12.5h-168zM111 32h132q71 0 109 33t38 96q0 62 -38.5 91.5t-108.5 29.5h-132v-250zM531 0v476h36v-476h-36z" />
    <glyph glyph-name="afii10094" unicode="&#x44c;" horiz-adv-x="479" 
d="M75 0v476h36v-162h145q48 0 82.5 -11.5t57 -32t33 -48.5t10.5 -61t-10.5 -62.5t-33 -51.5t-57 -34.5t-82.5 -12.5h-181zM111 32h141q75 0 113 33t38 96q0 62 -39 91.5t-111 29.5h-142v-250z" />
    <glyph glyph-name="afii10095" unicode="&#x44d;" horiz-adv-x="457" 
d="M55 103q21 -35 56.5 -58.5t88.5 -23.5q38 0 70.5 12.5t56.5 39t37 66t13 93.5h-230v32h229q-2 50 -17.5 86.5t-39.5 60t-55 35t-65 11.5q-44 0 -82.5 -20.5t-62.5 -62.5l-28 14q9 17 25.5 35t38.5 32.5t50.5 24t61.5 9.5q44 0 82.5 -14t67 -44.5t44.5 -78.5t16 -115
q0 -62 -15.5 -108.5t-44 -77.5t-68 -46.5t-86.5 -15.5q-56 0 -100 23.5t-73 73.5z" />
    <glyph glyph-name="afii10096" unicode="&#x44e;" horiz-adv-x="722" 
d="M75 0v476h36v-215h164q4 45 18.5 85t39 70t60 47t83.5 17q52 0 90 -19.5t63 -53.5t36.5 -78.5t11.5 -94.5t-11.5 -94.5t-36.5 -78t-63 -53t-90 -19.5q-50 0 -87 18.5t-62 51t-38 75.5t-16 93h-162v-227h-36zM353 84q21 -29 52 -46t71 -17q44 0 75 17t51 46t29.5 68
t9.5 83t-9.5 82.5t-30 67.5t-51.5 46t-74 17q-42 0 -73 -17t-51.5 -46.5t-30.5 -68t-10 -80.5q0 -44 10.5 -83.5t31.5 -68.5z" />
    <glyph glyph-name="afii10097" unicode="&#x44f;" horiz-adv-x="475" 
d="M30 0v34h11q11 0 25.5 3.5t29 19t28 47t24.5 86.5q-16 5 -34.5 15t-34 26.5t-25.5 40.5t-10 58q0 67 47 106.5t130 39.5h179v-476h-36v183h-180q-12 -59 -28.5 -95t-35 -55.5t-36.5 -26t-32 -6.5h-22zM364 216v227h-150q-63 0 -98.5 -30t-35.5 -82q0 -54 33.5 -84.5
t95.5 -30.5h155z" />
    <glyph glyph-name="afii10071" unicode="&#x451;" horiz-adv-x="471" 
d="M81 250q0 -109 43.5 -169t129.5 -60q55 0 89 26t56 66l30 -16q-11 -20 -26 -39.5t-36.5 -34.5t-49.5 -24.5t-65 -9.5q-98 0 -151.5 66.5t-53.5 182.5q0 59 15 105.5t41 79t62.5 49.5t79.5 17q45 0 79.5 -17t59 -48t38 -75.5t15.5 -98.5h-356zM397 283q-3 46 -17 79
t-35 54t-47 31t-53 10q-31 0 -58 -10.5t-49 -31.5t-36.5 -54t-19.5 -78h315zM310 594q-11 0 -19 11t-8 27q0 15 7.5 25t19.5 10t20 -10t8 -25q0 -17 -8 -27.5t-20 -10.5zM176 594q-11 0 -19 11t-8 27q0 15 7.5 25t19.5 10t20 -10t8 -25q0 -17 -8 -27.5t-20 -10.5z" />
    <glyph glyph-name="afii10099" unicode="&#x452;" horiz-adv-x="535" 
d="M82 0v579h-82v29h82v59h36v-59h156v-29h-156v-204q35 28 80.5 49.5t96.5 21.5q90 0 127.5 -48t37.5 -137v-243q0 -44 -6.5 -75.5t-19.5 -56.5t-31.5 -44t-43.5 -37l-18 29q24 17 39.5 35.5t25.5 40.5t14 48.5t4 59.5v244q0 150 -136 150q-26 0 -50.5 -7.5t-46 -18.5
t-40.5 -24.5t-33 -25.5v-336h-36z" />
    <glyph glyph-name="afii10100" unicode="&#x453;" horiz-adv-x="361" 
d="M75 0v476h281v-34h-245v-442h-36zM145 549l-17 20l164 141l28 -32z" />
    <glyph glyph-name="afii10101" unicode="&#x454;" horiz-adv-x="462" 
d="M79 228q1 -55 16 -94t40 -64t58 -37t71 -12q53 0 86.5 23t54.5 58l27 -16q-29 -50 -73 -73.5t-100 -23.5q-46 0 -85 15.5t-67.5 47t-45 77.5t-16.5 108q0 63 17 110.5t45.5 79t66.5 47t81 15.5q33 0 61 -9t50 -23.5t38.5 -32.5t26.5 -36l-28 -14q-12 21 -29.5 36.5
t-38 26t-42.5 15.5t-44 5q-32 0 -61.5 -12.5t-53 -37.5t-38 -62t-16.5 -85h230v-32h-231z" />
    <glyph glyph-name="afii10102" unicode="&#x455;" horiz-adv-x="372" 
d="M64 87q20 -29 51 -47.5t76 -18.5q52 0 85 24.5t33 69.5q0 27 -7.5 46.5t-23 34.5t-40.5 27t-60 24q-67 23 -94.5 52t-27.5 77q0 49 36 81t105 32q55 0 89 -21t51 -52l-29 -18q-15 25 -42 43t-69 18q-53 0 -78.5 -23.5t-25.5 -58.5q0 -20 5.5 -34t19.5 -25.5t37.5 -22
t59.5 -23.5q67 -23 98.5 -58t31.5 -99q0 -62 -44 -94t-110 -32q-62 0 -99.5 24t-56.5 54z" />
    <glyph glyph-name="afii10103" unicode="&#x456;" horiz-adv-x="175" 
d="M87 594q-11 0 -19 11t-8 27q0 15 7.5 25t19.5 10t20 -10t8 -25q0 -17 -8 -27.5t-20 -10.5zM69 0v476h36v-476h-36z" />
    <glyph glyph-name="afii10104" unicode="&#x457;" horiz-adv-x="175" 
d="M69 0v476h36v-476h-36zM155 594q-11 0 -19 11t-8 27q0 15 7.5 25t19.5 10t20 -10t8 -25q0 -17 -8 -27.5t-20 -10.5zM21 594q-11 0 -19 11t-8 27q0 15 7.5 25t19.5 10t20 -10t8 -25q0 -17 -8 -27.5t-20 -10.5z" />
    <glyph glyph-name="afii10105" unicode="&#x458;" horiz-adv-x="173" 
d="M85 594q-11 0 -19 11t-8 27q0 15 7.5 25t19.5 10t20 -10t8 -25q0 -17 -8 -27.5t-20 -10.5zM-15 -167q47 28 65.5 68.5t18.5 94.5v480h36v-480q0 -72 -24.5 -116t-78.5 -76z" />
    <glyph glyph-name="afii10106" unicode="&#x459;" horiz-adv-x="757" 
d="M5 0v34h14q12 0 25 3t25 12t22.5 26t16.5 44q7 32 11.5 68.5t6.5 80t2.5 95t0.5 113.5h273v-162h129q48 0 83 -11t58 -31t34 -47.5t11 -60.5t-10.5 -63t-32.5 -52.5t-57 -35.5t-83 -13h-168v444h-200q-2 -104 -6.5 -192t-15.5 -138q-12 -53 -42.5 -83.5t-81.5 -30.5h-15z
M402 32h128q76 0 113.5 34t37.5 95q0 63 -40.5 92t-109.5 29h-129v-250z" />
    <glyph glyph-name="afii10107" unicode="&#x45a;" horiz-adv-x="771" 
d="M75 0v475h36v-192h273v192h36v-192h140q86 0 128.5 -37t42.5 -102q0 -67 -43.5 -105.5t-130.5 -38.5h-173v251h-273v-251h-36zM420 32h136q69 0 104 26t35 86q0 58 -36.5 82.5t-101.5 24.5h-137v-219z" />
    <glyph glyph-name="afii10108" unicode="&#x45b;" horiz-adv-x="532" 
d="M79 0v578h-84v31h84v58h36v-58h156v-31h-156v-203q43 31 87.5 51t89.5 20q90 0 127.5 -48t37.5 -137v-261h-36v262q0 81 -33.5 115t-101.5 34q-25 0 -49.5 -7.5t-47 -19t-41.5 -25t-33 -25.5v-334h-36z" />
    <glyph glyph-name="afii10109" unicode="&#x45c;" horiz-adv-x="453" 
d="M75 0v476h36v-216h76q17 0 29 6t22 20t21 37.5t27 58.5q13 30 27 48t29 28.5t31 14t35 3.5h20v-32h-22q-17 0 -29.5 -4t-23 -13.5t-20 -25t-19.5 -37.5q-18 -40 -32 -69.5t-30 -43.5l173 -251h-44l-157 228h-113v-228h-36zM181 549l-17 20l164 141l28 -32z" />
    <glyph glyph-name="afii10110" unicode="&#x45e;" horiz-adv-x="425" 
d="M17 -154q14 -6 32 -12t32 -6q26 0 42.5 12t27.5 40l43 112l-194 484h40l174 -435l173 435h38l-243 -607q-15 -38 -37.5 -54.5t-60.5 -16.5q-22 0 -42.5 5t-37.5 13zM123 667q8 -45 37.5 -67.5t65.5 -22.5q38 0 66 21.5t36 68.5h30q-6 -55 -43.5 -88t-90.5 -33
q-26 0 -49.5 8.5t-41.5 24.5t-29 38.5t-13 49.5h32z" />
    <glyph glyph-name="afii10193" unicode="&#x45f;" horiz-adv-x="498" 
d="M75 0v476h36v-444h276v444h36v-476h-157v-113h-36v113h-155z" />
    <glyph glyph-name="afii10050" unicode="&#x490;" horiz-adv-x="461" 
d="M90 0v667h323v82h38v-118h-323v-631h-38z" />
    <glyph glyph-name="afii10098" unicode="&#x491;" horiz-adv-x="361" 
d="M75 0v476h245v56h36v-90h-245v-442h-36z" />
    <glyph glyph-name="Wgrave" unicode="&#x1e80;" horiz-adv-x="745" 
d="M179 0l-169 667h36l152 -592l162 592h24l165 -592l149 592h37l-169 -667h-30l-164 579l-164 -579h-29zM276 844l28 32l164 -141l-17 -20z" />
    <glyph glyph-name="wgrave" unicode="&#x1e81;" horiz-adv-x="642" 
d="M156 0l-156 476h37l134 -415l132 415h30l132 -414l140 414h37l-163 -476h-29l-132 410l-133 -410h-29zM225 678l28 32l164 -141l-17 -20z" />
    <glyph glyph-name="Wacute" unicode="&#x1e82;" horiz-adv-x="745" 
d="M179 0l-169 667h36l152 -592l162 592h24l165 -592l149 592h37l-169 -667h-30l-164 579l-164 -579h-29zM293 715l-17 20l164 141l28 -32z" />
    <glyph glyph-name="wacute" unicode="&#x1e83;" horiz-adv-x="642" 
d="M156 0l-156 476h37l134 -415l132 415h30l132 -414l140 414h37l-163 -476h-29l-132 410l-133 -410h-29zM242 549l-17 20l164 141l28 -32z" />
    <glyph glyph-name="Wdieresis" unicode="&#x1e84;" horiz-adv-x="745" 
d="M179 0l-169 667h36l152 -592l162 592h24l165 -592l149 592h37l-169 -667h-30l-164 579l-164 -579h-29zM439 760q-11 0 -19 11t-8 27q0 15 7.5 25t19.5 10t20 -10t8 -25q0 -17 -8 -27.5t-20 -10.5zM305 760q-11 0 -19 11t-8 27q0 15 7.5 25t19.5 10t20 -10t8 -25
q0 -17 -8 -27.5t-20 -10.5z" />
    <glyph glyph-name="wdieresis" unicode="&#x1e85;" horiz-adv-x="642" 
d="M156 0l-156 476h37l134 -415l132 415h30l132 -414l140 414h37l-163 -476h-29l-132 410l-133 -410h-29zM387 594q-11 0 -19 11t-8 27q0 15 7.5 25t19.5 10t20 -10t8 -25q0 -17 -8 -27.5t-20 -10.5zM253 594q-11 0 -19 11t-8 27q0 15 7.5 25t19.5 10t20 -10t8 -25
q0 -17 -8 -27.5t-20 -10.5z" />
    <glyph glyph-name="Ygrave" unicode="&#x1ef2;" horiz-adv-x="496" 
d="M225 0v321l-225 346h42l203 -312l210 312h41l-233 -345v-322h-38zM152 844l28 32l164 -141l-17 -20z" />
    <glyph glyph-name="ygrave" unicode="&#x1ef3;" horiz-adv-x="425" 
d="M17 -154q14 -6 32 -12t32 -6q26 0 42.5 12t27.5 40l43 112l-194 484h40l174 -435l173 435h38l-243 -607q-15 -38 -37.5 -54.5t-60.5 -16.5q-22 0 -42.5 5t-37.5 13zM96 678l28 32l164 -141l-17 -20z" />
    <glyph glyph-name="endash" unicode="&#x2013;" horiz-adv-x="500" 
d="M0 239v30h500v-30h-500z" />
    <glyph glyph-name="emdash" unicode="&#x2014;" horiz-adv-x="1000" 
d="M0 239v30h1000v-30h-1000z" />
    <glyph glyph-name="afii00208" unicode="&#x2015;" horiz-adv-x="1000" 
d="M0 239v30h1000v-30h-1000z" />
    <glyph glyph-name="quoteleft" unicode="&#x2018;" horiz-adv-x="112" 
d="M94 510q-32 21 -55.5 51.5t-23.5 68.5q0 20 8.5 31.5t22.5 11.5q15 0 23 -12t8 -29q0 -19 -7.5 -28t-18.5 -15q6 -14 22 -32.5t31 -27.5z" />
    <glyph glyph-name="quoteright" unicode="&#x2019;" horiz-adv-x="112" 
d="M6 529q15 9 31 27.5t22 32.5q-11 6 -18.5 15t-7.5 28q0 17 8 29t23 12q14 0 22.5 -11.5t8.5 -31.5q0 -38 -23.5 -68.5t-55.5 -51.5z" />
    <glyph glyph-name="quotesinglbase" unicode="&#x201a;" horiz-adv-x="112" 
d="M8 -75q15 9 31 27.5t22 32.5q-11 6 -18.5 15t-7.5 28q0 17 8 29t23 12q14 0 22.5 -11.5t8.5 -31.5q0 -38 -23.5 -68.5t-55.5 -51.5z" />
    <glyph glyph-name="quotedblleft" unicode="&#x201c;" horiz-adv-x="230" 
d="M212 510q-32 21 -55.5 51.5t-23.5 68.5q0 20 8.5 31.5t22.5 11.5q15 0 23 -12t8 -29q0 -19 -7.5 -28t-18.5 -15q6 -14 22 -32.5t31 -27.5zM94 510q-32 21 -55.5 51.5t-23.5 68.5q0 20 8.5 31.5t22.5 11.5q15 0 23 -12t8 -29q0 -19 -7.5 -28t-18.5 -15q6 -14 22 -32.5
t31 -27.5z" />
    <glyph glyph-name="quotedblright" unicode="&#x201d;" horiz-adv-x="230" 
d="M125 529q15 9 31 27.5t22 32.5q-11 6 -18.5 15t-7.5 28q0 17 8 29t23 12q14 0 22.5 -11.5t8.5 -31.5q0 -38 -23.5 -68.5t-55.5 -51.5zM7 529q15 9 31 27.5t22 32.5q-11 6 -18.5 15t-7.5 28q0 17 8 29t23 12q14 0 22.5 -11.5t8.5 -31.5q0 -38 -23.5 -68.5t-55.5 -51.5z
" />
    <glyph glyph-name="quotedblbase" unicode="&#x201e;" horiz-adv-x="230" 
d="M126 -75q15 9 31 27.5t22 32.5q-11 6 -18.5 15t-7.5 28q0 17 8 29t23 12q14 0 22.5 -11.5t8.5 -31.5q0 -38 -23.5 -68.5t-55.5 -51.5zM8 -75q15 9 31 27.5t22 32.5q-11 6 -18.5 15t-7.5 28q0 17 8 29t23 12q14 0 22.5 -11.5t8.5 -31.5q0 -38 -23.5 -68.5t-55.5 -51.5z
" />
    <glyph glyph-name="dagger" unicode="&#x2020;" horiz-adv-x="407" 
d="M188 -146v543h-168v33h168v237h33v-237h166v-33h-166v-543h-33z" />
    <glyph glyph-name="daggerdbl" unicode="&#x2021;" horiz-adv-x="407" 
d="M188 -146v237h-168v34h168v272h-168v33h168v237h33v-237h166v-33h-166v-272h166v-34h-166v-237h-33z" />
    <glyph glyph-name="bullet" unicode="&#x2022;" horiz-adv-x="332" 
d="M84 282q-16 16 -25 37.5t-9 45.5t9 45.5t24.5 37t37 25t45.5 9.5t45.5 -9.5t37 -25t24.5 -37t9 -45.5t-9 -45t-24.5 -37t-37 -25t-45.5 -9t-45 9t-37 24z" />
    <glyph glyph-name="ellipsis" unicode="&#x2026;" horiz-adv-x="549" 
d="M474 -11q-14 0 -22.5 12t-8.5 28t8.5 28t22.5 12t22 -12.5t8 -27.5t-8 -27.5t-22 -12.5zM275 -11q-14 0 -22.5 12t-8.5 28t8.5 28t22.5 12t22 -12.5t8 -27.5t-8 -27.5t-22 -12.5zM76 -11q-14 0 -22.5 12t-8.5 28t8.5 28t22.5 12t22 -12.5t8 -27.5t-8 -27.5t-22 -12.5z
" />
    <glyph glyph-name="perthousand" unicode="&#x2030;" horiz-adv-x="1000" 
d="M792 6q-24 11 -42 30.5t-28.5 45.5t-10.5 56t10.5 55.5t28.5 45t42.5 30.5t53.5 11t53.5 -11t42.5 -30.5t28.5 -45t10.5 -55.5t-10.5 -56t-28.5 -45.5t-42.5 -30.5t-53.5 -11t-54 11zM111 399q-24 11 -42 30.5t-28.5 45t-10.5 55.5t10.5 56t28.5 45.5t42.5 30.5t53.5 11
t53.5 -11t42.5 -30.5t28.5 -45.5t10.5 -56t-10.5 -55.5t-28.5 -45t-42.5 -30.5t-53.5 -11t-54 11zM44 2l-25 26l605 641l24 -21zM454 6q-24 11 -42 30.5t-28.5 45.5t-10.5 56t10.5 55.5t28.5 45t42.5 30.5t53.5 11t53.5 -11t42.5 -30.5t28.5 -45t10.5 -55.5t-10.5 -56
t-28.5 -45.5t-42.5 -30.5t-53.5 -11t-54 11zM772 61q14 -16 33 -26t41 -10t41 10t32.5 26t21 36.5t7.5 41.5q0 47 -28.5 79t-73.5 32t-73.5 -32t-28.5 -79q0 -21 7.5 -41.5t20.5 -36.5zM91 453q14 -16 33 -25.5t41 -9.5t41 9.5t32.5 25.5t21 36.5t7.5 41.5q0 48 -28.5 80
t-73.5 32t-73.5 -32t-28.5 -80q0 -21 7.5 -41.5t20.5 -36.5zM434 61q14 -16 33 -26t41 -10t41 10t32.5 26t21 36.5t7.5 41.5q0 47 -28.5 79t-73.5 32t-73.5 -32t-28.5 -79q0 -21 7.5 -41.5t20.5 -36.5z" />
    <glyph glyph-name="guilsinglleft" unicode="&#x2039;" 
d="M224 62l-184 189l168 196l23 -23l-146 -170l163 -169z" />
    <glyph glyph-name="guilsinglright" unicode="&#x203a;" 
d="M72 62l-23 23l146 169l-163 169l24 24l184 -189z" />
    <glyph glyph-name="fraction" unicode="&#x2044;" horiz-adv-x="183" 
d="M-198 2l-25 27l605 641l24 -22z" />
    <glyph glyph-name="zerosuperior" unicode="&#x2070;" 
d="M90 347q-20 15 -33 39t-19 54.5t-6 60.5t6 61t19 55.5t33.5 40t49.5 15.5t49.5 -15.5t33.5 -40t19 -55.5t6 -61t-6 -60.5t-19 -54.5t-33.5 -39t-49.5 -15t-50 15zM80 409q10 -21 24.5 -35t35.5 -14t35.5 14t24 35t13.5 46t4 46q0 23 -4 48.5t-13.5 46.5t-24 35t-35.5 14
t-35.5 -14t-24 -35t-13.5 -46.5t-4 -48.5q0 -21 4 -46t13 -46z" />
    <glyph glyph-name="foursuperior" unicode="&#x2074;" 
d="M30 429v30l165 206h30v-207h45v-29h-45v-92h-34v92h-161zM67 458h124v157z" />
    <glyph glyph-name="fivesuperior" unicode="&#x2075;" 
d="M64 398q11 -16 26.5 -26t42.5 -10q35 0 54 19.5t19 59.5q0 21 -8.5 36t-22 25t-30.5 15.5t-33 7.5q-14 2 -30 2t-30 -1v139h170v-30h-139v-78h6q20 0 41.5 -3.5t40.5 -11.5q32 -14 50 -38t18 -63q0 -50 -29 -79.5t-77 -29.5q-38 0 -59.5 13t-33.5 30z" />
    <glyph glyph-name="sixsuperior" unicode="&#x2076;" 
d="M211 647q-43 -11 -82 -42.5t-55 -78.5q13 8 30 14t40 6q45 0 72.5 -30.5t27.5 -75.5q0 -46 -27 -77t-73 -31q-52 0 -80 36.5t-28 95.5q0 40 13 74.5t35.5 61.5t53.5 46t67 27zM100 510q-17 -8 -31 -21q-1 -5 -1.5 -13.5t-0.5 -17.5q0 -18 4.5 -35.5t14.5 -31.5t24 -22.5
t34 -8.5q31 0 50 23.5t19 55.5q0 33 -19 56t-54 23q-22 0 -40 -8z" />
    <glyph glyph-name="sevensuperior" unicode="&#x2077;" 
d="M89 337l119 297h-171v31h206v-28l-120 -300h-34z" />
    <glyph glyph-name="eightsuperior" unicode="&#x2078;" 
d="M56 480q21 21 52 28q-26 7 -46.5 25.5t-20.5 53.5q0 38 25.5 62t73.5 24t73.5 -24t25.5 -62q0 -35 -20.5 -53.5t-46.5 -25.5q31 -7 52 -27t21 -57q0 -43 -29.5 -67.5t-75.5 -24.5t-75.5 24.5t-29.5 67.5q0 36 21 56zM75 588q0 -28 18.5 -45t46.5 -17t46.5 17t18.5 45
t-18.5 43t-46.5 15t-46.5 -15t-18.5 -43zM68 425q0 -32 20.5 -48.5t51.5 -16.5t51.5 16.5t20.5 48.5q0 30 -20.5 48.5t-51.5 18.5t-51.5 -18.5t-20.5 -48.5z" />
    <glyph glyph-name="ninesuperior" unicode="&#x2079;" 
d="M67 357q46 14 82.5 40.5t59.5 85.5q-12 -9 -30 -14.5t-43 -5.5q-45 0 -72.5 28.5t-27.5 76.5q0 21 7 40.5t20.5 33.5t31.5 22.5t41 8.5q51 0 79.5 -37t28.5 -95q0 -42 -13 -77t-35.5 -61.5t-53.5 -44.5t-67 -27zM180 499q21 7 31 17q1 6 1 14.5v16.5q0 19 -5 36.5t-15 31
t-24 21.5t-32 8q-32 0 -49.5 -23t-17.5 -52q0 -36 18.5 -56.5t52.5 -20.5q20 0 40 7z" />
    <glyph glyph-name="zeroinferior" unicode="&#x2080;" 
d="M90 12q-20 15 -33 39t-19 54.5t-6 60.5t6 61t19 55.5t33.5 40t49.5 15.5t49.5 -15.5t33.5 -40t19 -55.5t6 -61t-6 -60.5t-19 -54.5t-33.5 -39t-49.5 -15t-50 15zM80 74q10 -21 24.5 -35t35.5 -14t35.5 14t24 35t13.5 46t4 46q0 23 -4 48.5t-13.5 46.5t-24 35t-35.5 14
t-35.5 -14t-24 -35t-13.5 -46.5t-4 -48.5q0 -21 4 -46t13 -46z" />
    <glyph glyph-name="oneinferior" unicode="&#x2081;" 
d="M156 2v293l-93 -54l-15 25l108 64h36v-328h-36z" />
    <glyph glyph-name="twoinferior" unicode="&#x2082;" 
d="M36 2v21q32 29 57.5 53t53.5 54q27 29 43 58.5t16 58.5q0 27 -17 44.5t-51 17.5q-29 0 -47 -13.5t-32 -34.5l-26 15q7 12 16 23t22 19.5t30 14t40 5.5q52 0 76 -23.5t24 -62.5q0 -41 -20 -73t-50 -65q-8 -9 -19.5 -20t-23.5 -22.5t-23.5 -22t-19.5 -18.5h166v-29h-215z
" />
    <glyph glyph-name="threeinferior" unicode="&#x2083;" 
d="M57 67q12 -17 30.5 -28.5t50.5 -11.5q75 0 75 61q0 37 -26 54t-60 18v25q31 3 55.5 18.5t24.5 46.5q0 26 -18.5 42.5t-53.5 16.5q-23 0 -42 -11t-32 -28l-23 17q17 22 41 36.5t62 14.5q48 0 75 -24.5t27 -60.5q0 -31 -21 -51t-53 -28q35 -7 57.5 -27t22.5 -58
q0 -43 -29.5 -67.5t-80.5 -24.5q-42 0 -68 15t-40 38z" />
    <glyph glyph-name="fourinferior" unicode="&#x2084;" 
d="M30 94v30l165 206h30v-207h45v-29h-45v-92h-34v92h-161zM67 123h124v157z" />
    <glyph glyph-name="fiveinferior" unicode="&#x2085;" 
d="M64 63q11 -16 26.5 -26t42.5 -10q35 0 54 19.5t19 59.5q0 21 -8.5 36t-22 25t-30.5 15.5t-33 7.5q-14 2 -30 2t-30 -1v139h170v-30h-139v-78h6q20 0 41.5 -3.5t40.5 -11.5q32 -14 50 -38t18 -63q0 -50 -29 -79.5t-77 -29.5q-38 0 -59.5 13t-33.5 30z" />
    <glyph glyph-name="sixinferior" unicode="&#x2086;" 
d="M211 312q-43 -11 -82 -42.5t-55 -78.5q13 8 30 14t40 6q45 0 72.5 -30.5t27.5 -75.5q0 -46 -27 -77t-73 -31q-52 0 -80 36.5t-28 95.5q0 40 13 74.5t35.5 61.5t53.5 46t67 27zM100 175q-17 -8 -31 -21q-1 -5 -1.5 -13.5t-0.5 -17.5q0 -18 4.5 -35.5t14.5 -31.5t24 -22.5
t34 -8.5q31 0 50 23.5t19 55.5q0 33 -19 56t-54 23q-22 0 -40 -8z" />
    <glyph glyph-name="seveninferior" unicode="&#x2087;" 
d="M89 2l119 297h-171v31h206v-28l-120 -300h-34z" />
    <glyph glyph-name="eightinferior" unicode="&#x2088;" 
d="M56 145q21 21 52 28q-26 7 -46.5 25.5t-20.5 53.5q0 38 25.5 62t73.5 24t73.5 -24t25.5 -62q0 -35 -20.5 -53.5t-46.5 -25.5q31 -7 52 -27t21 -57q0 -43 -29.5 -67.5t-75.5 -24.5t-75.5 24.5t-29.5 67.5q0 36 21 56zM75 253q0 -28 18.5 -45t46.5 -17t46.5 17t18.5 45
t-18.5 43t-46.5 15t-46.5 -15t-18.5 -43zM68 90q0 -32 20.5 -48.5t51.5 -16.5t51.5 16.5t20.5 48.5q0 30 -20.5 48.5t-51.5 18.5t-51.5 -18.5t-20.5 -48.5z" />
    <glyph glyph-name="nineinferior" unicode="&#x2089;" 
d="M67 22q46 14 82.5 40.5t59.5 85.5q-12 -9 -30 -14.5t-43 -5.5q-45 0 -72.5 28.5t-27.5 76.5q0 21 7 40.5t20.5 33.5t31.5 22.5t41 8.5q51 0 79.5 -37t28.5 -95q0 -42 -13 -77t-35.5 -61.5t-53.5 -44.5t-67 -27zM180 164q21 7 31 17q1 6 1 14.5v16.5q0 19 -5 36.5t-15 31
t-24 21.5t-32 8q-32 0 -49.5 -23t-17.5 -52q0 -36 18.5 -56.5t52.5 -20.5q20 0 40 7z" />
    <glyph glyph-name="Euro" unicode="&#x20ac;" horiz-adv-x="502" 
d="M19 229v29h76q0 12 -1.5 33t-1.5 37v32.5t2 35.5h-75v30h77q5 57 22 102.5t43.5 77.5t61 49.5t74.5 17.5q36 0 62.5 -9t46.5 -24t34 -35t25 -43l-30 -15q-20 42 -52.5 68.5t-84.5 26.5q-31 0 -59 -14t-50 -41.5t-36.5 -68t-18.5 -92.5h178v-30h-179q-2 -17 -2 -34v-34
t1 -36.5t2 -33.5h178v-29h-175q6 -56 21.5 -95t37.5 -64t49.5 -36.5t57.5 -11.5q48 0 80.5 26t52.5 67l31 -15q-22 -45 -62.5 -78t-102.5 -33q-77 0 -132.5 58t-70.5 182h-80z" />
    <glyph glyph-name="afii61289" unicode="&#x2113;" horiz-adv-x="456" 
d="M180 289q54 60 85.5 123.5t31.5 132.5q0 48 -16 67.5t-38 19.5q-26 0 -44.5 -33t-18.5 -109v-201zM180 190q0 -41 6 -66.5t16.5 -39.5t25 -19.5t31.5 -5.5q32 0 61.5 16.5t45.5 39.5l19.5 -19.5t20.5 -18.5q-27 -40 -65.5 -63t-90.5 -23q-70 0 -108 39.5t-38 127.5
q-13 -10 -24.5 -18t-24.5 -17q-5 11 -11.5 22t-13.5 22q19 13 37 27.5t36 30.5v212q0 71 9.5 119.5t28 78t45 42.5t61.5 13q51 0 84 -37.5t33 -106.5q0 -91 -48 -172.5t-136 -163.5v-20z" />
    <glyph glyph-name="afii61352" unicode="&#x2116;" horiz-adv-x="1010" 
d="M758 315q-29 16 -47.5 42t-27.5 59t-9 68q0 34 9.5 67t28.5 58.5t48.5 41t68.5 15.5t68 -14.5t48.5 -40t29 -59t9.5 -70.5q0 -34 -9.5 -67t-29 -58.5t-48.5 -41.5t-68 -16q-41 0 -71 16zM85 0v667h48l384 -578v578h38v-667h-25l-408 611v-611h-37zM741 378
q15 -21 37 -33.5t51 -12.5q31 0 53.5 12.5t36.5 33.5t21 48t7 57q0 29 -7 56t-21 47.5t-36.5 33t-53.5 12.5q-32 0 -54 -12.5t-35.5 -33t-20 -47t-6.5 -55.5q0 -30 7 -57.5t21 -48.5z" />
    <glyph glyph-name="trademark" unicode="&#x2122;" horiz-adv-x="544" 
d="M263 380v287h44l89 -215l85 215h43v-287h-32v237l-95 -239l-102 235v-233h-32zM111 380v259h-100v28h231v-28h-100v-259h-31z" />
    <glyph glyph-name="uni2126" unicode="&#x2126;" horiz-adv-x="655" 
d="M48 0v36h158q-30 24 -57.5 53.5t-48.5 68t-33 87t-12 108.5q0 69 18 128.5t52.5 104t86 70t118.5 25.5q70 0 122 -25.5t86.5 -70t51 -104t16.5 -128.5q0 -60 -12 -108.5t-33 -87t-48.5 -68t-57.5 -53.5h158v-36h-215v39q78 50 123.5 127.5t45.5 186.5q0 61 -15 114.5
t-44.5 93.5t-73.5 63t-103 23t-103.5 -23t-74 -63t-44.5 -93.5t-15 -114.5q0 -109 45.5 -186.5t123.5 -127.5v-39h-215z" />
    <glyph glyph-name="estimated" unicode="&#x212e;" horiz-adv-x="647" 
d="M137 118q0 -10 4 -18.5t10 -15.5q0 -2 2 -2q33 -32 76 -49t92 -17q57 0 104.5 23t82.5 63h42q-39 -47 -98.5 -74.5t-130.5 -27.5q-60 0 -113 20.5t-93 56t-63 83.5t-23 102t23 101.5t63 83t93 56t113 20.5q61 0 114.5 -21t92.5 -57.5t61.5 -85.5t22.5 -104h-469
q-6 0 -6 -8v-129zM137 275q0 -7 6 -7h354q7 0 7 7v131q0 9 -3.5 18t-8.5 16q-35 34 -79 51.5t-92 17.5q-99 0 -170 -69q-6 -7 -10 -16t-4 -18v-131z" />
    <glyph glyph-name="onethird" unicode="&#x2153;" horiz-adv-x="710" 
d="M151 337v293l-93 -54l-15 25l108 64h36v-328h-36zM58 2l-25 27l605 641l24 -22zM461 70q12 -17 30.5 -28.5t50.5 -11.5q75 0 75 61q0 37 -26 54t-60 18v25q31 3 55.5 18.5t24.5 46.5q0 26 -18.5 42.5t-53.5 16.5q-23 0 -42 -11t-32 -28l-23 17q17 22 41 36.5t62 14.5
q48 0 75 -24.5t27 -60.5q0 -31 -21 -51t-53 -28q35 -7 57.5 -27t22.5 -58q0 -43 -29.5 -67.5t-80.5 -24.5q-42 0 -68 15t-40 38z" />
    <glyph glyph-name="twothirds" unicode="&#x2154;" horiz-adv-x="710" 
d="M58 2l-25 27l605 641l24 -22zM37 337v21q32 29 57.5 53t53.5 54q27 29 43 58.5t16 58.5q0 27 -17 44.5t-51 17.5q-29 0 -47 -13.5t-32 -34.5l-26 15q7 12 16 23t22 19.5t30 14t40 5.5q52 0 76 -23.5t24 -62.5q0 -41 -20 -73t-50 -65q-8 -9 -19.5 -20t-23.5 -22.5
t-23.5 -22t-19.5 -18.5h166v-29h-215zM461 70q12 -17 30.5 -28.5t50.5 -11.5q75 0 75 61q0 37 -26 54t-60 18v25q31 3 55.5 18.5t24.5 46.5q0 26 -18.5 42.5t-53.5 16.5q-23 0 -42 -11t-32 -28l-23 17q17 22 41 36.5t62 14.5q48 0 75 -24.5t27 -60.5q0 -31 -21 -51t-53 -28
q35 -7 57.5 -27t22.5 -58q0 -43 -29.5 -67.5t-80.5 -24.5q-42 0 -68 15t-40 38z" />
    <glyph glyph-name="onefifth" unicode="&#x2155;" horiz-adv-x="710" 
d="M58 2l-25 27l605 641l24 -22zM479 66q11 -16 26.5 -26t42.5 -10q35 0 54 19.5t19 59.5q0 21 -8.5 36t-22 25t-30.5 15.5t-33 7.5q-14 2 -30 2t-30 -1v139h170v-30h-139v-78h6q20 0 41.5 -3.5t40.5 -11.5q32 -14 50 -38t18 -63q0 -50 -29 -79.5t-77 -29.5q-38 0 -59.5 13
t-33.5 30zM146 337v293l-93 -54l-15 25l108 64h36v-328h-36z" />
    <glyph glyph-name="twofifths" unicode="&#x2156;" horiz-adv-x="710" 
d="M58 2l-25 27l605 641l24 -22zM37 337v21q32 29 57.5 53t53.5 54q27 29 43 58.5t16 58.5q0 27 -17 44.5t-51 17.5q-29 0 -47 -13.5t-32 -34.5l-26 15q7 12 16 23t22 19.5t30 14t40 5.5q52 0 76 -23.5t24 -62.5q0 -41 -20 -73t-50 -65q-8 -9 -19.5 -20t-23.5 -22.5
t-23.5 -22t-19.5 -18.5h166v-29h-215zM479 66q11 -16 26.5 -26t42.5 -10q35 0 54 19.5t19 59.5q0 21 -8.5 36t-22 25t-30.5 15.5t-33 7.5q-14 2 -30 2t-30 -1v139h170v-30h-139v-78h6q20 0 41.5 -3.5t40.5 -11.5q32 -14 50 -38t18 -63q0 -50 -29 -79.5t-77 -29.5
q-38 0 -59.5 13t-33.5 30z" />
    <glyph glyph-name="threefifths" unicode="&#x2157;" horiz-adv-x="710" 
d="M58 2l-25 27l605 641l24 -22zM479 66q11 -16 26.5 -26t42.5 -10q35 0 54 19.5t19 59.5q0 21 -8.5 36t-22 25t-30.5 15.5t-33 7.5q-14 2 -30 2t-30 -1v139h170v-30h-139v-78h6q20 0 41.5 -3.5t40.5 -11.5q32 -14 50 -38t18 -63q0 -50 -29 -79.5t-77 -29.5q-38 0 -59.5 13
t-33.5 30zM55 402q12 -17 30.5 -28.5t50.5 -11.5q75 0 75 61q0 37 -26 54t-60 18v25q31 3 55.5 18.5t24.5 46.5q0 26 -18.5 42.5t-53.5 16.5q-23 0 -42 -11t-32 -28l-23 17q17 22 41 36.5t62 14.5q48 0 75 -24.5t27 -60.5q0 -31 -21 -51t-53 -28q35 -7 57.5 -27t22.5 -58
q0 -43 -29.5 -67.5t-80.5 -24.5q-42 0 -68 15t-40 38z" />
    <glyph glyph-name="fourfifths" unicode="&#x2158;" horiz-adv-x="710" 
d="M58 2l-25 27l605 641l24 -22zM479 66q11 -16 26.5 -26t42.5 -10q35 0 54 19.5t19 59.5q0 21 -8.5 36t-22 25t-30.5 15.5t-33 7.5q-14 2 -30 2t-30 -1v139h170v-30h-139v-78h6q20 0 41.5 -3.5t40.5 -11.5q32 -14 50 -38t18 -63q0 -50 -29 -79.5t-77 -29.5q-38 0 -59.5 13
t-33.5 30zM30 429v30l165 206h30v-207h45v-29h-45v-92h-34v92h-161zM67 458h124v157z" />
    <glyph glyph-name="onesixth" unicode="&#x2159;" horiz-adv-x="710" 
d="M58 2l-25 27l605 641l24 -22zM589 315q-43 -11 -82 -42.5t-55 -78.5q13 8 30 14t40 6q45 0 72.5 -30.5t27.5 -75.5q0 -46 -27 -77t-73 -31q-52 0 -80 36.5t-28 95.5q0 40 13 74.5t35.5 61.5t53.5 46t67 27zM478 178q-17 -8 -31 -21q-1 -5 -1.5 -13.5t-0.5 -17.5
q0 -18 4.5 -35.5t14.5 -31.5t24 -22.5t34 -8.5q31 0 50 23.5t19 55.5q0 33 -19 56t-54 23q-22 0 -40 -8zM140 337v293l-93 -54l-15 25l108 64h36v-328h-36z" />
    <glyph glyph-name="fivesixths" unicode="&#x215a;" horiz-adv-x="710" 
d="M58 2l-25 27l605 641l24 -22zM84 398q11 -16 26.5 -26t42.5 -10q35 0 54 19.5t19 59.5q0 21 -8.5 36t-22 25t-30.5 15.5t-33 7.5q-14 2 -30 2t-30 -1v139h170v-30h-139v-78h6q20 0 41.5 -3.5t40.5 -11.5q32 -14 50 -38t18 -63q0 -50 -29 -79.5t-77 -29.5q-38 0 -59.5 13
t-33.5 30zM589 315q-43 -11 -82 -42.5t-55 -78.5q13 8 30 14t40 6q45 0 72.5 -30.5t27.5 -75.5q0 -46 -27 -77t-73 -31q-52 0 -80 36.5t-28 95.5q0 40 13 74.5t35.5 61.5t53.5 46t67 27zM478 178q-17 -8 -31 -21q-1 -5 -1.5 -13.5t-0.5 -17.5q0 -18 4.5 -35.5t14.5 -31.5
t24 -22.5t34 -8.5q31 0 50 23.5t19 55.5q0 33 -19 56t-54 23q-22 0 -40 -8z" />
    <glyph glyph-name="oneeighth" unicode="&#x215b;" horiz-adv-x="710" 
d="M151 337v293l-93 -54l-15 25l108 64h36v-328h-36zM58 2l-25 27l605 641l24 -22zM453 148q21 21 52 28q-26 7 -46.5 25.5t-20.5 53.5q0 38 25.5 62t73.5 24t73.5 -24t25.5 -62q0 -35 -20.5 -53.5t-46.5 -25.5q31 -7 52 -27t21 -57q0 -43 -29.5 -67.5t-75.5 -24.5
t-75.5 24.5t-29.5 67.5q0 36 21 56zM472 256q0 -28 18.5 -45t46.5 -17t46.5 17t18.5 45t-18.5 43t-46.5 15t-46.5 -15t-18.5 -43zM465 93q0 -32 20.5 -48.5t51.5 -16.5t51.5 16.5t20.5 48.5q0 30 -20.5 48.5t-51.5 18.5t-51.5 -18.5t-20.5 -48.5z" />
    <glyph glyph-name="threeeighths" unicode="&#x215c;" horiz-adv-x="710" 
d="M58 2l-25 27l605 641l24 -22zM453 148q21 21 52 28q-26 7 -46.5 25.5t-20.5 53.5q0 38 25.5 62t73.5 24t73.5 -24t25.5 -62q0 -35 -20.5 -53.5t-46.5 -25.5q31 -7 52 -27t21 -57q0 -43 -29.5 -67.5t-75.5 -24.5t-75.5 24.5t-29.5 67.5q0 36 21 56zM472 256
q0 -28 18.5 -45t46.5 -17t46.5 17t18.5 45t-18.5 43t-46.5 15t-46.5 -15t-18.5 -43zM465 93q0 -32 20.5 -48.5t51.5 -16.5t51.5 16.5t20.5 48.5q0 30 -20.5 48.5t-51.5 18.5t-51.5 -18.5t-20.5 -48.5zM55 402q12 -17 30.5 -28.5t50.5 -11.5q75 0 75 61q0 37 -26 54t-60 18
v25q31 3 55.5 18.5t24.5 46.5q0 26 -18.5 42.5t-53.5 16.5q-23 0 -42 -11t-32 -28l-23 17q17 22 41 36.5t62 14.5q48 0 75 -24.5t27 -60.5q0 -31 -21 -51t-53 -28q35 -7 57.5 -27t22.5 -58q0 -43 -29.5 -67.5t-80.5 -24.5q-42 0 -68 15t-40 38z" />
    <glyph glyph-name="fiveeighths" unicode="&#x215d;" horiz-adv-x="710" 
d="M58 2l-25 27l605 641l24 -22zM453 148q21 21 52 28q-26 7 -46.5 25.5t-20.5 53.5q0 38 25.5 62t73.5 24t73.5 -24t25.5 -62q0 -35 -20.5 -53.5t-46.5 -25.5q31 -7 52 -27t21 -57q0 -43 -29.5 -67.5t-75.5 -24.5t-75.5 24.5t-29.5 67.5q0 36 21 56zM472 256
q0 -28 18.5 -45t46.5 -17t46.5 17t18.5 45t-18.5 43t-46.5 15t-46.5 -15t-18.5 -43zM465 93q0 -32 20.5 -48.5t51.5 -16.5t51.5 16.5t20.5 48.5q0 30 -20.5 48.5t-51.5 18.5t-51.5 -18.5t-20.5 -48.5zM84 398q11 -16 26.5 -26t42.5 -10q35 0 54 19.5t19 59.5q0 21 -8.5 36
t-22 25t-30.5 15.5t-33 7.5q-14 2 -30 2t-30 -1v139h170v-30h-139v-78h6q20 0 41.5 -3.5t40.5 -11.5q32 -14 50 -38t18 -63q0 -50 -29 -79.5t-77 -29.5q-38 0 -59.5 13t-33.5 30z" />
    <glyph glyph-name="seveneighths" unicode="&#x215e;" horiz-adv-x="710" 
d="M58 2l-25 27l605 641l24 -22zM453 148q21 21 52 28q-26 7 -46.5 25.5t-20.5 53.5q0 38 25.5 62t73.5 24t73.5 -24t25.5 -62q0 -35 -20.5 -53.5t-46.5 -25.5q31 -7 52 -27t21 -57q0 -43 -29.5 -67.5t-75.5 -24.5t-75.5 24.5t-29.5 67.5q0 36 21 56zM472 256
q0 -28 18.5 -45t46.5 -17t46.5 17t18.5 45t-18.5 43t-46.5 15t-46.5 -15t-18.5 -43zM465 93q0 -32 20.5 -48.5t51.5 -16.5t51.5 16.5t20.5 48.5q0 30 -20.5 48.5t-51.5 18.5t-51.5 -18.5t-20.5 -48.5zM127 337l119 297h-171v31h206v-28l-120 -300h-34z" />
    <glyph glyph-name="partialdiff" unicode="&#x2202;" horiz-adv-x="499" 
d="M84 674q72 -5 127.5 -23.5t110.5 -57.5q58 -42 94 -120t36 -190q0 -71 -15 -125.5t-41.5 -92t-63.5 -57t-81 -19.5q-42 0 -79.5 15t-65 46t-43.5 78t-16 111q0 59 15 105.5t41.5 78.5t63.5 49t81 17q48 0 81.5 -11.5t59.5 -28.5q-17 47 -47.5 81t-73.5 59
q-42 24 -91 38.5t-97 19.5zM411 354q-5 29 -11 52q-32 22 -68 36.5t-82 14.5q-73 0 -120 -56.5t-47 -161.5q0 -54 13.5 -95t36 -68t53 -41t65.5 -14t65.5 17.5t53 51t35 82t12.5 110.5q0 44 -6 72z" />
    <glyph glyph-name="Delta" unicode="&#x2206;" horiz-adv-x="560" 
d="M10 0l251 667h36l253 -667h-540zM64 36h433l-218 584z" />
    <glyph glyph-name="product" unicode="&#x220f;" horiz-adv-x="597" 
d="M89 0v631h-84v36h587v-36h-84v-631h-38v631h-343v-631h-38z" />
    <glyph glyph-name="summation" unicode="&#x2211;" horiz-adv-x="466" 
d="M33 0v38l296 298l-292 291v40h397v-36h-349l295 -295l-299 -300h365v-36h-413z" />
    <glyph glyph-name="minus" unicode="&#x2212;" horiz-adv-x="502" 
d="M33 314v35h435v-35h-435z" />
    <glyph glyph-name="uni2215" unicode="&#x2215;" horiz-adv-x="446" 
d="M0 5l417 747l29 -19l-415 -749z" />
    <glyph glyph-name="uni2219" unicode="&#x2219;" horiz-adv-x="263" 
d="M131 323q-17 0 -29 13.5t-12 32.5t12 32.5t29 13.5q18 0 30 -13.5t12 -32.5t-12 -32.5t-30 -13.5z" />
    <glyph glyph-name="radical" unicode="&#x221a;" horiz-adv-x="502" 
d="M200 0l-112 232h-70v35h97l99 -210l229 655l36 -12l-245 -700h-34z" />
    <glyph glyph-name="infinity" unicode="&#x221e;" horiz-adv-x="532" 
d="M326 229q-30 23 -61 82q-28 -59 -60.5 -81.5t-62.5 -22.5q-33 0 -56.5 12.5t-39 33.5t-23 48.5t-7.5 57.5q0 74 35 113t91 39q37 0 67.5 -23.5t56.5 -86.5q24 57 52.5 83t72.5 26q54 0 89.5 -39.5t35.5 -111.5q0 -26 -7 -53t-22.5 -49t-39 -36t-56.5 -14q-34 0 -65 22z
M302 406q-11 -22 -23 -48q11 -24 23 -45.5t25.5 -38t29 -26.5t34.5 -10q24 0 40.5 11.5t27.5 29.5t16 39.5t5 41.5q0 57 -27 89t-64 32q-20 0 -35 -9.5t-28 -26t-24 -39.5zM78 270q25 -32 64 -32q22 0 39 13t30 31.5t22.5 39.5t15.5 37q-27 59 -50 90t-57 31
q-22 0 -38.5 -10t-27.5 -26.5t-16.5 -38.5t-5.5 -46q0 -57 24 -89z" />
    <glyph glyph-name="integral" unicode="&#x222b;" horiz-adv-x="332" 
d="M5 -163q33 0 59 6t44.5 22.5t28.5 45.5t10 75v509q0 97 45.5 137.5t134.5 40.5v-32q-33 0 -59 -6t-44.5 -22.5t-28.5 -45.5t-10 -75v-509q0 -49 -11.5 -83t-34 -55t-56.5 -30.5t-78 -9.5v32z" />
    <glyph glyph-name="approxequal" unicode="&#x2248;" horiz-adv-x="502" 
d="M31 404q20 11 50.5 21.5t60.5 10.5t57.5 -5t62.5 -15q29 -8 51.5 -12.5t44.5 -4.5q29 0 52 7.5t46 20.5l16 -29q-17 -13 -48 -23.5t-66 -10.5q-25 0 -51.5 5t-52.5 13q-34 10 -60 14.5t-52 4.5q-29 0 -51.5 -8t-44.5 -19zM31 251q20 11 50.5 21.5t60.5 10.5t57.5 -5
t62.5 -15q29 -8 51.5 -12.5t44.5 -4.5q29 0 52 7.5t46 20.5l16 -29q-17 -13 -48 -23.5t-66 -10.5q-25 0 -51.5 5t-52.5 13q-34 10 -60 14.5t-52 4.5q-29 0 -51.5 -8t-44.5 -19z" />
    <glyph glyph-name="notequal" unicode="&#x2260;" horiz-adv-x="502" 
d="M43 121l100 108h-110v35h146l111 117h-257v35h293l126 135l26 -25l-102 -110h94v-35h-130l-112 -117h242v-35h-278l-123 -133z" />
    <glyph glyph-name="lessequal" unicode="&#x2264;" horiz-adv-x="502" 
d="M54 316v34l383 155l13 -35l-346 -137l349 -138l-13 -36zM33 0v35h435v-35h-435z" />
    <glyph glyph-name="greaterequal" unicode="&#x2265;" horiz-adv-x="502" 
d="M68 159l-13 36l348 138l-346 137l14 35l383 -155v-34zM33 0v35h435v-35h-435z" />
    <glyph glyph-name="lozenge" unicode="&#x25ca;" horiz-adv-x="532" 
d="M265 -16l-210 373l210 363l212 -363zM269 55l163 304l-167 288l-165 -287z" />
    <glyph glyph-name="fi" unicode="&#xf001;" horiz-adv-x="419" 
d="M323 0v476h36v-476h-36zM86 0v444h-71v32h71v67q0 35 11 60.5t29.5 42.5t43 25.5t51.5 8.5q40 0 66.5 -12t39.5 -22l-19 -28q-11 8 -32.5 19t-53.5 11q-20 0 -38.5 -5.5t-32.5 -18.5t-22 -34.5t-8 -52.5v-61h110v-32h-109v-444h-36z" />
    <glyph glyph-name="fl" unicode="&#xf002;" horiz-adv-x="427" 
d="M86 0v444h-71v32h71v67q0 33 11 58.5t30.5 43t46 26.5t56.5 9q50 0 79 -11t49 -24v-645h-36v626q-14 9 -34 15.5t-57 6.5q-46 0 -78 -27t-32 -84v-61h110v-32h-109v-444h-36z" />
    <glyph glyph-name="oneseventh" unicode="&#xf506;" horiz-adv-x="710" 
d="M58 2l-25 27l605 641l24 -22zM508 5l119 297h-171v31h206v-28l-120 -300h-34zM140 337v293l-93 -54l-15 25l108 64h36v-328h-36z" />
    <glyph glyph-name="twosevenths" unicode="&#xf507;" horiz-adv-x="710" 
d="M58 2l-25 27l605 641l24 -22zM508 5l119 297h-171v31h206v-28l-120 -300h-34zM37 337v21q32 29 57.5 53t53.5 54q27 29 43 58.5t16 58.5q0 27 -17 44.5t-51 17.5q-29 0 -47 -13.5t-32 -34.5l-26 15q7 12 16 23t22 19.5t30 14t40 5.5q52 0 76 -23.5t24 -62.5
q0 -41 -20 -73t-50 -65q-8 -9 -19.5 -20t-23.5 -22.5t-23.5 -22t-19.5 -18.5h166v-29h-215z" />
    <glyph glyph-name="threesevenths" unicode="&#xf508;" horiz-adv-x="710" 
d="M58 2l-25 27l605 641l24 -22zM508 5l119 297h-171v31h206v-28l-120 -300h-34zM55 402q12 -17 30.5 -28.5t50.5 -11.5q75 0 75 61q0 37 -26 54t-60 18v25q31 3 55.5 18.5t24.5 46.5q0 26 -18.5 42.5t-53.5 16.5q-23 0 -42 -11t-32 -28l-23 17q17 22 41 36.5t62 14.5
q48 0 75 -24.5t27 -60.5q0 -31 -21 -51t-53 -28q35 -7 57.5 -27t22.5 -58q0 -43 -29.5 -67.5t-80.5 -24.5q-42 0 -68 15t-40 38z" />
    <glyph glyph-name="foursevenths" unicode="&#xf509;" horiz-adv-x="710" 
d="M58 2l-25 27l605 641l24 -22zM508 5l119 297h-171v31h206v-28l-120 -300h-34zM30 429v30l165 206h30v-207h45v-29h-45v-92h-34v92h-161zM67 458h124v157z" />
    <glyph glyph-name="fivesevenths" unicode="&#xf50a;" horiz-adv-x="710" 
d="M58 2l-25 27l605 641l24 -22zM508 5l119 297h-171v31h206v-28l-120 -300h-34zM69 398q11 -16 26.5 -26t42.5 -10q35 0 54 19.5t19 59.5q0 21 -8.5 36t-22 25t-30.5 15.5t-33 7.5q-14 2 -30 2t-30 -1v139h170v-30h-139v-78h6q20 0 41.5 -3.5t40.5 -11.5q32 -14 50 -38
t18 -63q0 -50 -29 -79.5t-77 -29.5q-38 0 -59.5 13t-33.5 30z" />
    <glyph glyph-name="sixsevenths" unicode="&#xf50b;" horiz-adv-x="710" 
d="M58 2l-25 27l605 641l24 -22zM216 647q-43 -11 -82 -42.5t-55 -78.5q13 8 30 14t40 6q45 0 72.5 -30.5t27.5 -75.5q0 -46 -27 -77t-73 -31q-52 0 -80 36.5t-28 95.5q0 40 13 74.5t35.5 61.5t53.5 46t67 27zM105 510q-17 -8 -31 -21q-1 -5 -1.5 -13.5t-0.5 -17.5
q0 -18 4.5 -35.5t14.5 -31.5t24 -22.5t34 -8.5q31 0 50 23.5t19 55.5q0 33 -19 56t-54 23q-22 0 -40 -8zM508 5l119 297h-171v31h206v-28l-120 -300h-34z" />
    <glyph glyph-name="oneninth" unicode="&#xf50c;" horiz-adv-x="710" 
d="M58 2l-25 27l605 641l24 -22zM458 25q46 14 82.5 40.5t59.5 85.5q-12 -9 -30 -14.5t-43 -5.5q-45 0 -72.5 28.5t-27.5 76.5q0 21 7 40.5t20.5 33.5t31.5 22.5t41 8.5q51 0 79.5 -37t28.5 -95q0 -42 -13 -77t-35.5 -61.5t-53.5 -44.5t-67 -27zM571 167q21 7 31 17
q1 6 1 14.5v16.5q0 19 -5 36.5t-15 31t-24 21.5t-32 8q-32 0 -49.5 -23t-17.5 -52q0 -36 18.5 -56.5t52.5 -20.5q20 0 40 7zM148 337v293l-93 -54l-15 25l108 64h36v-328h-36z" />
    <glyph glyph-name="twoninths" unicode="&#xf50d;" horiz-adv-x="710" 
d="M58 2l-25 27l605 641l24 -22zM37 337v21q32 29 57.5 53t53.5 54q27 29 43 58.5t16 58.5q0 27 -17 44.5t-51 17.5q-29 0 -47 -13.5t-32 -34.5l-26 15q7 12 16 23t22 19.5t30 14t40 5.5q52 0 76 -23.5t24 -62.5q0 -41 -20 -73t-50 -65q-8 -9 -19.5 -20t-23.5 -22.5
t-23.5 -22t-19.5 -18.5h166v-29h-215zM457 25q46 14 82.5 40.5t59.5 85.5q-12 -9 -30 -14.5t-43 -5.5q-45 0 -72.5 28.5t-27.5 76.5q0 21 7 40.5t20.5 33.5t31.5 22.5t41 8.5q51 0 79.5 -37t28.5 -95q0 -42 -13 -77t-35.5 -61.5t-53.5 -44.5t-67 -27zM570 167q21 7 31 17
q1 6 1 14.5v16.5q0 19 -5 36.5t-15 31t-24 21.5t-32 8q-32 0 -49.5 -23t-17.5 -52q0 -36 18.5 -56.5t52.5 -20.5q20 0 40 7z" />
    <glyph glyph-name="fourninths" unicode="&#xf50e;" horiz-adv-x="710" 
d="M58 2l-25 27l605 641l24 -22zM457 25q46 14 82.5 40.5t59.5 85.5q-12 -9 -30 -14.5t-43 -5.5q-45 0 -72.5 28.5t-27.5 76.5q0 21 7 40.5t20.5 33.5t31.5 22.5t41 8.5q51 0 79.5 -37t28.5 -95q0 -42 -13 -77t-35.5 -61.5t-53.5 -44.5t-67 -27zM570 167q21 7 31 17
q1 6 1 14.5v16.5q0 19 -5 36.5t-15 31t-24 21.5t-32 8q-32 0 -49.5 -23t-17.5 -52q0 -36 18.5 -56.5t52.5 -20.5q20 0 40 7zM30 429v30l165 206h30v-207h45v-29h-45v-92h-34v92h-161zM67 458h124v157z" />
    <glyph glyph-name="fiveninths" unicode="&#xf50f;" horiz-adv-x="710" 
d="M58 2l-25 27l605 641l24 -22zM84 398q11 -16 26.5 -26t42.5 -10q35 0 54 19.5t19 59.5q0 21 -8.5 36t-22 25t-30.5 15.5t-33 7.5q-14 2 -30 2t-30 -1v139h170v-30h-139v-78h6q20 0 41.5 -3.5t40.5 -11.5q32 -14 50 -38t18 -63q0 -50 -29 -79.5t-77 -29.5q-38 0 -59.5 13
t-33.5 30zM458 25q46 14 82.5 40.5t59.5 85.5q-12 -9 -30 -14.5t-43 -5.5q-45 0 -72.5 28.5t-27.5 76.5q0 21 7 40.5t20.5 33.5t31.5 22.5t41 8.5q51 0 79.5 -37t28.5 -95q0 -42 -13 -77t-35.5 -61.5t-53.5 -44.5t-67 -27zM571 167q21 7 31 17q1 6 1 14.5v16.5q0 19 -5 36.5
t-15 31t-24 21.5t-32 8q-32 0 -49.5 -23t-17.5 -52q0 -36 18.5 -56.5t52.5 -20.5q20 0 40 7z" />
    <glyph glyph-name="sevenninths" unicode="&#xf510;" horiz-adv-x="710" 
d="M58 2l-25 27l605 641l24 -22zM457 25q46 14 82.5 40.5t59.5 85.5q-12 -9 -30 -14.5t-43 -5.5q-45 0 -72.5 28.5t-27.5 76.5q0 21 7 40.5t20.5 33.5t31.5 22.5t41 8.5q51 0 79.5 -37t28.5 -95q0 -42 -13 -77t-35.5 -61.5t-53.5 -44.5t-67 -27zM570 167q21 7 31 17
q1 6 1 14.5v16.5q0 19 -5 36.5t-15 31t-24 21.5t-32 8q-32 0 -49.5 -23t-17.5 -52q0 -36 18.5 -56.5t52.5 -20.5q20 0 40 7zM117 337l119 297h-171v31h206v-28l-120 -300h-34z" />
    <glyph glyph-name="eightninths" unicode="&#xf511;" horiz-adv-x="710" 
d="M58 2l-25 27l605 641l24 -22zM458 25q46 14 82.5 40.5t59.5 85.5q-12 -9 -30 -14.5t-43 -5.5q-45 0 -72.5 28.5t-27.5 76.5q0 21 7 40.5t20.5 33.5t31.5 22.5t41 8.5q51 0 79.5 -37t28.5 -95q0 -42 -13 -77t-35.5 -61.5t-53.5 -44.5t-67 -27zM571 167q21 7 31 17
q1 6 1 14.5v16.5q0 19 -5 36.5t-15 31t-24 21.5t-32 8q-32 0 -49.5 -23t-17.5 -52q0 -36 18.5 -56.5t52.5 -20.5q20 0 40 7zM56 480q21 21 52 28q-26 7 -46.5 25.5t-20.5 53.5q0 38 25.5 62t73.5 24t73.5 -24t25.5 -62q0 -35 -20.5 -53.5t-46.5 -25.5q31 -7 52 -27t21 -57
q0 -43 -29.5 -67.5t-75.5 -24.5t-75.5 24.5t-29.5 67.5q0 36 21 56zM75 588q0 -28 18.5 -45t46.5 -17t46.5 17t18.5 45t-18.5 43t-46.5 15t-46.5 -15t-18.5 -43zM68 425q0 -32 20.5 -48.5t51.5 -16.5t51.5 16.5t20.5 48.5q0 30 -20.5 48.5t-51.5 18.5t-51.5 -18.5
t-20.5 -48.5z" />
    <glyph glyph-name="a.smcp" unicode="&#xf605;" horiz-adv-x="495" 
d="M15 0l214 522h35l216 -522h-40l-71 169h-244l-70 -169h-40zM139 204h216l-109 273z" />
    <glyph glyph-name="b.smcp" unicode="&#xf606;" horiz-adv-x="462" 
d="M75 0v522h154q78 0 121 -30.5t43 -100.5q0 -45 -26.5 -74t-84.5 -40q72 -3 106 -38t34 -94q0 -69 -45 -107t-118 -38h-184zM112 291h105q68 0 103.5 27t35.5 76q0 54 -34.5 76t-97.5 22h-112v-201zM112 32h140q66 0 99 31t33 83q0 32 -12 53.5t-33.5 35t-52 19.5t-66.5 6
h-108v-228z" />
    <glyph glyph-name="c.smcp" unicode="&#xf607;" horiz-adv-x="494" 
d="M464 91q-28 -48 -72 -74.5t-113 -26.5q-58 0 -101 21t-71.5 58t-42.5 85.5t-14 104.5q0 62 16.5 112.5t45.5 86t70 55t91 19.5q76 0 119 -29.5t67 -75.5l-32 -15q-20 38 -55.5 63.5t-95.5 25.5q-38 0 -72 -15t-59.5 -45.5t-40.5 -76t-15 -106.5q0 -51 13 -94.5t38 -75
t61.5 -49.5t82.5 -18q57 0 93 24.5t57 60.5z" />
    <glyph glyph-name="d.smcp" unicode="&#xf608;" horiz-adv-x="528" 
d="M75 0v522h139q130 0 202 -65.5t72 -188.5q0 -131 -70 -199.5t-204 -68.5h-139zM112 32h91q118 0 183.5 56.5t65.5 176.5q0 112 -65 169t-181 57h-94v-459z" />
    <glyph glyph-name="e.smcp" unicode="&#xf609;" horiz-adv-x="427" 
d="M75 0v522h317v-31h-280v-195h203v-32h-204v-232h296v-32h-332z" />
    <glyph glyph-name="f.smcp" unicode="&#xf60a;" horiz-adv-x="405" 
d="M75 0v522h315v-31h-278v-203h203v-32h-204v-256h-36z" />
    <glyph glyph-name="g.smcp" unicode="&#xf60b;" horiz-adv-x="520" 
d="M470 18q-32 -12 -77 -20t-97 -8q-59 0 -104.5 19t-77 54t-48 84.5t-16.5 111.5q0 61 17.5 111t49 86t75 56t94.5 20q40 0 69.5 -8t51.5 -21.5t37 -31t26 -35.5l-31 -17q-17 31 -54.5 56.5t-98.5 25.5q-39 0 -75 -15.5t-63 -46.5t-43 -76t-16 -105q0 -53 15 -97
t42.5 -75.5t66 -49t85.5 -17.5q38 0 76 8t60 16v174h-116v31h152v-230z" />
    <glyph glyph-name="h.smcp" unicode="&#xf60c;" horiz-adv-x="550" 
d="M75 0v522h37v-234h326v234h37v-522h-37v256h-326v-256h-37z" />
    <glyph glyph-name="i.smcp" unicode="&#xf60d;" horiz-adv-x="187" 
d="M75 0v522h37v-522h-37z" />
    <glyph glyph-name="j.smcp" unicode="&#xf60e;" horiz-adv-x="187" 
d="M-32 -71q21 4 40 13.5t34 24t24 34.5t9 46v475h37v-474q0 -34 -11.5 -59.5t-30.5 -43.5t-43.5 -29.5t-49.5 -16.5z" />
    <glyph glyph-name="k.smcp" unicode="&#xf60f;" horiz-adv-x="469" 
d="M75 0v522h37v-262l287 262h45l-221 -205l241 -317h-43l-225 293l-84 -74v-219h-37z" />
    <glyph glyph-name="l.smcp" unicode="&#xf610;" horiz-adv-x="417" 
d="M75 0v522h37v-490h285v-32h-322z" />
    <glyph glyph-name="m.smcp" unicode="&#xf611;" horiz-adv-x="628" 
d="M75 0v522h51l193 -458l185 458h49v-522h-37v465l-191 -473h-12l-202 471v-463h-36z" />
    <glyph glyph-name="n.smcp" unicode="&#xf612;" horiz-adv-x="567" 
d="M75 0v522h43l337 -463v463h37v-522h-37l-344 469v-469h-36z" />
    <glyph glyph-name="o.smcp" unicode="&#xf613;" horiz-adv-x="562" 
d="M179 12q-43 23 -71.5 60.5t-43 86.5t-14.5 102q0 55 15.5 104t45 86t72.5 59t98 22q58 0 101.5 -23t72.5 -61t43 -87t14 -100t-14 -99.5t-43 -87t-72.5 -61.5t-101.5 -23t-102 22zM136 97q24 -34 60 -55.5t85 -21.5t85.5 22t60.5 56.5t35.5 77.5t11.5 85t-11.5 85
t-35 77.5t-60 56t-86.5 21.5q-51 0 -87.5 -21.5t-60 -56t-34.5 -77t-11 -85.5t12 -86t36 -78z" />
    <glyph glyph-name="p.smcp" unicode="&#xf614;" horiz-adv-x="476" 
d="M75 0v522h183q81 0 127 -38t46 -111q0 -37 -13.5 -64.5t-36.5 -46t-54 -27.5t-66 -9h-149v-226h-37zM112 257h146q66 0 101 32t35 82q0 55 -32.5 88t-104.5 33h-145v-235z" />
    <glyph glyph-name="q.smcp" unicode="&#xf615;" horiz-adv-x="562" 
d="M433 -104q-27 1 -53.5 6.5t-49.5 16t-41 28.5t-28 45q-54 4 -93.5 27.5t-66 61t-39 84.5t-12.5 97q0 54 15.5 103t44.5 86t72 59t99 22q58 0 101.5 -23t72.5 -60.5t43 -86.5t14 -100q0 -48 -12.5 -94.5t-38.5 -84t-65.5 -62t-93.5 -29.5q12 -34 49.5 -48t84.5 -16z
M136 97q24 -34 60.5 -55.5t84.5 -21.5q49 0 85.5 22t60.5 56.5t35.5 78t11.5 85.5t-11.5 84.5t-35 77t-60 56t-86.5 21.5t-86.5 -21.5t-60 -55.5t-35 -77t-11.5 -85q0 -43 12 -86.5t36 -78.5z" />
    <glyph glyph-name="r.smcp" unicode="&#xf616;" horiz-adv-x="477" 
d="M75 0v522h182q81 0 126 -36t45 -106q0 -67 -41.5 -99.5t-117.5 -37.5l163 -243h-40l-166 243h-114v-243h-37zM112 273h139q69 0 105.5 25t36.5 82q0 111 -142 111h-139v-218z" />
    <glyph glyph-name="s.smcp" unicode="&#xf617;" horiz-adv-x="454" 
d="M67 98q26 -38 64 -58t89 -20q65 0 105 27.5t40 82.5q0 29 -12 50t-33 37.5t-50.5 29t-65.5 23.5q-23 8 -49.5 19t-49.5 27.5t-38.5 39t-15.5 53.5q0 30 13 53t36.5 38.5t55 23.5t69.5 8q36 0 63.5 -6.5t48.5 -17.5t36.5 -25t28.5 -29l-30 -20q-24 29 -58 48.5t-90 19.5
q-27 0 -51.5 -5.5t-42.5 -16.5t-28.5 -28.5t-10.5 -41.5q0 -23 13 -40t32.5 -29t41.5 -21t40 -15q36 -13 69.5 -27.5t59.5 -34.5t41.5 -47t15.5 -66q0 -66 -50 -103t-135 -37q-125 0 -184 89z" />
    <glyph glyph-name="t.smcp" unicode="&#xf618;" horiz-adv-x="422" 
d="M191 0v490h-176v32h392v-32h-178v-490h-38z" />
    <glyph glyph-name="u.smcp" unicode="&#xf619;" horiz-adv-x="538" 
d="M102 186q0 -73 41.5 -118.5t125.5 -45.5q83 0 125.5 45.5t42.5 118.5v336h36v-348h-1q0 -89 -55 -136.5t-148 -47.5q-46 0 -83.5 12t-64.5 35.5t-41.5 58t-14.5 78.5v348h37v-336z" />
    <glyph glyph-name="v.smcp" unicode="&#xf61a;" horiz-adv-x="468" 
d="M222 0l-217 522h39l192 -462l190 462h37l-217 -522h-24z" />
    <glyph glyph-name="w.smcp" unicode="&#xf61b;" horiz-adv-x="640" 
d="M152 0l-147 522h36l128 -453l138 453h26l140 -455l127 455h35l-146 -522h-29l-140 449l-143 -449h-25z" />
    <glyph glyph-name="x.smcp" unicode="&#xf61c;" horiz-adv-x="404" 
d="M5 0l178 267l-163 255h40l143 -224l141 224h40l-163 -253l178 -269h-40l-157 239l-158 -239h-39z" />
    <glyph glyph-name="y.smcp" unicode="&#xf61d;" horiz-adv-x="440" 
d="M200 0v252l-195 270h42l171 -239l177 239h40l-200 -269v-253h-35z" />
    <glyph glyph-name="z.smcp" unicode="&#xf61e;" horiz-adv-x="468" 
d="M35 0v33l344 456h-329v33h370v-32l-344 -457h357v-33h-398z" />
    <glyph glyph-name="ae.smcp" unicode="&#xf61f;" horiz-adv-x="651" 
d="M15 0l311 522h288v-31h-236v-195h163v-32h-163v-232h253v-32h-289v179h-180l-105 -179h-42zM179 210h163v273z" />
    <glyph glyph-name="eng.smcp" unicode="&#xf620;" horiz-adv-x="567" 
d="M75 0v522h43l337 -463v463h37v-522q0 -72 -25 -118t-79 -78l-17 29q47 28 65.5 69t18.5 98l-344 469v-469h-36z" />
    <glyph glyph-name="oe.smcp" unicode="&#xf621;" horiz-adv-x="722" 
d="M344 0q-141 0 -217.5 71.5t-76.5 197.5q0 123 73 188t214 65h350v-31h-270v-195h193v-32h-194v-232h286v-32h-358zM380 32v459h-63q-58 0 -101 -16t-71.5 -46t-43 -71.5t-14.5 -92.5t17.5 -94t48.5 -74t73.5 -48t93.5 -17h60z" />
    <glyph glyph-name="eth.smcp" unicode="&#xf622;" horiz-adv-x="538" 
d="M75 0v251h-60v32h60v239h139q130 0 202 -65.5t72 -188.5q0 -131 -70 -199.5t-204 -68.5h-139zM112 32h91q118 0 183.5 56.5t65.5 176.5q0 112 -65 169t-181 57h-94v-208h159v-32h-159v-219z" />
    <glyph glyph-name="hbar.smcp" unicode="&#xf623;" horiz-adv-x="550" 
d="M75 0v401h-59v32h59v89h37v-89h326v89h37v-89h64v-32h-64v-401h-37v256h-326v-256h-37zM112 288h326v113h-326v-113z" />
    <glyph glyph-name="ij.smcp" unicode="&#xf624;" horiz-adv-x="368" 
d="M75 0v522h37v-522h-37zM149 -71q21 4 40 13.5t34 24t24 34.5t9 46v475h37v-474q0 -34 -11.5 -59.5t-30.5 -43.5t-43.5 -29.5t-49.5 -16.5z" />
    <glyph glyph-name="idotaccent.smcp" unicode="&#xf625;" horiz-adv-x="187" 
d="M75 0v522h37v-522h-37zM94 594q-14 0 -22.5 12t-8.5 28t8.5 28t22.5 12t22 -12.5t8 -27.5t-8 -27.5t-22 -12.5z" />
    <glyph glyph-name="dotlessi.smcp" unicode="&#xf626;" horiz-adv-x="187" 
d="M75 0v522h37v-522h-37z" />
    <glyph glyph-name="oslash.smcp" unicode="&#xf627;" horiz-adv-x="562" 
d="M51 3l57 68q-29 38 -43.5 87t-14.5 103q0 55 15.5 104t45 86t72.5 59t98 22q51 0 89.5 -17.5t67.5 -47.5l54 66l26 -23l-58 -69q26 -38 39 -84.5t13 -95.5q0 -51 -14 -99.5t-43 -87t-72.5 -61.5t-101.5 -23q-48 0 -86 15.5t-66 42.5l-54 -66zM415 440q-23 27 -56.5 44
t-77.5 17q-51 0 -87.5 -21.5t-60 -56t-34.5 -77t-11 -85.5q0 -42 11 -83.5t34 -76.5zM152 77q23 -26 55 -41.5t74 -15.5q49 0 85.5 22t60.5 56.5t35.5 77.5t11.5 85q0 40 -10 80t-31 73v-2z" />
    <glyph glyph-name="thorn.smcp" unicode="&#xf628;" horiz-adv-x="453" 
d="M74 0v522h35v-96h140q76 0 122.5 -38.5t46.5 -113.5q0 -37 -13.5 -65t-36.5 -47t-53 -28.5t-63 -9.5h-143v-124h-35zM109 156h142q61 0 95 34t34 83q0 52 -31.5 86.5t-99.5 34.5h-140v-238z" />
    <glyph glyph-name="tbar.smcp" unicode="&#xf629;" horiz-adv-x="422" 
d="M191 0v256h-129v32h129v202h-176v32h392v-32h-178v-202h135v-32h-135v-256h-38z" />
    <glyph glyph-name="kgreenlandic.smcp" unicode="&#xf62a;" horiz-adv-x="469" 
d="M75 0v522h37v-262l287 262h45l-221 -205l241 -317h-43l-225 293l-84 -74v-219h-37z" />
    <glyph glyph-name="lslash.smcp" unicode="&#xf62b;" horiz-adv-x="417" 
d="M75 0v239l-64 -41l-15 27l79 49v248h37v-225l98 62l17 -27l-115 -70v-230h285v-32h-322z" />
    <glyph glyph-name="ampersand.smcp" unicode="&#xf62c;" horiz-adv-x="503" 
d="M423 0l-81 105q-28 -51 -67 -82.5t-93 -31.5q-35 0 -62.5 12t-46.5 32.5t-29 46.5t-10 53q0 51 32 96.5t105 79.5q-8 12 -13 20t-13 19q-11 16 -20.5 35t-9.5 39q0 44 33.5 69t79.5 25q45 0 77.5 -23.5t32.5 -68.5q0 -38 -33.5 -69.5t-81.5 -54.5l113 -143q3 7 6 13l6 12
t6.5 12.5t8.5 16.5q17 31 39 61.5t47 51.5l17 -23q-23 -22 -45 -54t-38 -64q-5 -9 -11 -21.5t-13 -28.5l101 -135h-37zM190 289q-58 -29 -89.5 -65t-31.5 -89q0 -21 8.5 -41.5t23.5 -36t36 -25.5t47 -10q44 0 76.5 28.5t60.5 76.5zM204 325q39 17 68 43t29 58t-22 47t-52 15
t-52.5 -15t-22.5 -45q0 -17 9.5 -34.5t18.5 -31.5z" />
    <glyph glyph-name="f_i.smcp" unicode="&#xf62d;" horiz-adv-x="545" 
d="M80 0v522h315v-31h-278v-203h203v-32h-204v-256h-36zM441 0v522h37v-522h-37z" />
    <glyph glyph-name="f_l.smcp" unicode="&#xf62e;" horiz-adv-x="798" 
d="M80 0v522h315v-31h-278v-203h203v-32h-204v-256h-36zM441 0v522h37v-490h285v-32h-322z" />
    <glyph glyph-name="f_f.smcp" unicode="&#xf62f;" horiz-adv-x="738" 
d="M418 0v522h315v-31h-278v-203h203v-32h-204v-256h-36zM75 0v522h315v-31h-278v-203h203v-32h-204v-256h-36z" />
    <glyph glyph-name="f_f_i.smcp" unicode="&#xf630;" horiz-adv-x="863" 
d="M418 0v522h315v-31h-278v-203h203v-32h-204v-256h-36zM75 0v522h315v-31h-278v-203h203v-32h-204v-256h-36zM761 0v522h37v-522h-37z" />
    </font>
</defs>
</svg>
